<svg height="856" version="1.1" viewBox="-509 -751 917 856" width="917" xmlns="http://www.w3.org/2000/svg" xmlns:ev="http://www.w3.org/2001/xml-events" xmlns:xlink="http://www.w3.org/1999/xlink"><path d="M 1,3 -2,-5 1,3 -7,-21 -9,-46 -9,-71 -6,-96 -1,-120 7,-144 19,-166 37,-183 59,-196 82,-206 106,-212 131,-216 156,-217 180,-215 205,-212 230,-210 255,-207 280,-207 302,-211 320,-225 336,-243 353,-262 362,-266 372,-258 381,-235 387,-210 391,-185 391,-160 385,-136 375,-115 358,-96 340,-82 318,-74 293,-72 290,-47 286,-26 274,-7 256,6 232,14 220,17 215,35 203,54 190,63 166,67 142,65 120,63 100,77 79,85 62,83 39,73 22,56 10,35 2,11 1,3 3,11 1,3 1,6 1,3" fill="none" stroke="#0093dd" stroke-width="3" /><path d="M -104,2 -104,-1 -106,7 -98,-17 -94,-42 -95,-67 -96,-92 -101,-116 -108,-140 -120,-162 -137,-181 -158,-195 -181,-204 -205,-211 -229,-216 -255,-217 -279,-217 -305,-214 -330,-213 -355,-211 -379,-212 -400,-217 -419,-231 -435,-250 -450,-270 -461,-273 -470,-263 -480,-240 -487,-216 -490,-191 -491,-166 -486,-141 -475,-120 -459,-101 -442,-87 -418,-80 -396,-76 -395,-51 -390,-27 -378,-10 -359,3 -336,11 -325,15 -322,32 -310,52 -297,61 -274,66 -249,64 -228,62 -209,78 -189,85 -171,86 -149,76 -130,60 -116,38 -108,14 -106,7 -108,14 -106,7 -107,10 -106,4" fill="none" stroke="#da1b1d" stroke-width="3" /><path d="M 0,0 1,3 -2,-5 1,3 -7,-21 -9,-46 -9,-71 -6,-96 -1,-120 7,-144 19,-166 37,-183 59,-196 82,-206 106,-212 131,-216 156,-217 180,-215 205,-212 230,-210 255,-207 280,-207 302,-211 320,-225 336,-243 353,-262 362,-266 372,-258 381,-235 387,-210 391,-185 391,-160 385,-136 375,-115 358,-96 340,-82 318,-74 293,-72 290,-47 286,-26 274,-7 256,6 232,14 220,17 215,35 203,54 190,63 166,67 142,65 120,63 100,77 79,85 62,83 39,73 22,56 10,35 2,11 1,3 3,11 1,3 1,6 1,3" fill="none" stroke="#00923f" stroke-width="3" /><path d="M -104,2 -104,-1 -106,7 -98,-17 -94,-42 -95,-67 -96,-92 -101,-116 -108,-140 -120,-162 -137,-181 -158,-195 -181,-204 -205,-211 -229,-216 -255,-217 -279,-217 -305,-214 -330,-213 -355,-211 -379,-212 -400,-217 -419,-231 -435,-250 -450,-270 -461,-273 -470,-263 -480,-240 -487,-216 -490,-191 -491,-166 -486,-141 -475,-120 -459,-101 -442,-87 -418,-80 -396,-76 -395,-51 -390,-27 -378,-10 -359,3 -336,11 -325,15 -322,32 -310,52 -297,61 -274,66 -249,64 -228,62 -209,78 -189,85 -171,86 -149,76 -130,60 -116,38 -108,14 -106,7 -108,14 -106,7 -107,10 -106,4" fill="none" stroke="#b7673c" stroke-width="3" /><path d="M -18,8 -2,4 15,-1 -18,8 16,2 -17,12 16,6 -17,16 17,9 -16,20 18,12 -15,24 19,15 -13,28 20,18 -12,32 22,22 -11,35 23,25 -9,39 25,28 -7,43 26,30 -5,46 28,33 -3,50 30,36 -1,53 32,39 1,57 33,41 3,60 35,43 6,63 36,44 8,66 38,46 10,69 39,48 13,72 41,50 16,75 42,52 18,78 44,54 21,80 46,56 24,83 47,57 27,86 49,59 30,88 51,60 33,90 53,62 37,92 55,63 40,94 57,64 44,96 59,65 47,97 62,66 51,99 64,67 55,100 66,67 59,100 69,67 62,101 71,67 66,101 73,67 70,102 75,67 74,102 77,67 78,101 79,67 82,101 81,66 86,100 83,66 90,100 85,65 94,98 87,64 97,97 89,63 101,96 91,62 105,94 93,61 108,93 96,58 111,91 99,56 113,90 103,53 116,88 106,51 118,86 109,48 121,84 113,45 123,82 116,44 126,81 120,42 128,80 124,43 130,81 128,44 132,81 132,45 135,81 136,46 137,82 140,47 139,82 144,47 141,82 147,48 144,83 150,49 147,83 152,49 151,84 155,50 155,84 157,50 159,85 160,50 163,85 163,51 167,85 165,51 171,85 168,51 175,85 171,51 179,84 173,51 183,84 176,50 187,83 178,49 190,82 181,49 194,80 183,48 198,79 185,46 201,77 187,45 204,75 189,43 208,73 191,41 211,70 193,39 214,68 195,37 217,65 196,34 219,62 198,32 222,59 199,29 224,56 200,26 227,53 201,24 229,49 202,19 230,46 202,15 232,42 202,9 234,38 201,3 235,34 206,0 238,32 211,0 241,31 217,-1 245,30 222,-1 249,28 227,-2 253,27 231,-2 257,25 235,-3 261,24 239,-4 265,22 243,-6 268,20 247,-7 272,17 250,-9 275,15 254,-11 279,13 256,-13 282,10 259,-16 285,7 262,-18 287,5 264,-21 290,2 265,-24 292,-1 267,-27 295,-5 268,-31 297,-8 269,-34 299,-11 270,-38 301,-15 271,-42 302,-18 271,-45 304,-22 272,-49 305,-26 273,-53 306,-30 273,-57 307,-34 274,-61 307,-38 274,-65 307,-40 275,-69 307,-43 276,-74 308,-46 277,-78 308,-49 278,-83 309,-52 278,-88 309,-54 283,-88 312,-55 288,-88 315,-55 293,-88 318,-56 297,-89 321,-56 301,-89 323,-57 306,-90 326,-58 310,-91 329,-59 314,-91 331,-59 318,-92 334,-60 321,-93 336,-61 325,-94 339,-62 328,-95 342,-64 331,-96 345,-65 333,-98 349,-67 335,-99 352,-69 338,-100 356,-71 340,-102 359,-73 342,-103 362,-75 344,-105 365,-78 346,-107 368,-80 348,-109 371,-83 350,-111 374,-85 352,-113 377,-88 354,-115 380,-91 355,-117 382,-94 357,-119 385,-97 359,-121 387,-100 360,-124 389,-103 361,-126 391,-107 363,-128 393,-110 364,-131 395,-114 365,-133 397,-117 366,-135 398,-121 368,-138 400,-124 369,-140 401,-128 369,-143 402,-132 370,-146 403,-136 370,-148 404,-139 371,-151 405,-143 371,-154 406,-147 372,-157 406,-151 372,-160 407,-155 373,-163 407,-159 373,-166 407,-163 373,-169 407,-167 373,-171 408,-171 373,-174 408,-175 373,-177 408,-179 373,-181 408,-183 373,-184 408,-187 373,-188 407,-190 372,-191 407,-194 372,-195 407,-198 372,-198 406,-202 371,-201 406,-206 371,-204 405,-210 370,-206 405,-214 370,-209 404,-218 369,-212 403,-222 368,-215 402,-225 367,-217 401,-229 367,-220 400,-233 366,-222 399,-237 373,-227 397,-240 365,-225 396,-244 370,-230 395,-248 365,-228 394,-252 371,-235 392,-256 364,-231 390,-260 368,-238 388,-263 363,-234 386,-267 368,-244 384,-271 362,-237 381,-274 366,-247 378,-276 363,-245 375,-278 360,-240 372,-280 361,-248 369,-282 359,-243 365,-283 362,-263 359,-243 365,-283 359,-242 362,-283 358,-249 358,-282 356,-239 354,-281 354,-244 350,-279 353,-236 347,-277 350,-245 343,-275 351,-234 340,-273 347,-240 337,-270 348,-230 333,-268 345,-227 330,-265 343,-225 328,-261 341,-222 325,-258 339,-220 322,-254 336,-217 320,-250 334,-214 317,-247 332,-212 315,-243 330,-210 312,-240 328,-208 309,-237 325,-206 306,-234 323,-204 303,-232 320,-202 300,-230 317,-200 298,-229 313,-198 300,-221 310,-197 294,-228 306,-195 294,-222 302,-194 291,-227 299,-193 289,-226 295,-192 288,-217 291,-191 285,-225 287,-190 283,-224 283,-189 279,-224 279,-189 276,-224 276,-189 273,-224 272,-189 269,-224 268,-189 266,-224 264,-189 263,-224 260,-189 260,-224 256,-189 256,-224 252,-190 253,-225 248,-190 250,-225 244,-191 246,-225 240,-191 242,-226 236,-191 239,-226 232,-192 235,-226 229,-192 231,-227 225,-192 228,-227 221,-193 224,-228 217,-193 220,-228 213,-194 216,-228 209,-194 213,-229 205,-194 209,-229 201,-195 205,-230 197,-195 201,-230 194,-196 198,-231 190,-196 194,-231 186,-197 190,-231 182,-197 186,-232 178,-198 182,-232 175,-198 178,-233 171,-198 174,-233 167,-199 170,-233 164,-199 166,-233 160,-199 162,-234 157,-200 158,-234 153,-200 154,-234 150,-200 150,-234 147,-199 147,-234 144,-199 143,-234 141,-199 139,-234 138,-199 135,-234 134,-198 131,-234 131,-198 127,-234 127,-198 123,-233 124,-197 119,-233 120,-197 115,-232 117,-196 111,-231 114,-196 108,-230 110,-195 104,-229 107,-194 100,-228 103,-193 96,-227 100,-193 92,-226 97,-192 89,-225 94,-191 85,-224 91,-190 81,-223 88,-189 77,-222 85,-188 74,-221 82,-187 70,-219 79,-186 66,-218 76,-185 62,-217 73,-184 59,-215 70,-183 55,-214 67,-181 51,-212 65,-180 48,-211 62,-179 44,-209 59,-177 41,-207 56,-176 38,-205 54,-174 34,-203 51,-172 31,-201 49,-170 28,-198 47,-168 25,-196 45,-167 22,-194 43,-165 19,-191 41,-163 16,-188 39,-161 13,-185 37,-159 11,-182 35,-157 8,-180 33,-155 6,-177 32,-153 3,-173 30,-151 1,-170 29,-149 -1,-167 27,-146 -3,-164 26,-144 -5,-160 25,-141 -7,-157 23,-138 -9,-153 22,-135 -10,-150 21,-132 -12,-146 20,-129 -13,-142 19,-126 -15,-139 18,-123 -16,-135 17,-120 -17,-131 16,-117 -18,-127 16,-114 -18,-123 15,-110 -19,-120 15,-107 -20,-116 14,-104 -21,-112 13,-101 -21,-108 13,-98 -22,-104 12,-94 -22,-100 12,-91 -23,-96 11,-88 -23,-92 10,-84 -24,-88 10,-80 -24,-85 9,-77 -25,-81 9,-73 -25,-77 8,-70 -25,-73 8,-67 -26,-69 8,-63 -26,-65 7,-60 -26,-61 7,-57 -26,-57 7,-53 -27,-53 7,-50 -27,-49 8,-47 -27,-45 8,-43 -26,-41 8,-40 -26,-38 8,-37 -26,-34 9,-33 -26,-30 9,-30 -25,-26 10,-27 -25,-22 10,-23 -24,-18 11,-20 -23,-15 12,-17 -23,-11 12,-14 -22,-7 13,-11 -21,-3 14,-7 -20,1 15,-4 -19,4 16,-1 -18,8 34,-14 39,-11 34,-14 36,-20 36,-44 41,-68 50,-90 65,-110 84,-125 107,-133 131,-138 155,-139 179,-138 204,-135 228,-134 252,-138 275,-146 296,-160 314,-176 328,-190 327,-198 335,-186 323,-197 333,-182 318,-196 332,-179 315,-193 329,-176 313,-190 326,-173 310,-188 324,-171 308,-185 321,-168 305,-183 318,-165 303,-180 315,-162 300,-178 312,-160 298,-176 309,-157 295,-174 306,-154 293,-171 303,-152 290,-169 300,-149 287,-167 297,-147 284,-166 294,-144 281,-164 291,-142 278,-162 287,-140 275,-160 284,-138 272,-159 280,-136 269,-157 277,-134 266,-156 273,-132 263,-155 270,-131 260,-154 266,-129 257,-153 262,-128 254,-152 258,-127 251,-151 254,-126 248,-150 251,-125 245,-150 247,-124 242,-149 243,-123 239,-149 239,-123 235,-148 235,-122 232,-147 231,-121 228,-147 227,-121 224,-147 223,-121 220,-147 219,-121 217,-147 215,-121 213,-148 211,-121 209,-148 208,-121 205,-149 204,-121 202,-149 200,-122 198,-150 196,-122 194,-150 192,-122 191,-151 188,-123 187,-151 184,-123 183,-152 180,-123 179,-152 176,-124 176,-153 172,-124 172,-153 168,-124 168,-154 164,-125 164,-154 161,-125 161,-154 157,-125 157,-154 153,-125 153,-154 150,-125 149,-154 146,-125 145,-154 143,-125 141,-153 140,-124 137,-153 136,-124 133,-153 133,-124 129,-152 130,-123 125,-152 126,-123 121,-151 123,-123 117,-150 120,-122 114,-149 117,-121 110,-148 114,-121 106,-147 111,-120 102,-146 108,-119 98,-145 105,-118 95,-144 102,-118 91,-143 99,-117 87,-141 96,-115 84,-140 93,-114 80,-138 90,-113 77,-136 87,-112 74,-134 85,-110 70,-131 82,-108 67,-129 80,-107 64,-126 77,-105 61,-124 75,-103 58,-121 73,-100 56,-118 71,-98 53,-115 69,-96 50,-112 67,-93 48,-109 65,-91 46,-105 63,-88 44,-102 61,-86 42,-98 60,-83 40,-95 58,-80 38,-91 57,-78 36,-88 56,-75 35,-84 54,-72 33,-80 53,-69 32,-77 52,-66 31,-73 51,-63 29,-69 50,-60 28,-66 49,-57 27,-62 48,-54 26,-58 48,-51 26,-54 47,-48 25,-51 47,-45 25,-47 46,-42 25,-43 46,-39 25,-39 46,-36 25,-35 46,-33 25,-32 46,-29 26,-28 46,-26 26,-24 46,-22 26,-20 45,-19 31,-18 44,-16 33,-16 42,-13 34,-14 -88,13 -105,8 -122,2 -88,13 -121,-1 -87,9 -121,-4 -86,6 -120,-8 -85,2 -119,-11 -85,-2 -118,-14 -84,-6 -118,-17 -83,-9 -117,-21 -82,-13 -117,-24 -82,-17 -116,-27 -81,-21 -116,-30 -81,-24 -115,-34 -80,-28 -115,-37 -80,-32 -115,-40 -79,-36 -114,-44 -79,-40 -114,-47 -79,-44 -114,-50 -79,-48 -114,-54 -78,-52 -114,-57 -78,-56 -114,-61 -78,-60 -114,-64 -78,-64 -114,-67 -78,-67 -114,-71 -78,-71 -114,-74 -79,-75 -114,-77 -79,-79 -114,-81 -79,-83 -114,-84 -79,-87 -114,-87 -79,-91 -115,-90 -80,-95 -115,-94 -80,-99 -115,-97 -81,-103 -115,-100 -81,-107 -116,-103 -82,-110 -116,-107 -82,-114 -117,-110 -83,-118 -117,-113 -84,-122 -118,-116 -84,-126 -119,-119 -86,-130 -120,-122 -87,-134 -121,-126 -88,-137 -122,-129 -89,-141 -123,-132 -90,-145 -124,-135 -92,-148 -126,-137 -94,-152 -127,-140 -96,-155 -128,-142 -98,-159 -130,-145 -100,-162 -131,-147 -102,-165 -133,-149 -104,-169 -135,-152 -106,-172 -136,-154 -109,-175 -138,-156 -111,-178 -140,-158 -114,-181 -142,-160 -116,-184 -144,-162 -119,-187 -146,-164 -122,-189 -148,-166 -124,-192 -150,-168 -127,-195 -152,-169 -130,-197 -154,-171 -134,-200 -156,-173 -137,-202 -159,-175 -140,-204 -162,-177 -143,-206 -164,-178 -147,-208 -167,-180 -150,-210 -170,-181 -154,-212 -173,-183 -157,-214 -176,-184 -161,-215 -179,-185 -164,-217 -182,-186 -168,-218 -185,-187 -172,-219 -188,-188 -176,-221 -191,-189 -179,-222 -195,-190 -183,-223 -198,-191 -187,-224 -201,-192 -191,-225 -204,-193 -194,-226 -207,-194 -198,-227 -211,-194 -202,-228 -214,-195 -206,-229 -218,-196 -210,-230 -221,-196 -214,-231 -225,-197 -217,-231 -229,-197 -221,-232 -232,-198 -225,-233 -236,-198 -229,-233 -240,-198 -233,-233 -243,-199 -237,-234 -247,-199 -241,-234 -251,-199 -245,-234 -255,-199 -249,-234 -258,-199 -253,-234 -262,-199 -257,-234 -266,-199 -261,-234 -269,-198 -265,-234 -273,-198 -269,-234 -277,-198 -273,-234 -281,-198 -277,-233 -284,-198 -281,-233 -288,-197 -285,-233 -292,-197 -289,-233 -296,-197 -293,-232 -299,-196 -297,-232 -303,-196 -301,-232 -307,-196 -305,-231 -310,-196 -309,-231 -314,-195 -313,-231 -318,-195 -317,-231 -321,-195 -321,-230 -325,-194 -325,-230 -329,-194 -329,-230 -332,-194 -333,-229 -336,-194 -336,-229 -340,-194 -340,-229 -343,-194 -344,-229 -347,-194 -348,-229 -351,-194 -352,-229 -355,-194 -355,-229 -359,-194 -358,-228 -363,-194 -361,-228 -366,-194 -364,-228 -370,-194 -366,-229 -374,-194 -369,-229 -378,-194 -372,-229 -382,-195 -374,-229 -386,-195 -377,-229 -390,-196 -380,-230 -394,-197 -383,-230 -398,-198 -385,-231 -401,-199 -388,-231 -405,-200 -390,-232 -409,-202 -393,-233 -412,-203 -395,-234 -415,-205 -399,-236 -418,-207 -402,-239 -420,-209 -405,-241 -423,-211 -408,-244 -425,-213 -411,-248 -428,-215 -413,-252 -431,-218 -416,-255 -433,-220 -419,-259 -435,-223 -422,-263 -438,-226 -424,-267 -440,-229 -427,-271 -443,-232 -430,-275 -445,-235 -433,-278 -444,-248 -437,-281 -448,-239 -440,-283 -448,-248 -444,-285 -451,-243 -447,-287 -452,-253 -451,-288 -454,-246 -455,-290 -456,-255 -459,-290 -457,-251 -463,-291 -460,-271 -457,-251 -463,-291 -458,-250 -463,-291 -460,-256 -467,-289 -459,-247 -470,-287 -461,-251 -473,-284 -460,-244 -477,-281 -465,-251 -480,-279 -461,-241 -482,-276 -466,-247 -485,-273 -462,-239 -487,-269 -463,-236 -490,-266 -464,-234 -492,-262 -465,-232 -494,-259 -465,-230 -495,-255 -466,-228 -497,-251 -467,-226 -498,-247 -467,-223 -499,-243 -468,-221 -500,-239 -468,-219 -501,-235 -469,-217 -502,-231 -469,-215 -502,-227 -469,-213 -503,-223 -470,-211 -504,-219 -470,-209 -504,-216 -470,-206 -505,-212 -471,-203 -506,-208 -471,-200 -506,-204 -471,-197 -507,-200 -472,-194 -507,-196 -472,-191 -508,-192 -472,-188 -508,-188 -473,-185 -508,-184 -473,-182 -509,-180 -473,-179 -509,-177 -473,-176 -509,-173 -473,-173 -509,-169 -473,-170 -509,-165 -473,-167 -508,-161 -473,-163 -508,-157 -472,-160 -507,-153 -472,-157 -507,-149 -471,-154 -506,-145 -470,-151 -505,-142 -470,-149 -504,-138 -469,-146 -502,-134 -468,-143 -501,-130 -466,-141 -499,-127 -465,-138 -498,-123 -464,-136 -496,-120 -463,-134 -494,-116 -461,-131 -492,-113 -460,-129 -490,-110 -458,-127 -488,-106 -457,-125 -486,-103 -455,-122 -483,-100 -453,-120 -481,-97 -452,-118 -478,-94 -450,-116 -475,-91 -448,-114 -473,-88 -446,-113 -470,-86 -444,-111 -467,-83 -442,-109 -464,-81 -440,-107 -461,-78 -437,-106 -457,-76 -434,-104 -454,-74 -431,-102 -451,-73 -427,-100 -448,-71 -423,-99 -444,-69 -419,-97 -441,-68 -415,-96 -437,-67 -411,-95 -434,-65 -406,-94 -430,-64 -401,-94 -426,-63 -396,-93 -422,-62 -391,-94 -418,-61 -385,-94 -413,-61 -383,-90 -413,-58 -382,-86 -413,-55 -381,-82 -412,-52 -379,-78 -412,-49 -378,-73 -412,-47 -378,-69 -411,-44 -377,-65 -411,-41 -377,-60 -410,-38 -377,-55 -410,-36 -377,-51 -409,-33 -377,-47 -409,-30 -376,-43 -408,-27 -375,-40 -407,-23 -374,-38 -406,-20 -373,-35 -404,-16 -372,-32 -402,-13 -371,-30 -400,-9 -369,-28 -398,-6 -368,-25 -395,-3 -366,-23 -393,0 -364,-21 -390,3 -362,-19 -387,6 -359,-17 -384,8 -357,-15 -381,11 -354,-14 -378,13 -351,-12 -375,15 -348,-11 -372,17 -345,-10 -368,19 -343,-9 -364,21 -339,-7 -361,22 -335,-6 -358,23 -331,-5 -356,24 -326,-5 -353,24 -321,-4 -350,25 -316,-3 -347,26 -311,-2 -344,27 -308,0 -342,30 -308,5 -340,34 -308,10 -339,38 -308,15 -337,42 -307,19 -335,46 -307,23 -333,49 -305,26 -331,53 -303,29 -329,56 -301,32 -326,60 -299,36 -324,63 -298,39 -321,66 -296,42 -318,69 -300,49 -315,71 -293,43 -312,73 -294,49 -309,75 -294,52 -305,77 -289,46 -302,78 -286,46 -298,79 -283,46 -294,81 -281,46 -291,82 -278,47 -287,83 -276,47 -283,83 -273,47 -279,84 -271,47 -275,84 -268,47 -271,85 -265,48 -267,84 -263,48 -264,84 -260,48 -260,84 -256,47 -258,83 -252,47 -255,83 -248,46 -252,82 -245,46 -249,82 -241,45 -246,81 -237,44 -243,81 -233,44 -240,81 -228,43 -237,80 -224,42 -234,80 -221,45 -232,82 -218,48 -230,84 -215,50 -228,86 -212,53 -225,88 -208,56 -223,89 -205,59 -220,91 -202,61 -217,93 -199,63 -214,95 -197,64 -211,97 -195,65 -208,99 -193,66 -204,100 -191,66 -200,102 -189,67 -197,103 -187,68 -193,104 -185,68 -189,104 -183,68 -185,105 -181,69 -181,105 -179,69 -177,105 -177,76 -173,104 -175,69 -169,103 -173,74 -166,103 -172,68 -162,101 -170,68 -158,100 -167,67 -155,99 -165,66 -151,97 -163,65 -148,95 -161,64 -144,94 -159,63 -141,92 -157,61 -137,90 -155,60 -134,88 -153,58 -131,85 -151,56 -128,83 -149,54 -125,80 -147,53 -122,78 -146,51 -119,75 -144,49 -117,72 -142,46 -114,69 -140,44 -112,65 -139,42 -110,62 -137,39 -108,59 -136,37 -106,55 -135,34 -104,52 -133,32 -102,48 -132,29 -101,45 -130,26 -99,42 -129,23 -97,38 -128,21 -96,35 -127,18 -94,31 -126,15 -93,28 -125,12 -92,24 -124,9 -90,20 -123,6 -89,17 -122,3 -105,8 -88,13 -122,3 -141,-17 -149,-15 -153,-16 -146,-15 -152,-16 -146,-15 -156,-20 -141,-17 -158,-24 -138,-20 -147,-25 -146,-49 -151,-73 -161,-95 -176,-114 -195,-128 -217,-137 -241,-142 -265,-144 -289,-142 -313,-141 -337,-141 -360,-147 -382,-156 -403,-169 -420,-185 -434,-201 -433,-207 -440,-202 -428,-206 -440,-197 -424,-205 -439,-192 -421,-203 -437,-189 -419,-200 -434,-186 -416,-197 -432,-183 -414,-195 -429,-180 -411,-192 -427,-177 -409,-189 -424,-174 -406,-187 -421,-171 -404,-185 -419,-168 -401,-182 -416,-165 -399,-180 -413,-163 -396,-178 -410,-160 -394,-176 -407,-158 -391,-174 -404,-155 -388,-173 -400,-153 -385,-171 -397,-151 -382,-169 -394,-149 -380,-168 -391,-147 -377,-166 -387,-145 -374,-165 -384,-143 -371,-164 -380,-141 -368,-162 -377,-140 -365,-161 -373,-138 -362,-160 -369,-137 -358,-159 -366,-135 -355,-158 -362,-134 -352,-157 -358,-133 -349,-157 -354,-132 -346,-156 -351,-131 -342,-155 -347,-130 -339,-155 -343,-129 -335,-154 -339,-128 -332,-154 -335,-128 -328,-154 -331,-127 -324,-154 -327,-127 -321,-154 -324,-127 -317,-154 -320,-127 -314,-155 -316,-127 -310,-155 -312,-126 -306,-155 -308,-127 -303,-156 -304,-127 -299,-156 -300,-127 -295,-156 -296,-127 -292,-157 -292,-127 -288,-157 -288,-127 -285,-158 -284,-128 -281,-158 -280,-128 -277,-158 -276,-128 -274,-158 -273,-128 -270,-158 -269,-128 -266,-159 -265,-128 -262,-159 -262,-129 -258,-159 -258,-129 -254,-158 -255,-129 -250,-158 -252,-129 -246,-157 -248,-129 -242,-156 -245,-128 -238,-156 -242,-128 -235,-155 -239,-127 -231,-154 -236,-127 -227,-153 -232,-126 -223,-153 -229,-126 -219,-152 -226,-125 -215,-151 -223,-124 -211,-150 -220,-123 -208,-149 -217,-122 -204,-148 -214,-122 -200,-146 -211,-121 -197,-145 -208,-120 -193,-143 -205,-119 -190,-141 -202,-117 -187,-139 -200,-116 -183,-137 -197,-114 -180,-135 -194,-113 -177,-132 -192,-111 -174,-130 -190,-109 -171,-127 -187,-107 -168,-124 -185,-106 -165,-121 -183,-103 -163,-119 -181,-101 -160,-115 -179,-99 -158,-112 -177,-97 -156,-109 -175,-94 -154,-106 -173,-92 -152,-103 -172,-90 -150,-99 -170,-87 -148,-96 -168,-84 -146,-92 -167,-82 -145,-88 -166,-79 -143,-85 -164,-76 -142,-81 -163,-73 -141,-77 -162,-70 -140,-74 -161,-67 -139,-70 -160,-64 -138,-66 -159,-61 -138,-62 -158,-58 -137,-58 -157,-55 -137,-54 -157,-52 -136,-50 -157,-49 -136,-47 -156,-45 -136,-43 -156,-42 -136,-39 -157,-39 -135,-35 -157,-36 -135,-31 -158,-33 -135,-27 -159,-30 -136,-24 -159,-27 -138,-20" fill="none" stroke="#fdd9de" stroke-width="3" /><path d="M -281,-431 -282,-428 -281,-431 -285,-424 -281,-431 -286,-422 -300,-422 -325,-425 -350,-428 -374,-430 -399,-433 -424,-436 -449,-439 -459,-439 -462,-439 -459,-439 -462,-439 -459,-439 -434,-439 -409,-439 -384,-440 -359,-441 -334,-441 -309,-442 -287,-441 -279,-431 -276,-430 -290,-445 -298,-433 -305,-420 -312,-432 -318,-444 -326,-434 -333,-423 -340,-433 -346,-443 -361,-426 -374,-443 -388,-430 -402,-442 -416,-433 -430,-441 -444,-436 -458,-441 -464,-438 -458,-437 -444,-441 -430,-434 -416,-441 -402,-431 -388,-442 -375,-428 -360,-443 -347,-425 -340,-435 -332,-444 -326,-433 -319,-421 -312,-433 -304,-445 -298,-432 -291,-418 -276,-432 -293,-432 -318,-433 -343,-434 -368,-435 -393,-436 -418,-437 -443,-438 -459,-439 -464,-439 -464,-443 -464,-435 -462,-445 -463,-433 -458,-445 -459,-433 -454,-445 -455,-433 -450,-445 -451,-432 -447,-445 -447,-432 -443,-445 -443,-432 -439,-445 -440,-432 -435,-445 -436,-431 -431,-445 -432,-431 -427,-445 -428,-431 -423,-445 -424,-430 -419,-445 -420,-430 -415,-445 -416,-430 -411,-445 -412,-429 -408,-445 -408,-429 -404,-445 -405,-428 -400,-445 -401,-428 -396,-445 -397,-427 -392,-445 -393,-427 -388,-445 -389,-426 -384,-446 -385,-426 -380,-446 -381,-425 -376,-446 -377,-425 -372,-446 -373,-424 -368,-446 -370,-424 -364,-446 -366,-424 -360,-447 -362,-423 -356,-447 -358,-423 -352,-447 -354,-422 -348,-447 -350,-422 -344,-447 -346,-421 -340,-448 -342,-421 -337,-448 -338,-420 -333,-448 -334,-420 -329,-448 -330,-419 -325,-448 -326,-419 -321,-448 -323,-419 -317,-448 -319,-418 -313,-448 -315,-418 -309,-448 -311,-417 -305,-448 -307,-417 -302,-448 -304,-416 -298,-448 -300,-416 -294,-448 -296,-416 -291,-448 -292,-415 -287,-448 -288,-415 -283,-443 -285,-418 -280,-439 -281,-421 -276,-435 -276,-431 -276,-427 -277,-431 -278,-435 -277,-431 -276,-427 -277,-430 -276,-427" fill="none" stroke="#fdd9de" stroke-width="3" /><path d="M -245,-485 -242,-486 -249,-482 -242,-486 -251,-480 -264,-487 -283,-503 -303,-518 -323,-534 -342,-549 -362,-565 -381,-580 -401,-596 -421,-611 -433,-620 -410,-605 -389,-592 -368,-578 -346,-565 -325,-552 -304,-539 -283,-525 -261,-512 -241,-498 -240,-484 -238,-482 -241,-502 -255,-495 -268,-488 -267,-503 -265,-517 -278,-511 -290,-505 -290,-519 -289,-532 -301,-528 -312,-523 -312,-547 -334,-540 -336,-562 -356,-557 -360,-577 -378,-575 -384,-591 -400,-592 -408,-606 -423,-609 -430,-620 -436,-621 -432,-617 -419,-614 -411,-601 -396,-599 -389,-583 -372,-584 -367,-566 -348,-569 -345,-549 -324,-554 -323,-531 -300,-540 -301,-527 -301,-514 -289,-520 -277,-525 -278,-511 -279,-497 -266,-504 -253,-510 -255,-495 -257,-479 -237,-484 -252,-493 -272,-507 -293,-522 -313,-536 -334,-550 -354,-565 -375,-579 -395,-593 -416,-608 -431,-618 -435,-622 -433,-625 -438,-618 -430,-623 -435,-616 -426,-621 -432,-613 -423,-619 -429,-611 -420,-617 -426,-608 -416,-615 -423,-606 -413,-613 -420,-603 -409,-611 -416,-601 -406,-608 -413,-598 -403,-606 -410,-596 -399,-604 -407,-593 -396,-602 -404,-591 -393,-600 -401,-588 -389,-598 -398,-586 -386,-596 -395,-583 -382,-594 -392,-581 -379,-592 -389,-579 -376,-590 -386,-576 -372,-588 -382,-574 -369,-586 -379,-571 -366,-584 -376,-569 -362,-582 -373,-566 -359,-579 -370,-564 -355,-577 -367,-561 -352,-575 -364,-559 -349,-573 -361,-556 -345,-571 -358,-554 -342,-569 -355,-551 -339,-567 -351,-549 -335,-565 -348,-547 -332,-563 -345,-544 -329,-561 -342,-542 -325,-559 -339,-539 -322,-557 -336,-537 -319,-555 -333,-534 -315,-553 -330,-532 -312,-550 -327,-529 -308,-548 -324,-527 -305,-546 -320,-525 -302,-544 -317,-522 -298,-542 -314,-520 -295,-540 -311,-517 -292,-538 -308,-515 -288,-536 -305,-512 -285,-534 -302,-510 -282,-532 -299,-508 -278,-530 -296,-505 -275,-528 -293,-503 -272,-526 -290,-500 -269,-524 -287,-498 -265,-522 -284,-496 -262,-520 -281,-494 -259,-518 -278,-491 -256,-516 -275,-489 -253,-514 -272,-487 -250,-512 -269,-484 -246,-510 -266,-482 -243,-508 -263,-479 -240,-506 -260,-477 -237,-502 -256,-476 -235,-498 -251,-476 -235,-492 -248,-477 -236,-485 -242,-480 -235,-486 -238,-483 -240,-480 -240,-480" fill="none" stroke="#fdd9de" stroke-width="3" /><path d="M -127,-534 -135,-535 -127,-534 -137,-535 -144,-547 -152,-571 -160,-595 -168,-618 -175,-642 -183,-666 -192,-689 -195,-697 -196,-700 -195,-697 -185,-674 -174,-652 -163,-630 -151,-607 -140,-585 -129,-563 -120,-543 -126,-532 -126,-529 -118,-548 -133,-550 -148,-551 -140,-562 -131,-573 -144,-575 -156,-577 -150,-588 -144,-598 -165,-604 -156,-623 -174,-631 -169,-648 -183,-657 -182,-673 -192,-684 -193,-698 -198,-702 -197,-696 -188,-686 -188,-671 -175,-660 -179,-644 -163,-635 -170,-617 -150,-610 -161,-591 -149,-588 -137,-585 -145,-575 -152,-564 -139,-562 -125,-560 -134,-549 -143,-537 -124,-530 -132,-545 -141,-568 -151,-591 -161,-614 -170,-637 -180,-660 -190,-684 -195,-697 -197,-702 -194,-704 -201,-701 -192,-703 -202,-699 -190,-700 -201,-695 -189,-696 -200,-692 -187,-692 -198,-688 -186,-689 -197,-684 -184,-685 -196,-680 -182,-682 -195,-677 -180,-678 -194,-673 -179,-675 -192,-669 -177,-671 -191,-665 -175,-668 -190,-662 -173,-664 -188,-658 -172,-660 -187,-654 -170,-657 -186,-650 -168,-653 -185,-647 -166,-650 -183,-643 -164,-646 -182,-639 -163,-643 -180,-636 -161,-639 -179,-632 -159,-636 -178,-628 -157,-632 -176,-625 -155,-629 -175,-621 -154,-626 -173,-617 -152,-622 -172,-614 -150,-619 -171,-610 -148,-615 -170,-606 -146,-612 -168,-602 -145,-608 -167,-599 -143,-605 -166,-595 -141,-601 -165,-591 -139,-598 -163,-587 -138,-594 -162,-584 -136,-591 -161,-580 -134,-587 -160,-576 -133,-584 -158,-572 -131,-580 -157,-569 -129,-577 -156,-565 -127,-573 -155,-561 -126,-570 -153,-558 -124,-566 -152,-554 -122,-563 -151,-550 -120,-559 -150,-547 -119,-556 -149,-543 -117,-553 -148,-540 -116,-549 -147,-536 -115,-546 -144,-534 -115,-542 -141,-531 -117,-537 -137,-529 -124,-531 -128,-529 -123,-531 -128,-529 -129,-528" fill="none" stroke="#fdd9de" stroke-width="3" /><path d="M -60,-536 -57,-535 -64,-538 -57,-535 -57,-532 -66,-539 -68,-553 -67,-578 -65,-603 -64,-628 -63,-653 -61,-678 -60,-703 -58,-728 -58,-746 -58,-749 -58,-746 -58,-749 -58,-746 -57,-721 -55,-696 -54,-671 -52,-646 -50,-621 -49,-596 -47,-571 -45,-546 -49,-537 -57,-532 -57,-535 -58,-530 -43,-544 -57,-551 -70,-558 -58,-565 -45,-572 -57,-579 -69,-586 -58,-593 -46,-600 -57,-607 -67,-614 -48,-628 -66,-642 -50,-656 -64,-670 -52,-684 -63,-698 -54,-712 -61,-726 -56,-740 -60,-746 -57,-751 -56,-746 -60,-740 -55,-726 -62,-712 -53,-698 -63,-684 -51,-670 -65,-656 -49,-642 -66,-628 -47,-614 -58,-607 -68,-600 -57,-593 -45,-586 -58,-579 -70,-572 -57,-565 -44,-558 -58,-551 -71,-544 -56,-530 -57,-547 -57,-572 -57,-597 -57,-622 -57,-647 -58,-672 -58,-697 -58,-722 -58,-746 -58,-751 -54,-751 -62,-751 -52,-749 -64,-749 -52,-745 -64,-745 -52,-741 -64,-741 -51,-737 -65,-737 -51,-733 -65,-733 -51,-729 -65,-729 -51,-725 -65,-725 -51,-722 -65,-722 -50,-718 -65,-718 -50,-714 -66,-714 -50,-710 -66,-710 -50,-706 -66,-706 -49,-702 -66,-702 -49,-698 -66,-698 -49,-694 -66,-694 -49,-690 -67,-690 -49,-686 -67,-686 -48,-682 -67,-682 -48,-678 -67,-678 -48,-674 -67,-674 -48,-670 -68,-670 -47,-666 -68,-666 -47,-662 -68,-662 -47,-658 -68,-658 -47,-654 -68,-654 -46,-650 -69,-650 -46,-647 -69,-647 -46,-643 -69,-643 -46,-639 -69,-639 -45,-635 -69,-635 -45,-631 -70,-631 -45,-627 -70,-627 -45,-623 -70,-623 -44,-619 -70,-619 -44,-615 -71,-615 -44,-611 -71,-611 -44,-607 -71,-607 -43,-603 -72,-603 -43,-599 -72,-599 -43,-595 -72,-595 -43,-592 -72,-592 -42,-588 -72,-588 -42,-584 -73,-584 -42,-580 -73,-580 -42,-576 -73,-576 -41,-572 -73,-572 -41,-568 -73,-568 -41,-564 -73,-564 -41,-560 -74,-560 -40,-556 -74,-556 -40,-552 -74,-552 -39,-548 -74,-548 -39,-544 -74,-544 -40,-541 -73,-540 -42,-537 -71,-536 -45,-534 -68,-533 -53,-530 -57,-530 -61,-530 -57,-531 -53,-532 -57,-531 -61,-530 -58,-531 -61,-530" fill="none" stroke="#fdd9de" stroke-width="3" /><path d="M 57,-531 52,-538 57,-531 50,-540 54,-550 67,-571 80,-592 93,-614 106,-635 119,-656 132,-678 137,-686 138,-689 137,-686 126,-664 116,-641 107,-618 97,-595 87,-572 77,-549 69,-532 56,-529 73,-533 65,-546 56,-558 70,-559 84,-559 77,-571 70,-582 83,-584 95,-585 85,-606 106,-610 100,-630 117,-636 114,-653 128,-662 129,-677 138,-685 138,-692 135,-687 134,-675 122,-665 123,-649 107,-641 112,-623 92,-618 101,-598 78,-594 84,-583 90,-572 77,-571 63,-570 71,-558 79,-546 64,-546 49,-546 55,-526 51,-529 58,-525 47,-535 65,-525 46,-540 69,-526 47,-545 73,-529 47,-548 76,-532 48,-552 72,-540 50,-555 65,-547 76,-569 88,-592 99,-614 111,-636 122,-658 134,-680 139,-691 143,-689 136,-693 143,-686 133,-692 141,-682 131,-688 140,-678 128,-684 138,-674 126,-681 136,-670 124,-677 134,-666 122,-673 133,-661 119,-669 131,-657 117,-665 129,-653 115,-662 127,-649 112,-658 126,-645 110,-654 124,-641 108,-650 122,-637 105,-646 120,-633 103,-643 119,-629 101,-639 117,-625 98,-635 115,-620 96,-631 113,-616 94,-627 112,-612 91,-623 110,-608 89,-620 108,-604 87,-616 106,-600 85,-612 105,-596 82,-608 103,-592 80,-604 101,-588 78,-601 99,-584 75,-597 98,-580 73,-593 96,-576 71,-589 94,-571 68,-585 92,-567 66,-582 91,-563 64,-578 89,-559 61,-574 87,-555 59,-570 85,-551 57,-566 84,-547 55,-563 82,-543 52,-559 80,-539 50,-555 54,-553 57,-551 54,-553 50,-555 53,-554 50,-555" fill="none" stroke="#fdd9de" stroke-width="3" /><path d="M 165,-483 164,-490 163,-481 163,-493 172,-501 194,-514 215,-527 236,-540 258,-553 279,-566 300,-579 322,-592 343,-605 354,-613 357,-614 354,-613 334,-598 314,-583 294,-567 274,-552 255,-537 235,-522 215,-506 195,-491 175,-477 163,-481 160,-481 180,-476 178,-491 176,-506 189,-500 202,-493 201,-507 200,-521 212,-516 224,-510 224,-523 224,-535 247,-528 248,-550 269,-545 272,-565 291,-562 296,-579 313,-579 320,-594 335,-596 344,-608 355,-611 358,-617 353,-614 347,-605 332,-601 324,-588 308,-586 302,-570 284,-572 280,-553 260,-557 258,-536 236,-543 236,-519 224,-524 212,-528 213,-515 213,-502 201,-508 188,-514 190,-500 191,-485 178,-492 164,-499 161,-479 175,-489 195,-504 216,-518 237,-532 257,-546 278,-560 298,-574 319,-588 340,-603 354,-613 359,-616 361,-612 356,-619 360,-610 353,-617 357,-608 349,-615 354,-605 346,-613 350,-603 343,-611 347,-600 339,-609 344,-598 336,-607 341,-595 332,-605 337,-593 329,-603 334,-590 326,-601 331,-588 322,-599 328,-585 319,-597 324,-583 315,-595 321,-580 312,-593 318,-578 309,-591 315,-576 305,-589 312,-573 302,-587 308,-571 298,-585 305,-568 295,-583 302,-566 291,-581 299,-563 288,-579 296,-561 285,-577 292,-559 281,-575 289,-556 278,-573 286,-554 275,-570 283,-551 271,-568 280,-549 268,-566 276,-546 264,-564 273,-544 261,-562 270,-542 258,-560 267,-539 254,-558 264,-537 251,-556 261,-534 247,-554 258,-532 244,-552 255,-530 241,-550 251,-527 237,-548 248,-525 234,-546 245,-522 231,-544 242,-520 227,-542 239,-518 224,-539 236,-515 220,-537 233,-513 217,-535 230,-510 214,-533 227,-508 210,-531 224,-506 207,-529 220,-503 204,-527 217,-501 200,-525 214,-498 197,-523 211,-496 194,-521 208,-493 190,-519 205,-491 187,-517 202,-489 184,-514 199,-486 180,-512 196,-484 177,-510 193,-481 174,-508 189,-479 170,-506 186,-476 167,-504 183,-475 164,-502 179,-473 161,-500 175,-473 160,-497 171,-473 159,-494 167,-474 158,-490 163,-476 158,-483 165,-478 158,-483 158,-483" fill="none" stroke="#fdd9de" stroke-width="3" /><path d="M 187,-437 186,-434 189,-442 186,-434 190,-444 203,-446 228,-445 253,-445 278,-445 303,-444 328,-444 342,-445 345,-445 342,-445 345,-445 342,-445 317,-443 292,-439 268,-435 243,-431 218,-428 193,-425 184,-434 181,-435 196,-422 202,-435 208,-448 216,-437 224,-426 230,-437 236,-448 244,-439 252,-430 264,-447 279,-434 293,-447 307,-438 321,-446 335,-442 342,-447 348,-444 342,-443 335,-446 321,-441 307,-447 293,-436 278,-447 265,-432 250,-447 238,-428 230,-438 222,-448 216,-436 210,-424 202,-436 194,-448 181,-433 198,-435 223,-437 248,-439 273,-440 298,-442 322,-444 342,-445 347,-445 348,-441 347,-449 345,-439 344,-451 341,-439 340,-451 337,-439 336,-450 334,-439 333,-450 330,-438 329,-450 326,-438 325,-450 322,-437 321,-450 318,-437 317,-450 314,-436 313,-450 310,-436 309,-450 306,-435 305,-450 302,-434 301,-450 298,-434 297,-450 294,-433 293,-450 291,-432 289,-450 287,-432 285,-450 283,-431 282,-450 279,-431 278,-450 275,-430 274,-451 271,-430 270,-451 267,-429 266,-451 263,-428 262,-451 259,-428 258,-451 256,-427 254,-451 252,-427 250,-451 248,-426 246,-451 244,-425 242,-451 240,-425 238,-451 236,-424 234,-451 232,-424 230,-451 228,-423 226,-451 224,-422 223,-451 221,-422 219,-451 217,-421 215,-451 213,-421 211,-451 209,-420 207,-451 205,-419 203,-452 201,-419 199,-452 197,-418 195,-452 193,-419 191,-450 189,-422 187,-447 185,-425 184,-444 181,-430 181,-438 183,-434 184,-430 183,-434 181,-438" fill="none" stroke="#fdd9de" stroke-width="3" /><path d="M -216,-454 -219,-453 -212,-457 -219,-453 -198,-466 -175,-475 -151,-483 -127,-489 -102,-493 -77,-496 -52,-498 -27,-499 -2,-499 23,-498 47,-495 72,-490 96,-483 119,-472 138,-458 146,-443 147,-433 159,-436 155,-420 143,-402 123,-386 101,-375 78,-365 54,-357 30,-352 5,-347 -19,-344 -44,-342 -69,-341 -94,-341 -119,-343 -144,-345 -169,-350 -193,-357 -216,-366 -236,-380 -248,-396 -253,-413 -250,-431 -240,-449 -222,-465 -200,-477 -177,-487 -153,-494 -129,-500 -104,-504 -79,-508 -54,-510 -29,-511 -4,-511 21,-509 45,-507 70,-502 94,-495 117,-486 139,-473 153,-457 158,-441 146,-442 135,-439 128,-451 108,-465 84,-474 60,-481 35,-485 11,-487 -14,-488 -39,-488 -64,-486 -89,-483 -114,-479 -138,-474 -162,-467 -186,-458 -208,-446 -224,-432 -230,-419 -227,-405 -215,-393 -193,-381 -169,-374 -144,-369 -120,-366 -95,-364 -70,-364 -45,-365 -20,-367 5,-370 30,-375 54,-381 78,-389 100,-400 121,-413 134,-429 136,-434 147,-433 162,-438 131,-431 154,-412 125,-420 135,-392 108,-407 111,-377 87,-396 86,-365 64,-387 58,-356 38,-380 30,-349 12,-374 2,-344 -15,-370 -27,-341 -43,-368 -56,-339 -70,-367 -85,-339 -97,-367 -113,-340 -124,-369 -142,-343 -150,-372 -171,-348 -177,-378 -199,-356 -200,-387 -224,-368 -217,-397 -245,-387 -226,-409 -256,-412 -227,-420 -250,-439 -219,-433 -232,-460 -205,-445 -208,-476 -184,-456 -183,-487 -161,-465 -155,-496 -135,-472 -126,-503 -108,-478 -98,-508 -81,-482 -69,-511 -54,-484 -41,-513 -27,-485 -12,-513 1,-485 17,-512 27,-483 45,-509 54,-479 74,-504 80,-473 103,-495 103,-465 128,-483 120,-455 150,-465 129,-444 161,-440 133,-437 162,-438 133,-438 157,-454 125,-450 140,-475 114,-459 116,-490 92,-469 89,-500 67,-476 60,-507 41,-481 31,-511 14,-484 2,-513 -13,-485 -26,-513 -40,-485 -55,-512 -68,-483 -84,-510 -95,-480 -112,-505 -122,-475 -140,-500 -148,-469 -169,-492 -173,-461 -196,-482 -195,-451 -220,-468 -213,-439 -242,-450 -224,-426 -255,-426 -228,-414 -252,-399 -222,-402 -236,-376 -209,-391 -212,-361 -189,-382 -185,-351 -164,-375 -157,-345 -137,-370 -128,-341 -111,-368 -99,-339 -83,-367 -70,-339 -56,-367 -41,-340 -29,-369 -13,-342 -2,-372 16,-346 25,-377 44,-352 51,-383 73,-360 75,-391 99,-371 98,-401 123,-384 117,-413 145,-401 129,-425 160,-425 133,-437 165,-439 130,-437 165,-435 135,-435 164,-431 129,-434 164,-427 136,-431 163,-424 128,-431 162,-420 132,-428 161,-416 127,-429 159,-413 133,-424 157,-410 126,-426 155,-407 128,-422 152,-404 124,-424 150,-401 128,-418 147,-398 122,-422 145,-395 120,-421 142,-393 118,-419 139,-390 117,-417 136,-388 114,-416 133,-386 112,-414 130,-384 110,-412 127,-381 107,-411 123,-380 105,-409 120,-378 102,-408 117,-376 100,-406 113,-374 97,-405 110,-372 94,-403 107,-370 91,-402 103,-369 88,-400 100,-367 85,-399 96,-366 82,-398 93,-364 79,-397 89,-363 76,-395 86,-361 73,-394 82,-360 70,-393 79,-359 67,-392 75,-358 64,-391 71,-356 60,-390 68,-355 57,-389 64,-354 54,-388 60,-353 51,-387 57,-352 47,-386 52,-351 45,-385 49,-350 41,-384 45,-349 37,-383 41,-348 33,-382 37,-347 30,-381 33,-346 27,-381 29,-345 23,-380 26,-345 19,-379 22,-344 16,-378 17,-343 13,-378 14,-342 9,-377 10,-342 5,-376 6,-341 1,-376 2,-341 -2,-375 -2,-340 -5,-375 -6,-339 -9,-374 -10,-339 -13,-374 -13,-339 -17,-373 -17,-338 -21,-373 -21,-338 -24,-373 -25,-337 -28,-372 -29,-337 -32,-372 -33,-337 -35,-372 -37,-336 -39,-371 -41,-336 -43,-371 -45,-336 -46,-371 -48,-336 -50,-371 -53,-336 -53,-371 -56,-335 -57,-370 -60,-335 -61,-370 -65,-335 -64,-370 -68,-335 -68,-370 -72,-335 -72,-370 -76,-335 -76,-370 -80,-335 -79,-370 -84,-335 -83,-370 -88,-335 -86,-370 -92,-335 -90,-370 -96,-335 -94,-370 -99,-335 -98,-370 -104,-336 -101,-371 -108,-336 -105,-371 -111,-336 -108,-371 -115,-336 -112,-371 -119,-337 -116,-372 -124,-337 -119,-372 -127,-337 -123,-372 -131,-338 -127,-373 -135,-338 -130,-373 -139,-339 -134,-373 -143,-339 -137,-374 -147,-340 -141,-374 -150,-340 -145,-375 -154,-341 -148,-375 -158,-342 -152,-376 -162,-342 -155,-377 -165,-343 -158,-377 -169,-344 -162,-378 -173,-345 -165,-379 -177,-346 -168,-380 -180,-347 -171,-380 -184,-348 -174,-381 -188,-349 -177,-382 -191,-350 -180,-383 -195,-351 -183,-384 -198,-352 -187,-385 -202,-353 -189,-386 -205,-355 -192,-387 -209,-356 -195,-388 -212,-358 -198,-390 -216,-359 -200,-391 -219,-361 -203,-392 -223,-363 -205,-393 -226,-365 -207,-395 -229,-367 -209,-396 -232,-369 -211,-397 -235,-371 -213,-399 -238,-374 -215,-400 -241,-376 -217,-402 -244,-379 -221,-401 -246,-382 -219,-404 -248,-385 -223,-404 -251,-388 -221,-407 -253,-391 -229,-405 -254,-395 -222,-409 -256,-398 -229,-409 -257,-402 -223,-411 -258,-405 -230,-412 -259,-409 -226,-414 -259,-413 -224,-415 -259,-417 -230,-417 -259,-420 -226,-418 -259,-424 -224,-418 -258,-428 -228,-421 -256,-431 -223,-421 -255,-435 -229,-426 -254,-439 -222,-424 -252,-442 -224,-427 -250,-445 -220,-426 -248,-448 -223,-431 -246,-451 -218,-429 -243,-454 -218,-432 -241,-457 -215,-433 -238,-460 -215,-436 -235,-462 -212,-436 -232,-465 -210,-437 -229,-467 -218,-453 -197,-466 -174,-476 -150,-483 -126,-489 -101,-493 -76,-496 -51,-498 -26,-499 -1,-499 23,-498 48,-494 73,-490 97,-482 119,-472 138,-458 146,-442 147,-438 130,-437 165,-439 130,-437 165,-439 129,-438 164,-443 133,-440 164,-446 128,-441 163,-450 134,-443 161,-454 126,-443 160,-457 130,-446 158,-460 125,-446 156,-463 131,-450 153,-466 123,-448 151,-469 125,-451 148,-472 121,-450 146,-475 124,-455 143,-477 118,-452 140,-480 116,-453 137,-482 114,-455 134,-484 112,-456 130,-486 110,-457 127,-488 107,-459 124,-490 105,-460 120,-491 102,-461 117,-493 99,-462 113,-495 96,-464 110,-496 94,-465 106,-497 91,-466 103,-499 88,-467 99,-500 85,-468 96,-501 82,-469 92,-502 78,-470 88,-503 75,-471 85,-505 72,-472 81,-506 69,-473 77,-506 65,-473 74,-507 61,-474 70,-508 58,-475 66,-509 55,-476 62,-510 51,-476 58,-511 47,-477 54,-511 43,-478 50,-512 41,-478 46,-513 37,-478 42,-513 33,-479 38,-514 29,-479 34,-514 25,-480 31,-515 23,-480 26,-515 19,-480 22,-515 15,-481 18,-516 11,-481 15,-516 8,-481 10,-516 4,-481 6,-516 1,-482 3,-517 -3,-482 -1,-517 -7,-482 -5,-517 -10,-482 -10,-517 -14,-482 -13,-517 -18,-482 -17,-517 -21,-482 -21,-517 -25,-482 -25,-517 -28,-482 -29,-517 -32,-482 -33,-517 -36,-482 -37,-517 -40,-482 -40,-517 -44,-481 -44,-516 -47,-481 -48,-516 -50,-481 -52,-516 -54,-481 -56,-516 -58,-480 -60,-515 -61,-480 -64,-515 -65,-480 -68,-515 -69,-479 -72,-514 -73,-479 -76,-514 -76,-479 -80,-514 -80,-478 -84,-513 -84,-478 -87,-513 -87,-477 -91,-512 -91,-477 -95,-512 -95,-476 -99,-511 -98,-476 -103,-511 -102,-475 -107,-510 -106,-475 -110,-509 -109,-474 -115,-509 -112,-473 -119,-508 -116,-473 -122,-507 -120,-472 -126,-506 -123,-471 -130,-506 -127,-471 -134,-505 -130,-470 -137,-504 -134,-469 -141,-503 -138,-468 -145,-502 -141,-467 -149,-501 -144,-466 -153,-500 -147,-466 -157,-499 -151,-465 -160,-498 -154,-464 -164,-497 -157,-463 -168,-496 -160,-462 -171,-495 -163,-461 -175,-494 -167,-460 -178,-493 -170,-458 -182,-491 -173,-457 -186,-490 -176,-456 -189,-488 -179,-455 -193,-487 -182,-454 -196,-486 -185,-452 -200,-484 -187,-451 -203,-482 -190,-450 -206,-481 -193,-448 -210,-479 -195,-447 -213,-477 -198,-445 -216,-475 -201,-443 -219,-473 -203,-442 -223,-471 -205,-440 -226,-469 -208,-439 -229,-467 -224,-461 -229,-467 -229,-467" fill="none" stroke="#feb343" stroke-width="3" /></svg>