<svg height="763" version="1.1" viewBox="-192 -145 716 763" width="716" xmlns="http://www.w3.org/2000/svg" xmlns:ev="http://www.w3.org/2001/xml-events" xmlns:xlink="http://www.w3.org/1999/xlink"><path d="M 0,0 5,5 -5,-4 7,7 21,16 42,21 63,26 83,32 104,37 125,42 146,47 167,52 182,56 204,59 227,62 249,65 271,68 294,71 316,74 328,76 349,82 367,88 388,96 404,103 422,114 439,125 456,140 470,152 481,164 489,178 495,192 499,208 500,219 498,234 494,249 487,265 476,283 465,300 449,316 436,328 418,340 400,352 384,363 363,371 342,379 321,387 300,395 290,399 269,404 248,409 229,413 209,415 188,415 168,415 146,412 123,409 108,407 87,401 67,395 48,390 28,380 8,369 -6,362 -23,349 -41,337 -55,326 -37,339 -19,353 -6,362 13,372 32,382 48,390 70,396 91,402 108,407 129,409 151,412 172,414 186,416 209,415 230,411 251,407 272,403 290,399 311,391 332,383 353,375 374,367 384,363 402,351 420,339 436,328 452,312 465,300 476,282 487,265 494,249 498,234 500,219 499,208 495,192 489,178 481,164 466,149 458,141 439,125 421,114 404,103 383,95 367,88 346,82 328,76 306,72 283,69 261,65 239,61 217,58 194,54 172,51 150,47 128,43 105,40 89,37 72,32 56,26 35,20 21,16 7,7 -5,-4 -10,-11 -14,-22 -16,-33 -15,-45 -10,-57 -2,-70 -10,-57 -15,-45 -16,-33 -11,-56 -1,-70 -11,-56 -16,-33 -16,-19 -12,-5 -6,7 7,22 23,36 40,48 59,58 78,67 94,75 116,80 138,86 160,91 182,96 204,101 226,107 247,112 269,117 291,123 313,128 335,133 357,139 388,146 408,154 424,160 444,171 457,178 469,189 487,201 498,212 506,226 511,241 509,252 502,272 498,283 488,301 475,318 464,334 448,349 431,362 413,374 398,385 378,395 358,405 343,413 323,420 303,427 284,434 262,438 240,442 217,446 202,449 181,450 161,450 139,446 116,443 94,439 72,436 50,432 38,430 18,424 1,416 -17,404 -34,391 -52,379 -69,367 -87,355 -102,344 -84,357 -65,370 -47,383 -28,396 -10,409 1,416 18,424 38,430 59,433 80,437 102,440 123,444 144,447 161,450 184,449 202,449 223,446 244,443 264,440 285,433 307,425 328,418 343,413 362,403 381,394 398,385 416,372 435,359 448,349 464,334 477,316 488,301 497,282 506,264 513,274 518,285 521,298 523,319 524,330 518,352 511,380 500,399 491,415 476,432 464,446 448,459 429,471 410,483 390,494 378,502 362,508 348,515 328,523 301,533 279,538 260,543 239,545 217,548 196,550 178,552 155,551 133,551 110,550 95,550 79,547 62,546 34,541 13,534 -9,527 -30,521 -45,516 -64,506 -83,496 -99,487 -117,474 -135,460 -149,450 -164,434 -178,419 -192,404 -177,420 -161,437 -149,450 -136,460 -118,473 -99,487 -80,497 -61,507 -45,516 -24,523 -2,530 19,536 34,541 55,544 77,547 98,550 116,552 139,551 161,551 184,550 206,549 219,549 240,546 261,542 281,539 302,532 324,525 340,519 359,509 378,499 397,489 416,479 428,473 448,459 464,446 479,429 491,415 502,396 511,380 517,358 524,330 522,309 521,298 518,285 513,274 506,264 491,249 473,236 458,225 439,216 421,207 399,201 378,194 356,188 335,181 313,175 291,168 270,162 248,155 227,149 205,142 183,136 162,129 140,123 119,116 88,107 69,97 52,89 34,75 24,68 12,56 4,51 -8,36 -15,26 -19,15 -21,1 -22,-15 -18,-31 -11,-48 1,-64 -11,-48 -18,-31 -22,-15 -21,1 -19,15 -15,26 -8,36 4,51 20,65 34,77 52,89 71,99 88,107 110,113 131,120 153,126 174,133 196,139 218,146 239,152 261,159 282,165 304,172 326,178 347,185 369,191 390,198 415,205 431,212 440,215 458,225 476,238 491,249 506,264 511,241 506,226 498,212 482,198 472,190 453,177 440,168 424,160 403,152 388,146 367,141 346,137 325,132 304,127 283,123 262,118 241,113 221,109 200,104 179,99 158,95 132,89 111,81 94,75 75,65 56,56 40,48 23,36 7,22 -6,7 -12,-5 -16,-19 -16,-33 -14,-22 -10,-11 -12,-16 -12,-4 -9,7 -4,18 4,29 18,43 35,58 48,69 65,79 86,86 108,94 129,101 150,109 171,116 200,126 221,131 242,136 263,141 284,146 304,151 325,156 346,160 361,164 382,172 403,180 418,185 437,195 456,205 474,214 491,229 502,238 514,254 519,268 522,284 523,299 520,318 512,339 505,360 500,373 490,389 475,406 464,417 447,430 431,442 412,453 392,465 378,473 358,481 338,488 318,496 303,501 281,505 259,509 236,513 223,515 202,515 180,515 159,516 137,516 121,516 99,513 76,509 54,506 41,504 20,499 2,494 -19,486 -40,477 -55,471 -72,461 -90,448 -108,434 -126,421 -137,413 -152,398 -167,383 -180,370 -164,386 -148,402 -137,413 -120,426 -102,438 -85,451 -72,461 -51,470 -31,479 -10,489 2,494 23,499 44,503 65,508 81,511 97,512 118,513 140,514 161,514 183,515 203,516 225,513 248,510 270,508 283,506 303,499 324,493 344,486 360,481 378,473 397,462 415,451 431,442 449,428 464,417 479,401 490,389 500,373 507,353 515,333 520,318 523,299 522,284 519,268 514,254 512,276 511,294 504,314 498,334 488,351 474,367 461,382 443,395 424,408 411,417 391,426 372,435 352,443 333,452 317,459 295,464 273,470 251,475 236,479 215,481 193,482 172,484 154,485 132,483 109,481 87,478 73,477 52,471 32,465 11,458 -6,453 -26,443 -46,433 -62,425 -74,414 -92,400 -110,386 -127,372 -142,361 -126,375 -110,390 -96,402 -77,414 -58,426 -43,435 -24,444 -6,453 16,460 37,466 59,473 73,477 94,479 116,482 134,484 157,484 179,484 195,484 216,481 237,477 259,474 276,471 292,465 312,458 333,452 354,445 374,435 394,425 411,417 429,405 446,392 461,382 476,365 488,351 498,334 505,313 511,294 513,273 514,254 511,241 514,254 502,238 486,224 474,214 454,204 434,193 418,185 397,179 377,174 356,168 335,162 315,157 294,151 273,145 253,140 232,134 211,128 190,123 170,117 141,109 120,101 99,92 78,84 65,79 48,69 31,54 18,43 4,29 -4,18 -9,7 -12,-4 -12,-16 -11,-32 -6,-46 -1,-57 -6,-46 -11,-32 -12,-16 -12,-7 -13,-21 -13,-34 -11,-47 -2,-62 -11,-47 -13,-34 -13,-21 -12,-7 -6,4 3,13 15,22 35,33 52,42 73,48 93,54 114,61 134,67 151,72 173,76 196,79 218,83 240,86 262,90 294,95 315,101 335,106 353,111 374,119 395,128 411,134 429,145 448,156 464,166 474,175 482,184 494,204 498,214 494,204 482,184 474,175 464,166 445,154 425,143 411,134 391,126 371,118 353,111 331,106 309,102 287,97 265,92 243,88 221,83 199,79 176,74 154,69 132,65 110,60 91,56 71,49 52,42 32,31 15,22 3,13 -6,4 -12,-7 -10,-11 -5,-4 -10,-11 -5,-4" fill="none" stroke="#feb343" stroke-width="3" /><path d="M -134,493 -130,498 -137,489 -130,498 -120,502 -109,505 -100,505 -89,502 -81,498 -73,489 -67,478 -66,466 -68,459 -73,452 -77,448 -84,445 -92,443 -102,444 -112,447 -119,453 -124,460 -126,469 -126,476 -118,458 -112,453 -105,450 -97,449 -85,453 -80,459 -76,466 -76,474 -78,483 -82,491 -90,498 -101,502 -111,504 -120,502 -130,498 -116,504 -107,504 -99,505 -94,500 -86,500 -83,492 -75,491 -76,477 -68,478 -80,458 -75,462 -68,465 -67,461 -86,444 -90,451 -103,444 -107,450 -116,450 -119,459 -125,463 -126,476 -125,481 -127,482 -121,481 -128,479 -121,476 -130,474 -121,475 -130,469 -119,471 -130,465 -118,468 -129,462 -117,464 -127,458 -115,462 -126,454 -114,460 -123,451 -113,460 -120,448 -111,457 -117,445 -108,456 -112,442 -106,455 -108,441 -103,454 -103,439 -102,454 -99,439 -98,453 -95,439 -96,454 -90,439 -93,454 -86,440 -91,455 -82,441 -90,456 -78,442 -88,457 -74,444 -87,458 -72,447 -85,459 -69,450 -83,459 -66,453 -82,463 -65,457 -81,465 -62,460 -81,466 -61,464 -80,468 -61,469 -80,471 -61,473 -80,473 -62,477 -80,476 -64,480 -81,477 -66,484 -81,480 -67,488 -82,482 -69,492 -83,485 -73,494 -85,488 -75,498 -87,488 -79,500 -89,491 -81,504 -90,492 -86,504 -92,495 -89,507 -96,496 -93,507 -99,497 -99,509 -102,498 -103,510 -103,498 -107,510 -106,500 -112,510 -110,501 -116,509 -114,500 -120,507 -118,499 -124,506 -121,498 -127,503 -124,498 -131,501 -128,495 -134,498 -130,494 -136,494 -133,490 -140,492 -138,486 -139,491 -139,486 -144,479 -146,471 -144,461 -140,451 -133,440 -119,431 -107,426 -84,422 -64,415 -49,409 -39,403 -29,394 -22,386 -16,374 -20,382 -29,390 -39,397 -60,403 -80,408 -99,413 -121,422 -132,430 -139,440 -145,449 -148,458 -148,467 -144,479 -148,468 -137,448 -132,439 -147,453 -128,431 -123,423 -124,433 -106,421 -89,409 -94,424 -76,412 -61,403 -66,416 -49,403 -35,393 -18,380 -28,387 -36,394 -18,380 -36,399 -36,402 -29,391 -38,400 -45,407 -48,409 -28,389 -48,409 -29,390 -19,381 -12,365 -9,366 -12,365 -9,365 -12,365 -16,376 -29,391 -35,397 -55,406 -77,413 -98,419 -116,425 -133,437 -139,444 -142,451 -146,460 -146,472 -142,481 -137,489 -139,491 -137,489 -140,488 -136,485 -141,489 -136,486 -145,486 -139,480 -148,482 -139,478 -149,478 -141,474 -150,474 -141,471 -151,469 -141,467 -152,465 -140,464 -152,461 -139,460 -151,457 -138,455 -150,452 -137,454 -149,448 -135,451 -147,444 -134,450 -145,440 -132,447 -143,437 -130,444 -140,434 -128,442 -138,431 -126,441 -135,428 -123,438 -132,425 -122,437 -130,422 -119,435 -126,420 -117,434 -123,417 -116,433 -119,416 -112,433 -115,415 -107,432 -112,412 -104,431 -108,412 -101,430 -104,410 -97,429 -100,408 -93,428 -98,407 -90,427 -94,406 -86,427 -91,405 -82,427 -87,404 -78,425 -83,403 -74,424 -80,402 -71,422 -76,402 -67,420 -72,401 -64,420 -69,400 -61,420 -65,399 -57,417 -61,398 -53,417 -57,398 -48,414 -53,396 -45,412 -49,396 -41,411 -46,395 -38,407 -43,393 -35,404 -40,392 -31,402 -37,390 -29,399 -33,388 -25,396 -32,387 -23,393 -29,386 -20,390 -27,382 -18,388 -24,380 -15,384 -21,378 -14,380 -19,374 -11,377 -16,371 -10,373 -15,368 -8,368 -13,366 -8,363 -13,367 -9,364 -5,357 -2,348 -4,341 -25,349 -34,355 -43,364 -58,386 -67,405 -77,425 -86,444 -95,463 -105,483 -114,502 -123,521 -130,535 -134,540 -140,546 -149,548 -161,547 -166,544 -169,539 -170,534 -166,524 -162,521 -163,530 -162,532 -155,531 -149,526 -147,519 -147,515 -151,512 -158,512 -165,514 -171,519 -174,526 -174,534 -171,542 -166,546 -160,548 -152,549 -140,546 -132,541 -122,521 -113,500 -103,480 -93,460 -83,439 -74,419 -64,399 -59,388 -46,370 -29,355 -19,351 -16,350 -13,350 -9,357 -9,362 -9,356 -2,347 -19,351 -6,344 -4,342 -19,348 -33,354 -35,360 -46,367 -56,386 -71,412 -80,433 -89,453 -99,474 -109,497 -114,504 -126,529 -132,537 -139,546 -149,548 -166,546 -169,539 -175,533 -166,524 -164,518 -159,519 -153,522 -152,528 -157,532 -163,529 -147,518 -161,517 -156,512 -172,520 -166,524 -174,526 -166,524 -160,518 -159,526 -163,534 -158,535 -164,534 -152,533 -167,529 -149,530 -167,526 -154,527 -163,522 -146,528 -158,520 -145,527 -153,518 -145,516 -154,508 -144,517 -160,508 -142,520 -165,510 -142,522 -170,512 -144,524 -173,515 -145,524 -176,519 -145,526 -176,521 -169,541 -163,546 -152,548 -147,548 -139,545 -132,538 -123,519 -113,499 -104,480 -94,461 -85,442 -75,422 -66,403 -57,385 -52,378 -38,362 -30,354 -21,347 -9,347 -8,356 -9,364 -12,365 -7,365 -12,365 -5,362 -13,365 -1,355 -14,358 1,348 -14,358 0,344 -16,355 -3,339 -11,349 -8,339 -17,355 -14,340 -19,355 -19,342 -19,350 -23,343 -20,356 -27,346 -24,358 -31,347 -27,360 -34,350 -29,361 -38,353 -31,363 -41,355 -34,364 -43,357 -35,368 -45,360 -40,370 -48,363 -42,372 -49,367 -45,375 -53,369 -46,376 -54,373 -49,379 -56,377 -51,383 -58,379 -53,386 -60,382 -56,390 -62,387 -57,395 -65,390 -59,398 -67,394 -60,402 -69,398 -61,404 -70,401 -63,408 -72,404 -65,412 -75,407 -66,416 -76,412 -69,419 -76,415 -71,423 -79,418 -72,427 -80,422 -75,431 -83,429 -76,436 -84,432 -78,440 -87,435 -80,444 -89,439 -81,447 -90,443 -84,450 -91,448 -86,454 -93,452 -88,460 -94,457 -89,465 -97,461 -92,468 -99,465 -94,473 -101,469 -95,476 -103,473 -97,480 -104,476 -99,484 -106,481 -101,489 -108,485 -103,493 -109,488 -106,497 -112,493 -108,503 -115,497 -109,504 -116,499 -111,508 -119,503 -113,511 -120,507 -114,516 -121,511 -117,519 -124,515 -118,523 -126,520 -120,528 -128,524 -121,531 -130,525 -124,535 -132,529 -126,539 -134,533 -128,543 -135,535 -131,547 -137,538 -135,549 -140,541 -139,551 -142,543 -143,552 -146,543 -147,552 -149,543 -146,552 -149,544 -150,552 -149,545 -150,553 -151,548 -155,553 -152,544 -159,552 -155,544 -164,551 -159,544 -168,549 -161,542 -172,546 -163,540 -175,543 -165,539 -177,539 -165,535 -179,535 -165,532 -180,531 -165,530 -179,527 -163,526 -178,523 -160,524 -177,519 -161,524 -176,521 -161,524" fill="none" stroke="#feb343" stroke-width="3" /><path d="M 24,416 27,411 21,423 30,404 39,384 49,363 45,362 37,382 29,402 21,423 25,415 27,407 32,400 33,392 39,384 39,377 46,370 44,363 54,363 39,365 53,367 38,369 51,370 37,372 49,374 35,375 48,378 34,379 46,382 32,382 43,385 31,386 42,389 29,390 40,392 28,393 39,396 27,397 38,399 25,400 35,403 23,404 33,406 23,406 32,410 21,410 31,412 20,413 29,416 19,417 27,419 17,420 25,423 17,424 24,427 15,427 22,431 13,431 20,433 12,433 19,437 11,437 18,441 10,440 15,444 8,444 14,447 7,446 11,450 6,450 11,453 4,453 9,456 4,456 11,450 31,445 42,439 53,431 58,426 60,421 60,417 58,412 53,408 47,406 40,408 45,411 48,414 50,419 48,425 44,430 37,437 18,448 28,445 43,435 49,427 54,419 51,412 40,408 44,407 49,415 47,406 55,419 60,421 49,406 47,436 39,435 33,444 25,444 18,448 28,445 43,435 49,427 54,419 51,412 43,409 38,409 32,408 39,409 33,407 33,413 32,407 38,413 37,405 38,413 41,404 40,413 45,403 43,414 49,402 44,414 51,402 46,417 55,403 45,417 58,405 50,413 61,408 45,418 64,415 53,418 45,419 64,420 53,419 63,424 45,420 61,428 44,423 58,431 43,424 55,435 41,425 51,437 41,426 48,440 39,430 45,443 36,432 41,444 33,434 38,446 31,436 35,448 27,438 31,449 24,440 27,450 21,442 23,452 18,443 18,453 16,446 14,445 12,454 14,445 13,453" fill="none" stroke="#feb343" stroke-width="3" /><path d="M 214,514 211,518 219,511 211,518 204,526 204,529 206,532 210,531 216,527 219,522 220,516 219,511 215,514 215,519 211,527 218,524 204,530 219,511 206,522 219,511 214,518 209,524 200,528 207,535 200,523 212,535 204,520 215,532 205,516 219,530 208,513 222,527 212,511 223,524 215,508 224,522 217,506 222,512 221,506 221,511 221,507 218,486 215,464 213,443 209,416 224,423 238,427 253,430 254,440 239,438 224,435 210,430 224,435 239,438 254,440 256,462 258,485 259,504 257,483 256,461 253,430 238,427 224,423 209,416 212,437 215,459 217,480 221,507 218,485 215,462 212,440 209,416 224,423 238,427 253,430 255,452 257,475 259,504 257,507 248,514 242,522 241,526 244,528 247,528 254,523 258,519 258,513 257,507 253,510 252,515 248,522 257,520 242,527 257,507 244,519 257,507 245,521 237,524 245,532 237,519 248,532 238,518 251,529 242,514 256,528 245,511 259,525 248,508 260,521 251,506 261,518 254,504 261,512 257,502 259,508" fill="none" stroke="#feb343" stroke-width="3" /><path d="M 341,374 338,368 341,374 339,381 341,374 338,368 333,362 321,356 310,344 315,366 321,388 326,410 332,432 335,445 336,453 332,458 326,462 319,461 314,456 315,449 320,442 325,439 333,437 325,439 320,442 315,449 314,456 319,461 326,462 332,458 336,453 335,445 330,424 325,403 320,383 314,362 310,344 321,356 333,362 338,368 341,374 339,381 334,384 328,381 327,376 328,381 334,384 339,381 334,384 328,381 334,384 339,381 360,376 390,370 381,378 390,370 381,378 374,387 374,391 377,393 379,394 384,392 390,390 392,385 394,380 393,374 391,370 384,375 391,370 388,379 385,390 393,385 378,394 391,370 374,392 391,370 384,382 371,392 380,398 370,391 380,398 370,387 385,398 371,384 388,396 373,381 391,393 376,378 395,391 377,376 397,387 378,373 397,385 382,371 398,383 385,368 391,371 386,353 378,332 371,310 363,289 356,268 373,282 388,294 391,301 391,308 390,314 384,317 390,314 391,308 391,301 388,294 370,280 356,268 363,288 370,308 377,329 385,349 391,367 389,360 386,354 389,360 391,367 414,366 442,364 433,372 442,364 433,372 428,380 427,384 428,387 432,388 441,383 445,379 446,373 446,368 443,363 435,370 443,363 438,383 446,378 432,388 443,363 427,385 443,363 437,375 431,380 423,385 433,392 423,381 437,392 423,378 440,389 426,375 444,387 428,372 447,383 431,369 449,381 433,366 450,379 436,363 450,376 439,361 448,369 440,359 447,365 444,360 436,339 429,318 421,296 413,275 409,263 426,276 440,288 444,294 444,302 442,308 436,311 442,308 444,302 444,294 440,288 434,282 409,263 417,284 424,305 432,327 437,340 444,360 439,347 444,360" fill="none" stroke="#feb343" stroke-width="3" /><path d="M 367,31 368,37 367,31 368,26 367,31 368,37 371,41 375,45 382,46 385,46 388,45 387,41 378,32 368,26 388,42 368,26 378,43 374,44 367,32 388,43 368,26 374,33 384,50 392,42 380,51 390,38 376,49 388,34 372,48 386,32 369,45 383,30 367,44 379,28 364,40 376,26 363,35 372,23 364,28 369,21 367,26 366,3 366,-19 365,-42 364,-70 374,-54 384,-44 385,-36 385,-27 381,-17 385,-27 385,-36 384,-44 374,-54 364,-70 364,-53 378,-32 380,-22 378,-11 380,-22 378,-32 364,-53 365,-30 366,-8 367,15 367,26 367,19 366,13 367,19 367,26 353,43 341,58 341,62 341,68 341,62 341,58 341,62 341,68 344,72 348,75 356,79 359,78 361,76 361,72 352,64 341,58 361,74 341,58 351,74 348,75 341,63 361,74 341,58 358,81 365,74 354,82 365,69 350,80 363,66 346,79 360,64 343,77 358,61 340,74 354,60 339,72 351,58 337,70 347,56 338,61 345,55 339,59 341,53 341,58 340,37 339,15 338,-6 337,-28 337,-38 351,-20 358,-11 359,-4 359,5 355,13 359,5 359,-4 358,-11 345,-28 337,-38 338,-22 351,-1 354,9 352,19 354,9 351,-1 338,-22 339,-1 340,21 340,42 341,58 340,51 340,44 340,51 341,58" fill="none" stroke="#feb343" stroke-width="3" /><path d="M 341,58" fill="none" stroke="#fdd9de" stroke-width="3" /><path d="M 68,608 77,598 68,608 85,590 86,569 86,547 87,526 88,499 94,482 99,469 105,447 110,427 109,406 109,384 108,356 104,360 100,373 101,380 114,383 98,399 87,410 85,420 86,426 106,407 121,408 106,423 91,438 82,447 90,456 111,434 118,436 114,448 98,464 79,483 78,492 71,503 73,505 95,483 105,481 103,491 88,506 73,521 58,536 78,532 96,522 94,532 79,547 61,565 62,581 84,559 90,562 88,571 72,587 60,600 63,613 70,613 78,608 83,598 87,577 92,556 96,535 101,514 105,493 110,472 114,451 117,439 122,420 118,399 113,378 107,350 100,371 93,393 88,407 84,430 83,453 81,476 78,491 63,516 59,525 59,548 61,555 60,578 59,598 61,613 65,617 55,604 66,618 55,599 73,618 55,594 65,604 76,615 71,608 54,589 72,609 55,584 74,603 82,612 68,596 55,581 85,609 56,576 79,598 86,606 73,590 56,570 67,581 88,602 57,566 89,597 78,585 57,561 73,576 90,593 68,567 57,554 91,588 84,580 56,548 78,570 92,584 73,562 54,540 67,553 92,578 62,545 53,534 84,565 93,574 78,557 53,528 72,548 94,570 67,540 53,525 95,565 83,552 55,521 77,543 95,561 72,535 58,518 66,526 96,556 88,547 58,513 83,537 96,551 77,529 60,509 71,521 97,546 62,506 88,532 98,542 83,524 64,503 76,515 99,538 66,499 99,533 87,519 68,496 82,510 100,529 77,502 70,494 101,524 93,514 72,491 87,505 102,520 82,496 73,486 103,515 74,482 92,499 104,511 87,491 75,478 105,506 76,473 97,494 105,503 92,486 76,467 86,477 106,499 76,465 108,495 96,482 77,460 90,473 109,491 85,464 77,454 109,486 101,477 77,448 96,467 110,482 91,459 77,443 85,450 111,477 78,438 101,462 112,473 96,454 78,433 90,445 113,468 79,429 107,456 115,464 101,448 80,424 95,440 115,460 90,431 80,420 116,456 106,444 81,415 100,434 118,452 95,426 82,410 89,418 119,448 111,439 82,407 106,429 121,444 100,421 84,402 94,412 122,439 85,398 111,423 123,435 106,415 87,394 100,407 124,431 95,398 88,390 117,418 126,427 97,395 90,387 104,402 126,427 111,411 91,388 101,387 105,380 108,370 109,359 108,348 104,341 105,344 112,353 104,343 112,359 101,348 114,365 100,353 115,372 99,357 116,378 98,359 118,387 107,375 97,364 121,395 96,369 110,386 123,402 102,381 94,373 125,410 113,398 92,378 105,391 128,417 91,381 115,409 128,423 108,403 90,386 100,396 126,424 107,404 90,385 106,402 125,423 128,411 130,395 130,390 121,364 113,350 103,337 114,334 114,357 114,389 121,409 126,424 126,401 126,379 126,353 132,332 138,330 138,351 138,373 138,394 138,416 138,437 138,462 149,486 152,507 154,518 151,540 149,553 149,532 149,510 149,489 149,467 149,446 149,424 149,403 149,381 149,360 149,337 155,359 158,371 161,390 161,413 161,435 161,458 161,480 161,503 161,525 161,548 161,570 161,598 165,606 172,598 172,577 172,555 172,526 168,534 177,554 184,569 184,592 184,609 172,613 181,612 186,608 188,598 185,577 181,552 172,526 168,502 166,480 165,457 163,435 161,412 159,380 154,359 150,338 147,326 127,334 103,335 105,353 111,374 117,394 123,415 130,435 136,456 144,483 143,506 141,532 148,552 154,569 158,588 163,602 172,613 168,615 178,615 186,613 164,612 189,612 160,608 182,608 192,608 172,606 158,605 192,605 157,601 182,601 193,601 173,600 155,598 193,598 153,594 193,594 174,593 152,591 163,591 193,591 151,587 192,587 175,586 151,584 164,584 192,584 150,580 192,580 175,579 150,577 165,577 191,577 150,573 190,573 176,572 149,570 166,570 189,570 148,566 189,566 177,565 147,563 166,563 189,563 157,560 147,559 188,559 177,558 145,556 167,556 187,556 158,553 143,552 187,552 142,549 168,548 185,548 158,546 140,545 184,544 138,540 168,540 182,540 159,538 136,536 149,536 181,536 136,532 169,532 180,532 160,531 136,529 149,529 179,529 137,525 178,525 160,524 137,522 150,522 176,522 137,518 175,518 161,517 137,515 151,515 175,515 137,511 175,511 162,510 137,508 152,508 174,508 138,504 173,504 163,503 138,501 153,501 172,501 138,497 172,497 138,494 153,494 172,494 138,490 172,490 138,487 154,487 172,487 138,483 172,483 137,480 155,480 172,480 146,477 136,476 172,476 135,473 156,473 172,473 147,470 134,469 172,469 133,466 157,465 172,465 148,463 132,462 172,461 131,457 158,457 172,457 148,455 130,453 171,453 128,449 158,449 171,449 149,448 127,446 139,446 171,446 126,442 159,442 171,442 150,441 125,439 139,439 171,439 124,435 160,435 171,435 150,434 123,432 140,432 171,432 122,428 160,428 171,428 151,427 120,425 140,425 171,425 131,422 120,421 161,421 171,421 151,420 118,418 141,418 170,418 132,415 117,414 170,414 152,413 116,411 142,411 169,411 132,408 115,407 169,407 153,406 114,404 142,404 169,404 133,401 113,400 168,400 153,399 112,397 143,397 167,397 133,394 110,393 123,393 167,393 154,392 110,390 143,389 166,389 134,387 108,386 123,385 165,385 154,384 107,381 144,381 165,381 134,379 106,378 124,378 165,378 154,377 115,374 104,374 144,374 164,374 135,372 103,370 124,370 163,370 115,367 103,366 145,366 162,366 135,365 102,363 125,363 162,363 116,360 101,359 145,359 161,359 136,358 100,356 125,356 160,356 116,353 100,352 146,352 159,352 136,351 99,349 126,349 159,349 117,346 98,345 146,345 158,345 137,344 98,342 126,342 157,342 117,339 97,338 155,338 137,337 97,335 127,334 155,334 121,332 154,330 134,329 153,328 139,326 143,326 151,324 144,324 147,326" fill="none" stroke="#fdd9de" stroke-width="3" /><path d="M -5,-30 -12,-27 -9,-29 -12,-27 -16,-27 -12,-27 -16,-27 -19,-29 -16,-27 -18,-28" fill="none" stroke="#fdd9de" stroke-width="3" /><path d="M -71,231 -71,231 -78,229 -78,229 -75,222 -78,229 -71,231 -78,229 -69,209 -61,190 -52,170 -43,151 -33,128 -21,109 -9,90 3,71 16,49 1,64 -15,81 -23,99 -18,99 -2,83 14,67 26,56 34,57 37,62 22,77 7,92 -9,107 -24,122 -39,137 -60,158 -67,174 -56,170 -40,154 -24,138 -12,127 -9,124 -1,115 -15,131 -31,148 -44,167 -59,189 -74,204 -93,224 -96,237 -102,249 -95,242 -93,234 -93,241 -92,239 -69,217 -79,236 -88,252 -71,231 -69,210 -66,200 -50,180 -30,161 -22,152 -9,131 3,107 17,89 31,72 38,63 32,56 24,51 15,49 7,51 -3,59 -12,74 -25,102 -37,121 -49,140 -57,153 -67,172 -79,197 -90,216 -97,236 -102,253 -102,261 -99,250 -92,238 -88,252 -92,248 -85,255 -86,252 -93,244 -95,241 -82,253 -84,249 -86,248 -93,240 -87,234 -92,236 -97,241 -102,250 -103,259 -100,265 -100,262 -107,253 -99,263 -107,250 -96,261 -106,246 -95,256 -105,241 -94,251 -103,238 -91,249 -103,234 -85,249 -101,230 -79,252 -91,237 -100,226 -77,248 -97,223 -75,245 -86,232 -97,219 -72,242 -95,214 -70,239 -80,226 -93,210 -67,236 -91,207 -66,232 -75,221 -89,204 -81,212 -65,226 -87,200 -65,222 -84,197 -75,206 -65,216 -64,213 -76,199 -64,213 -75,200 -80,191 -79,194 -64,208 -64,205 -78,191 -79,188 -66,201 -62,206 -78,184 -61,201 -76,180 -58,198 -74,177 -56,195 -72,173 -53,192 -63,179 -71,169 -50,189 -69,165 -47,186 -57,174 -67,161 -45,182 -65,156 -42,180 -50,169 -63,153 -56,160 -39,177 -61,149 -36,174 -44,164 -59,146 -50,155 -33,172 -57,143 -31,169 -39,159 -55,140 -44,150 -28,166 -53,136 -25,163 -32,154 -50,133 -38,145 -21,160 -48,130 -19,157 -26,149 -46,126 -31,140 -17,154 -36,131 -43,122 -16,150 -41,119 -25,135 -13,147 -30,127 -40,116 -11,144 -38,112 -20,130 -8,141 -25,122 -36,109 -6,139 -33,106 -14,125 -4,135 -19,117 -31,102 -2,131 -29,99 -7,120 0,127 -13,112 -27,95 -19,103 2,123 -26,91 4,119 -7,107 -24,87 -13,98 5,115 -23,83 7,112 -1,102 -20,79 -6,93 9,108 -11,84 -19,75 11,104 -17,71 0,87 14,101 -5,79 -15,68 17,98 -13,64 6,82 19,95 1,74 -10,61 22,93 -9,58 12,77 24,89 7,69 -6,55 26,88 -3,52 17,73 29,85 12,65 -2,50 30,83 2,48 22,69 32,79 17,61 5,46 35,76 8,45 28,64 37,73 23,56 14,45 39,70 20,47 33,60 41,69 27,49 41,63 27,49 40,62 58,73 76,85 94,96 105,76 117,57 130,34 149,24 168,14 187,4 206,-6 225,-16 244,-26 258,-34 265,-40 280,-56 288,-65 302,-75 306,-86 318,-100 336,-112 361,-130 353,-130 334,-119 354,-119 346,-114 341,-112 336,-107 317,-107 303,-96 316,-96 335,-93 330,-89 325,-84 294,-84 301,-73 296,-61 275,-61 285,-50 281,-38 252,-38 270,-27 268,-15 247,-15 222,-15 196,-4 180,-1 170,-1 149,-3 137,-4 160,-4 182,-4 205,-4 227,-4 254,-4 253,0 239,8 218,8 196,8 175,8 153,8 134,8 147,19 178,19 176,23 155,28 141,31 131,31 130,34 152,29 174,24 196,19 218,14 234,10 254,-1 266,-13 277,-31 289,-50 295,-60 301,-67 305,-75 311,-75 317,-76 331,-90 347,-98 351,-103 342,-99 330,-97 331,-100 335,-107 342,-113 354,-120 359,-126 361,-131 360,-136 341,-124 324,-113 301,-94 287,-76 272,-57 256,-43 240,-28 232,-21 221,-15 217,-14 197,-14 176,-11 154,-8 137,-6 133,16 130,34 129,30 129,39 131,36 132,10 132,38 134,16 136,-1 136,20 136,37 136,34 148,29 170,24 192,19 214,14 227,11 238,7 249,0 258,-7 268,-17 279,-35 291,-53 304,-75 321,-83 329,-91 351,-103 352,-108 351,-94 351,-108 347,-92 346,-105 342,-90 341,-104 338,-88 338,-104 333,-86 333,-103 331,-86 328,-98 330,-91 325,-95 332,-86 326,-94 320,-100 328,-107 336,-115 353,-130 361,-139 361,-121 359,-131 357,-115 356,-138 352,-112 352,-122 352,-135 348,-109 347,-133 344,-108 344,-131 340,-105 338,-127 334,-98 334,-125 331,-85 330,-105 330,-122 328,-96 326,-79 326,-120 323,-75 323,-106 323,-118 321,-97 319,-72 319,-86 318,-115 316,-69 316,-112 314,-97 311,-69 312,-87 312,-110 309,-69 309,-107 304,-69 304,-88 303,-102 301,-79 299,-60 299,-99 296,-54 295,-93 294,-79 291,-47 291,-69 291,-87 289,-60 288,-41 286,-82 283,-34 282,-76 281,-60 279,-26 278,-50 278,-71 276,-40 274,-20 274,-66 271,-13 270,-50 270,-61 269,-41 266,-5 266,-31 266,-57 263,-21 262,-1 262,-54 261,-42 258,2 258,-31 257,-49 256,-22 254,6 254,-11 254,-46 250,7 250,-32 250,-43 249,-22 247,10 247,-12 247,-39 244,-3 243,11 243,-36 242,-23 240,14 240,-13 240,-33 237,-3 236,15 236,-30 233,17 233,-13 233,-28 231,-4 228,17 228,6 228,-25 225,17 226,-23 224,-5 221,18 221,6 222,-22 219,19 219,-19 217,-5 214,20 215,5 215,-19 212,20 212,-19 210,-6 208,21 208,4 208,-19 205,22 205,-19 204,-7 201,23 201,3 201,-19 198,13 198,23 198,-19 197,-8 194,24 194,3 194,-19 192,12 191,25 190,-18 187,26 186,2 186,-18 184,11 182,27 182,-17 178,28 178,1 178,-17 176,11 174,29 174,-16 171,30 171,1 171,-16 169,10 167,30 167,-15 164,31 164,0 164,-15 162,9 160,31 160,20 160,-15 157,32 157,-1 157,-15 155,9 153,33 153,19 153,-14 150,33 150,-1 150,-13 148,8 146,35 146,19 146,-13 143,36 143,-2 143,-12 141,8 139,37 139,18 139,-12 136,27 136,38 136,-12 136,6 136,-11 111,-27 111,-35 107,-41 111,-35 111,-27 111,-35 106,-42 101,-46 91,-48 81,-48 73,-39 64,-31 74,-48 81,-68 87,-83 90,-105 92,-118 92,-136 101,-115 109,-98 108,-89 101,-90 94,-110 90,-120 74,-143 80,-122 87,-102 93,-81 96,-71 70,-64 56,-61 62,-58 83,-61 98,-63 88,-57 83,-78 78,-99 73,-120 68,-143 50,-121 32,-109 24,-103 -6,-91 -24,-87 -12,-113 -6,-118 -3,-112 -14,-83 -17,-66 -17,-54 -14,-44 -8,-65 -2,-85 4,-106 9,-124 14,-125 17,-122 12,-100 7,-78 3,-56 -3,-30 7,-18 15,-5 7,-6 10,-28 14,-51 17,-73 20,-95 25,-126 31,-104 29,-82 27,-59 25,-37 23,-12 22,-9 21,6 30,-1 38,-9 39,-30 39,-52 40,-73 40,-95 41,-116 41,-130 48,-137 49,-116 49,-94 50,-73 51,-51 52,-30 52,-8 53,15 69,9 68,-5 62,-11 58,-16 64,-26 75,-37 82,-14 82,-11 78,-21 77,-30 54,-30 34,-30 55,-27 66,-25 64,-47 61,-70 59,-92 57,-115 54,-140 61,-143 65,-121 68,-98 72,-76 75,-54 78,-35 78,-45 81,-47 90,-47 88,-51 103,-48 105,-40 109,-35 109,-27 109,-35 104,-41 91,-46 78,-47 78,-28 82,-17 91,-9 98,-10 93,-8 88,-9 82,-12 77,-21 74,-38 68,-27 65,-17 66,-7 77,-2 73,7 66,13 55,16 45,12 49,6 48,-3 41,-15 31,-1 18,6 14,-1 10,-1 5,-7 5,-13 -5,-12 -2,-22 -2,-27 -9,-38 -16,-47 -18,-57 -17,-70 -23,-82 -25,-96 -20,-105 -13,-113 -2,-120 12,-125 32,-126 38,-126 46,-137 53,-140 59,-143 66,-143 73,-143 80,-141 88,-140 100,-130 107,-117 109,-100 108,-89 105,-81 96,-71 84,-64 100,-64 97,-60 78,-53 104,-47 112,-38 112,-30 109,-24 101,-23 110,-24 107,-25 116,-29 103,-26 119,-35 103,-30 119,-40 103,-34 117,-43 106,-38 117,-42 107,-38 100,-37 115,-44 98,-39 112,-47 93,-41 110,-49 88,-43 102,-49 86,-44 96,-47 103,-52 100,-50 78,-46 70,-46 49,-50 56,-51 54,-54 45,-50 35,-50 33,-44 39,-40 61,-36 77,-34 80,-23 86,-14 91,-11 100,-11 98,-8 102,-9 86,-5 105,-13 82,-6 97,-14 78,-8 92,-16 74,-11 89,-18 72,-15 88,-21 71,-18 86,-25 70,-22 85,-28 69,-26 85,-33 69,-29 85,-37 69,-34 73,-33 53,-37 31,-32 21,-16 10,-12 -3,-12 -11,-13 2,-11 5,-11 -6,-14 -10,-15 8,-12 21,-8 22,-1 17,4 32,5 16,4 37,2 3,-1 40,0 0,-5 21,-5 42,-4 12,-8 -2,-9 45,-8 32,-9 -12,-15 22,-12 45,-11 13,-14 -9,-18 8,-21 31,-32 30,-37 31,-42 18,-50 23,-54 24,-57 18,-61 7,-87 5,-100 7,-111 11,-119 19,-125 28,-126 41,-128 46,-137 52,-141 58,-144 63,-143 51,-142 48,-140 58,-140 74,-144 77,-145 71,-141 42,-136 67,-139 83,-143 81,-140 62,-136 44,-134 39,-133 58,-133 77,-137 88,-142 72,-134 51,-132 37,-130 49,-130 68,-132 87,-137 93,-140 83,-134 64,-129 41,-128 24,-127 39,-126 59,-126 78,-131 96,-138 94,-135 74,-128 54,-124 34,-124 10,-127 28,-123 49,-123 70,-125 89,-131 99,-136 85,-128 64,-123 44,-120 22,-123 4,-126 18,-122 38,-119 60,-120 81,-124 99,-132 101,-133 97,-129 76,-121 54,-117 33,-117 12,-121 -1,-123 28,-117 49,-116 71,-118 92,-125 104,-130 88,-121 66,-116 44,-113 22,-116 1,-121 -6,-122 -4,-121 16,-115 38,-112 61,-113 82,-118 104,-126 106,-127 99,-122 78,-114 55,-111 33,-111 11,-114 -10,-120 4,-114 27,-110 50,-109 72,-112 94,-118 108,-125 90,-115 67,-109 44,-107 21,-109 -1,-114 -13,-117 -8,-115 14,-108 38,-105 61,-106 84,-111 107,-120 109,-122 102,-116 79,-108 56,-104 32,-104 8,-108 -12,-115 -17,-116 2,-108 26,-103 50,-102 74,-105 97,-112 111,-119 92,-108 68,-102 44,-100 20,-102 -1,-108 -19,-113 -10,-109 13,-102 38,-98 62,-99 87,-104 109,-113 111,-115 105,-110 81,-101 57,-97 31,-97 7,-101 -17,-110 -22,-110 1,-101 25,-96 51,-95 75,-98 100,-106 112,-111 94,-102 69,-95 44,-93 18,-95 -4,-101 -24,-107 -13,-102 12,-95 38,-91 64,-93 88,-98 112,-107 108,-103 83,-94 57,-90 31,-90 5,-94 -20,-103 -26,-104 -2,-95 24,-89 51,-88 77,-91 102,-99 113,-104 97,-95 71,-88 44,-86 18,-88 -4,-94 -27,-101 -16,-96 11,-88 38,-84 64,-86 91,-91 113,-100 111,-97 84,-87 58,-83 31,-83 3,-88 -22,-97 -29,-98 -4,-88 23,-82 51,-81 78,-85 100,-92 113,-96 99,-89 71,-82 44,-79 16,-82 -5,-88 -29,-94 -18,-90 9,-81 37,-77 65,-79 93,-85 112,-92 86,-81 58,-77 30,-77 1,-81 -26,-90 -29,-90 -6,-81 22,-75 51,-74 80,-78 108,-87 111,-87 101,-82 73,-75 44,-72 15,-75 -7,-81 -28,-87 -21,-83 8,-74 37,-70 66,-72 94,-78 110,-83 88,-74 59,-70 29,-70 0,-74 -28,-82 -8,-75 21,-68 51,-67 81,-71 108,-79 101,-75 74,-68 44,-65 14,-68 -16,-76 -26,-77 -5,-71 6,-68 36,-64 67,-65 97,-71 102,-74 90,-67 59,-63 28,-63 -2,-67 -22,-73 -10,-68 21,-61 51,-60 83,-64 93,-67 75,-61 44,-58 13,-61 -8,-67 -18,-70 -22,-69 4,-61 36,-57 57,-58 68,-58 99,-65 103,-67 91,-61 60,-56 28,-56 7,-60 -22,-65 0,-59 20,-54 41,-54 52,-54 84,-57 104,-63 77,-54 56,-52 44,-51 22,-53 11,-54 -19,-63 -22,-62 3,-54 25,-51 36,-50 57,-51 68,-51 88,-55 61,-49 38,-49 28,-49 7,-53 -22,-58 -14,-55 7,-51 19,-48 42,-47 52,-47 73,-50 96,-53 78,-47 57,-45 44,-44 22,-46 10,-47 -19,-55 -22,-54 1,-47 23,-45 35,-44 56,-44 69,-44 100,-50 103,-52 81,-46 70,-43 61,-42 38,-42 27,-42 6,-46 -21,-50 -16,-48 5,-44 18,-41 41,-40 53,-40 84,-44 79,-40 58,-38 44,-37 22,-39 9,-40 -20,-46 0,-41 21,-39 35,-37 58,-37 71,-37 84,-40 61,-35 40,-35 26,-35 4,-39 -9,-41 -16,-41 6,-36 17,-34 38,-33 53,-33 84,-37 63,-33 44,-30 22,-33 -1,-36 -12,-37 -2,-34 20,-32 34,-30 55,-30 71,-30 75,-31 62,-28 39,-28 25,-28 4,-31 -9,-32 16,-27 37,-26 53,-26 73,-27 44,-24 22,-26 -7,-28 14,-25 34,-23 57,-24 71,-24 63,-21 40,-21 25,-21 4,-24 -7,-25 15,-21 36,-20 54,-19 71,-21 44,-17 22,-19 -8,-21 13,-18 34,-16 57,-17 71,-17 64,-14 41,-14 24,-14 3,-17 -9,-18 14,-14 35,-13 54,-12 72,-14 53,-12 72,-10 53,-7 40,-5 62,-6 75,-7 42,-1 82,-5 51,0 43,0 47,-1 57,3 63,8 67,14 46,16 68,14 54,14 37,13 63,9 80,6 41,8 82,1 52,3 42,4 61,1 82,-2" fill="none" stroke="#fdd9de" stroke-width="3" /><path d="M -18,-28" fill="none" stroke="#feb343" stroke-width="3" /><path d="M 147,326 151,326 159,320 179,313 199,305 213,300 226,293 231,300 236,302 241,304 260,292 271,286 261,281 251,272 263,270 291,282 300,281 284,267 284,254 304,264 324,273 331,270 334,265 308,253 292,238 291,231 311,241 332,250 348,258 332,238 311,229 288,218 278,201 267,187 257,177 239,164 217,148 197,140 177,133 152,123 135,118 127,143 148,152 129,143 111,135 108,134 113,143 132,156 150,169 165,179 171,188 150,179 129,169 143,188 171,201 190,223 170,213 145,202 161,216 175,228 193,241 209,252 218,261 197,252 177,242 159,234 163,248 183,258 204,267 224,277 235,282 254,304 234,294 213,285 193,275 165,262 166,268 184,284 203,293 223,302 239,310 236,314 229,317 209,308 188,298 162,286 160,297 188,310 201,324 191,325 172,316 147,304 141,307 136,312 140,314 156,321 144,324 140,316 130,322 112,325 94,326 81,325 68,322 53,314 46,309 25,307 4,306 -14,319 -25,327 -45,317 -64,304 -76,296 -83,287 -63,297 -42,306 -22,316 2,327 13,325 7,316 -12,307 -32,298 -51,289 -71,280 -93,269 -75,255 -51,237 -35,222 -19,208 -4,193 12,179 28,164 44,150 59,135 67,128 79,133 70,142 57,135 57,148 50,158 36,152 35,164 30,174 14,167 10,190 -6,182 -12,192 -9,206 -12,205 -26,198 -33,208 -26,224 -46,214 -56,223 -33,233 -39,243 -65,231 -54,251 -46,265 -66,256 -81,249 -84,248 -89,252 -79,263 -59,272 -44,279 -42,290 -36,304 -25,309 -12,306 -1,300 19,309 38,318 58,327 83,338 95,338 87,327 67,318 46,308 31,301 21,284 41,294 62,303 82,313 103,322 128,334 136,332 138,326 119,317 99,308 80,299 54,287 51,286 28,274 33,264 52,273 78,285 76,278 58,266 50,260 43,244 63,253 75,258 74,245 59,229 52,222 78,234 68,215 61,201 68,204 83,211 68,191 69,179 88,188 87,175 76,158 93,165 85,148 84,135 101,143 104,132 81,122 94,122 108,121 136,135 131,127 133,125 161,133 141,124 132,120 130,118 115,112 123,109 129,118 151,121 174,124 196,127 218,130 244,133 263,143 282,152 302,162 321,171 340,181 348,189 356,198 336,189 315,179 295,170 274,160 254,151 233,141 213,132 191,122 161,116 158,119 177,128 197,137 216,146 236,155 255,164 275,173 294,182 314,191 333,200 354,210 356,211 370,218 374,232 355,223 335,214 316,205 296,196 277,187 257,178 235,168 253,181 262,187 277,200 297,210 318,219 338,229 359,238 369,243 374,237 374,225 364,208 349,191 341,181 318,165 293,152 273,145 252,138 232,131 219,127 197,123 175,118 153,114 136,111 133,125 155,132 176,138 188,142 214,155 233,168 252,180 262,187 280,205 289,221 292,238 286,252 275,262 263,269 251,272 237,271 224,266 213,257 198,238 186,219 175,199 163,180 151,161 140,142 129,124 133,125 136,111 128,109 122,105 105,123 105,131 108,134 119,154 129,174 140,194 148,208 160,235 164,257 166,267 164,283 158,296 144,306 127,310 112,310 98,305 88,298 80,290 75,273 76,251 80,230 84,209 88,188 92,167 101,139 105,131 105,123 84,122 84,130 81,145 74,166 66,188 58,211 49,230 40,250 33,265 27,276 19,287 10,294 -2,300 -22,300 -33,294 -42,287 -46,270 -46,257 -40,244 -32,231 -21,217 -4,203 14,188 31,174 48,159 66,145 84,130 84,122 74,121 55,137 37,151 19,164 1,178 -17,191 -40,209 -56,223 -79,244 -89,251 -94,258 -95,267 -83,285 -72,302 -62,313 -49,320 -36,325 -16,327 6,325 32,323 56,335 76,338 97,337 121,336 138,331 157,321 179,324 197,324 217,321 238,314 253,304 260,297 266,291 291,282 301,281 323,273 342,261 358,251 369,243 372,241 376,227 372,242 372,236 365,249 371,236 377,223 365,243 358,255 375,219 353,259 365,232 373,213 359,239 345,265 353,248 371,209 365,220 346,255 338,270 358,228 368,205 352,236 332,274 346,244 366,201 358,216 339,252 327,276 334,261 351,224 363,198 345,232 327,268 322,278 339,241 355,204 360,195 351,213 333,248 316,281 327,257 344,221 358,192 339,229 320,264 311,282 332,237 349,201 355,189 344,209 327,245 307,285 321,254 338,218 353,186 332,226 314,261 302,286 309,270 326,234 343,198 350,183 338,206 320,242 298,286 314,250 331,214 347,179 325,222 307,258 293,287 302,267 319,231 336,194 344,177 331,203 313,238 296,274 289,288 308,247 324,211 341,175 319,219 301,255 284,288 296,264 313,227 330,191 338,173 325,199 307,235 289,271 280,288 301,244 318,207 335,170 330,180 312,216 295,251 276,289 289,260 306,224 323,188 332,168 318,196 300,232 282,267 270,292 277,277 294,240 311,204 329,165 323,176 305,212 288,248 270,284 261,301 284,250 276,264 253,308 269,272 275,258 263,280 245,314 256,288 268,262 250,296 238,318 244,305 262,265 256,276 237,312 232,321 249,284 257,266 243,292 226,324 237,300 252,266 230,308 221,325 241,280 248,266 236,288 216,327 229,297 243,266 223,304 211,327 218,313 234,277 239,266 229,285 207,328 223,293 236,265 217,301 203,329 211,310 227,273 232,263 223,281 204,317 198,330 216,290 228,262 210,297 193,330 204,306 221,270 225,260 216,278 197,313 189,330 209,286 222,258 203,294 184,330 197,302 214,266 219,255 209,274 190,310 180,330 185,319 202,282 216,252 196,290 176,330 190,299 207,262 213,249 202,271 184,306 172,329 178,315 195,279 211,245 189,286 168,328 183,295 200,259 208,242 195,267 177,302 163,328 171,311 188,275 205,239 183,283 160,327 177,292 193,255 203,235 188,263 170,299 156,327 165,308 182,272 201,230 194,244 176,280 158,315 151,329 170,288 186,252 198,227 181,260 163,296 145,332 158,305 174,268 191,232 195,222 186,240 169,276 151,312 139,335 145,321 155,294 137,327 130,338 148,298 143,308 125,339 136,316 142,302 130,323 120,341 138,303 115,342 132,304 124,319 110,342 117,328 127,306 106,343 123,305 117,316 101,343 110,324 118,305 104,331 97,343 114,305 92,344 103,320 110,303 97,327 87,344 106,303 83,344 95,315 102,300 89,323 78,344 83,332 98,299 73,344 88,312 95,296 82,319 69,343 76,328 91,297 65,342 82,308 89,293 76,316 62,342 70,324 87,290 63,331 58,341 76,304 84,287 70,312 55,341 64,321 82,283 77,293 58,328 51,339 69,301 80,277 64,309 49,338 58,317 79,272 70,289 51,325 46,336 63,298 78,264 57,305 42,334 51,314 68,278 79,254 63,286 44,321 39,332 56,294 73,258 80,242 68,266 50,301 35,330 44,310 61,274 82,230 74,246 56,282 38,318 32,329 50,291 67,255 83,218 62,263 45,299 31,328 40,308 56,272 72,235 86,205 67,243 50,279 32,315 26,328 44,288 61,252 77,215 88,192 73,224 55,260 38,296 22,329 33,305 50,269 67,232 84,196 91,181 79,204 62,240 44,276 26,312 18,329 38,285 55,249 72,213 89,176 95,164 85,185 67,221 50,257 33,293 15,330 28,302 44,266 61,229 78,193 95,157 106,132 90,165 73,201 56,238 39,274 22,310 13,329 22,308 32,288 41,268 51,247 60,227 70,206 80,186 89,166 99,145 105,132 111,120 114,120 124,139 133,158 138,168 146,189 157,217 163,242 164,255 164,269 163,283 170,266 187,229 192,217 182,237 163,273 175,246 190,213 168,253 162,266 181,226 188,210 175,234 160,259 168,243 186,206 181,215 160,254 174,223 184,201 168,231 158,248 181,198 173,212 157,242 167,220 180,193 160,227 155,237 172,200 177,189 166,208 153,231 160,217 174,186 151,226 165,197 171,183 159,205 149,222 170,178 147,215 158,194 167,174 151,201 145,212 164,170 158,182 143,208 151,191 162,166 141,204 161,163 151,179 139,200 145,188 158,159 137,195 150,168 156,155 144,176 135,191 154,151 133,187 143,165 150,147 136,172 130,182 148,143 143,153 128,178 136,162 146,140 126,173 143,136 135,150 124,169 128,158 139,134 121,166 133,139 138,128 127,146 118,161 136,125 117,158 127,136 133,123 124,118 138,119 160,126 181,132 191,135 215,147 234,160 249,170 260,179 278,199 284,211 288,221 290,234 289,240 285,251 289,240 291,238 301,215 318,178 324,163 303,204 288,235 306,195 321,161 309,185 286,228 294,211 311,175 318,159 296,201 285,223 299,192 315,157 303,182 283,219 288,209 304,172 311,156 290,198 280,216 293,189 309,154 296,179 278,211 298,169 306,152 283,195 275,208 286,186 302,150 289,175 273,205 291,166 299,148 275,191 270,202 279,182 295,146 282,172 267,199 284,163 292,144 264,196 272,179 289,144 275,169 261,193 277,160 285,142 259,191 265,176 281,141 268,166 255,189 270,156 278,140 253,186 258,173 274,138 261,163 249,185 263,153 271,137 246,181 251,170 267,135 254,159 242,179 256,150 264,134 240,177 244,167 260,133 247,156 236,175 249,147 257,131 233,172 253,130 240,153 230,171 242,144 249,129 226,169 245,128 233,150 224,167 235,140 241,127 220,165 238,126 226,147 217,162 229,137 235,125 214,162 231,124 219,144 210,159 222,134 227,123 207,158 222,122 212,140 203,156 214,131 219,121 199,154 214,121 205,137 196,152 210,120 192,150 206,119 197,134 189,148 204,118 185,147 199,118 191,131 182,146 195,117 178,144 191,116 184,127 174,143 187,115 171,143 183,114 177,125 167,141 179,114 164,140 175,114 160,139 172,113 157,138 168,112 153,137 165,111 150,136 154,126 160,111 146,135 157,110 142,133 147,123 153,109 138,132 149,108 134,131 140,120 145,108 125,146 117,160 128,137 141,107 131,126 115,155 133,117 138,106 112,151 121,133 134,105 124,123 110,147 126,114 131,104 107,143 114,130 128,102 118,120 107,140 120,111 124,100 104,136 120,104 113,118 95,154 78,190 60,226 43,262 25,298 9,331 29,289 46,253 63,217 80,180 96,144 111,112 100,134 83,170 66,206 48,242 31,278 14,314 6,331 17,306 34,269 51,233 68,197 84,161 105,117 88,151 71,187 53,223 36,259 19,295 1,331 22,286 39,250 56,214 73,177 90,141 101,117 94,131 77,167 59,203 41,239 24,275 6,311 -3,331 10,302 21,280 14,292 -8,332 -2,319 13,287 1,308 -13,332 7,292 -17,332 -9,315 1,294 -6,305 -21,332 -3,294 -19,321 -25,332 -16,312 -8,294 -29,331 -11,294 -25,319 -32,331 -23,309 -16,294 -37,331 -20,294 -32,315 -40,329 -30,306 -24,293 -44,328 -27,291 -39,312 -48,327 -37,303 -30,289 -52,325 -34,287 -46,309 -55,324 -44,299 -37,284 -59,322 -38,281 -53,306 -61,320 -50,297 -40,276 -47,287 -65,318 -42,270 -60,302 -67,315 -57,293 -43,265 -42,253 -57,282 -67,303 -62,292 -42,253 -52,273 -62,293 -67,302 -71,310 -66,296 -61,275 -57,257 -53,250 -40,233 -26,216 -12,198 5,183 22,168 39,153 56,138 66,129 74,124 86,122 92,122 98,122 89,141 84,151 77,166 58,208 72,175 89,139 94,127 84,147 67,178 78,156 96,117 91,128 75,156 84,136 93,117 77,144 88,117 71,144 77,132 84,116 70,139 64,149 79,116 56,156 70,127 75,115 64,135 50,162 58,144 69,121 52,151 44,166 60,129 35,174 52,136 45,147 26,181 38,155 45,140 32,163 20,186 26,172 38,145 20,179 12,193 31,151 4,198 18,167 24,156 13,175 -3,205 6,184 17,161 0,191 -12,212 -6,200 9,166 -13,207 -20,221 2,172 -6,187 -25,223 -32,236 -14,195 -6,178 -19,203 -37,239 -55,275 -64,293 -43,248 -26,211 -14,184 -31,220 -49,255 -67,291 -76,308 -55,264 -38,228 -21,190 -26,200 -44,236 -62,271 -78,304 -67,280 -50,244 -33,208 -28,196 -38,216 -56,252 -74,288 -80,300 -62,260 -45,224 -35,202 -51,232 -69,268 -83,296 -75,277 -58,240 -42,206 -63,248 -86,292 -69,257 -49,212 -58,229 -76,264 -88,288 -81,273 -65,237 -57,220 -70,245 -90,284 -77,253 -66,228 -83,261 -93,280 -88,270 -72,233 -96,277 -83,249 -79,240 -89,257 -97,270 -88,248 -97,264 -90,250 -71,231" fill="none" stroke="#feb343" stroke-width="3" /><path d="M 82,-2 92,4 113,13 133,22 130,24 114,29 119,34 120,40 131,36 131,28 128,20 121,17 118,6 104,6 93,9 68,22 51,29 33,43 24,50 44,42 61,36 69,34 77,54 82,66 77,56 64,41 51,30 48,42 49,53 44,56 34,59 42,68 54,64 60,69 66,72 51,77 67,93 83,109 95,122 110,117 114,114 119,108 111,105 82,115 74,112 71,106 92,99 121,89 121,82 118,78 98,85 88,88 58,87 78,80 98,73 128,62 130,49 108,56 98,76 91,89 91,75 94,62 92,50 94,49 99,35 93,38 90,26 93,26 119,16 122,15 134,10 135,-3 115,4 95,12 75,19 55,27 34,34 6,45 14,29 34,22 52,16 67,22 75,7 96,-1 104,3 114,3 135,-3 136,-10 124,-10 101,-2 79,-2 74,7 66,14 54,16 44,13 38,19 30,19 20,23 10,35 4,49 13,47 24,50 39,64 53,82 67,99 71,109 75,118 88,123 103,121 114,115 120,105 121,89 126,67 131,44 120,42 106,59 94,75 94,49 88,77 75,52 82,79 60,69 51,61 48,48 53,39 59,41 64,43 73,52 70,41 69,33 71,27 77,21 81,19 84,21 89,26 92,36 93,49 101,35 105,30 110,29 115,29 119,35 120,42 131,44 133,23 136,-5 135,-14 134,-11 138,3 134,-12 137,13 128,-15 136,22 123,-15 126,-3 135,30 127,8 119,-15 128,17 134,39 130,28 116,-13 119,-1 130,38 134,48 120,10 111,-12 121,20 132,55 123,30 108,-10 112,2 124,40 131,62 127,50 113,13 105,-9 115,22 127,58 117,33 101,-8 105,5 114,36 106,16 98,-7 110,35 94,-6 98,8 106,37 99,18 91,-6 100,28 104,41 86,-7 91,10 101,44 93,21 82,-7 79,-8 86,14 97,51 83,5 79,-8 85,13 92,33 97,50 89,29 81,8 76,-8 85,17 89,29 81,8 76,-6 84,26 73,-1 79,25 71,4 76,28 68,7 70,20 73,33 64,9 71,41 60,10 64,21 71,41 64,21 60,11 68,32 76,53 85,74 90,88 97,99 103,95 119,90 119,82 120,78 128,64 129,69 122,48 118,35 124,53 129,70 115,40 127,77 122,65 112,44 116,56 124,87 109,47 117,76 124,98 112,68 106,53 119,96 123,109 115,88 103,55 110,78 121,114 104,70 100,58 112,99 118,119 108,90 98,62 103,80 114,120 111,110 95,66 106,100 113,121 113,117 100,96 98,91 94,66 94,59 97,49 98,52 90,32 89,29 91,38 98,63 90,42 93,56 97,73 88,64 92,78 106,126 93,89 83,61 95,98 104,127 97,108 83,71 72,42 85,80 99,119 88,90 74,53 59,10 63,24 76,62 83,84 79,72 65,34 57,10 68,54 54,11 57,26 63,48 59,36 49,10 59,46 49,18 45,7 50,28 55,46 41,8 52,49 39,14 43,29 49,52 45,40 35,13 39,30 41,50 53,69 61,82 69,92 79,99 78,109 75,117 72,116 74,118 75,123 75,117 74,112 79,123 78,109 81,105 87,109 98,124 84,86 78,68 86,96 95,128 88,106 75,71 88,116 92,129 78,89 71,69 80,98 89,128 81,108 66,67 70,80 85,126 71,91 61,65 72,101 80,126 75,111 62,73 57,62 64,83 72,113 65,93 51,56 40,24 53,65 63,98 55,76 41,38 31,13 42,48 55,89 44,58 28,13 33,30 45,68 48,78 34,41 24,15 35,51 41,72 37,61 22,16 33,51 38,68 30,42 22,16 28,36 35,57 38,67 31,55 24,46 18,43 12,44 4,50 2,45 4,47 5,54 4,46 9,53 6,33 13,53 11,41 9,28 17,53 11,25 13,23 24,53 13,23 24,52 24,55 23,47 16,20 31,61 18,18 20,17 25,32 20,17 25,31 23,24 20,18" fill="none" stroke="#feb343" stroke-width="3" /></svg>