<svg height="898" version="1.1" viewBox="-345 -449 690 898" width="690" xmlns="http://www.w3.org/2000/svg" xmlns:ev="http://www.w3.org/2001/xml-events" xmlns:xlink="http://www.w3.org/1999/xlink"><path d="M -288,-61 -278,-61 -268,-61 -278,-61 -288,-61 -263,-61 -265,-69 -268,-90 -258,-103 -247,-116 -242,-83 -238,-61 -225,-61 -213,-61 -218,-97 -225,-136 -226,-142 -215,-154 -205,-166 -202,-150 -195,-111 -189,-71 -187,-61 -175,-61 -162,-61 -166,-85 -172,-124 -179,-164 -183,-190 -172,-202 -162,-214 -156,-178 -149,-138 -143,-99 -137,-61 -124,-61 -111,-61 -113,-73 -120,-113 -126,-152 -133,-192 -139,-231 -140,-238 -130,-251 -119,-264 -116,-245 -110,-206 -103,-166 -97,-127 -90,-87 -86,-61 -73,-61 -61,-61 -61,-65 -67,-101 -74,-141 -80,-180 -87,-220 -93,-259 -99,-292 -88,-307 -78,-321 -77,-312 -70,-273 -64,-234 -57,-194 -51,-155 -44,-115 -38,-76 -35,-61 -23,-61 -10,-61 -15,-90 -21,-129 -28,-169 -34,-208 -41,-247 -47,-287 -54,-326 -57,-349 -47,-365 -37,-381 -36,-377 -31,-340 -24,-301 -18,-261 -11,-222 -5,-182 2,-143 8,-104 15,-65 15,-61 28,-61 41,-61 38,-78 32,-117 25,-157 19,-196 12,-236 6,-275 -1,-315 -7,-354 -14,-394 -17,-412 -7,-427 3,-443 9,-408 16,-368 22,-329 29,-289 35,-250 42,-210 48,-171 55,-131 61,-92 66,-61 88,-70 110,-80 117,-82 139,-83 161,-85 182,-87 194,-88 214,-83 235,-76 252,-70 273,-64 294,-61 293,-66 284,-84 272,-100 260,-116 265,-85 269,-61 256,-61 244,-61 242,-71 235,-110 229,-150 228,-154 213,-171 197,-187 199,-175 206,-136 212,-96 218,-61 205,-61 193,-61 189,-83 183,-122 176,-161 170,-201 166,-222 151,-240 135,-257 140,-227 147,-187 153,-148 160,-108 166,-69 167,-61 155,-61 142,-61 137,-94 130,-134 124,-173 117,-213 111,-252 104,-292 104,-296 92,-310 81,-325 71,-340 75,-317 81,-278 88,-238 94,-199 101,-159 107,-120 114,-80 117,-61 104,-61 91,-61 91,-66 84,-106 78,-145 71,-185 65,-224 58,-264 52,-303 45,-343 39,-382 36,-396 25,-411 13,-425 7,-433 3,-443 5,-449 8,-447 2,-444 -2,-438 7,-444 11,-442 -2,-435 -5,-433 -9,-428 11,-439 14,-437 -13,-422 -16,-417 -7,-422 14,-433 17,-432 3,-424 -20,-411 -23,-406 -20,-408 13,-426 17,-428 21,-427 -12,-409 -27,-400 -30,-395 -1,-411 20,-423 24,-422 9,-413 -26,-394 -34,-390 -37,-384 -16,-396 19,-416 23,-418 27,-417 -6,-398 -37,-381 -41,-379 -44,-373 -30,-381 4,-401 26,-413 30,-411 15,-403 -20,-383 -48,-368 -51,-362 -45,-366 -10,-386 25,-405 29,-408 33,-406 0,-388 -35,-368 -55,-357 -58,-352 -25,-371 10,-390 32,-402 36,-401 21,-393 -14,-373 -49,-353 -62,-346 -66,-341 -39,-356 -4,-375 31,-395 35,-397 39,-396 6,-378 -29,-358 -64,-338 -70,-335 -75,-329 -54,-341 -19,-360 16,-380 38,-392 42,-391 26,-382 -9,-362 -43,-343 -75,-325 -79,-323 -83,-317 -68,-326 -33,-345 2,-365 37,-384 41,-387 45,-386 12,-367 -23,-347 -58,-328 -87,-311 -92,-305 -83,-311 -48,-330 -13,-350 22,-369 44,-382 48,-380 32,-372 -3,-352 -38,-332 -72,-313 -96,-300 -100,-294 -97,-296 -62,-315 -27,-335 8,-354 42,-374 47,-376 51,-375 18,-357 -17,-337 -52,-317 -87,-298 -105,-288 -109,-282 -77,-300 -42,-320 -7,-339 28,-359 50,-371 54,-370 38,-361 3,-342 -32,-322 -66,-302 -101,-283 -113,-276 -117,-270 -91,-285 -56,-305 -21,-324 13,-344 48,-363 53,-366 57,-365 24,-346 -11,-327 -46,-307 -81,-287 -116,-268 -122,-264 -127,-258 -106,-270 -71,-290 -36,-309 -1,-329 34,-348 57,-361 61,-360 44,-351 9,-331 -26,-311 -61,-292 -95,-272 -128,-254 -132,-252 -137,-246 -120,-255 -85,-275 -50,-294 -16,-314 19,-333 54,-353 60,-356 64,-355 30,-336 -5,-316 -40,-296 -75,-277 -110,-257 -142,-239 -148,-233 -135,-240 -100,-260 -65,-279 -30,-299 5,-318 40,-338 63,-351 67,-350 50,-340 15,-321 -20,-301 -55,-281 -90,-262 -124,-242 -154,-226 -160,-219 -149,-225 -114,-245 -79,-264 -45,-284 -10,-303 25,-323 60,-343 66,-346 70,-345 35,-325 1,-306 -34,-286 -69,-266 -104,-247 -139,-227 -165,-212 -171,-206 -164,-210 -129,-230 -94,-249 -59,-269 -24,-288 11,-308 46,-327 70,-341 74,-340 56,-330 21,-310 -14,-291 -49,-271 -84,-251 -119,-232 -153,-212 -177,-199 -184,-192 -178,-195 -143,-214 -108,-234 -74,-254 -39,-273 -4,-293 31,-312 66,-332 73,-336 77,-335 73,-333 41,-315 6,-295 -28,-276 -63,-256 -98,-236 -133,-217 -168,-197 -190,-185 -197,-178 -193,-180 -158,-199 -123,-219 -88,-239 -53,-258 -18,-278 17,-297 51,-317 76,-331 80,-330 62,-319 27,-300 -8,-280 -43,-261 -78,-241 -113,-221 -148,-202 -182,-182 -203,-171 -209,-164 -206,-166 -172,-184 -137,-204 -103,-224 -68,-243 -33,-263 2,-282 37,-302 72,-322 80,-326 83,-325 80,-323 47,-304 12,-285 -23,-265 -57,-245 -92,-226 -127,-206 -162,-187 -197,-167 -216,-156 -222,-149 -219,-151 -187,-169 -152,-189 -117,-209 -82,-228 -47,-248 -12,-267 23,-287 57,-307 83,-321 87,-320 68,-309 33,-289 -2,-270 -37,-250 -72,-230 -107,-211 -142,-191 -177,-172 -211,-152 -228,-143 -233,-136 -201,-154 -166,-174 -132,-194 -97,-213 -62,-233 -27,-252 8,-272 43,-292 78,-311 87,-316 91,-315 87,-313 53,-294 18,-274 -17,-255 -52,-235 -86,-215 -121,-196 -156,-176 -191,-157 -226,-137 -238,-130 -243,-124 -216,-139 -181,-159 -146,-179 -111,-198 -76,-218 -41,-237 -7,-257 28,-277 63,-296 91,-312 95,-310 73,-298 39,-279 4,-259 -31,-240 -66,-220 -101,-200 -136,-181 -171,-161 -206,-142 -240,-122 -249,-117 -254,-111 -230,-124 -195,-144 -161,-163 -126,-183 -91,-203 -56,-222 -21,-242 14,-261 49,-281 84,-301 95,-307 98,-306 94,-303 59,-283 24,-264 -11,-244 -46,-225 -81,-205 -115,-185 -150,-166 -185,-146 -220,-127 -255,-107 -259,-105 -264,-99 -245,-109 -210,-129 -175,-148 -140,-168 -105,-188 -70,-207 -36,-227 -1,-246 34,-266 69,-286 98,-302 102,-301 79,-288 44,-268 10,-249 -25,-229 -60,-210 -95,-190 -130,-170 -165,-151 -200,-131 -235,-112 -269,-92 -273,-86 -259,-94 -224,-114 -190,-133 -155,-153 -120,-173 -85,-192 -50,-212 -15,-231 20,-251 55,-271 90,-290 102,-297 106,-296 100,-292 65,-273 30,-253 -5,-234 -40,-214 -75,-195 -110,-175 -144,-155 -179,-136 -214,-116 -249,-97 -277,-81 -281,-75 -274,-79 -239,-99 -204,-118 -169,-138 -134,-158 -99,-177 -65,-197 -30,-216 5,-236 40,-256 75,-275 106,-293 110,-291 85,-277 50,-258 15,-238 -19,-219 -54,-199 -89,-179 -124,-160 -159,-140 -194,-121 -229,-101 -264,-82 -284,-70 -288,-64 -253,-84 -219,-103 -184,-123 -149,-143 -114,-162 -79,-182 -44,-201 -9,-221 26,-241 61,-260 95,-280 110,-288 114,-286 106,-282 71,-262 36,-243 1,-223 -34,-204 -69,-184 -104,-164 -139,-145 -173,-125 -208,-106 -243,-86 -278,-66 -291,-59 -285,-59 -268,-69 -233,-88 -198,-108 -163,-128 -128,-147 -94,-167 -59,-186 -24,-206 11,-226 46,-245 81,-265 114,-283 117,-282 91,-267 56,-247 21,-228 -14,-208 -48,-189 -83,-169 -118,-149 -153,-130 -188,-110 -223,-91 -258,-71 -279,-59 -272,-59 -248,-73 -213,-93 -178,-113 -143,-132 -108,-152 -73,-171 -38,-191 -3,-210 32,-230 66,-250 101,-269 117,-278 121,-277 111,-272 77,-252 42,-232 7,-213 -28,-193 -63,-174 -98,-154 -133,-134 -168,-115 -202,-95 -237,-76 -266,-59 -260,-59 -227,-78 -192,-97 -157,-117 -123,-137 -88,-156 -53,-176 -18,-195 17,-215 52,-235 87,-254 121,-274 125,-272 97,-257 62,-237 27,-217 -8,-198 -43,-178 -77,-159 -112,-139 -147,-119 -182,-100 -217,-80 -251,-61 -254,-59 -248,-59 -242,-63 -207,-82 -172,-102 -137,-122 -102,-141 -67,-161 -32,-180 3,-200 37,-220 72,-239 107,-259 125,-269 129,-268 117,-261 82,-242 48,-222 13,-202 -22,-183 -57,-163 -92,-144 -127,-124 -162,-104 -197,-85 -231,-65 -242,-59 -236,-59 -221,-67 -186,-87 -152,-107 -117,-126 -82,-146 -47,-165 -12,-185 23,-205 58,-224 93,-244 129,-264 133,-263 103,-246 68,-226 33,-207 -2,-187 -37,-168 -72,-148 -106,-129 -141,-109 -176,-89 -211,-70 -230,-59 -224,-59 -201,-72 -166,-92 -131,-111 -96,-131 -61,-150 -27,-170 8,-190 43,-209 78,-229 113,-248 133,-260 137,-258 123,-251 88,-231 53,-211 19,-192 -16,-172 -51,-153 -86,-133 -121,-113 -156,-94 -191,-74 -217,-59 -211,-59 -181,-77 -146,-96 -111,-116 -76,-135 -41,-155 -6,-175 29,-194 64,-214 99,-233 133,-253 137,-255 141,-254 109,-236 74,-216 39,-196 4,-177 -31,-157 -66,-138 -101,-118 -135,-98 -170,-79 -205,-59 -199,-59 -195,-62 -160,-81 -125,-101 -90,-120 -56,-140 -21,-160 14,-179 49,-199 84,-218 119,-238 141,-251 145,-249 129,-240 94,-221 59,-201 24,-181 -10,-162 -45,-142 -80,-123 -115,-103 -150,-83 -185,-64 -193,-59 -187,-59 -175,-66 -140,-86 -105,-105 -70,-125 -35,-144 0,-164 35,-184 70,-203 104,-223 139,-242 145,-246 149,-245 115,-225 80,-206 45,-186 10,-166 -25,-147 -60,-127 -95,-108 -130,-88 -164,-68 -181,-59 -175,-59 -154,-71 -119,-90 -85,-110 -50,-129 -15,-149 20,-169 55,-188 90,-208 125,-227 149,-241 153,-240 135,-230 100,-210 65,-191 30,-171 -5,-151 -39,-132 -74,-112 -109,-93 -144,-73 -168,-59 -162,-59 -134,-75 -99,-95 -64,-114 -29,-134 6,-154 41,-173 75,-193 110,-212 145,-232 154,-237 157,-235 154,-233 120,-215 86,-195 51,-175 16,-156 -19,-136 -54,-117 -89,-97 -124,-78 -156,-59 -150,-59 -147,-61 -113,-80 -79,-99 -44,-119 -9,-139 26,-158 61,-178 96,-197 131,-217 158,-232 161,-231 141,-219 106,-200 71,-180 36,-160 1,-141 -34,-121 -68,-102 -103,-82 -138,-62 -144,-59 -138,-59 -128,-65 -93,-84 -58,-104 -23,-124 12,-143 46,-163 81,-182 116,-202 151,-222 162,-228 165,-226 161,-224 126,-204 91,-185 57,-165 22,-145 -13,-126 -48,-106 -83,-87 -118,-67 -132,-59 -126,-59 -108,-69 -73,-89 -38,-109 -3,-128 32,-148 67,-167 102,-187 137,-207 166,-223 170,-222 147,-209 112,-189 77,-170 42,-150 7,-130 -28,-111 -63,-91 -97,-72 -120,-59 -113,-59 -87,-74 -52,-94 -18,-113 17,-133 52,-152 87,-172 122,-191 157,-211 170,-218 174,-217 167,-213 132,-194 97,-174 62,-155 28,-135 -7,-115 -42,-96 -77,-76 -107,-59 -101,-59 -67,-78 -32,-98 3,-118 38,-137 73,-157 108,-176 142,-196 174,-214 178,-212 153,-198 118,-179 83,-159 48,-140 13,-120 -22,-100 -57,-81 -92,-61 -95,-59 -89,-59 -81,-63 -46,-83 -12,-103 23,-122 58,-142 93,-161 128,-181 163,-201 178,-209 182,-208 173,-203 138,-183 103,-164 68,-144 33,-125 -1,-105 -36,-85 -71,-66 -83,-59 -77,-59 -61,-68 -26,-88 9,-107 44,-127 79,-146 113,-166 148,-186 182,-205 186,-203 158,-188 124,-168 89,-149 54,-129 19,-109 -16,-90 -51,-70 -71,-59 -65,-59 -41,-73 -6,-92 29,-112 64,-131 99,-151 134,-171 169,-190 187,-201 179,-180 172,-157 170,-134 174,-112 185,-92 202,-78 223,-69 245,-63 268,-60 292,-59 296,-59 299,-60 292,-60 284,-59 296,-66 292,-67 286,-63 278,-59 272,-59 276,-61 293,-71 289,-72 265,-59 259,-59 290,-76 286,-77 280,-74 253,-59 247,-59 270,-71 287,-81 283,-83 260,-69 241,-59 235,-59 249,-67 281,-85 284,-87 281,-88 274,-84 239,-65 229,-59 223,-59 229,-62 264,-82 281,-92 277,-93 254,-80 220,-61 217,-59 210,-59 244,-77 277,-96 274,-98 268,-95 233,-75 204,-59 198,-59 223,-73 258,-92 274,-101 270,-103 248,-90 213,-71 192,-59 186,-59 203,-68 238,-88 270,-106 266,-107 262,-105 227,-86 193,-66 180,-59 174,-59 182,-64 217,-83 252,-103 266,-111 263,-112 242,-101 207,-81 172,-61 168,-59 162,-59 165,-61 197,-79 232,-98 263,-116 259,-117 222,-96 187,-76 155,-59 149,-59 177,-74 211,-94 246,-113 259,-120 255,-122 236,-111 201,-91 166,-72 143,-59 137,-59 156,-70 191,-89 226,-109 255,-125 251,-127 216,-106 181,-87 146,-67 131,-59 125,-59 136,-65 171,-85 206,-104 240,-124 252,-130 248,-131 230,-121 195,-102 160,-82 126,-63 119,-59 113,-59 116,-61 150,-80 185,-100 220,-119 248,-135 244,-136 210,-117 175,-97 140,-78 107,-59 100,-59 130,-75 165,-95 200,-115 235,-134 244,-140 240,-141 224,-132 189,-112 155,-93 120,-73 94,-59 88,-59 110,-71 144,-90 179,-110 214,-130 240,-144 236,-146 204,-127 169,-108 134,-88 99,-69 82,-59 76,-59 89,-66 124,-86 159,-106 194,-125 229,-145 236,-149 232,-150 218,-142 184,-123 149,-103 114,-84 79,-64 70,-59 64,-59 69,-62 104,-81 139,-101 173,-121 208,-140 232,-153 228,-155 198,-138 163,-118 128,-99 93,-79 61,-61 58,-59 52,-59 83,-77 118,-96 153,-116 188,-136 223,-155 227,-158 224,-159 213,-153 178,-133 143,-114 108,-94 73,-74 45,-59 39,-59 63,-72 98,-92 133,-111 168,-131 202,-151 223,-162 219,-164 192,-148 157,-129 122,-109 88,-90 53,-70 33,-59 27,-59 43,-68 77,-87 112,-107 147,-126 182,-146 215,-165 219,-167 215,-168 207,-163 172,-144 137,-124 102,-105 67,-85 32,-65 21,-59 15,-59 22,-63 57,-83 92,-102 127,-122 162,-141 196,-161 215,-171 211,-173 186,-159 151,-139 117,-120 82,-100 47,-80 12,-61 9,-59 3,-59 37,-78 72,-98 106,-117 141,-137 176,-156 211,-176 207,-177 201,-174 166,-154 131,-135 96,-115 61,-95 26,-76 -3,-59 -10,-59 16,-74 51,-93 86,-113 121,-132 156,-152 191,-172 206,-180 203,-182 180,-169 146,-150 111,-130 76,-110 41,-91 6,-71 -16,-59 -22,-59 -4,-69 31,-89 66,-108 100,-128 135,-147 170,-167 202,-185 198,-186 195,-184 160,-165 125,-145 90,-125 55,-106 21,-86 -14,-67 -28,-59 -34,-59 -25,-64 10,-84 45,-104 80,-123 115,-143 150,-162 185,-182 198,-189 194,-191 175,-180 140,-160 105,-141 70,-121 35,-101 0,-82 -35,-62 -40,-59 -46,-59 -43,-61 -10,-79 25,-99 60,-119 95,-138 129,-158 164,-177 194,-194 190,-195 154,-175 119,-156 84,-136 50,-116 15,-97 -20,-77 -52,-59 -58,-59 -30,-75 4,-94 39,-114 74,-134 109,-153 144,-173 179,-192 190,-199 186,-200 169,-190 134,-171 99,-151 64,-131 29,-112 -6,-92 -41,-73 -65,-59 -56,-64 -47,-69 -56,-64 -65,-59" fill="none" stroke="#28166f" stroke-width="3" /><path d="M -65,-31 -75,-30 -85,-28 -75,-30 -65,-31 -88,-28 -111,-25 -134,-22 -157,-19 -180,-17 -204,-14 -227,-11 -250,-8 -273,-5 -296,-3 -319,0 -314,-16 -306,-31 -300,-31 -299,-27 -294,0 -270,-1 -246,-2 -221,-3 -197,-5 -173,-6 -149,-7 -125,-8 -100,-10 -76,-11 -52,-12 -28,-13 -4,-15 21,-16 45,-17 69,-18 93,-19 117,-21 141,-22 165,-23 189,-24 213,-25 237,-27 261,-28 285,-29 298,-29 311,-26 313,-16 315,1 303,1 290,1 289,-4 285,-30 272,-30 259,-30 260,-26 265,1 252,0 239,0 237,-12 234,-30 221,-31 208,-31 214,0 201,0 189,0 184,-23 183,-31 170,-31 158,-31 161,-9 163,0 150,0 138,0 132,-31 119,-31 107,-31 109,-20 112,0 100,0 87,0 86,-6 81,-31 69,-31 56,-31 62,0 49,0 36,0 33,-17 31,-31 18,-31 5,-31 10,-4 11,0 -2,0 -15,0 -20,-27 -20,-31 -33,-31 -46,-31 -43,-14 -40,0 -53,0 -65,0 -71,-31 -84,-31 -96,-31 -95,-24 -91,0 -104,0 -116,0 -118,-10 -122,-31 -134,-31 -147,-31 -142,0 -154,0 -167,0 -171,-21 -173,-31 -185,-31 -198,-31 -194,-7 -192,0 -205,0 -218,0 -223,-31 -236,-31 -249,-31 -246,-18 -243,0 -256,0 -269,0 -269,-4 -274,-31 -287,-31 -300,-31 -305,-33 -308,-30 -312,-25 -299,-33 -293,-33 -311,-22 -315,-20 -317,-15 -302,-23 -287,-33 -281,-33 -292,-26 -319,-10 -320,-6 -317,-8 -282,-28 -275,-33 -269,-33 -272,-31 -306,-11 -321,-2 -323,2 -296,-13 -263,-33 -257,-33 -286,-15 -317,2 -311,2 -307,0 -276,-18 -251,-33 -245,-33 -266,-20 -300,0 -305,2 -299,2 -290,-3 -256,-23 -239,-33 -233,-33 -246,-25 -280,-5 -293,2 -287,2 -270,-8 -235,-28 -227,-33 -221,-33 -225,-30 -260,-10 -281,2 -275,2 -250,-12 -218,-31 -215,-33 -209,-33 -240,-15 -269,2 -263,2 -229,-17 -203,-33 -197,-33 -219,-20 -253,0 -257,2 -251,2 -244,-2 -209,-22 -191,-33 -185,-33 -199,-24 -234,-4 -245,2 -239,2 -223,-7 -189,-27 -179,-33 -173,-33 -179,-29 -213,-9 -233,2 -227,2 -203,-12 -170,-31 -167,-33 -161,-33 -193,-14 -221,2 -215,2 -183,-16 -155,-33 -149,-33 -173,-19 -206,0 -209,2 -203,2 -197,-1 -162,-21 -143,-33 -137,-33 -152,-24 -187,-4 -197,2 -191,2 -177,-6 -142,-26 -131,-33 -125,-33 -132,-29 -167,-9 -185,2 -179,2 -156,-11 -122,-31 -119,-33 -113,-33 -146,-13 -173,2 -167,2 -136,-16 -107,-33 -101,-33 -126,-18 -158,0 -161,2 -155,2 -150,-1 -116,-21 -95,-33 -89,-33 -106,-23 -140,-3 -149,2 -143,2 -130,-5 -95,-25 -83,-33 -77,-33 -85,-28 -120,-8 -137,2 -131,2 -110,-10 -75,-30 -71,-33 -65,-33 -68,-31 -100,-13 -125,2 -119,2 -89,-15 -59,-33 -53,-33 -79,-17 -113,2 -107,2 -104,0 -69,-20 -47,-33 -41,-33 -59,-22 -94,-2 -101,2 -95,2 -83,-5 -49,-25 -35,-33 -29,-33 -39,-27 -73,-7 -89,2 -83,2 -63,-10 -29,-30 -23,-33 -17,-33 -21,-31 -53,-12 -78,2 -72,2 -43,-14 -11,-33 -5,-33 -33,-17 -66,2 -60,2 -56,0 -22,-19 1,-33 7,-33 -12,-22 -47,-2 -54,2 -48,2 -37,-4 -2,-24 13,-33 19,-33 8,-26 -27,-6 -42,2 -36,2 -16,-9 18,-29 25,-33 31,-33 27,-31 -6,-11 -30,2 -24,2 4,-14 37,-33 43,-33 14,-16 -18,2 -12,2 -8,0 24,-18 49,-33 55,-33 34,-21 0,-1 -6,2 0,2 10,-3 45,-23 61,-33 67,-33 55,-26 20,-6 6,2 12,2 30,-8 65,-28 73,-33 79,-33 75,-31 40,-11 18,2 24,2 51,-13 85,-33 91,-33 61,-15 30,2 36,2 40,0 71,-18 97,-33 103,-33 81,-20 46,0 42,2 48,2 57,-3 91,-23 109,-33 115,-33 101,-25 67,-5 54,2 60,2 77,-7 111,-27 121,-33 127,-33 122,-30 87,-10 66,2 72,2 97,-12 129,-31 133,-33 139,-33 107,-15 78,2 84,2 117,-17 145,-33 151,-33 128,-19 93,0 90,2 96,2 103,-2 138,-22 156,-33 162,-33 148,-24 113,-4 102,2 108,2 124,-7 158,-27 168,-33 174,-33 168,-29 134,-9 114,2 120,2 144,-12 177,-31 180,-33 186,-33 154,-14 126,2 132,2 164,-16 192,-33 198,-33 174,-19 141,0 138,2 144,2 150,-1 184,-21 204,-33 210,-33 195,-24 160,-4 150,2 156,2 170,-6 205,-26 216,-33 222,-33 215,-28 180,-8 162,2 168,2 190,-11 224,-30 228,-33 234,-32 201,-13 174,2 180,2 211,-16 240,-32 246,-32 221,-18 189,0 186,2 192,2 196,0 231,-20 252,-32 258,-32 241,-23 207,-3 198,2 204,2 217,-5 251,-25 264,-32 270,-32 262,-28 227,-8 210,2 216,2 237,-10 272,-30 276,-32 282,-32 247,-12 222,2 227,2 257,-15 287,-32 293,-32 268,-17 233,2 239,2 243,0 278,-20 299,-32 303,-31 288,-22 253,-2 245,2 251,2 263,-5 298,-25 307,-30 310,-28 307,-26 274,-7 257,2 263,2 284,-9 312,-26 316,-25 294,-12 269,3 275,3 304,-14 316,-21 320,-20 314,-17 281,3 287,3 291,0 320,-17 324,-15 300,-1 293,3 299,3 310,-4 322,-11 326,-10 320,-6 305,3 311,3 324,-5 328,-4 317,3 329,3 326,-1 321,-1 326,0 328,-2" fill="none" stroke="#28166f" stroke-width="3" /><path d="M 329,31 319,31 309,31 319,31 329,31 305,31 280,31 256,31 232,31 207,31 183,31 158,31 134,31 109,31 85,31 61,31 36,31 12,31 -13,31 -37,31 -61,31 -86,31 -110,31 -135,31 -159,31 -183,31 -208,31 -232,31 -257,31 -281,31 -306,31 -330,31 -329,38 -324,64 -311,64 -299,64 -299,60 -305,31 -292,31 -279,31 -276,49 -273,64 -260,64 -248,64 -253,35 -254,31 -241,31 -228,31 -223,60 -222,64 -210,64 -197,64 -200,46 -203,31 -190,31 -177,31 -177,35 -172,64 -159,64 -146,64 -148,56 -152,31 -139,31 -127,31 -125,42 -121,64 -108,64 -95,64 -101,31 -89,31 -76,31 -72,53 -70,64 -57,64 -45,64 -49,39 -50,31 -38,31 -25,31 -20,60 -19,64 -6,64 6,64 4,49 0,31 13,31 26,31 27,35 32,64 44,64 57,64 56,60 51,31 64,31 77,31 79,46 83,64 95,64 108,64 103,35 102,31 115,31 127,31 132,57 133,64 146,64 159,64 155,42 153,31 166,31 178,31 184,64 197,64 210,64 208,53 204,31 216,31 229,31 230,39 235,64 248,64 260,64 260,60 254,31 267,31 280,31 283,50 286,64 298,64 311,64 306,36 305,31 318,31 331,31 336,60 337,64 344,66 339,65 331,66 343,60 339,58 326,66 320,66 342,53 338,52 333,55 314,66 308,66 323,57 341,47 337,46 313,60 302,66 296,66 303,62 336,43 340,41 336,39 327,44 293,64 290,66 284,66 317,47 339,34 335,33 307,49 278,66 272,66 297,52 331,32 335,29 330,29 321,34 286,54 266,66 260,66 276,57 311,37 324,29 318,29 301,39 266,59 254,66 248,66 256,62 290,41 312,29 306,29 280,44 246,64 242,66 236,66 270,46 300,29 294,29 260,49 230,66 224,66 250,51 284,31 288,29 282,29 274,33 240,54 218,66 212,66 230,56 264,36 276,29 270,29 254,38 219,58 206,66 200,66 209,61 244,41 264,29 258,29 234,43 199,63 194,66 189,66 192,64 224,46 252,29 246,29 213,48 183,66 177,66 203,51 237,31 240,29 234,29 228,33 193,53 171,66 165,66 183,55 218,35 228,29 222,29 207,38 173,58 159,66 153,66 163,60 197,40 216,29 210,29 187,43 152,63 147,66 141,66 144,64 177,45 204,29 198,29 167,48 135,66 129,66 157,50 189,31 192,29 186,29 181,32 146,52 123,66 117,66 136,55 171,35 180,29 175,29 161,37 126,57 111,66 105,66 116,60 151,40 169,29 163,29 140,42 106,62 99,66 93,66 97,64 130,44 157,29 151,29 120,47 87,66 81,66 110,49 141,31 145,29 139,29 134,32 100,52 75,66 69,66 90,54 124,34 133,29 127,29 114,37 80,57 63,66 57,66 69,59 104,39 121,29 115,29 94,41 59,62 52,66 46,66 49,64 84,44 109,29 103,29 73,46 40,66 34,66 63,49 97,29 91,29 88,31 53,51 28,66 22,66 43,54 78,33 85,29 79,29 67,36 33,56 16,66 10,66 23,58 57,38 73,29 67,29 47,41 13,61 4,66 -2,66 2,63 37,43 61,29 55,29 27,46 -5,64 -8,66 -14,66 17,48 49,29 43,29 40,31 7,51 -20,66 -26,66 -4,53 31,33 37,29 31,29 21,35 -14,55 -32,66 -38,66 -24,58 11,38 26,29 20,29 0,40 -34,60 -44,66 -50,66 -44,63 -10,43 14,29 8,29 -20,45 -52,64 -56,66 -62,66 -30,48 2,29 -4,29 -8,31 -40,50 -68,66 -74,66 -50,52 -16,32 -10,29 -16,29 -26,35 -60,55 -80,66 -86,66 -71,57 -36,37 -22,29 -28,29 -46,40 -81,60 -91,66 -97,66 -91,62 -56,42 -34,29 -40,29 -67,44 -100,64 -103,66 -109,66 -77,47 -46,29 -52,29 -56,31 -87,49 -115,66 -121,66 -97,52 -62,32 -58,29 -64,29 -73,34 -107,54 -127,66 -133,66 -117,57 -83,37 -70,29 -76,29 -93,39 -127,59 -139,66 -145,66 -138,62 -103,41 -82,29 -88,29 -113,44 -148,64 -151,66 -157,66 -123,46 -94,29 -100,29 -133,49 -163,66 -169,66 -144,51 -109,31 -106,29 -112,29 -119,34 -154,54 -175,66 -181,66 -164,56 -129,36 -118,29 -124,29 -140,38 -174,59 -187,66 -193,66 -184,61 -150,41 -129,29 -135,29 -160,43 -194,63 -199,66 -205,66 -201,64 -170,46 -141,29 -147,29 -180,48 -211,66 -217,66 -190,51 -157,31 -153,29 -159,29 -166,33 -200,53 -223,66 -228,66 -211,55 -176,35 -165,29 -171,29 -186,38 -221,58 -234,66 -240,66 -231,60 -196,40 -177,29 -183,29 -206,43 -241,63 -246,66 -252,66 -249,64 -217,45 -189,29 -195,29 -227,48 -258,66 -264,66 -237,50 -205,31 -201,29 -207,29 -212,32 -247,52 -270,66 -276,66 -257,55 -223,35 -213,29 -219,29 -233,37 -267,57 -282,66 -288,66 -278,60 -243,40 -225,29 -231,29 -253,42 -288,62 -294,66 -300,66 -296,64 -263,44 -237,29 -243,29 -273,47 -306,66 -312,66 -284,49 -252,31 -249,29 -255,29 -259,32 -294,52 -318,66 -324,66 -304,54 -269,34 -261,29 -267,29 -279,37 -314,57 -330,66 -336,66 -324,59 -290,39 -273,29 -279,29 -300,41 -334,62 -342,66 -341,62 -310,44 -284,29 -295,34 -308,37 -318,35 -327,30 -333,30 -334,34 -326,29 -320,29 -335,38 -336,42 -326,36 -314,29 -308,29 -316,34 -337,46 -338,50 -306,31 -302,29 -296,29 -330,49 -339,54 -340,58 -320,46 -290,29 -284,29 -310,44 -341,62 -332,57 -323,52 -332,57 -341,62" fill="none" stroke="#28166f" stroke-width="3" /><path d="M -342,96 -333,96 -325,96 -333,96 -342,96 -325,96 -319,129 -312,168 -304,208 -302,221 -287,236 -272,247 -274,233 -282,193 -289,154 -296,115 -300,96 -287,96 -274,96 -273,100 -266,140 -259,179 -252,218 -244,258 -244,262 -230,267 -217,270 -222,243 -229,204 -236,165 -243,125 -249,96 -236,96 -223,96 -221,111 -213,150 -206,190 -199,229 -192,268 -190,276 -177,278 -164,278 -169,254 -176,215 -183,175 -191,136 -197,100 -198,96 -185,96 -173,96 -168,122 -161,161 -153,200 -146,240 -139,278 -126,278 -114,275 -116,265 -123,225 -131,186 -138,147 -145,107 -147,96 -134,96 -122,96 -115,132 -108,172 -101,211 -93,250 -90,269 -78,266 -66,261 -71,236 -78,197 -85,157 -92,118 -96,96 -84,96 -71,96 -69,104 -62,143 -55,182 -48,222 -42,251 -31,244 -20,238 -17,260 -13,283 -12,304 -22,325 -33,345 -45,364 -57,384 -69,403 -76,425 -82,447 -87,422 -88,418 -78,402 -69,384 -64,408 -58,443 -57,447 -44,447 -32,447 -34,433 -42,393 -49,354 -51,343 -45,326 -40,309 -35,291 -33,300 -26,340 -19,379 -12,418 -6,447 7,447 19,447 19,443 11,404 4,365 -3,325 -10,286 -18,247 -25,207 -32,168 -39,129 -45,96 -33,96 -20,96 -17,114 -9,154 -2,193 5,232 12,272 20,311 27,350 34,390 41,429 45,447 57,447 70,447 64,415 57,375 50,336 42,297 35,257 28,218 21,178 13,139 6,100 6,96 28,106 51,116 75,125 98,133 122,139 146,145 156,146 179,145 202,144 211,144 233,136 254,127 275,118 292,109 314,101 336,96 338,110 340,119 338,135 337,144 331,159 325,174 323,164 316,124 311,96 298,96 285,96 286,100 293,139 300,178 305,206 295,220 285,231 277,192 270,153 263,114 260,96 247,96 234,96 240,128 247,167 255,207 261,243 262,247 250,255 239,261 238,257 232,221 225,182 217,142 210,103 209,96 196,96 183,96 187,117 195,157 202,196 209,235 215,270 203,272 191,275 186,250 179,210 172,171 165,132 158,96 145,96 133,96 135,107 142,146 149,185 156,225 163,264 166,276 153,276 140,275 133,239 126,200 119,160 112,121 107,96 94,96 82,96 89,135 96,175 103,214 111,253 114,271 100,267 87,262 81,228 73,189 66,150 59,110 56,96 44,96 31,96 36,125 43,164 51,203 58,243 59,251 47,244 34,237 24,254 21,274 21,289 30,307 40,324 51,341 62,359 74,375 85,392 87,400 94,440 96,447 121,447 125,447 118,447 109,449 113,447 122,442 118,441 103,449 97,449 118,437 115,436 91,449 86,449 106,437 115,432 111,431 96,440 80,449 74,449 86,442 112,427 108,426 76,445 68,449 62,449 66,447 100,427 108,422 104,421 90,429 56,449 50,449 80,432 105,417 101,416 70,434 44,449 38,449 60,437 94,416 101,412 97,411 84,419 49,439 32,449 26,449 39,442 74,421 97,408 93,407 64,424 29,444 20,449 15,449 19,447 53,426 88,406 94,403 90,401 78,409 43,429 12,447 9,449 3,449 33,431 68,411 91,397 87,396 58,414 23,434 -3,449 -9,449 13,436 47,416 82,396 88,392 84,391 72,398 37,418 3,439 -15,449 -21,449 -7,441 27,421 62,401 85,387 81,386 51,403 17,423 -18,444 -27,449 -33,449 -28,446 7,426 41,406 76,385 82,382 78,381 66,388 31,408 -3,428 -35,447 -39,449 -45,449 -14,431 21,411 56,390 79,377 75,376 45,393 11,413 -24,433 -51,449 -56,449 -34,436 1,416 35,395 70,375 76,371 72,370 60,378 25,398 -9,418 -44,438 -62,449 -68,449 -54,441 -20,421 15,400 49,380 74,366 70,365 39,382 5,403 -30,423 -64,443 -74,449 -80,449 -74,446 -40,425 -5,405 29,385 64,365 71,360 67,359 54,367 19,387 -16,408 -50,428 -83,447 -86,449 -92,449 -60,430 -26,410 9,390 43,370 69,355 65,353 33,372 -1,392 -36,413 -70,433 -98,449 -104,449 -80,435 -46,415 -11,395 23,375 58,354 66,349 63,348 47,357 13,377 -22,397 -56,418 -91,438 -106,447 -103,442 -100,440 -66,420 -32,400 3,380 37,359 64,344 60,342 27,362 -7,382 -42,402 -76,423 -101,437 -98,432 -87,425 -52,405 -18,385 17,364 52,344 62,338 58,337 41,346 7,367 -28,387 -62,407 -95,426 -92,421 -72,410 -38,389 -3,369 31,349 59,332 56,331 21,351 -13,372 -48,392 -82,412 -89,416 -85,410 -58,394 -24,374 11,354 45,334 57,327 54,325 35,336 1,356 -34,377 -68,397 -81,405 -79,400 -75,398 -44,379 -9,359 25,339 55,321 51,320 15,341 -20,361 -54,382 -76,395 -74,390 -64,384 -30,364 5,344 39,323 53,315 49,314 29,326 -5,346 -40,366 -71,385 -69,380 -50,369 -15,349 19,328 51,310 47,308 43,310 9,331 -26,351 -60,371 -66,375 -63,370 -36,353 -1,333 33,313 49,304 45,303 23,315 -11,336 -46,356 -61,365 -60,361 -56,358 -22,338 13,318 47,298 43,297 37,300 3,320 -32,341 -58,356 -56,352 -42,343 -7,323 27,303 46,292 42,291 17,305 -17,325 -51,345 -55,347 -53,343 -28,328 7,308 41,288 44,286 40,285 31,290 -3,310 -38,330 -51,338 -50,334 -46,332 -13,313 21,292 42,280 39,278 11,295 -24,315 -48,329 -47,325 -34,317 1,297 35,277 41,274 37,272 25,279 -9,300 -42,319 -45,321 -44,317 -20,302 15,282 40,267 36,266 5,284 -30,305 -43,312 -42,308 -38,306 -5,287 29,267 39,261 36,259 19,269 -15,289 -41,304 -39,300 -26,292 9,272 39,254 35,253 -1,274 -35,294 -38,296 -37,292 -11,277 23,256 38,248 34,246 13,259 -22,279 -36,287 -35,283 -31,281 3,261 36,242 46,223 52,200 30,208 16,213 -7,215 -18,214 -41,206 -53,201 -73,187 -93,174 -112,160 -131,147 -150,136 -170,126 -190,118 -211,111 -232,105 -254,101 -276,98 -298,96 -320,94 -342,94 -345,97 -338,96 -328,94 -345,104 -341,105 -322,94 -317,94 -341,108 -345,111 -341,112 -332,106 -311,94 -305,94 -322,104 -345,118 -341,119 -311,101 -299,94 -293,94 -301,99 -336,119 -345,124 -341,126 -326,117 -291,96 -287,94 -281,94 -315,114 -344,131 -340,132 -305,112 -275,94 -269,94 -295,109 -330,129 -343,137 -339,138 -320,127 -285,107 -263,94 -257,94 -275,104 -309,125 -342,143 -338,145 -334,142 -299,122 -265,102 -252,94 -246,94 -255,99 -289,120 -324,140 -341,150 -337,151 -313,137 -279,117 -244,97 -240,94 -234,94 -237,96 -269,115 -303,135 -335,154 -339,156 -335,157 -328,153 -293,132 -259,112 -228,94 -222,94 -249,110 -283,130 -318,150 -337,161 -333,163 -307,148 -273,127 -238,107 -216,94 -210,94 -228,105 -263,125 -297,145 -331,165 -335,167 -331,169 -322,163 -287,143 -253,122 -218,102 -204,94 -198,94 -208,100 -242,120 -277,140 -311,161 -333,173 -329,174 -301,158 -267,138 -232,118 -198,97 -192,94 -186,94 -190,96 -222,115 -257,135 -291,156 -326,176 -331,179 -327,180 -316,173 -281,153 -247,133 -212,113 -181,94 -175,94 -202,110 -236,130 -271,151 -305,171 -328,184 -324,185 -295,168 -261,148 -226,128 -192,108 -169,94 -163,94 -182,105 -216,125 -251,146 -285,166 -320,186 -325,189 -321,191 -309,184 -275,163 -240,143 -206,123 -171,103 -157,94 -151,94 -161,100 -196,120 -230,141 -265,161 -299,181 -322,195 -319,196 -289,179 -255,158 -220,138 -186,118 -151,98 -145,94 -139,94 -143,96 -176,115 -210,136 -245,156 -279,176 -314,197 -320,200 -316,201 -303,194 -269,174 -234,154 -200,133 -165,113 -133,94 -127,94 -155,111 -190,131 -224,151 -259,171 -293,192 -316,205 -313,206 -283,189 -249,169 -214,149 -180,128 -145,108 -121,94 -115,94 -135,106 -169,126 -204,146 -238,166 -273,187 -307,207 -313,210 -309,211 -297,204 -263,184 -228,164 -194,144 -159,123 -125,103 -110,94 -104,94 -115,101 -149,121 -184,141 -218,161 -253,182 -287,202 -309,215 -305,216 -277,199 -243,179 -208,159 -174,139 -139,118 -105,98 -98,94 -92,94 -95,96 -129,116 -163,136 -198,156 -232,177 -267,197 -301,217 -305,220 -302,221 -291,215 -257,194 -222,174 -188,154 -153,134 -119,113 -86,94 -80,94 -109,111 -143,131 -178,151 -212,172 -247,192 -281,212 -302,224 -298,226 -271,210 -236,190 -202,169 -167,149 -133,129 -98,108 -74,94 -68,94 -88,106 -123,126 -157,147 -192,167 -226,187 -261,207 -294,227 -297,229 -293,230 -285,225 -251,205 -216,185 -182,164 -147,144 -113,124 -78,104 -62,94 -56,94 -68,101 -103,121 -137,142 -172,162 -206,182 -241,202 -275,223 -293,233 -289,234 -265,220 -230,200 -196,180 -161,159 -127,139 -92,119 -58,99 -50,94 -44,94 -48,96 -82,116 -117,137 -151,157 -186,177 -220,197 -255,218 -288,237 -284,238 -279,235 -245,215 -210,195 -176,175 -141,154 -107,134 -72,114 -39,94 -33,94 -62,111 -96,132 -131,152 -165,172 -200,192 -234,213 -269,233 -283,241 -280,243 -259,230 -224,210 -190,190 -155,170 -121,149 -86,129 -52,109 -27,94 -21,94 -42,106 -76,127 -111,147 -145,167 -180,187 -214,208 -249,228 -278,245 -274,247 -238,226 -204,205 -170,185 -135,165 -101,144 -66,124 -32,104 -15,94 -9,94 -21,101 -56,122 -90,142 -125,162 -159,183 -194,203 -228,223 -263,243 -272,249 -269,250 -253,241 -218,221 -184,200 -149,180 -115,160 -80,140 -46,119 -11,99 -3,94 3,94 -1,97 -36,117 -70,137 -105,157 -139,178 -174,198 -208,218 -243,238 -267,253 -263,254 -232,236 -198,216 -163,195 -129,175 -94,155 -60,135 -25,114 9,94 15,94 -15,112 -50,132 -84,152 -119,173 -153,193 -188,213 -222,233 -257,254 -261,256 -257,257 -247,251 -212,231 -178,211 -143,190 -109,170 -74,150 -40,130 -5,109 21,94 27,94 5,107 -30,127 -64,147 -99,168 -133,188 -168,208 -202,228 -236,249 -255,259 -251,261 -226,246 -192,226 -157,206 -123,185 -88,165 -54,145 -19,125 15,104 32,94 38,94 25,102 -9,122 -44,142 -78,163 -113,183 -147,203 -182,223 -216,244 -248,262 -244,264 -241,262 -206,241 -172,221 -137,201 -103,180 -68,160 -34,140 1,120 35,99 44,94 50,94 46,97 11,117 -23,137 -58,158 -92,178 -127,198 -161,219 -196,239 -230,259 -241,265 -238,267 -220,257 -186,236 -151,216 -117,196 -82,176 -48,155 -13,135 21,115 53,96 56,94 62,94 31,112 -3,133 -38,153 -72,173 -107,193 -141,214 -176,234 -210,254 -235,268 -230,269 -200,252 -165,231 -131,211 -97,191 -62,171 -28,150 7,130 42,110 68,94 74,94 52,107 17,128 -17,148 -52,168 -86,188 -121,209 -155,229 -190,249 -223,268 -226,270 -222,271 -214,267 -180,247 -145,226 -111,206 -76,186 -42,166 -7,145 27,125 62,105 80,94 86,94 72,102 37,123 3,143 -32,163 -66,183 -101,204 -135,224 -170,244 -204,264 -217,272 -213,273 -194,262 -159,242 -125,221 -90,201 -56,181 -21,161 13,140 48,120 82,100 92,94 98,94 92,97 58,118 23,138 -11,158 -46,178 -80,199 -115,219 -149,239 -184,259 -209,274 -205,275 -174,257 -139,237 -105,216 -70,196 -36,176 -1,156 33,135 68,115 100,96 103,94 109,94 78,113 44,133 9,153 -26,173 -60,194 -94,214 -129,234 -163,255 -197,274 -200,276 -196,277 -188,272 -153,252 -119,232 -84,212 -50,191 -15,171 19,151 54,130 88,110 115,94 121,94 98,108 64,128 29,148 -5,169 -40,189 -74,209 -109,229 -143,250 -178,270 -192,278 -188,279 -168,267 -133,247 -99,227 -64,207 -30,186 5,166 39,146 74,126 108,105 127,94 133,94 119,103 84,123 50,143 15,164 -19,184 -54,204 -88,224 -123,245 -157,265 -183,280 -178,280 -147,262 -113,242 -78,222 -44,202 -9,181 25,161 60,141 94,121 129,100 139,94 145,94 139,98 104,118 70,138 35,159 1,179 -34,199 -68,219 -103,240 -137,260 -168,278 -172,280 -166,280 -161,278 -127,257 -92,237 -58,217 -24,197 11,176 46,156 80,136 115,116 147,96 151,94 157,94 125,113 90,133 56,154 21,174 -13,194 -48,214 -82,235 -117,255 -151,275 -160,280 -154,280 -141,273 -107,252 -72,232 -38,212 -3,192 31,171 66,151 100,131 135,111 163,94 169,94 145,108 110,128 76,149 41,169 7,189 -28,209 -62,230 -97,250 -131,270 -148,280 -142,280 -121,268 -86,248 -52,227 -17,207 17,187 52,166 86,146 121,126 155,106 174,94 180,94 165,103 131,123 96,144 62,164 27,184 -7,205 -42,225 -76,245 -111,265 -136,280 -130,280 -101,263 -66,243 -32,222 3,202 37,182 72,162 106,141 141,121 175,101 186,94 192,94 186,98 151,119 117,139 82,159 48,179 13,200 -21,220 -56,240 -90,260 -123,279 -113,277 -80,258 -46,238 -11,217 23,197 58,177 92,157 127,136 161,116 195,96 198,94 204,94 171,114 137,134 102,154 68,174 33,195 -1,215 -36,235 -70,255 -102,274 -91,271 -60,253 -26,233 9,212 43,192 78,172 112,152 147,131 181,111 210,94 216,94 192,109 157,129 123,149 88,169 54,190 19,210 -15,230 -50,250 -80,268 -66,264 -40,248 -5,228 29,207 64,187 98,167 133,147 167,126 202,106 222,94 228,94 212,104 177,124 143,144 108,164 74,185 39,205 5,225 -30,245 -42,253 -24,246 -19,243 15,223 50,202 84,182 119,162 153,142 188,121 222,101 234,94 240,94 232,99 198,119 163,139 129,159 94,180 60,200 25,220 -9,241 -25,250 -26,254 1,238 35,218 70,198 104,177 139,157 173,137 208,116 242,96 245,94 251,94 218,114 183,134 149,155 114,175 80,195 45,215 11,236 -24,256 -27,258 -29,262 -13,253 21,233 56,213 90,193 125,172 159,152 194,132 228,112 257,94 263,94 238,109 204,129 169,150 135,170 100,190 66,210 31,231 -3,251 -30,266 -31,271 -27,269 7,248 41,228 76,208 110,188 145,167 179,147 214,127 248,107 269,94 275,94 259,104 224,124 190,145 155,165 121,185 86,205 52,226 17,246 -17,266 -32,275 -33,279 -7,264 27,243 62,223 96,203 131,183 165,162 200,142 234,122 269,102 281,94 287,94 279,99 244,119 210,140 175,160 141,180 106,200 72,221 37,241 3,261 -31,281 -35,283 -31,284 -22,279 13,259 48,238 82,218 116,198 151,178 185,157 220,137 254,117 288,97 293,94 287,117 282,131 267,149 253,165 240,182 227,199 215,216 204,234 198,246 196,257 197,262 207,271 222,270 231,266 236,263 270,244 273,242 291,228 260,246 226,266 215,272 206,274 216,268 250,248 285,228 296,221 301,215 275,230 240,251 206,271 198,275 189,277 196,273 230,253 265,233 299,213 307,208 312,202 289,215 254,235 220,256 185,276 181,278 175,278 210,258 244,238 279,217 313,197 317,195 321,189 303,200 269,220 234,240 200,260 169,278 163,278 189,263 224,243 258,222 293,202 323,185 325,180 317,184 283,205 248,225 214,245 179,265 157,278 151,278 169,268 204,248 238,227 273,207 307,187 326,176 328,171 297,189 263,210 228,230 194,250 159,270 146,278 141,277 149,273 183,253 218,232 252,212 287,192 321,172 330,166 332,162 311,174 277,194 242,215 208,235 173,255 140,275 137,277 132,276 163,258 198,237 232,217 267,197 301,177 334,157 336,152 325,159 291,179 256,199 222,220 187,240 153,260 127,275 122,275 143,263 177,242 212,222 246,202 281,181 315,161 338,148 339,144 305,164 271,184 236,204 202,224 167,245 133,265 117,274 113,273 123,267 157,247 192,227 226,207 260,186 295,166 329,146 340,140 336,139 319,148 285,169 250,189 216,209 181,229 147,250 113,270 110,272 106,270 137,252 171,232 206,212 240,191 275,171 309,151 341,132 337,131 299,153 265,174 230,194 196,214 161,234 127,255 102,269 98,268 116,257 151,237 185,217 220,196 254,176 289,156 323,136 341,125 338,124 313,138 279,158 244,179 210,199 175,219 141,239 106,260 94,267 90,266 96,262 131,242 165,222 200,201 234,181 269,161 303,141 338,120 342,118 338,116 327,123 293,143 258,163 224,184 189,204 155,224 121,244 87,264 83,263 110,247 145,227 179,206 214,186 248,166 283,145 317,125 343,110 339,109 307,128 273,148 238,168 204,188 169,209 135,229 100,249 80,261 76,260 90,252 125,231 159,211 194,191 228,171 263,150 297,130 332,110 344,103 340,101 321,112 287,133 252,153 218,173 183,193 149,214 114,234 80,254 73,258 69,257 73,255 104,236 139,216 173,196 208,176 242,155 277,135 311,115 345,95 340,94 336,97 301,117 267,138 232,158 198,178 163,198 129,219 94,239 66,256 62,254 84,241 119,221 153,201 187,181 222,160 256,140 291,120 325,100 334,94 328,94 315,102 281,122 246,143 212,163 177,183 143,203 108,224 74,244 59,253 55,251 64,246 98,226 133,206 167,186 202,165 236,145 271,125 305,105 322,94 316,94 295,107 261,127 226,148 192,168 157,188 123,208 88,229 52,250 48,249 78,231 112,211 147,191 181,170 216,150 250,130 285,109 310,94 305,94 275,112 240,132 206,152 171,173 137,193 102,213 68,234 45,247 41,246 58,236 92,216 127,195 161,175 196,155 230,135 265,114 299,94 293,94 289,97 254,117 220,137 185,157 151,178 116,198 82,218 48,238 38,244 43,241 48,239 43,241 38,244" fill="none" stroke="#28166f" stroke-width="3" /></svg>