<svg height="896" version="1.1" viewBox="-345 -447 690 896" width="690" xmlns="http://www.w3.org/2000/svg" xmlns:ev="http://www.w3.org/2001/xml-events" xmlns:xlink="http://www.w3.org/1999/xlink"><path d="M -273,-62 -266,-62 -260,-62 -266,-62 -273,-62 -260,-62 -261,-70 -265,-94 -255,-107 -244,-120 -238,-83 -235,-62 -222,-62 -209,-61 -215,-97 -222,-137 -223,-146 -212,-158 -202,-169 -199,-151 -192,-111 -186,-72 -184,-61 -171,-61 -158,-61 -162,-86 -169,-125 -175,-165 -180,-193 -169,-205 -159,-217 -152,-179 -146,-139 -139,-100 -133,-61 -120,-61 -108,-61 -110,-74 -116,-114 -123,-153 -129,-193 -136,-232 -137,-242 -127,-255 -116,-268 -113,-246 -106,-206 -100,-167 -93,-128 -87,-88 -82,-61 -70,-61 -57,-61 -58,-65 -64,-102 -70,-141 -77,-181 -83,-220 -90,-260 -96,-297 -85,-311 -75,-325 -73,-313 -67,-274 -60,-234 -54,-195 -47,-155 -41,-116 -34,-76 -32,-61 -19,-61 -6,-61 -11,-90 -18,-130 -24,-169 -31,-209 -37,-248 -44,-288 -50,-327 -55,-354 -44,-370 -34,-385 -34,-381 -27,-341 -21,-302 -14,-262 -8,-223 -1,-183 5,-144 12,-104 18,-65 19,-61 32,-61 44,-61 41,-79 35,-118 28,-158 22,-197 15,-237 9,-276 2,-316 -4,-355 -11,-394 -14,-416 -4,-432 6,-447 13,-408 19,-369 26,-329 32,-290 39,-251 45,-211 51,-172 58,-132 64,-93 70,-61 89,-68 108,-74 128,-80 147,-87 167,-93 183,-99 203,-103 224,-106 244,-108 264,-111 268,-86 272,-61 260,-61 247,-61 245,-72 239,-111 232,-150 217,-166 202,-183 203,-176 209,-137 216,-97 222,-61 209,-61 196,-61 193,-83 186,-123 180,-162 173,-202 171,-218 155,-235 139,-253 144,-227 150,-188 157,-148 163,-109 170,-69 171,-61 158,-61 146,-61 140,-95 134,-134 127,-174 121,-213 114,-253 108,-291 97,-305 86,-319 76,-333 78,-318 85,-278 91,-239 98,-199 104,-160 111,-120 117,-81 120,-61 108,-61 95,-61 94,-67 88,-107 81,-146 75,-186 68,-225 62,-264 55,-304 49,-343 42,-383 41,-388 30,-408 18,-427 6,-447 -1,-440 4,-443 8,-445 11,-443 -5,-434 -9,-428 11,-439 15,-437 0,-429 -13,-421 -17,-415 11,-431 15,-433 18,-431 -14,-413 -21,-409 -25,-402 -3,-415 19,-427 22,-425 7,-417 -26,-398 -30,-396 -34,-390 -17,-399 18,-419 22,-421 26,-419 -7,-401 -38,-383 -42,-377 -31,-383 4,-403 26,-415 29,-413 14,-405 -21,-385 -46,-371 -50,-364 -45,-367 -10,-387 24,-406 29,-409 33,-407 0,-389 -35,-369 -54,-358 -58,-352 -24,-371 10,-390 33,-403 36,-401 21,-392 -14,-373 -49,-353 -62,-346 -67,-339 -38,-355 -4,-375 31,-394 36,-397 40,-395 7,-376 -28,-357 -63,-337 -72,-332 -77,-325 -52,-339 -18,-359 17,-378 40,-391 43,-389 28,-380 -7,-361 -42,-341 -77,-321 -82,-318 -87,-312 -66,-323 -32,-343 3,-362 38,-382 43,-385 47,-383 14,-364 -21,-345 -56,-325 -89,-307 -92,-305 -97,-298 -80,-307 -46,-327 -11,-346 24,-366 47,-379 50,-377 35,-368 0,-348 -35,-329 -70,-309 -102,-291 -107,-284 -95,-291 -60,-311 -25,-331 10,-350 45,-370 50,-373 54,-371 21,-352 -14,-332 -49,-313 -84,-293 -112,-277 -117,-271 -109,-275 -74,-295 -39,-315 -4,-334 31,-354 54,-367 58,-365 41,-356 7,-336 -28,-317 -63,-297 -98,-277 -123,-263 -128,-256 -123,-260 -88,-279 -53,-299 -18,-318 17,-338 52,-358 58,-361 61,-359 27,-340 -7,-320 -42,-301 -77,-281 -112,-261 -134,-249 -140,-242 -137,-244 -102,-263 -67,-283 -32,-302 3,-322 38,-342 62,-355 65,-353 48,-343 13,-324 -21,-304 -56,-285 -91,-265 -126,-246 -147,-234 -153,-226 -150,-228 -116,-247 -81,-267 -46,-287 -11,-306 24,-326 59,-345 66,-349 69,-347 34,-328 -1,-308 -35,-288 -70,-269 -105,-249 -140,-230 -160,-218 -167,-210 -164,-212 -130,-231 -95,-251 -60,-271 -25,-290 10,-310 45,-329 69,-343 73,-341 55,-331 20,-312 -15,-292 -49,-273 -84,-253 -119,-233 -154,-214 -174,-202 -182,-194 -178,-196 -144,-216 -109,-235 -74,-255 -39,-274 -4,-294 31,-314 66,-333 73,-337 77,-335 73,-333 41,-315 6,-296 -29,-276 -63,-257 -98,-237 -133,-217 -168,-198 -189,-186 -197,-178 -193,-180 -158,-200 -123,-219 -88,-239 -53,-258 -18,-278 17,-298 52,-317 77,-331 80,-329 62,-319 27,-299 -8,-280 -43,-260 -77,-241 -112,-221 -147,-202 -182,-182 -204,-170 -211,-161 -207,-164 -172,-184 -137,-203 -102,-223 -67,-243 -32,-262 3,-282 38,-301 72,-321 81,-326 84,-324 81,-322 48,-303 13,-284 -22,-264 -57,-244 -92,-225 -126,-205 -161,-186 -196,-166 -219,-153 -226,-145 -221,-148 -186,-168 -151,-187 -116,-207 -81,-227 -46,-246 -11,-266 24,-285 58,-305 85,-320 89,-318 69,-307 34,-287 -1,-268 -36,-248 -71,-229 -106,-209 -140,-189 -175,-170 -210,-150 -232,-138 -238,-130 -235,-132 -200,-152 -165,-172 -130,-191 -95,-211 -60,-230 -25,-250 10,-270 44,-289 79,-309 90,-315 93,-313 90,-311 55,-291 20,-271 -15,-252 -50,-232 -85,-213 -120,-193 -154,-173 -189,-154 -224,-134 -244,-123 -250,-116 -247,-118 -214,-136 -179,-156 -144,-175 -109,-195 -74,-214 -39,-234 -4,-254 30,-273 65,-293 94,-309 98,-307 76,-295 41,-275 6,-255 -29,-236 -64,-216 -99,-197 -134,-177 -168,-158 -203,-138 -238,-118 -256,-108 -262,-101 -228,-120 -193,-140 -158,-159 -123,-179 -88,-199 -53,-218 -18,-238 16,-257 51,-277 86,-297 99,-304 102,-301 97,-298 62,-279 27,-259 -8,-240 -43,-220 -78,-200 -113,-181 -148,-161 -182,-142 -217,-122 -252,-102 -268,-94 -273,-87 -242,-104 -207,-124 -172,-143 -137,-163 -102,-183 -67,-202 -32,-222 2,-241 37,-261 72,-281 103,-298 106,-296 83,-282 48,-263 13,-243 -22,-224 -57,-204 -92,-184 -127,-165 -162,-145 -196,-126 -231,-106 -266,-87 -278,-80 -282,-74 -256,-88 -221,-108 -186,-128 -151,-147 -116,-167 -81,-186 -46,-206 -12,-226 23,-245 58,-265 93,-284 107,-292 111,-290 103,-286 69,-267 34,-247 -1,-227 -36,-208 -71,-188 -106,-169 -141,-149 -176,-129 -210,-110 -245,-90 -280,-71 -286,-67 -290,-61 -270,-72 -235,-92 -200,-112 -165,-131 -130,-151 -95,-170 -60,-190 -26,-210 9,-229 44,-249 79,-268 112,-287 115,-285 89,-270 55,-251 20,-231 -15,-211 -50,-192 -85,-172 -120,-153 -155,-133 -190,-114 -224,-94 -259,-74 -286,-60 -278,-60 -249,-76 -214,-96 -179,-115 -144,-135 -109,-155 -75,-174 -40,-194 -5,-213 30,-233 65,-253 100,-272 116,-281 120,-279 110,-274 75,-254 41,-235 6,-215 -29,-196 -64,-176 -99,-156 -134,-137 -169,-117 -204,-98 -238,-78 -271,-60 -264,-60 -261,-62 -228,-80 -193,-99 -158,-119 -123,-139 -89,-158 -54,-178 -19,-197 16,-217 51,-237 86,-256 121,-276 124,-274 96,-258 61,-238 27,-219 -8,-199 -43,-180 -78,-160 -113,-140 -148,-121 -183,-101 -218,-82 -252,-62 -257,-60 -250,-60 -242,-64 -207,-84 -172,-103 -137,-123 -103,-142 -68,-162 -33,-182 2,-201 37,-221 72,-240 107,-260 125,-270 129,-268 117,-262 82,-242 47,-223 13,-203 -22,-183 -57,-164 -92,-144 -127,-125 -162,-105 -197,-85 -232,-66 -243,-60 -236,-60 -221,-68 -186,-87 -151,-107 -117,-126 -82,-146 -47,-166 -12,-185 23,-205 58,-224 93,-244 130,-265 133,-263 103,-246 68,-226 33,-207 -1,-187 -36,-167 -71,-148 -106,-128 -141,-109 -176,-89 -211,-70 -228,-60 -221,-60 -200,-71 -165,-91 -131,-111 -96,-130 -61,-150 -26,-169 9,-189 44,-209 79,-228 114,-248 135,-260 138,-257 124,-250 89,-230 54,-210 19,-191 -15,-171 -50,-152 -85,-132 -120,-112 -155,-93 -190,-73 -214,-59 -207,-59 -179,-75 -145,-95 -110,-114 -75,-134 -40,-153 -5,-173 30,-193 65,-212 100,-232 134,-251 139,-254 143,-252 110,-234 75,-214 40,-194 5,-175 -29,-155 -64,-136 -99,-116 -134,-96 -169,-77 -200,-59 -193,-59 -159,-79 -124,-98 -89,-118 -54,-138 -19,-157 16,-177 51,-196 86,-216 120,-236 144,-249 148,-247 131,-237 96,-218 61,-198 26,-179 -9,-159 -43,-139 -78,-120 -113,-100 -148,-81 -182,-61 -186,-59 -179,-59 -173,-63 -138,-82 -103,-102 -68,-122 -33,-141 2,-161 37,-180 72,-200 106,-220 141,-239 149,-243 152,-241 149,-239 117,-221 82,-202 47,-182 12,-163 -23,-143 -58,-123 -92,-104 -127,-84 -162,-65 -171,-59 -164,-59 -152,-67 -117,-86 -82,-106 -47,-125 -12,-145 23,-165 58,-184 92,-204 127,-223 154,-238 157,-236 138,-225 103,-206 68,-186 33,-166 -2,-147 -37,-127 -72,-108 -106,-88 -141,-68 -157,-59 -150,-59 -131,-70 -96,-90 -61,-109 -26,-129 9,-149 44,-168 78,-188 113,-207 148,-227 158,-233 162,-231 158,-229 124,-209 89,-190 54,-170 19,-150 -16,-131 -51,-111 -86,-92 -120,-72 -143,-59 -136,-59 -110,-74 -75,-94 -40,-113 -5,-133 30,-152 64,-172 99,-191 134,-211 163,-227 167,-225 145,-213 110,-193 75,-174 40,-154 5,-135 -30,-115 -65,-95 -100,-76 -129,-59 -122,-59 -89,-78 -54,-97 -19,-117 16,-136 50,-156 85,-176 120,-195 155,-215 168,-222 171,-220 165,-217 131,-197 96,-177 61,-158 26,-138 -9,-119 -44,-99 -79,-79 -111,-61 -114,-59 -107,-59 -103,-62 -68,-81 -33,-101 2,-121 36,-140 71,-160 106,-179 141,-199 173,-217 176,-215 151,-201 117,-181 82,-162 47,-142 12,-122 -23,-103 -58,-83 -93,-64 -100,-59 -93,-59 -82,-65 -47,-85 -12,-105 22,-124 57,-144 92,-163 127,-183 162,-203 177,-211 181,-209 172,-204 137,-185 103,-165 68,-146 33,-126 -2,-106 -37,-87 -72,-67 -86,-59 -79,-59 -61,-69 -26,-89 8,-108 43,-128 78,-147 113,-167 148,-187 182,-206 186,-204 158,-189 123,-169 89,-149 54,-130 19,-110 -16,-91 -51,-71 -72,-59 -64,-59 -41,-73 -6,-92 29,-112 64,-132 99,-151 134,-171 169,-190 187,-201 179,-180 173,-158 171,-135 175,-113 186,-93 202,-79 223,-69 246,-63 269,-60 292,-59 300,-59 294,-60 285,-59 296,-65 293,-67 286,-64 278,-59 271,-59 276,-62 293,-71 289,-74 267,-61 264,-59 256,-59 289,-78 286,-80 279,-76 249,-59 242,-59 269,-74 286,-84 283,-86 258,-72 235,-59 228,-59 248,-70 279,-88 283,-90 279,-92 272,-88 237,-68 221,-59 214,-59 227,-66 262,-86 278,-95 275,-98 251,-84 216,-65 207,-59 199,-59 206,-63 241,-82 274,-101 271,-103 265,-100 231,-81 196,-61 192,-59 185,-59 189,-61 220,-79 255,-98 270,-107 266,-109 245,-96 210,-77 178,-59 171,-59 199,-75 234,-95 266,-112 262,-114 259,-112 224,-93 189,-73 164,-59 157,-59 178,-71 213,-91 248,-110 261,-118 258,-120 238,-109 203,-89 168,-69 149,-59 142,-59 157,-68 192,-87 227,-107 257,-123 254,-126 217,-105 182,-85 147,-66 135,-59 128,-59 137,-64 171,-83 206,-103 241,-123 253,-129 249,-131 231,-121 196,-101 161,-82 126,-62 121,-59 114,-59 117,-61 151,-80 185,-99 220,-119 248,-135 245,-137 210,-117 175,-98 140,-78 107,-59 100,-59 130,-76 165,-96 199,-115 234,-135 244,-140 241,-142 224,-133 189,-113 154,-94 119,-74 92,-59 85,-59 109,-72 144,-92 179,-112 214,-131 239,-146 236,-148 203,-129 168,-110 133,-90 98,-71 78,-59 71,-59 88,-69 123,-88 158,-108 193,-128 228,-147 234,-151 231,-153 217,-145 182,-126 147,-106 112,-86 78,-67 64,-59 57,-59 67,-65 102,-85 137,-104 172,-124 207,-143 229,-156 226,-158 196,-142 161,-122 126,-102 92,-83 57,-63 50,-59 43,-59 46,-61 81,-81 116,-101 151,-120 186,-140 221,-159 224,-161 221,-163 210,-157 175,-138 140,-118 106,-99 71,-79 39,-61 35,-59 28,-59 60,-77 95,-97 130,-116 165,-136 200,-156 219,-167 216,-169 189,-154 154,-134 120,-115 85,-95 50,-75 21,-59 14,-59 39,-74 74,-93 109,-113 144,-132 179,-152 211,-170 215,-172 211,-174 203,-170 168,-150 134,-130 99,-111 64,-91 29,-72 7,-59 0,-59 19,-70 53,-89 88,-109 123,-129 158,-148 193,-168 210,-177 206,-179 182,-166 148,-146 113,-127 78,-107 43,-88 8,-68 -7,-59 -15,-59 -2,-66 33,-86 67,-105 102,-125 137,-145 172,-164 205,-183 201,-185 197,-182 162,-162 127,-143 92,-123 57,-103 22,-84 -13,-64 -22,-59 -29,-59 -23,-62 12,-82 47,-102 81,-121 116,-141 151,-160 186,-180 200,-188 197,-190 176,-178 141,-159 106,-139 71,-119 36,-100 1,-80 -32,-61 -36,-59 -43,-59 -9,-78 26,-98 61,-118 95,-137 130,-157 165,-176 195,-193 192,-195 155,-174 120,-155 85,-135 50,-116 15,-96 -20,-77 -50,-59 -57,-59 -30,-75 5,-94 40,-114 75,-133 109,-153 144,-173 179,-192 190,-198 187,-201 169,-190 134,-171 99,-151 64,-132 29,-112 -6,-92 -41,-73 -64,-59 -56,-64 -47,-69 -56,-64 -64,-59" fill="none" stroke="#304ff6" stroke-width="3" /><path d="M -65,-31 -55,-30 -45,-29 -55,-30 -65,-31 -40,-29 -15,-27 10,-25 34,-23 59,-21 84,-19 109,-16 133,-14 158,-12 183,-10 207,-8 232,-6 257,-4 281,-2 306,0 304,-14 301,-30 289,-30 275,-31 280,-4 281,0 268,0 255,0 251,-25 250,-31 237,-31 224,-31 228,-11 230,0 217,0 205,0 199,-31 186,-31 174,-31 175,-22 179,0 167,0 154,0 152,-8 148,-31 136,-31 123,-31 128,0 116,0 103,0 100,-19 97,-31 85,-31 72,-31 77,-4 78,0 65,0 52,0 47,-27 47,-31 34,-31 21,-31 24,-15 27,0 14,0 1,0 1,-4 -4,-31 -17,-31 -30,-31 -29,-26 -24,0 -37,0 -49,0 -52,-12 -55,-31 -68,-31 -80,-31 -75,0 -87,0 -100,0 -104,-23 -106,-31 -118,-31 -131,-31 -127,-9 -126,0 -138,0 -151,0 -156,-31 -169,-31 -182,-31 -180,-20 -176,0 -189,0 -202,0 -203,-6 -207,-31 -220,-31 -233,-31 -232,-27 -227,0 -240,0 -253,0 -255,-16 -258,-31 -271,-31 -283,-31 -279,-4 -278,0 -291,0 -303,0 -308,-27 -301,-33 -294,-33 -310,-24 -314,-22 -317,-16 -302,-24 -287,-33 -280,-33 -292,-26 -319,-11 -320,-6 -316,-8 -282,-28 -273,-33 -266,-33 -271,-30 -306,-10 -322,-1 -318,1 -295,-12 -263,-31 -260,-33 -253,-33 -285,-14 -313,2 -306,2 -275,-16 -246,-33 -239,-33 -264,-18 -299,2 -292,2 -288,0 -254,-20 -232,-33 -225,-33 -243,-22 -278,-2 -285,2 -278,2 -268,-4 -233,-24 -218,-33 -211,-33 -223,-26 -257,-6 -271,2 -264,2 -247,-8 -212,-28 -204,-33 -197,-33 -202,-30 -236,-10 -257,2 -250,2 -226,-12 -193,-31 -190,-33 -183,-33 -216,-14 -243,2 -236,2 -205,-16 -176,-33 -169,-33 -195,-18 -229,2 -222,2 -218,0 -184,-20 -162,-33 -155,-33 -174,-22 -209,-2 -215,2 -208,2 -198,-4 -164,-24 -148,-33 -141,-33 -153,-26 -188,-6 -201,2 -194,2 -177,-8 -143,-28 -134,-33 -127,-33 -132,-30 -167,-10 -187,2 -180,2 -157,-12 -123,-31 -120,-33 -113,-33 -146,-14 -173,2 -166,2 -136,-16 -106,-33 -99,-33 -125,-18 -159,2 -152,2 -149,0 -115,-20 -92,-33 -85,-33 -105,-22 -139,-1 -145,2 -138,2 -129,-3 -94,-24 -78,-33 -71,-33 -84,-25 -118,-5 -131,2 -124,2 -108,-7 -73,-27 -64,-33 -57,-33 -63,-29 -97,-9 -117,2 -110,2 -87,-11 -53,-31 -50,-33 -43,-33 -77,-13 -103,2 -96,2 -66,-15 -36,-33 -29,-33 -56,-17 -89,2 -82,2 -79,0 -45,-19 -22,-33 -15,-33 -35,-21 -70,-1 -75,2 -68,2 -59,-3 -25,-23 -8,-33 -1,-33 -14,-25 -49,-5 -61,2 -54,2 -38,-7 -4,-27 6,-33 13,-33 7,-29 -28,-9 -48,2 -41,2 -18,-11 17,-31 20,-33 27,-33 -7,-13 -34,2 -27,2 3,-15 34,-33 41,-33 14,-17 -20,2 -13,2 -9,0 24,-19 48,-33 55,-33 34,-21 0,-1 -6,2 1,2 10,-3 45,-23 62,-33 69,-33 55,-25 21,-5 8,2 15,2 31,-7 66,-27 76,-33 83,-33 76,-29 41,-9 22,2 29,2 52,-11 86,-31 90,-33 97,-33 62,-13 36,2 43,2 73,-15 104,-33 111,-33 83,-17 50,2 57,2 61,0 94,-19 118,-33 125,-33 104,-21 69,-1 64,2 71,2 80,-3 114,-23 132,-33 139,-33 125,-25 90,-5 78,2 85,2 101,-7 135,-27 146,-33 153,-33 146,-29 111,-9 92,2 99,2 121,-11 156,-31 160,-33 166,-33 163,-31 132,-13 106,2 113,2 142,-15 173,-33 180,-33 153,-17 120,2 127,2 130,0 163,-19 187,-33 194,-33 173,-21 139,-1 134,2 141,2 149,-3 184,-23 201,-33 208,-33 194,-25 160,-5 148,2 155,2 170,-7 205,-27 215,-33 222,-33 215,-29 180,-9 162,2 169,2 191,-11 225,-31 229,-33 236,-33 232,-31 201,-13 176,2 183,2 212,-15 243,-33 250,-33 222,-17 190,2 197,2 200,0 232,-19 257,-33 264,-33 243,-21 208,0 204,2 211,2 219,-2 253,-22 271,-33 278,-33 264,-24 229,-4 218,2 225,2 239,-6 274,-26 285,-33 291,-32 284,-28 250,-8 232,2 239,2 260,-10 295,-30 298,-32 303,-31 271,-12 246,2 253,2 281,-14 307,-30 312,-28 292,-16 259,2 266,2 270,0 302,-18 314,-25 318,-23 312,-20 278,0 273,2 280,2 288,-2 319,-20 322,-18 299,-4 287,2 294,2 309,-6 322,-14 326,-12 319,-8 301,2 308,2 324,-7 328,-5 315,2 329,2 326,-2 320,-2 326,-1 329,-2" fill="none" stroke="#304ff6" stroke-width="3" /><path d="M 329,31 319,31 309,31 319,31 329,31 305,31 281,31 257,31 232,31 208,31 184,31 160,31 135,31 111,31 87,31 63,31 39,31 14,31 -10,31 -34,31 -58,31 -83,31 -107,31 -131,31 -155,31 -180,31 -204,31 -228,31 -252,31 -277,31 -301,31 -325,31 -324,37 -319,64 -306,64 -294,64 -294,60 -300,31 -287,31 -274,31 -271,48 -268,64 -256,64 -243,64 -248,35 -249,31 -236,31 -223,31 -218,59 -217,64 -205,64 -192,64 -195,44 -198,31 -185,31 -173,31 -167,64 -154,64 -141,64 -143,55 -147,31 -134,31 -122,31 -120,41 -116,64 -103,64 -90,64 -96,31 -84,31 -71,31 -67,52 -65,64 -52,64 -40,64 -44,38 -46,31 -33,31 -20,31 -15,60 -14,64 -1,64 11,64 8,48 5,31 18,31 31,31 31,35 37,64 49,64 62,64 61,59 56,31 69,31 82,31 84,45 87,64 100,64 113,64 107,31 120,31 132,31 137,56 138,64 151,64 164,64 160,41 158,31 170,31 183,31 189,64 202,64 215,64 212,52 209,31 221,31 234,31 235,38 240,64 253,64 265,64 265,60 259,31 272,31 285,31 288,49 291,64 303,64 316,64 311,35 310,31 323,31 336,31 340,58 341,62 333,66 343,60 339,58 326,66 319,66 342,53 338,50 333,54 312,66 305,66 322,56 340,45 337,43 312,58 298,66 291,66 301,60 336,40 339,38 336,36 326,42 291,62 284,66 277,66 281,64 315,44 338,30 334,29 305,46 274,64 270,66 263,66 294,48 327,29 320,29 316,31 284,50 256,66 249,66 274,52 308,32 313,29 306,29 298,34 263,54 242,66 235,66 253,56 287,36 299,29 292,29 277,38 242,58 228,66 221,66 232,60 267,40 285,29 278,29 256,42 222,62 214,66 207,66 211,64 246,44 271,29 264,29 235,46 204,64 201,66 194,66 225,48 257,29 250,29 247,31 215,50 187,66 180,66 204,52 239,31 243,29 236,29 228,33 194,54 173,66 166,66 183,56 218,36 229,29 222,29 207,38 173,58 159,66 152,66 163,60 197,40 215,29 208,29 187,42 152,62 145,66 138,66 142,64 176,44 201,29 195,29 166,46 135,64 131,66 124,66 155,48 188,29 181,29 177,31 145,50 117,66 110,66 135,52 169,31 174,29 167,29 159,33 124,54 103,66 96,66 114,56 148,35 160,29 153,29 138,37 103,58 89,66 82,66 93,60 128,39 146,29 139,29 117,41 83,62 75,66 69,66 72,64 107,43 132,29 125,29 96,46 65,64 62,66 55,66 86,48 118,29 111,29 108,31 76,50 48,66 41,66 65,52 100,31 104,29 97,29 89,33 55,54 34,66 27,66 44,56 79,35 90,29 83,29 69,37 34,58 20,66 13,66 24,60 58,39 76,29 69,29 48,41 13,62 6,66 -1,66 3,64 37,43 62,29 55,29 27,45 -4,64 -8,66 -15,66 17,47 48,29 42,29 38,31 6,49 -22,66 -29,66 -4,51 30,31 35,29 28,29 20,33 -15,54 -36,66 -43,66 -25,56 9,35 21,29 14,29 -1,37 -36,58 -50,66 -57,66 -46,60 -11,39 7,29 0,29 -22,41 -56,62 -64,66 -71,66 -67,64 -32,43 -7,29 -14,29 -43,45 -74,64 -77,66 -84,66 -53,47 -21,29 -28,29 -32,31 -63,49 -91,66 -98,66 -74,51 -39,31 -35,29 -42,29 -50,33 -84,53 -105,66 -112,66 -95,55 -60,35 -49,29 -56,29 -70,37 -105,57 -119,66 -126,66 -115,59 -81,39 -63,29 -70,29 -91,41 -126,61 -133,66 -140,66 -136,64 -102,43 -77,29 -84,29 -112,45 -143,64 -147,66 -154,66 -122,47 -91,29 -98,29 -101,31 -133,49 -161,66 -168,66 -143,51 -109,31 -105,29 -112,29 -119,33 -154,53 -175,66 -182,66 -164,55 -129,35 -118,29 -125,29 -140,37 -174,57 -189,66 -196,66 -185,59 -150,39 -132,29 -139,29 -161,41 -195,61 -203,66 -210,66 -206,63 -171,43 -146,29 -153,29 -182,45 -213,64 -216,66 -223,66 -192,47 -160,29 -167,29 -171,31 -202,49 -230,66 -237,66 -213,51 -178,31 -174,29 -181,29 -189,33 -223,53 -244,66 -251,66 -234,55 -199,35 -188,29 -195,29 -209,37 -244,57 -258,66 -265,66 -254,59 -220,39 -202,29 -209,29 -230,41 -265,61 -272,66 -279,66 -275,63 -241,43 -216,29 -223,29 -251,45 -282,64 -286,66 -293,66 -261,47 -230,29 -237,29 -240,31 -272,49 -300,66 -307,66 -282,51 -248,31 -244,29 -251,29 -258,33 -293,53 -314,66 -321,66 -303,55 -268,35 -258,29 -264,29 -279,37 -313,57 -328,66 -335,66 -324,59 -289,39 -271,29 -278,29 -300,41 -334,61 -342,66 -340,61 -310,43 -285,29 -298,35 -312,37 -319,34 -327,29 -334,33 -335,38 -327,33 -320,29 -313,29 -317,31 -336,42 -337,47 -310,31 -306,29 -299,29 -331,47 -338,52 -339,56 -320,45 -292,29 -285,29 -310,43 -340,61 -332,56 -323,51 -332,56 -340,61" fill="none" stroke="#304ff6" stroke-width="3" /><path d="M -342,96 -334,96 -327,96 -334,96 -342,96 -327,96 -321,129 -313,169 -306,208 -304,217 -297,226 -286,236 -274,245 -276,233 -283,194 -291,154 -298,115 -301,96 -289,96 -276,96 -275,101 -268,140 -261,179 -253,219 -246,257 -246,261 -232,267 -219,270 -223,244 -231,204 -238,165 -245,126 -251,96 -238,96 -225,96 -222,111 -215,150 -208,190 -201,229 -193,269 -192,276 -179,278 -166,278 -171,254 -178,215 -185,175 -192,136 -199,100 -200,96 -187,96 -174,96 -170,122 -162,161 -155,200 -148,240 -141,278 -128,278 -116,275 -118,265 -125,225 -132,186 -140,147 -147,107 -149,96 -136,96 -123,96 -117,132 -109,172 -102,211 -95,250 -92,269 -79,266 -67,262 -72,236 -79,197 -87,157 -94,118 -98,96 -85,96 -73,96 -71,104 -64,143 -57,182 -49,222 -44,251 -32,244 -20,237 -16,260 -13,283 -12,304 -23,324 -34,345 -46,364 -58,384 -69,403 -77,425 -84,447 -88,425 -89,421 -79,404 -70,387 -66,408 -59,447 -46,447 -33,447 -36,433 -43,393 -51,354 -52,346 -46,329 -41,312 -36,295 -35,300 -28,340 -20,379 -13,418 -8,447 5,447 17,447 17,443 10,404 2,365 -5,325 -12,286 -19,247 -27,207 -34,168 -41,129 -47,96 -34,96 -22,96 -18,114 -11,154 -4,193 3,232 11,272 18,311 25,350 32,390 40,429 43,447 56,447 68,447 62,415 55,375 48,336 41,297 33,257 26,218 19,179 12,139 4,100 4,96 25,107 46,118 67,127 89,136 111,144 130,149 153,153 167,154 191,154 200,152 223,145 245,137 266,126 287,114 308,104 320,99 334,96 337,110 340,125 337,143 331,160 324,177 321,164 314,124 309,96 296,96 283,96 284,100 291,139 298,178 304,208 296,217 290,225 283,232 282,228 276,192 268,153 261,114 258,96 245,96 233,96 238,128 246,167 253,207 260,244 260,248 249,256 238,262 237,258 230,221 223,182 216,142 208,103 207,96 194,96 182,96 186,117 193,157 200,196 207,235 214,270 201,273 189,275 185,250 177,210 170,171 163,132 156,96 144,96 131,96 133,107 140,146 147,185 155,225 162,264 164,276 151,276 138,275 132,239 125,200 117,161 110,121 105,96 93,96 80,96 81,100 87,136 95,175 102,214 109,254 112,270 99,266 85,261 79,229 72,189 64,150 57,111 55,96 42,96 29,96 34,125 42,164 49,204 56,243 57,250 46,244 34,237 24,255 21,277 21,290 32,310 44,329 57,349 69,368 83,387 85,400 92,440 94,447 106,447 119,447 118,439 124,449 120,447 110,449 122,442 119,440 103,449 96,449 109,442 118,436 115,434 99,444 90,449 83,449 88,446 114,430 111,428 79,447 76,449 69,449 102,430 110,425 107,423 92,432 62,449 55,449 81,434 106,419 103,417 71,436 48,449 41,449 60,438 95,417 102,413 98,411 85,420 50,440 34,449 27,449 40,442 74,422 97,408 94,406 64,424 29,444 21,449 14,449 19,446 53,426 88,405 94,402 90,400 77,407 43,428 10,447 7,449 0,449 33,430 67,410 90,396 87,394 57,412 22,432 -7,449 -14,449 12,434 46,414 81,393 87,390 83,388 70,395 36,416 1,436 -21,449 -28,449 -9,438 25,418 60,397 83,384 80,382 50,399 15,420 -19,440 -35,449 -42,449 -30,442 5,422 39,402 74,381 79,378 76,376 63,383 29,404 -6,424 -40,444 -48,449 -55,449 -51,446 -16,426 18,406 53,385 76,372 73,370 42,387 8,408 -27,428 -59,447 -62,449 -69,449 -37,430 -2,410 32,389 67,369 73,365 70,363 56,371 22,392 -13,412 -47,432 -76,449 -83,449 -58,434 -23,414 11,394 46,373 71,359 67,357 35,375 1,396 -34,416 -68,436 -90,449 -97,449 -79,438 -44,418 -10,398 25,377 59,357 68,352 64,350 49,359 15,379 -20,400 -54,420 -89,440 -102,448 -106,446 -99,442 -65,422 -30,402 4,381 39,361 65,346 62,344 28,363 -6,384 -41,404 -75,424 -102,440 -99,434 -86,426 -51,406 -17,386 18,365 52,345 62,339 59,337 42,347 7,367 -27,388 -62,408 -95,428 -92,422 -72,410 -37,390 -3,369 32,349 60,333 56,331 21,351 -13,371 -48,392 -82,412 -89,416 -84,409 -58,394 -24,374 11,353 45,333 57,326 54,324 35,335 0,355 -34,376 -69,396 -80,403 -77,397 -45,378 -10,357 24,337 55,319 51,317 14,339 -20,359 -55,380 -74,391 -71,385 -65,382 -31,361 4,341 38,321 52,313 49,311 28,323 -7,343 -41,363 -68,379 -65,374 -52,366 -17,345 17,325 50,306 46,304 41,307 7,327 -28,347 -59,366 -63,368 -61,363 -38,349 -3,329 31,309 48,299 44,297 21,311 -14,331 -48,351 -59,357 -57,352 -24,333 10,313 42,294 46,292 42,290 34,295 0,315 -35,335 -55,347 -53,342 -45,337 -11,317 24,297 44,285 41,283 14,299 -21,319 -51,337 -49,331 -31,321 3,301 38,281 42,278 39,276 27,283 -7,303 -42,323 -47,326 -45,321 -18,305 17,285 41,271 37,269 7,287 -28,307 -44,316 -43,312 -38,309 -4,289 31,269 40,263 36,261 20,271 -14,291 -41,307 -40,302 -25,293 10,273 39,256 35,253 -1,275 -35,295 -38,297 -37,292 -11,277 24,256 38,248 35,246 13,259 -21,279 -36,287 -34,282 -31,280 3,261 36,241 39,226 40,209 17,216 -2,223 -26,228 -45,230 -69,228 -93,225 -116,218 -140,211 -162,202 -183,192 -204,181 -224,169 -244,157 -264,145 -284,132 -303,120 -323,107 -343,95 -335,94 -345,99 -345,103 -336,98 -328,94 -321,94 -326,96 -345,107 -345,111 -318,96 -314,94 -308,94 -339,112 -345,116 -345,120 -329,110 -301,94 -294,94 -319,108 -345,124 -341,126 -308,106 -287,94 -280,94 -298,104 -332,125 -343,131 -340,133 -322,122 -287,102 -273,94 -266,94 -277,100 -312,120 -342,138 -339,140 -301,118 -267,98 -259,94 -252,94 -256,96 -291,116 -325,137 -341,146 -338,148 -315,135 -280,114 -249,96 -245,94 -239,94 -270,112 -304,132 -336,151 -339,153 -336,155 -329,151 -294,130 -260,110 -232,94 -225,94 -249,108 -284,128 -318,149 -337,160 -334,162 -308,147 -273,126 -239,106 -218,94 -211,94 -228,104 -263,124 -297,145 -331,165 -335,167 -331,169 -321,163 -287,143 -253,122 -218,102 -204,94 -197,94 -208,100 -242,120 -277,140 -311,161 -333,173 -329,175 -301,159 -266,138 -232,118 -197,98 -190,94 -183,94 -187,96 -221,116 -256,136 -290,157 -325,177 -330,180 -327,182 -314,175 -280,155 -245,134 -211,114 -176,94 -170,94 -201,112 -235,132 -270,153 -304,173 -327,186 -323,188 -294,171 -259,150 -225,130 -190,110 -163,94 -156,94 -180,108 -214,128 -249,148 -283,169 -318,189 -323,192 -320,194 -307,187 -273,167 -238,146 -204,126 -169,106 -149,94 -142,94 -159,104 -193,124 -228,144 -262,165 -297,185 -320,199 -317,201 -287,183 -252,163 -218,142 -183,122 -149,102 -135,94 -128,94 -138,100 -173,120 -207,140 -242,161 -276,181 -311,201 -317,205 -313,207 -300,199 -266,179 -231,158 -197,138 -162,118 -128,98 -121,94 -114,94 -118,96 -152,116 -186,136 -221,156 -255,177 -290,197 -312,210 -309,212 -279,195 -245,175 -210,154 -176,134 -141,114 -107,94 -101,94 -131,112 -166,132 -200,152 -235,173 -269,193 -304,213 -308,216 -305,218 -293,211 -259,191 -224,171 -190,150 -155,130 -121,110 -94,94 -87,94 -110,108 -145,128 -179,148 -214,168 -248,189 -283,209 -304,221 -300,223 -272,207 -238,187 -203,166 -169,146 -134,126 -100,106 -80,94 -73,94 -89,104 -124,124 -158,144 -193,164 -227,185 -262,205 -296,225 -299,227 -296,229 -286,223 -252,203 -217,183 -183,162 -148,142 -114,122 -79,102 -66,94 -59,94 -69,100 -103,120 -138,140 -172,160 -207,181 -241,201 -276,221 -294,232 -290,234 -265,219 -231,199 -196,179 -162,158 -127,138 -93,118 -58,97 -52,94 -45,94 -49,96 -82,116 -117,136 -151,156 -186,176 -220,197 -255,217 -288,237 -285,239 -279,235 -244,215 -210,195 -175,174 -141,154 -107,134 -72,114 -38,94 -32,94 -62,112 -96,132 -131,152 -165,172 -200,193 -234,213 -269,233 -283,242 -279,244 -258,231 -224,211 -189,191 -155,170 -120,150 -86,130 -51,110 -25,94 -18,94 -41,108 -75,128 -110,148 -144,168 -179,189 -213,209 -248,229 -277,246 -273,248 -237,227 -203,207 -168,187 -134,166 -99,146 -65,126 -30,105 -11,94 -4,94 -20,103 -55,124 -89,144 -124,164 -158,184 -192,205 -227,225 -261,245 -270,250 -267,252 -251,243 -217,223 -182,203 -148,182 -113,162 -79,142 -44,122 -10,101 3,94 10,94 1,99 -34,120 -68,140 -103,160 -137,180 -172,201 -206,221 -241,241 -263,254 -260,257 -230,239 -196,219 -161,199 -127,178 -92,158 -58,138 -23,118 11,97 17,94 24,94 20,96 -13,115 -47,136 -82,156 -116,176 -151,197 -185,217 -220,237 -253,256 -256,258 -252,260 -244,255 -209,235 -175,215 -141,194 -106,174 -72,154 -37,134 -3,113 31,94 38,94 8,111 -27,132 -61,152 -96,172 -130,192 -165,213 -199,233 -234,253 -249,262 -245,264 -223,251 -189,231 -154,211 -120,190 -85,170 -51,150 -16,130 18,109 44,94 51,94 29,107 -6,128 -40,148 -75,168 -109,188 -144,209 -178,229 -213,249 -241,266 -237,267 -202,247 -168,227 -133,207 -99,186 -64,166 -30,146 5,126 39,105 58,94 65,94 49,103 15,123 -20,144 -54,164 -89,184 -123,205 -158,225 -192,245 -226,265 -232,269 -227,270 -216,263 -182,243 -147,223 -113,202 -78,182 -44,162 -9,142 25,121 60,101 72,94 79,94 70,99 36,119 1,140 -33,160 -68,180 -102,200 -137,221 -171,241 -206,261 -222,271 -217,272 -195,259 -161,239 -126,219 -92,198 -57,178 -23,158 12,138 46,117 81,97 86,94 93,94 89,96 57,115 22,136 -12,156 -47,176 -81,196 -116,217 -150,237 -185,257 -212,273 -207,274 -175,255 -140,235 -106,215 -71,194 -37,174 -2,154 32,133 67,113 100,94 107,94 77,111 43,131 8,152 -26,172 -61,192 -95,212 -130,233 -164,253 -199,273 -202,275 -197,277 -188,271 -154,251 -119,231 -85,210 -50,190 -16,170 19,150 53,129 88,109 113,94 120,94 98,107 64,127 29,148 -5,168 -40,188 -74,208 -109,229 -143,249 -178,269 -192,278 -187,279 -167,267 -133,247 -98,227 -64,206 -29,186 5,166 40,146 74,125 109,105 127,94 134,94 119,103 84,123 50,144 15,164 -19,184 -54,204 -88,225 -123,245 -157,265 -182,280 -176,280 -147,263 -112,243 -78,223 -43,202 -9,182 26,162 60,141 95,121 129,101 141,94 148,94 140,99 105,119 71,139 36,160 2,180 -33,200 -67,220 -102,241 -136,261 -169,280 -162,280 -158,278 -126,259 -91,239 -57,218 -22,198 12,178 47,158 81,137 116,117 150,97 155,94 162,94 158,96 126,115 92,135 57,156 23,176 -12,196 -46,216 -81,237 -115,257 -150,277 -155,280 -148,280 -140,275 -105,255 -71,235 -36,214 -2,194 33,174 67,154 102,133 136,113 169,94 176,94 147,111 112,131 78,151 43,172 9,192 -26,212 -60,233 -95,253 -129,273 -140,280 -133,280 -119,271 -84,251 -50,230 -15,210 19,190 54,170 88,149 123,129 157,109 182,94 189,94 168,107 133,127 99,147 64,168 30,188 -5,208 -39,228 -74,249 -108,269 -126,280 -116,278 -98,267 -63,247 -29,226 6,206 40,186 75,166 109,145 144,125 178,105 196,94 203,94 188,103 154,123 119,143 85,164 50,184 16,204 -19,224 -53,245 -88,265 -104,274 -91,271 -77,263 -43,243 -8,222 26,202 61,182 95,162 130,141 164,121 199,101 210,94 217,94 209,99 175,119 140,139 106,159 71,180 37,200 2,220 -32,241 -67,261 -78,268 -57,259 -53,257 -22,238 13,218 47,198 82,178 116,157 151,137 185,117 220,97 224,94 231,94 227,96 195,115 161,135 127,155 92,176 58,196 23,216 -12,236 -32,248 -24,248 -1,234 33,214 68,194 102,174 137,153 171,133 206,113 238,94 245,94 216,111 182,131 147,151 113,172 78,192 44,212 9,232 -22,251 -26,253 -27,258 -15,251 20,230 54,210 89,190 123,169 158,149 192,129 227,109 251,94 258,94 237,107 203,127 168,147 134,167 99,188 65,208 30,228 -4,248 -29,263 -30,268 -27,266 6,246 41,226 75,206 110,186 144,165 178,145 213,125 247,105 265,94 272,94 258,103 223,123 189,143 154,163 120,184 85,204 51,224 16,244 -18,265 -31,272 -33,277 -8,263 27,242 61,222 96,202 130,182 165,161 199,141 234,121 268,101 279,94 286,94 279,98 244,119 210,139 175,159 141,180 106,200 72,220 37,240 3,261 -31,280 -34,282 -31,284 -21,279 13,259 48,238 82,218 117,198 151,177 186,157 220,137 255,117 288,97 293,94 283,113 277,132 266,150 258,166 257,177 262,189 274,202 289,210 288,225 285,232 267,246 254,255 243,262 222,270 253,252 284,233 288,231 295,223 277,234 242,254 209,273 199,275 232,256 266,236 301,215 307,208 290,217 256,238 222,258 189,277 181,278 211,260 246,240 280,219 313,200 319,193 304,201 270,221 235,242 201,262 174,278 167,278 190,264 225,244 259,224 294,203 322,187 324,181 318,185 283,205 249,226 214,246 180,266 160,278 153,278 170,268 204,248 239,228 273,207 308,187 326,176 329,171 297,189 263,209 228,230 194,250 159,270 146,278 141,277 149,272 183,252 218,232 252,211 287,191 321,171 331,165 333,160 311,173 276,193 242,213 207,234 173,254 139,274 135,276 130,275 162,256 197,236 231,216 266,195 300,175 332,157 335,155 337,149 325,157 290,177 256,197 221,218 187,238 152,258 124,275 118,274 142,260 176,240 211,220 245,199 280,179 314,159 339,144 340,140 336,142 304,161 269,181 235,201 200,222 166,242 131,262 113,273 109,271 121,264 155,244 190,224 224,203 259,183 293,163 328,143 340,135 341,131 317,145 283,165 248,185 214,206 179,226 145,246 110,266 105,270 100,268 104,266 135,248 169,228 204,208 238,187 273,167 307,147 341,127 342,122 331,129 297,149 262,169 228,189 193,210 159,230 124,250 96,267 91,265 114,252 148,232 183,212 217,191 252,171 286,151 321,131 342,118 343,114 310,133 276,153 241,173 207,193 172,214 138,234 103,254 87,264 82,262 93,256 127,236 162,216 196,195 231,175 265,155 300,135 334,114 343,109 344,105 324,116 290,137 255,157 221,177 186,198 152,218 117,238 83,258 78,261 74,259 107,240 141,220 176,200 210,179 245,159 279,139 314,119 344,101 345,96 338,100 303,121 269,141 234,161 200,181 165,202 131,222 96,242 70,257 66,256 86,244 120,224 155,204 189,183 224,163 258,143 293,123 327,102 341,94 334,94 317,104 282,125 248,145 213,165 179,185 144,206 110,226 76,246 62,254 58,252 65,248 100,228 134,208 169,187 203,167 238,147 272,127 307,106 327,94 320,94 296,109 262,129 227,149 193,169 158,190 124,210 89,230 58,249 54,251 50,249 79,232 113,212 148,192 182,171 217,151 251,131 286,111 314,94 307,94 275,113 241,133 206,153 172,173 137,194 103,214 68,234 46,247 42,246 58,236 93,216 127,196 161,175 196,155 230,135 265,115 296,96 300,94 293,94 289,96 255,117 220,137 186,157 151,177 117,198 82,218 48,238 38,244 43,241 48,238 43,241 38,244" fill="none" stroke="#304ff6" stroke-width="3" /></svg>