<svg height="896.0" version="1.1" viewBox="-345.0 -447.0 690.0 896.0" width="690.0" xmlns="http://www.w3.org/2000/svg" xmlns:ev="http://www.w3.org/2001/xml-events" xmlns:xlink="http://www.w3.org/1999/xlink"><path d="M -273.0,-62.0 -266.0,-62.0 -260.0,-62.0 -266.0,-62.0 -273.0,-62.0 -260.0,-62.0 -261.0,-70.0 -265.0,-94.0 -255.0,-107.0 -244.0,-120.0 -238.0,-83.0 -235.0,-62.0 -222.0,-62.0 -209.0,-61.0 -215.0,-97.0 -222.0,-137.0 -223.0,-146.0 -212.0,-158.0 -202.0,-169.0 -199.0,-151.0 -192.0,-111.0 -186.0,-72.0 -184.0,-61.0 -171.0,-61.0 -158.0,-61.0 -162.0,-86.0 -169.0,-125.0 -175.0,-165.0 -180.0,-193.0 -169.0,-205.0 -159.0,-217.0 -152.0,-179.0 -146.0,-139.0 -139.0,-100.0 -133.0,-61.0 -120.0,-61.0 -108.0,-61.0 -110.0,-74.0 -116.0,-114.0 -123.0,-153.0 -129.0,-193.0 -136.0,-232.0 -137.0,-242.0 -127.0,-255.0 -116.0,-268.0 -113.0,-246.0 -106.0,-206.0 -100.0,-167.0 -93.0,-128.0 -87.0,-88.0 -82.0,-61.0 -70.0,-61.0 -57.0,-61.0 -58.0,-65.0 -64.0,-102.0 -70.0,-141.0 -77.0,-181.0 -83.0,-220.0 -90.0,-260.0 -96.0,-297.0 -85.0,-311.0 -75.0,-325.0 -73.0,-313.0 -67.0,-274.0 -60.0,-234.0 -54.0,-195.0 -47.0,-155.0 -41.0,-116.0 -34.0,-76.0 -32.0,-61.0 -19.0,-61.0 -6.0,-61.0 -11.0,-90.0 -18.0,-130.0 -24.0,-169.0 -31.0,-209.0 -37.0,-248.0 -44.0,-288.0 -50.0,-327.0 -55.0,-354.0 -44.0,-370.0 -34.0,-385.0 -34.0,-381.0 -27.0,-341.0 -21.0,-302.0 -14.0,-262.0 -8.0,-223.0 -1.0,-183.0 5.0,-144.0 12.0,-104.0 18.0,-65.0 19.0,-61.0 32.0,-61.0 44.0,-61.0 41.0,-79.0 35.0,-118.0 28.0,-158.0 22.0,-197.0 15.0,-237.0 9.0,-276.0 2.0,-316.0 -4.0,-355.0 -11.0,-394.0 -14.0,-416.0 -4.0,-432.0 6.0,-447.0 13.0,-408.0 19.0,-369.0 26.0,-329.0 32.0,-290.0 39.0,-251.0 45.0,-211.0 51.0,-172.0 58.0,-132.0 64.0,-93.0 70.0,-61.0 89.0,-68.0 108.0,-74.0 128.0,-80.0 147.0,-87.0 167.0,-93.0 183.0,-99.0 203.0,-103.0 224.0,-106.0 244.0,-108.0 264.0,-111.0 268.0,-86.0 272.0,-61.0 260.0,-61.0 247.0,-61.0 245.0,-72.0 239.0,-111.0 232.0,-150.0 217.0,-166.0 202.0,-183.0 203.0,-176.0 209.0,-137.0 216.0,-97.0 222.0,-61.0 209.0,-61.0 196.0,-61.0 193.0,-83.0 186.0,-123.0 180.0,-162.0 173.0,-202.0 171.0,-218.0 155.0,-235.0 139.0,-253.0 144.0,-227.0 150.0,-188.0 157.0,-148.0 163.0,-109.0 170.0,-69.0 171.0,-61.0 158.0,-61.0 146.0,-61.0 140.0,-95.0 134.0,-134.0 127.0,-174.0 121.0,-213.0 114.0,-253.0 108.0,-291.0 97.0,-305.0 86.0,-319.0 76.0,-333.0 78.0,-318.0 85.0,-278.0 91.0,-239.0 98.0,-199.0 104.0,-160.0 111.0,-120.0 117.0,-81.0 120.0,-61.0 108.0,-61.0 95.0,-61.0 94.0,-67.0 88.0,-107.0 81.0,-146.0 75.0,-186.0 68.0,-225.0 62.0,-264.0 55.0,-304.0 49.0,-343.0 42.0,-383.0 41.0,-388.0 30.0,-408.0 18.0,-427.0 6.0,-447.0 -1.0,-440.0 4.0,-443.0 8.0,-445.0 11.0,-443.0 -5.0,-434.0 -9.0,-428.0 11.0,-439.0 15.0,-437.0 0.0,-429.0 -13.0,-421.0 -17.0,-415.0 11.0,-431.0 15.0,-433.0 18.0,-431.0 -14.0,-413.0 -21.0,-409.0 -25.0,-402.0 -3.0,-415.0 19.0,-427.0 22.0,-425.0 7.0,-417.0 -26.0,-398.0 -30.0,-396.0 -34.0,-390.0 -17.0,-399.0 18.0,-419.0 22.0,-421.0 26.0,-419.0 -7.0,-401.0 -38.0,-383.0 -42.0,-377.0 -31.0,-383.0 4.0,-403.0 26.0,-415.0 29.0,-413.0 14.0,-405.0 -21.0,-385.0 -46.0,-371.0 -50.0,-364.0 -45.0,-367.0 -10.0,-387.0 24.0,-406.0 29.0,-409.0 33.0,-407.0 0.0,-389.0 -35.0,-369.0 -54.0,-358.0 -58.0,-352.0 -24.0,-371.0 10.0,-390.0 33.0,-403.0 36.0,-401.0 21.0,-392.0 -14.0,-373.0 -49.0,-353.0 -62.0,-346.0 -67.0,-339.0 -38.0,-355.0 -4.0,-375.0 31.0,-394.0 36.0,-397.0 40.0,-395.0 7.0,-376.0 -28.0,-357.0 -63.0,-337.0 -72.0,-332.0 -77.0,-325.0 -52.0,-339.0 -18.0,-359.0 17.0,-378.0 40.0,-391.0 43.0,-389.0 28.0,-380.0 -7.0,-361.0 -42.0,-341.0 -77.0,-321.0 -82.0,-318.0 -87.0,-312.0 -66.0,-323.0 -32.0,-343.0 3.0,-362.0 38.0,-382.0 43.0,-385.0 47.0,-383.0 14.0,-364.0 -21.0,-345.0 -56.0,-325.0 -89.0,-307.0 -92.0,-305.0 -97.0,-298.0 -80.0,-307.0 -46.0,-327.0 -11.0,-346.0 24.0,-366.0 47.0,-379.0 50.0,-377.0 35.0,-368.0 0.0,-348.0 -35.0,-329.0 -70.0,-309.0 -102.0,-291.0 -107.0,-284.0 -95.0,-291.0 -60.0,-311.0 -25.0,-331.0 10.0,-350.0 45.0,-370.0 50.0,-373.0 54.0,-371.0 21.0,-352.0 -14.0,-332.0 -49.0,-313.0 -84.0,-293.0 -112.0,-277.0 -117.0,-271.0 -109.0,-275.0 -74.0,-295.0 -39.0,-315.0 -4.0,-334.0 31.0,-354.0 54.0,-367.0 58.0,-365.0 41.0,-356.0 7.0,-336.0 -28.0,-317.0 -63.0,-297.0 -98.0,-277.0 -123.0,-263.0 -128.0,-256.0 -123.0,-260.0 -88.0,-279.0 -53.0,-299.0 -18.0,-318.0 17.0,-338.0 52.0,-358.0 58.0,-361.0 61.0,-359.0 27.0,-340.0 -7.0,-320.0 -42.0,-301.0 -77.0,-281.0 -112.0,-261.0 -134.0,-249.0 -140.0,-242.0 -137.0,-244.0 -102.0,-263.0 -67.0,-283.0 -32.0,-302.0 3.0,-322.0 38.0,-342.0 62.0,-355.0 65.0,-353.0 48.0,-343.0 13.0,-324.0 -21.0,-304.0 -56.0,-285.0 -91.0,-265.0 -126.0,-246.0 -147.0,-234.0 -153.0,-226.0 -150.0,-228.0 -116.0,-247.0 -81.0,-267.0 -46.0,-287.0 -11.0,-306.0 24.0,-326.0 59.0,-345.0 66.0,-349.0 69.0,-347.0 34.0,-328.0 -1.0,-308.0 -35.0,-288.0 -70.0,-269.0 -105.0,-249.0 -140.0,-230.0 -160.0,-218.0 -167.0,-210.0 -164.0,-212.0 -130.0,-231.0 -95.0,-251.0 -60.0,-271.0 -25.0,-290.0 10.0,-310.0 45.0,-329.0 69.0,-343.0 73.0,-341.0 55.0,-331.0 20.0,-312.0 -15.0,-292.0 -49.0,-273.0 -84.0,-253.0 -119.0,-233.0 -154.0,-214.0 -174.0,-202.0 -182.0,-194.0 -178.0,-196.0 -144.0,-216.0 -109.0,-235.0 -74.0,-255.0 -39.0,-274.0 -4.0,-294.0 31.0,-314.0 66.0,-333.0 73.0,-337.0 77.0,-335.0 73.0,-333.0 41.0,-315.0 6.0,-296.0 -29.0,-276.0 -63.0,-257.0 -98.0,-237.0 -133.0,-217.0 -168.0,-198.0 -189.0,-186.0 -197.0,-178.0 -193.0,-180.0 -158.0,-200.0 -123.0,-219.0 -88.0,-239.0 -53.0,-258.0 -18.0,-278.0 17.0,-298.0 52.0,-317.0 77.0,-331.0 80.0,-329.0 62.0,-319.0 27.0,-299.0 -8.0,-280.0 -43.0,-260.0 -77.0,-241.0 -112.0,-221.0 -147.0,-202.0 -182.0,-182.0 -204.0,-170.0 -211.0,-161.0 -207.0,-164.0 -172.0,-184.0 -137.0,-203.0 -102.0,-223.0 -67.0,-243.0 -32.0,-262.0 3.0,-282.0 38.0,-301.0 72.0,-321.0 81.0,-326.0 84.0,-324.0 81.0,-322.0 48.0,-303.0 13.0,-284.0 -22.0,-264.0 -57.0,-244.0 -92.0,-225.0 -126.0,-205.0 -161.0,-186.0 -196.0,-166.0 -219.0,-153.0 -226.0,-145.0 -221.0,-148.0 -186.0,-168.0 -151.0,-187.0 -116.0,-207.0 -81.0,-227.0 -46.0,-246.0 -11.0,-266.0 24.0,-285.0 58.0,-305.0 85.0,-320.0 89.0,-318.0 69.0,-307.0 34.0,-287.0 -1.0,-268.0 -36.0,-248.0 -71.0,-229.0 -106.0,-209.0 -140.0,-189.0 -175.0,-170.0 -210.0,-150.0 -232.0,-138.0 -238.0,-130.0 -235.0,-132.0 -200.0,-152.0 -165.0,-172.0 -130.0,-191.0 -95.0,-211.0 -60.0,-230.0 -25.0,-250.0 10.0,-270.0 44.0,-289.0 79.0,-309.0 90.0,-315.0 93.0,-313.0 90.0,-311.0 55.0,-291.0 20.0,-271.0 -15.0,-252.0 -50.0,-232.0 -85.0,-213.0 -120.0,-193.0 -154.0,-173.0 -189.0,-154.0 -224.0,-134.0 -244.0,-123.0 -250.0,-116.0 -247.0,-118.0 -214.0,-136.0 -179.0,-156.0 -144.0,-175.0 -109.0,-195.0 -74.0,-214.0 -39.0,-234.0 -4.0,-254.0 30.0,-273.0 65.0,-293.0 94.0,-309.0 98.0,-307.0 76.0,-295.0 41.0,-275.0 6.0,-255.0 -29.0,-236.0 -64.0,-216.0 -99.0,-197.0 -134.0,-177.0 -168.0,-158.0 -203.0,-138.0 -238.0,-118.0 -256.0,-108.0 -262.0,-101.0 -228.0,-120.0 -193.0,-140.0 -158.0,-159.0 -123.0,-179.0 -88.0,-199.0 -53.0,-218.0 -18.0,-238.0 16.0,-257.0 51.0,-277.0 86.0,-297.0 99.0,-304.0 102.0,-301.0 97.0,-298.0 62.0,-279.0 27.0,-259.0 -8.0,-240.0 -43.0,-220.0 -78.0,-200.0 -113.0,-181.0 -148.0,-161.0 -182.0,-142.0 -217.0,-122.0 -252.0,-102.0 -268.0,-94.0 -273.0,-87.0 -242.0,-104.0 -207.0,-124.0 -172.0,-143.0 -137.0,-163.0 -102.0,-183.0 -67.0,-202.0 -32.0,-222.0 2.0,-241.0 37.0,-261.0 72.0,-281.0 103.0,-298.0 106.0,-296.0 83.0,-282.0 48.0,-263.0 13.0,-243.0 -22.0,-224.0 -57.0,-204.0 -92.0,-184.0 -127.0,-165.0 -162.0,-145.0 -196.0,-126.0 -231.0,-106.0 -266.0,-87.0 -278.0,-80.0 -282.0,-74.0 -256.0,-88.0 -221.0,-108.0 -186.0,-128.0 -151.0,-147.0 -116.0,-167.0 -81.0,-186.0 -46.0,-206.0 -12.0,-226.0 23.0,-245.0 58.0,-265.0 93.0,-284.0 107.0,-292.0 111.0,-290.0 103.0,-286.0 69.0,-267.0 34.0,-247.0 -1.0,-227.0 -36.0,-208.0 -71.0,-188.0 -106.0,-169.0 -141.0,-149.0 -176.0,-129.0 -210.0,-110.0 -245.0,-90.0 -280.0,-71.0 -286.0,-67.0 -290.0,-61.0 -270.0,-72.0 -235.0,-92.0 -200.0,-112.0 -165.0,-131.0 -130.0,-151.0 -95.0,-170.0 -60.0,-190.0 -26.0,-210.0 9.0,-229.0 44.0,-249.0 79.0,-268.0 112.0,-287.0 115.0,-285.0 89.0,-270.0 55.0,-251.0 20.0,-231.0 -15.0,-211.0 -50.0,-192.0 -85.0,-172.0 -120.0,-153.0 -155.0,-133.0 -190.0,-114.0 -224.0,-94.0 -259.0,-74.0 -286.0,-60.0 -278.0,-60.0 -249.0,-76.0 -214.0,-96.0 -179.0,-115.0 -144.0,-135.0 -109.0,-155.0 -75.0,-174.0 -40.0,-194.0 -5.0,-213.0 30.0,-233.0 65.0,-253.0 100.0,-272.0 116.0,-281.0 120.0,-279.0 110.0,-274.0 75.0,-254.0 41.0,-235.0 6.0,-215.0 -29.0,-196.0 -64.0,-176.0 -99.0,-156.0 -134.0,-137.0 -169.0,-117.0 -204.0,-98.0 -238.0,-78.0 -271.0,-60.0 -264.0,-60.0 -261.0,-62.0 -228.0,-80.0 -193.0,-99.0 -158.0,-119.0 -123.0,-139.0 -89.0,-158.0 -54.0,-178.0 -19.0,-197.0 16.0,-217.0 51.0,-237.0 86.0,-256.0 121.0,-276.0 124.0,-274.0 96.0,-258.0 61.0,-238.0 27.0,-219.0 -8.0,-199.0 -43.0,-180.0 -78.0,-160.0 -113.0,-140.0 -148.0,-121.0 -183.0,-101.0 -218.0,-82.0 -252.0,-62.0 -257.0,-60.0 -250.0,-60.0 -242.0,-64.0 -207.0,-84.0 -172.0,-103.0 -137.0,-123.0 -103.0,-142.0 -68.0,-162.0 -33.0,-182.0 2.0,-201.0 37.0,-221.0 72.0,-240.0 107.0,-260.0 125.0,-270.0 129.0,-268.0 117.0,-262.0 82.0,-242.0 47.0,-223.0 13.0,-203.0 -22.0,-183.0 -57.0,-164.0 -92.0,-144.0 -127.0,-125.0 -162.0,-105.0 -197.0,-85.0 -232.0,-66.0 -243.0,-60.0 -236.0,-60.0 -221.0,-68.0 -186.0,-87.0 -151.0,-107.0 -117.0,-126.0 -82.0,-146.0 -47.0,-166.0 -12.0,-185.0 23.0,-205.0 58.0,-224.0 93.0,-244.0 130.0,-265.0 133.0,-263.0 103.0,-246.0 68.0,-226.0 33.0,-207.0 -1.0,-187.0 -36.0,-167.0 -71.0,-148.0 -106.0,-128.0 -141.0,-109.0 -176.0,-89.0 -211.0,-70.0 -228.0,-60.0 -221.0,-60.0 -200.0,-71.0 -165.0,-91.0 -131.0,-111.0 -96.0,-130.0 -61.0,-150.0 -26.0,-169.0 9.0,-189.0 44.0,-209.0 79.0,-228.0 114.0,-248.0 135.0,-260.0 138.0,-257.0 124.0,-250.0 89.0,-230.0 54.0,-210.0 19.0,-191.0 -15.0,-171.0 -50.0,-152.0 -85.0,-132.0 -120.0,-112.0 -155.0,-93.0 -190.0,-73.0 -214.0,-59.0 -207.0,-59.0 -179.0,-75.0 -145.0,-95.0 -110.0,-114.0 -75.0,-134.0 -40.0,-153.0 -5.0,-173.0 30.0,-193.0 65.0,-212.0 100.0,-232.0 134.0,-251.0 139.0,-254.0 143.0,-252.0 110.0,-234.0 75.0,-214.0 40.0,-194.0 5.0,-175.0 -29.0,-155.0 -64.0,-136.0 -99.0,-116.0 -134.0,-96.0 -169.0,-77.0 -200.0,-59.0 -193.0,-59.0 -159.0,-79.0 -124.0,-98.0 -89.0,-118.0 -54.0,-138.0 -19.0,-157.0 16.0,-177.0 51.0,-196.0 86.0,-216.0 120.0,-236.0 144.0,-249.0 148.0,-247.0 131.0,-237.0 96.0,-218.0 61.0,-198.0 26.0,-179.0 -9.0,-159.0 -43.0,-139.0 -78.0,-120.0 -113.0,-100.0 -148.0,-81.0 -182.0,-61.0 -186.0,-59.0 -179.0,-59.0 -173.0,-63.0 -138.0,-82.0 -103.0,-102.0 -68.0,-122.0 -33.0,-141.0 2.0,-161.0 37.0,-180.0 72.0,-200.0 106.0,-220.0 141.0,-239.0 149.0,-243.0 152.0,-241.0 149.0,-239.0 117.0,-221.0 82.0,-202.0 47.0,-182.0 12.0,-163.0 -23.0,-143.0 -58.0,-123.0 -92.0,-104.0 -127.0,-84.0 -162.0,-65.0 -171.0,-59.0 -164.0,-59.0 -152.0,-67.0 -117.0,-86.0 -82.0,-106.0 -47.0,-125.0 -12.0,-145.0 23.0,-165.0 58.0,-184.0 92.0,-204.0 127.0,-223.0 154.0,-238.0 157.0,-236.0 138.0,-225.0 103.0,-206.0 68.0,-186.0 33.0,-166.0 -2.0,-147.0 -37.0,-127.0 -72.0,-108.0 -106.0,-88.0 -141.0,-68.0 -157.0,-59.0 -150.0,-59.0 -131.0,-70.0 -96.0,-90.0 -61.0,-109.0 -26.0,-129.0 9.0,-149.0 44.0,-168.0 78.0,-188.0 113.0,-207.0 148.0,-227.0 158.0,-233.0 162.0,-231.0 158.0,-229.0 124.0,-209.0 89.0,-190.0 54.0,-170.0 19.0,-150.0 -16.0,-131.0 -51.0,-111.0 -86.0,-92.0 -120.0,-72.0 -143.0,-59.0 -136.0,-59.0 -110.0,-74.0 -75.0,-94.0 -40.0,-113.0 -5.0,-133.0 30.0,-152.0 64.0,-172.0 99.0,-191.0 134.0,-211.0 163.0,-227.0 167.0,-225.0 145.0,-213.0 110.0,-193.0 75.0,-174.0 40.0,-154.0 5.0,-135.0 -30.0,-115.0 -65.0,-95.0 -100.0,-76.0 -129.0,-59.0 -122.0,-59.0 -89.0,-78.0 -54.0,-97.0 -19.0,-117.0 16.0,-136.0 50.0,-156.0 85.0,-176.0 120.0,-195.0 155.0,-215.0 168.0,-222.0 171.0,-220.0 165.0,-217.0 131.0,-197.0 96.0,-177.0 61.0,-158.0 26.0,-138.0 -9.0,-119.0 -44.0,-99.0 -79.0,-79.0 -111.0,-61.0 -114.0,-59.0 -107.0,-59.0 -103.0,-62.0 -68.0,-81.0 -33.0,-101.0 2.0,-121.0 36.0,-140.0 71.0,-160.0 106.0,-179.0 141.0,-199.0 173.0,-217.0 176.0,-215.0 151.0,-201.0 117.0,-181.0 82.0,-162.0 47.0,-142.0 12.0,-122.0 -23.0,-103.0 -58.0,-83.0 -93.0,-64.0 -100.0,-59.0 -93.0,-59.0 -82.0,-65.0 -47.0,-85.0 -12.0,-105.0 22.0,-124.0 57.0,-144.0 92.0,-163.0 127.0,-183.0 162.0,-203.0 177.0,-211.0 181.0,-209.0 172.0,-204.0 137.0,-185.0 103.0,-165.0 68.0,-146.0 33.0,-126.0 -2.0,-106.0 -37.0,-87.0 -72.0,-67.0 -86.0,-59.0 -79.0,-59.0 -61.0,-69.0 -26.0,-89.0 8.0,-108.0 43.0,-128.0 78.0,-147.0 113.0,-167.0 148.0,-187.0 182.0,-206.0 186.0,-204.0 158.0,-189.0 123.0,-169.0 89.0,-149.0 54.0,-130.0 19.0,-110.0 -16.0,-91.0 -51.0,-71.0 -72.0,-59.0 -64.0,-59.0 -41.0,-73.0 -6.0,-92.0 29.0,-112.0 64.0,-132.0 99.0,-151.0 134.0,-171.0 169.0,-190.0 187.0,-201.0 179.0,-180.0 173.0,-158.0 171.0,-135.0 175.0,-113.0 186.0,-93.0 202.0,-79.0 223.0,-69.0 246.0,-63.0 269.0,-60.0 292.0,-59.0 300.0,-59.0 294.0,-60.0 285.0,-59.0 296.0,-65.0 293.0,-67.0 286.0,-64.0 278.0,-59.0 271.0,-59.0 276.0,-62.0 293.0,-71.0 289.0,-74.0 267.0,-61.0 264.0,-59.0 256.0,-59.0 289.0,-78.0 286.0,-80.0 279.0,-76.0 249.0,-59.0 242.0,-59.0 269.0,-74.0 286.0,-84.0 283.0,-86.0 258.0,-72.0 235.0,-59.0 228.0,-59.0 248.0,-70.0 279.0,-88.0 283.0,-90.0 279.0,-92.0 272.0,-88.0 237.0,-68.0 221.0,-59.0 214.0,-59.0 227.0,-66.0 262.0,-86.0 278.0,-95.0 275.0,-98.0 251.0,-84.0 216.0,-65.0 207.0,-59.0 199.0,-59.0 206.0,-63.0 241.0,-82.0 274.0,-101.0 271.0,-103.0 265.0,-100.0 231.0,-81.0 196.0,-61.0 192.0,-59.0 185.0,-59.0 189.0,-61.0 220.0,-79.0 255.0,-98.0 270.0,-107.0 266.0,-109.0 245.0,-96.0 210.0,-77.0 178.0,-59.0 171.0,-59.0 199.0,-75.0 234.0,-95.0 266.0,-112.0 262.0,-114.0 259.0,-112.0 224.0,-93.0 189.0,-73.0 164.0,-59.0 157.0,-59.0 178.0,-71.0 213.0,-91.0 248.0,-110.0 261.0,-118.0 258.0,-120.0 238.0,-109.0 203.0,-89.0 168.0,-69.0 149.0,-59.0 142.0,-59.0 157.0,-68.0 192.0,-87.0 227.0,-107.0 257.0,-123.0 254.0,-126.0 217.0,-105.0 182.0,-85.0 147.0,-66.0 135.0,-59.0 128.0,-59.0 137.0,-64.0 171.0,-83.0 206.0,-103.0 241.0,-123.0 253.0,-129.0 249.0,-131.0 231.0,-121.0 196.0,-101.0 161.0,-82.0 126.0,-62.0 121.0,-59.0 114.0,-59.0 117.0,-61.0 151.0,-80.0 185.0,-99.0 220.0,-119.0 248.0,-135.0 245.0,-137.0 210.0,-117.0 175.0,-98.0 140.0,-78.0 107.0,-59.0 100.0,-59.0 130.0,-76.0 165.0,-96.0 199.0,-115.0 234.0,-135.0 244.0,-140.0 241.0,-142.0 224.0,-133.0 189.0,-113.0 154.0,-94.0 119.0,-74.0 92.0,-59.0 85.0,-59.0 109.0,-72.0 144.0,-92.0 179.0,-112.0 214.0,-131.0 239.0,-146.0 236.0,-148.0 203.0,-129.0 168.0,-110.0 133.0,-90.0 98.0,-71.0 78.0,-59.0 71.0,-59.0 88.0,-69.0 123.0,-88.0 158.0,-108.0 193.0,-128.0 228.0,-147.0 234.0,-151.0 231.0,-153.0 217.0,-145.0 182.0,-126.0 147.0,-106.0 112.0,-86.0 78.0,-67.0 64.0,-59.0 57.0,-59.0 67.0,-65.0 102.0,-85.0 137.0,-104.0 172.0,-124.0 207.0,-143.0 229.0,-156.0 226.0,-158.0 196.0,-142.0 161.0,-122.0 126.0,-102.0 92.0,-83.0 57.0,-63.0 50.0,-59.0 43.0,-59.0 46.0,-61.0 81.0,-81.0 116.0,-101.0 151.0,-120.0 186.0,-140.0 221.0,-159.0 224.0,-161.0 221.0,-163.0 210.0,-157.0 175.0,-138.0 140.0,-118.0 106.0,-99.0 71.0,-79.0 39.0,-61.0 35.0,-59.0 28.0,-59.0 60.0,-77.0 95.0,-97.0 130.0,-116.0 165.0,-136.0 200.0,-156.0 219.0,-167.0 216.0,-169.0 189.0,-154.0 154.0,-134.0 120.0,-115.0 85.0,-95.0 50.0,-75.0 21.0,-59.0 14.0,-59.0 39.0,-74.0 74.0,-93.0 109.0,-113.0 144.0,-132.0 179.0,-152.0 211.0,-170.0 215.0,-172.0 211.0,-174.0 203.0,-170.0 168.0,-150.0 134.0,-130.0 99.0,-111.0 64.0,-91.0 29.0,-72.0 7.0,-59.0 0.0,-59.0 19.0,-70.0 53.0,-89.0 88.0,-109.0 123.0,-129.0 158.0,-148.0 193.0,-168.0 210.0,-177.0 206.0,-179.0 182.0,-166.0 148.0,-146.0 113.0,-127.0 78.0,-107.0 43.0,-88.0 8.0,-68.0 -7.0,-59.0 -15.0,-59.0 -2.0,-66.0 33.0,-86.0 67.0,-105.0 102.0,-125.0 137.0,-145.0 172.0,-164.0 205.0,-183.0 201.0,-185.0 197.0,-182.0 162.0,-162.0 127.0,-143.0 92.0,-123.0 57.0,-103.0 22.0,-84.0 -13.0,-64.0 -22.0,-59.0 -29.0,-59.0 -23.0,-62.0 12.0,-82.0 47.0,-102.0 81.0,-121.0 116.0,-141.0 151.0,-160.0 186.0,-180.0 200.0,-188.0 197.0,-190.0 176.0,-178.0 141.0,-159.0 106.0,-139.0 71.0,-119.0 36.0,-100.0 1.0,-80.0 -32.0,-61.0 -36.0,-59.0 -43.0,-59.0 -9.0,-78.0 26.0,-98.0 61.0,-118.0 95.0,-137.0 130.0,-157.0 165.0,-176.0 195.0,-193.0 192.0,-195.0 155.0,-174.0 120.0,-155.0 85.0,-135.0 50.0,-116.0 15.0,-96.0 -20.0,-77.0 -50.0,-59.0 -57.0,-59.0 -30.0,-75.0 5.0,-94.0 40.0,-114.0 75.0,-133.0 109.0,-153.0 144.0,-173.0 179.0,-192.0 190.0,-198.0 187.0,-201.0 169.0,-190.0 134.0,-171.0 99.0,-151.0 64.0,-132.0 29.0,-112.0 -6.0,-92.0 -41.0,-73.0 -64.0,-59.0 -56.0,-64.0 -47.0,-69.0 -56.0,-64.0 -64.0,-59.0" fill="none" stroke="#28166f" stroke-width="3" /><path d="M -65.0,-31.0 -55.0,-30.0 -45.0,-29.0 -55.0,-30.0 -65.0,-31.0 -40.0,-29.0 -15.0,-27.0 10.0,-25.0 34.0,-23.0 59.0,-21.0 84.0,-19.0 109.0,-16.0 133.0,-14.0 158.0,-12.0 183.0,-10.0 207.0,-8.0 232.0,-6.0 257.0,-4.0 281.0,-2.0 306.0,0.0 304.0,-14.0 301.0,-30.0 289.0,-30.0 275.0,-31.0 280.0,-4.0 281.0,0.0 268.0,0.0 255.0,0.0 251.0,-25.0 250.0,-31.0 237.0,-31.0 224.0,-31.0 228.0,-11.0 230.0,0.0 217.0,0.0 205.0,0.0 199.0,-31.0 186.0,-31.0 174.0,-31.0 175.0,-22.0 179.0,0.0 167.0,0.0 154.0,0.0 152.0,-8.0 148.0,-31.0 136.0,-31.0 123.0,-31.0 128.0,0.0 116.0,0.0 103.0,0.0 100.0,-19.0 97.0,-31.0 85.0,-31.0 72.0,-31.0 77.0,-4.0 78.0,0.0 65.0,0.0 52.0,0.0 47.0,-27.0 47.0,-31.0 34.0,-31.0 21.0,-31.0 24.0,-15.0 27.0,0.0 14.0,0.0 1.0,0.0 1.0,-4.0 -4.0,-31.0 -17.0,-31.0 -30.0,-31.0 -29.0,-26.0 -24.0,0.0 -37.0,0.0 -49.0,0.0 -52.0,-12.0 -55.0,-31.0 -68.0,-31.0 -80.0,-31.0 -75.0,0.0 -87.0,0.0 -100.0,0.0 -104.0,-23.0 -106.0,-31.0 -118.0,-31.0 -131.0,-31.0 -127.0,-9.0 -126.0,0.0 -138.0,0.0 -151.0,0.0 -156.0,-31.0 -169.0,-31.0 -182.0,-31.0 -180.0,-20.0 -176.0,0.0 -189.0,0.0 -202.0,0.0 -203.0,-6.0 -207.0,-31.0 -220.0,-31.0 -233.0,-31.0 -232.0,-27.0 -227.0,0.0 -240.0,0.0 -253.0,0.0 -255.0,-16.0 -258.0,-31.0 -271.0,-31.0 -283.0,-31.0 -279.0,-4.0 -278.0,0.0 -291.0,0.0 -303.0,0.0 -308.0,-27.0 -301.0,-33.0 -294.0,-33.0 -310.0,-24.0 -314.0,-22.0 -317.0,-16.0 -302.0,-24.0 -287.0,-33.0 -280.0,-33.0 -292.0,-26.0 -319.0,-11.0 -320.0,-6.0 -316.0,-8.0 -282.0,-28.0 -273.0,-33.0 -266.0,-33.0 -271.0,-30.0 -306.0,-10.0 -322.0,-1.0 -318.0,1.0 -295.0,-12.0 -263.0,-31.0 -260.0,-33.0 -253.0,-33.0 -285.0,-14.0 -313.0,2.0 -306.0,2.0 -275.0,-16.0 -246.0,-33.0 -239.0,-33.0 -264.0,-18.0 -299.0,2.0 -292.0,2.0 -288.0,0.0 -254.0,-20.0 -232.0,-33.0 -225.0,-33.0 -243.0,-22.0 -278.0,-2.0 -285.0,2.0 -278.0,2.0 -268.0,-4.0 -233.0,-24.0 -218.0,-33.0 -211.0,-33.0 -223.0,-26.0 -257.0,-6.0 -271.0,2.0 -264.0,2.0 -247.0,-8.0 -212.0,-28.0 -204.0,-33.0 -197.0,-33.0 -202.0,-30.0 -236.0,-10.0 -257.0,2.0 -250.0,2.0 -226.0,-12.0 -193.0,-31.0 -190.0,-33.0 -183.0,-33.0 -216.0,-14.0 -243.0,2.0 -236.0,2.0 -205.0,-16.0 -176.0,-33.0 -169.0,-33.0 -195.0,-18.0 -229.0,2.0 -222.0,2.0 -218.0,0.0 -184.0,-20.0 -162.0,-33.0 -155.0,-33.0 -174.0,-22.0 -209.0,-2.0 -215.0,2.0 -208.0,2.0 -198.0,-4.0 -164.0,-24.0 -148.0,-33.0 -141.0,-33.0 -153.0,-26.0 -188.0,-6.0 -201.0,2.0 -194.0,2.0 -177.0,-8.0 -143.0,-28.0 -134.0,-33.0 -127.0,-33.0 -132.0,-30.0 -167.0,-10.0 -187.0,2.0 -180.0,2.0 -157.0,-12.0 -123.0,-31.0 -120.0,-33.0 -113.0,-33.0 -146.0,-14.0 -173.0,2.0 -166.0,2.0 -136.0,-16.0 -106.0,-33.0 -99.0,-33.0 -125.0,-18.0 -159.0,2.0 -152.0,2.0 -149.0,0.0 -115.0,-20.0 -92.0,-33.0 -85.0,-33.0 -105.0,-22.0 -139.0,-1.0 -145.0,2.0 -138.0,2.0 -129.0,-3.0 -94.0,-24.0 -78.0,-33.0 -71.0,-33.0 -84.0,-25.0 -118.0,-5.0 -131.0,2.0 -124.0,2.0 -108.0,-7.0 -73.0,-27.0 -64.0,-33.0 -57.0,-33.0 -63.0,-29.0 -97.0,-9.0 -117.0,2.0 -110.0,2.0 -87.0,-11.0 -53.0,-31.0 -50.0,-33.0 -43.0,-33.0 -77.0,-13.0 -103.0,2.0 -96.0,2.0 -66.0,-15.0 -36.0,-33.0 -29.0,-33.0 -56.0,-17.0 -89.0,2.0 -82.0,2.0 -79.0,0.0 -45.0,-19.0 -22.0,-33.0 -15.0,-33.0 -35.0,-21.0 -70.0,-1.0 -75.0,2.0 -68.0,2.0 -59.0,-3.0 -25.0,-23.0 -8.0,-33.0 -1.0,-33.0 -14.0,-25.0 -49.0,-5.0 -61.0,2.0 -54.0,2.0 -38.0,-7.0 -4.0,-27.0 6.0,-33.0 13.0,-33.0 7.0,-29.0 -28.0,-9.0 -48.0,2.0 -41.0,2.0 -18.0,-11.0 17.0,-31.0 20.0,-33.0 27.0,-33.0 -7.0,-13.0 -34.0,2.0 -27.0,2.0 3.0,-15.0 34.0,-33.0 41.0,-33.0 14.0,-17.0 -20.0,2.0 -13.0,2.0 -9.0,0.0 24.0,-19.0 48.0,-33.0 55.0,-33.0 34.0,-21.0 0.0,-1.0 -6.0,2.0 1.0,2.0 10.0,-3.0 45.0,-23.0 62.0,-33.0 69.0,-33.0 55.0,-25.0 21.0,-5.0 8.0,2.0 15.0,2.0 31.0,-7.0 66.0,-27.0 76.0,-33.0 83.0,-33.0 76.0,-29.0 41.0,-9.0 22.0,2.0 29.0,2.0 52.0,-11.0 86.0,-31.0 90.0,-33.0 97.0,-33.0 62.0,-13.0 36.0,2.0 43.0,2.0 73.0,-15.0 104.0,-33.0 111.0,-33.0 83.0,-17.0 50.0,2.0 57.0,2.0 61.0,0.0 94.0,-19.0 118.0,-33.0 125.0,-33.0 104.0,-21.0 69.0,-1.0 64.0,2.0 71.0,2.0 80.0,-3.0 114.0,-23.0 132.0,-33.0 139.0,-33.0 125.0,-25.0 90.0,-5.0 78.0,2.0 85.0,2.0 101.0,-7.0 135.0,-27.0 146.0,-33.0 153.0,-33.0 146.0,-29.0 111.0,-9.0 92.0,2.0 99.0,2.0 121.0,-11.0 156.0,-31.0 160.0,-33.0 166.0,-33.0 163.0,-31.0 132.0,-13.0 106.0,2.0 113.0,2.0 142.0,-15.0 173.0,-33.0 180.0,-33.0 153.0,-17.0 120.0,2.0 127.0,2.0 130.0,0.0 163.0,-19.0 187.0,-33.0 194.0,-33.0 173.0,-21.0 139.0,-1.0 134.0,2.0 141.0,2.0 149.0,-3.0 184.0,-23.0 201.0,-33.0 208.0,-33.0 194.0,-25.0 160.0,-5.0 148.0,2.0 155.0,2.0 170.0,-7.0 205.0,-27.0 215.0,-33.0 222.0,-33.0 215.0,-29.0 180.0,-9.0 162.0,2.0 169.0,2.0 191.0,-11.0 225.0,-31.0 229.0,-33.0 236.0,-33.0 232.0,-31.0 201.0,-13.0 176.0,2.0 183.0,2.0 212.0,-15.0 243.0,-33.0 250.0,-33.0 222.0,-17.0 190.0,2.0 197.0,2.0 200.0,0.0 232.0,-19.0 257.0,-33.0 264.0,-33.0 243.0,-21.0 208.0,0.0 204.0,2.0 211.0,2.0 219.0,-2.0 253.0,-22.0 271.0,-33.0 278.0,-33.0 264.0,-24.0 229.0,-4.0 218.0,2.0 225.0,2.0 239.0,-6.0 274.0,-26.0 285.0,-33.0 291.0,-32.0 284.0,-28.0 250.0,-8.0 232.0,2.0 239.0,2.0 260.0,-10.0 295.0,-30.0 298.0,-32.0 303.0,-31.0 271.0,-12.0 246.0,2.0 253.0,2.0 281.0,-14.0 307.0,-30.0 312.0,-28.0 292.0,-16.0 259.0,2.0 266.0,2.0 270.0,0.0 302.0,-18.0 314.0,-25.0 318.0,-23.0 312.0,-20.0 278.0,0.0 273.0,2.0 280.0,2.0 288.0,-2.0 319.0,-20.0 322.0,-18.0 299.0,-4.0 287.0,2.0 294.0,2.0 309.0,-6.0 322.0,-14.0 326.0,-12.0 319.0,-8.0 301.0,2.0 308.0,2.0 324.0,-7.0 328.0,-5.0 315.0,2.0 329.0,2.0 326.0,-2.0 320.0,-2.0 326.0,-1.0 329.0,-2.0" fill="none" stroke="#28166f" stroke-width="3" /><path d="M 329.0,31.0 319.0,31.0 309.0,31.0 319.0,31.0 329.0,31.0 305.0,31.0 281.0,31.0 257.0,31.0 232.0,31.0 208.0,31.0 184.0,31.0 160.0,31.0 135.0,31.0 111.0,31.0 87.0,31.0 63.0,31.0 39.0,31.0 14.0,31.0 -10.0,31.0 -34.0,31.0 -58.0,31.0 -83.0,31.0 -107.0,31.0 -131.0,31.0 -155.0,31.0 -180.0,31.0 -204.0,31.0 -228.0,31.0 -252.0,31.0 -277.0,31.0 -301.0,31.0 -325.0,31.0 -324.0,37.0 -319.0,64.0 -306.0,64.0 -294.0,64.0 -294.0,60.0 -300.0,31.0 -287.0,31.0 -274.0,31.0 -271.0,48.0 -268.0,64.0 -256.0,64.0 -243.0,64.0 -248.0,35.0 -249.0,31.0 -236.0,31.0 -223.0,31.0 -218.0,59.0 -217.0,64.0 -205.0,64.0 -192.0,64.0 -195.0,44.0 -198.0,31.0 -185.0,31.0 -173.0,31.0 -167.0,64.0 -154.0,64.0 -141.0,64.0 -143.0,55.0 -147.0,31.0 -134.0,31.0 -122.0,31.0 -120.0,41.0 -116.0,64.0 -103.0,64.0 -90.0,64.0 -96.0,31.0 -84.0,31.0 -71.0,31.0 -67.0,52.0 -65.0,64.0 -52.0,64.0 -40.0,64.0 -44.0,38.0 -46.0,31.0 -33.0,31.0 -20.0,31.0 -15.0,60.0 -14.0,64.0 -1.0,64.0 11.0,64.0 8.0,48.0 5.0,31.0 18.0,31.0 31.0,31.0 31.0,35.0 37.0,64.0 49.0,64.0 62.0,64.0 61.0,59.0 56.0,31.0 69.0,31.0 82.0,31.0 84.0,45.0 87.0,64.0 100.0,64.0 113.0,64.0 107.0,31.0 120.0,31.0 132.0,31.0 137.0,56.0 138.0,64.0 151.0,64.0 164.0,64.0 160.0,41.0 158.0,31.0 170.0,31.0 183.0,31.0 189.0,64.0 202.0,64.0 215.0,64.0 212.0,52.0 209.0,31.0 221.0,31.0 234.0,31.0 235.0,38.0 240.0,64.0 253.0,64.0 265.0,64.0 265.0,60.0 259.0,31.0 272.0,31.0 285.0,31.0 288.0,49.0 291.0,64.0 303.0,64.0 316.0,64.0 311.0,35.0 310.0,31.0 323.0,31.0 336.0,31.0 340.0,58.0 341.0,62.0 333.0,66.0 343.0,60.0 339.0,58.0 326.0,66.0 319.0,66.0 342.0,53.0 338.0,50.0 333.0,54.0 312.0,66.0 305.0,66.0 322.0,56.0 340.0,45.0 337.0,43.0 312.0,58.0 298.0,66.0 291.0,66.0 301.0,60.0 336.0,40.0 339.0,38.0 336.0,36.0 326.0,42.0 291.0,62.0 284.0,66.0 277.0,66.0 281.0,64.0 315.0,44.0 338.0,30.0 334.0,29.0 305.0,46.0 274.0,64.0 270.0,66.0 263.0,66.0 294.0,48.0 327.0,29.0 320.0,29.0 316.0,31.0 284.0,50.0 256.0,66.0 249.0,66.0 274.0,52.0 308.0,32.0 313.0,29.0 306.0,29.0 298.0,34.0 263.0,54.0 242.0,66.0 235.0,66.0 253.0,56.0 287.0,36.0 299.0,29.0 292.0,29.0 277.0,38.0 242.0,58.0 228.0,66.0 221.0,66.0 232.0,60.0 267.0,40.0 285.0,29.0 278.0,29.0 256.0,42.0 222.0,62.0 214.0,66.0 207.0,66.0 211.0,64.0 246.0,44.0 271.0,29.0 264.0,29.0 235.0,46.0 204.0,64.0 201.0,66.0 194.0,66.0 225.0,48.0 257.0,29.0 250.0,29.0 247.0,31.0 215.0,50.0 187.0,66.0 180.0,66.0 204.0,52.0 239.0,31.0 243.0,29.0 236.0,29.0 228.0,33.0 194.0,54.0 173.0,66.0 166.0,66.0 183.0,56.0 218.0,36.0 229.0,29.0 222.0,29.0 207.0,38.0 173.0,58.0 159.0,66.0 152.0,66.0 163.0,60.0 197.0,40.0 215.0,29.0 208.0,29.0 187.0,42.0 152.0,62.0 145.0,66.0 138.0,66.0 142.0,64.0 176.0,44.0 201.0,29.0 195.0,29.0 166.0,46.0 135.0,64.0 131.0,66.0 124.0,66.0 155.0,48.0 188.0,29.0 181.0,29.0 177.0,31.0 145.0,50.0 117.0,66.0 110.0,66.0 135.0,52.0 169.0,31.0 174.0,29.0 167.0,29.0 159.0,33.0 124.0,54.0 103.0,66.0 96.0,66.0 114.0,56.0 148.0,35.0 160.0,29.0 153.0,29.0 138.0,37.0 103.0,58.0 89.0,66.0 82.0,66.0 93.0,60.0 128.0,39.0 146.0,29.0 139.0,29.0 117.0,41.0 83.0,62.0 75.0,66.0 69.0,66.0 72.0,64.0 107.0,43.0 132.0,29.0 125.0,29.0 96.0,46.0 65.0,64.0 62.0,66.0 55.0,66.0 86.0,48.0 118.0,29.0 111.0,29.0 108.0,31.0 76.0,50.0 48.0,66.0 41.0,66.0 65.0,52.0 100.0,31.0 104.0,29.0 97.0,29.0 89.0,33.0 55.0,54.0 34.0,66.0 27.0,66.0 44.0,56.0 79.0,35.0 90.0,29.0 83.0,29.0 69.0,37.0 34.0,58.0 20.0,66.0 13.0,66.0 24.0,60.0 58.0,39.0 76.0,29.0 69.0,29.0 48.0,41.0 13.0,62.0 6.0,66.0 -1.0,66.0 3.0,64.0 37.0,43.0 62.0,29.0 55.0,29.0 27.0,45.0 -4.0,64.0 -8.0,66.0 -15.0,66.0 17.0,47.0 48.0,29.0 42.0,29.0 38.0,31.0 6.0,49.0 -22.0,66.0 -29.0,66.0 -4.0,51.0 30.0,31.0 35.0,29.0 28.0,29.0 20.0,33.0 -15.0,54.0 -36.0,66.0 -43.0,66.0 -25.0,56.0 9.0,35.0 21.0,29.0 14.0,29.0 -1.0,37.0 -36.0,58.0 -50.0,66.0 -57.0,66.0 -46.0,60.0 -11.0,39.0 7.0,29.0 0.0,29.0 -22.0,41.0 -56.0,62.0 -64.0,66.0 -71.0,66.0 -67.0,64.0 -32.0,43.0 -7.0,29.0 -14.0,29.0 -43.0,45.0 -74.0,64.0 -77.0,66.0 -84.0,66.0 -53.0,47.0 -21.0,29.0 -28.0,29.0 -32.0,31.0 -63.0,49.0 -91.0,66.0 -98.0,66.0 -74.0,51.0 -39.0,31.0 -35.0,29.0 -42.0,29.0 -50.0,33.0 -84.0,53.0 -105.0,66.0 -112.0,66.0 -95.0,55.0 -60.0,35.0 -49.0,29.0 -56.0,29.0 -70.0,37.0 -105.0,57.0 -119.0,66.0 -126.0,66.0 -115.0,59.0 -81.0,39.0 -63.0,29.0 -70.0,29.0 -91.0,41.0 -126.0,61.0 -133.0,66.0 -140.0,66.0 -136.0,64.0 -102.0,43.0 -77.0,29.0 -84.0,29.0 -112.0,45.0 -143.0,64.0 -147.0,66.0 -154.0,66.0 -122.0,47.0 -91.0,29.0 -98.0,29.0 -101.0,31.0 -133.0,49.0 -161.0,66.0 -168.0,66.0 -143.0,51.0 -109.0,31.0 -105.0,29.0 -112.0,29.0 -119.0,33.0 -154.0,53.0 -175.0,66.0 -182.0,66.0 -164.0,55.0 -129.0,35.0 -118.0,29.0 -125.0,29.0 -140.0,37.0 -174.0,57.0 -189.0,66.0 -196.0,66.0 -185.0,59.0 -150.0,39.0 -132.0,29.0 -139.0,29.0 -161.0,41.0 -195.0,61.0 -203.0,66.0 -210.0,66.0 -206.0,63.0 -171.0,43.0 -146.0,29.0 -153.0,29.0 -182.0,45.0 -213.0,64.0 -216.0,66.0 -223.0,66.0 -192.0,47.0 -160.0,29.0 -167.0,29.0 -171.0,31.0 -202.0,49.0 -230.0,66.0 -237.0,66.0 -213.0,51.0 -178.0,31.0 -174.0,29.0 -181.0,29.0 -189.0,33.0 -223.0,53.0 -244.0,66.0 -251.0,66.0 -234.0,55.0 -199.0,35.0 -188.0,29.0 -195.0,29.0 -209.0,37.0 -244.0,57.0 -258.0,66.0 -265.0,66.0 -254.0,59.0 -220.0,39.0 -202.0,29.0 -209.0,29.0 -230.0,41.0 -265.0,61.0 -272.0,66.0 -279.0,66.0 -275.0,63.0 -241.0,43.0 -216.0,29.0 -223.0,29.0 -251.0,45.0 -282.0,64.0 -286.0,66.0 -293.0,66.0 -261.0,47.0 -230.0,29.0 -237.0,29.0 -240.0,31.0 -272.0,49.0 -300.0,66.0 -307.0,66.0 -282.0,51.0 -248.0,31.0 -244.0,29.0 -251.0,29.0 -258.0,33.0 -293.0,53.0 -314.0,66.0 -321.0,66.0 -303.0,55.0 -268.0,35.0 -258.0,29.0 -264.0,29.0 -279.0,37.0 -313.0,57.0 -328.0,66.0 -335.0,66.0 -324.0,59.0 -289.0,39.0 -271.0,29.0 -278.0,29.0 -300.0,41.0 -334.0,61.0 -342.0,66.0 -340.0,61.0 -310.0,43.0 -285.0,29.0 -298.0,35.0 -312.0,37.0 -319.0,34.0 -327.0,29.0 -334.0,33.0 -335.0,38.0 -327.0,33.0 -320.0,29.0 -313.0,29.0 -317.0,31.0 -336.0,42.0 -337.0,47.0 -310.0,31.0 -306.0,29.0 -299.0,29.0 -331.0,47.0 -338.0,52.0 -339.0,56.0 -320.0,45.0 -292.0,29.0 -285.0,29.0 -310.0,43.0 -340.0,61.0 -332.0,56.0 -323.0,51.0 -332.0,56.0 -340.0,61.0" fill="none" stroke="#28166f" stroke-width="3" /><path d="M -342.0,96.0 -334.0,96.0 -327.0,96.0 -334.0,96.0 -342.0,96.0 -327.0,96.0 -321.0,129.0 -313.0,169.0 -306.0,208.0 -304.0,217.0 -297.0,226.0 -286.0,236.0 -274.0,245.0 -276.0,233.0 -283.0,194.0 -291.0,154.0 -298.0,115.0 -301.0,96.0 -289.0,96.0 -276.0,96.0 -275.0,101.0 -268.0,140.0 -261.0,179.0 -253.0,219.0 -246.0,257.0 -246.0,261.0 -232.0,267.0 -219.0,270.0 -223.0,244.0 -231.0,204.0 -238.0,165.0 -245.0,126.0 -251.0,96.0 -238.0,96.0 -225.0,96.0 -222.0,111.0 -215.0,150.0 -208.0,190.0 -201.0,229.0 -193.0,269.0 -192.0,276.0 -179.0,278.0 -166.0,278.0 -171.0,254.0 -178.0,215.0 -185.0,175.0 -192.0,136.0 -199.0,100.0 -200.0,96.0 -187.0,96.0 -174.0,96.0 -170.0,122.0 -162.0,161.0 -155.0,200.0 -148.0,240.0 -141.0,278.0 -128.0,278.0 -116.0,275.0 -118.0,265.0 -125.0,225.0 -132.0,186.0 -140.0,147.0 -147.0,107.0 -149.0,96.0 -136.0,96.0 -123.0,96.0 -117.0,132.0 -109.0,172.0 -102.0,211.0 -95.0,250.0 -92.0,269.0 -79.0,266.0 -67.0,262.0 -72.0,236.0 -79.0,197.0 -87.0,157.0 -94.0,118.0 -98.0,96.0 -85.0,96.0 -73.0,96.0 -71.0,104.0 -64.0,143.0 -57.0,182.0 -49.0,222.0 -44.0,251.0 -32.0,244.0 -20.0,237.0 -16.0,260.0 -13.0,283.0 -12.0,304.0 -23.0,324.0 -34.0,345.0 -46.0,364.0 -58.0,384.0 -69.0,403.0 -77.0,425.0 -84.0,447.0 -88.0,425.0 -89.0,421.0 -79.0,404.0 -70.0,387.0 -66.0,408.0 -59.0,447.0 -46.0,447.0 -33.0,447.0 -36.0,433.0 -43.0,393.0 -51.0,354.0 -52.0,346.0 -46.0,329.0 -41.0,312.0 -36.0,295.0 -35.0,300.0 -28.0,340.0 -20.0,379.0 -13.0,418.0 -8.0,447.0 5.0,447.0 17.0,447.0 17.0,443.0 10.0,404.0 2.0,365.0 -5.0,325.0 -12.0,286.0 -19.0,247.0 -27.0,207.0 -34.0,168.0 -41.0,129.0 -47.0,96.0 -34.0,96.0 -22.0,96.0 -18.0,114.0 -11.0,154.0 -4.0,193.0 3.0,232.0 11.0,272.0 18.0,311.0 25.0,350.0 32.0,390.0 40.0,429.0 43.0,447.0 56.0,447.0 68.0,447.0 62.0,415.0 55.0,375.0 48.0,336.0 41.0,297.0 33.0,257.0 26.0,218.0 19.0,179.0 12.0,139.0 4.0,100.0 4.0,96.0 25.0,107.0 46.0,118.0 67.0,127.0 89.0,136.0 111.0,144.0 130.0,149.0 153.0,153.0 167.0,154.0 191.0,154.0 200.0,152.0 223.0,145.0 245.0,137.0 266.0,126.0 287.0,114.0 308.0,104.0 320.0,99.0 334.0,96.0 337.0,110.0 340.0,125.0 337.0,143.0 331.0,160.0 324.0,177.0 321.0,164.0 314.0,124.0 309.0,96.0 296.0,96.0 283.0,96.0 284.0,100.0 291.0,139.0 298.0,178.0 304.0,208.0 296.0,217.0 290.0,225.0 283.0,232.0 282.0,228.0 276.0,192.0 268.0,153.0 261.0,114.0 258.0,96.0 245.0,96.0 233.0,96.0 238.0,128.0 246.0,167.0 253.0,207.0 260.0,244.0 260.0,248.0 249.0,256.0 238.0,262.0 237.0,258.0 230.0,221.0 223.0,182.0 216.0,142.0 208.0,103.0 207.0,96.0 194.0,96.0 182.0,96.0 186.0,117.0 193.0,157.0 200.0,196.0 207.0,235.0 214.0,270.0 201.0,273.0 189.0,275.0 185.0,250.0 177.0,210.0 170.0,171.0 163.0,132.0 156.0,96.0 144.0,96.0 131.0,96.0 133.0,107.0 140.0,146.0 147.0,185.0 155.0,225.0 162.0,264.0 164.0,276.0 151.0,276.0 138.0,275.0 132.0,239.0 125.0,200.0 117.0,161.0 110.0,121.0 105.0,96.0 93.0,96.0 80.0,96.0 81.0,100.0 87.0,136.0 95.0,175.0 102.0,214.0 109.0,254.0 112.0,270.0 99.0,266.0 85.0,261.0 79.0,229.0 72.0,189.0 64.0,150.0 57.0,111.0 55.0,96.0 42.0,96.0 29.0,96.0 34.0,125.0 42.0,164.0 49.0,204.0 56.0,243.0 57.0,250.0 46.0,244.0 34.0,237.0 24.0,255.0 21.0,277.0 21.0,290.0 32.0,310.0 44.0,329.0 57.0,349.0 69.0,368.0 83.0,387.0 85.0,400.0 92.0,440.0 94.0,447.0 106.0,447.0 119.0,447.0 118.0,439.0 124.0,449.0 120.0,447.0 110.0,449.0 122.0,442.0 119.0,440.0 103.0,449.0 96.0,449.0 109.0,442.0 118.0,436.0 115.0,434.0 99.0,444.0 90.0,449.0 83.0,449.0 88.0,446.0 114.0,430.0 111.0,428.0 79.0,447.0 76.0,449.0 69.0,449.0 102.0,430.0 110.0,425.0 107.0,423.0 92.0,432.0 62.0,449.0 55.0,449.0 81.0,434.0 106.0,419.0 103.0,417.0 71.0,436.0 48.0,449.0 41.0,449.0 60.0,438.0 95.0,417.0 102.0,413.0 98.0,411.0 85.0,420.0 50.0,440.0 34.0,449.0 27.0,449.0 40.0,442.0 74.0,422.0 97.0,408.0 94.0,406.0 64.0,424.0 29.0,444.0 21.0,449.0 14.0,449.0 19.0,446.0 53.0,426.0 88.0,405.0 94.0,402.0 90.0,400.0 77.0,407.0 43.0,428.0 10.0,447.0 7.0,449.0 0.0,449.0 33.0,430.0 67.0,410.0 90.0,396.0 87.0,394.0 57.0,412.0 22.0,432.0 -7.0,449.0 -14.0,449.0 12.0,434.0 46.0,414.0 81.0,393.0 87.0,390.0 83.0,388.0 70.0,395.0 36.0,416.0 1.0,436.0 -21.0,449.0 -28.0,449.0 -9.0,438.0 25.0,418.0 60.0,397.0 83.0,384.0 80.0,382.0 50.0,399.0 15.0,420.0 -19.0,440.0 -35.0,449.0 -42.0,449.0 -30.0,442.0 5.0,422.0 39.0,402.0 74.0,381.0 79.0,378.0 76.0,376.0 63.0,383.0 29.0,404.0 -6.0,424.0 -40.0,444.0 -48.0,449.0 -55.0,449.0 -51.0,446.0 -16.0,426.0 18.0,406.0 53.0,385.0 76.0,372.0 73.0,370.0 42.0,387.0 8.0,408.0 -27.0,428.0 -59.0,447.0 -62.0,449.0 -69.0,449.0 -37.0,430.0 -2.0,410.0 32.0,389.0 67.0,369.0 73.0,365.0 70.0,363.0 56.0,371.0 22.0,392.0 -13.0,412.0 -47.0,432.0 -76.0,449.0 -83.0,449.0 -58.0,434.0 -23.0,414.0 11.0,394.0 46.0,373.0 71.0,359.0 67.0,357.0 35.0,375.0 1.0,396.0 -34.0,416.0 -68.0,436.0 -90.0,449.0 -97.0,449.0 -79.0,438.0 -44.0,418.0 -10.0,398.0 25.0,377.0 59.0,357.0 68.0,352.0 64.0,350.0 49.0,359.0 15.0,379.0 -20.0,400.0 -54.0,420.0 -89.0,440.0 -102.0,448.0 -106.0,446.0 -99.0,442.0 -65.0,422.0 -30.0,402.0 4.0,381.0 39.0,361.0 65.0,346.0 62.0,344.0 28.0,363.0 -6.0,384.0 -41.0,404.0 -75.0,424.0 -102.0,440.0 -99.0,434.0 -86.0,426.0 -51.0,406.0 -17.0,386.0 18.0,365.0 52.0,345.0 62.0,339.0 59.0,337.0 42.0,347.0 7.0,367.0 -27.0,388.0 -62.0,408.0 -95.0,428.0 -92.0,422.0 -72.0,410.0 -37.0,390.0 -3.0,369.0 32.0,349.0 60.0,333.0 56.0,331.0 21.0,351.0 -13.0,371.0 -48.0,392.0 -82.0,412.0 -89.0,416.0 -84.0,409.0 -58.0,394.0 -24.0,374.0 11.0,353.0 45.0,333.0 57.0,326.0 54.0,324.0 35.0,335.0 0.0,355.0 -34.0,376.0 -69.0,396.0 -80.0,403.0 -77.0,397.0 -45.0,378.0 -10.0,357.0 24.0,337.0 55.0,319.0 51.0,317.0 14.0,339.0 -20.0,359.0 -55.0,380.0 -74.0,391.0 -71.0,385.0 -65.0,382.0 -31.0,361.0 4.0,341.0 38.0,321.0 52.0,313.0 49.0,311.0 28.0,323.0 -7.0,343.0 -41.0,363.0 -68.0,379.0 -65.0,374.0 -52.0,366.0 -17.0,345.0 17.0,325.0 50.0,306.0 46.0,304.0 41.0,307.0 7.0,327.0 -28.0,347.0 -59.0,366.0 -63.0,368.0 -61.0,363.0 -38.0,349.0 -3.0,329.0 31.0,309.0 48.0,299.0 44.0,297.0 21.0,311.0 -14.0,331.0 -48.0,351.0 -59.0,357.0 -57.0,352.0 -24.0,333.0 10.0,313.0 42.0,294.0 46.0,292.0 42.0,290.0 34.0,295.0 0.0,315.0 -35.0,335.0 -55.0,347.0 -53.0,342.0 -45.0,337.0 -11.0,317.0 24.0,297.0 44.0,285.0 41.0,283.0 14.0,299.0 -21.0,319.0 -51.0,337.0 -49.0,331.0 -31.0,321.0 3.0,301.0 38.0,281.0 42.0,278.0 39.0,276.0 27.0,283.0 -7.0,303.0 -42.0,323.0 -47.0,326.0 -45.0,321.0 -18.0,305.0 17.0,285.0 41.0,271.0 37.0,269.0 7.0,287.0 -28.0,307.0 -44.0,316.0 -43.0,312.0 -38.0,309.0 -4.0,289.0 31.0,269.0 40.0,263.0 36.0,261.0 20.0,271.0 -14.0,291.0 -41.0,307.0 -40.0,302.0 -25.0,293.0 10.0,273.0 39.0,256.0 35.0,253.0 -1.0,275.0 -35.0,295.0 -38.0,297.0 -37.0,292.0 -11.0,277.0 24.0,256.0 38.0,248.0 35.0,246.0 13.0,259.0 -21.0,279.0 -36.0,287.0 -34.0,282.0 -31.0,280.0 3.0,261.0 36.0,241.0 39.0,226.0 40.0,209.0 17.0,216.0 -2.0,223.0 -26.0,228.0 -45.0,230.0 -69.0,228.0 -93.0,225.0 -116.0,218.0 -140.0,211.0 -162.0,202.0 -183.0,192.0 -204.0,181.0 -224.0,169.0 -244.0,157.0 -264.0,145.0 -284.0,132.0 -303.0,120.0 -323.0,107.0 -343.0,95.0 -335.0,94.0 -345.0,99.0 -345.0,103.0 -336.0,98.0 -328.0,94.0 -321.0,94.0 -326.0,96.0 -345.0,107.0 -345.0,111.0 -318.0,96.0 -314.0,94.0 -308.0,94.0 -339.0,112.0 -345.0,116.0 -345.0,120.0 -329.0,110.0 -301.0,94.0 -294.0,94.0 -319.0,108.0 -345.0,124.0 -341.0,126.0 -308.0,106.0 -287.0,94.0 -280.0,94.0 -298.0,104.0 -332.0,125.0 -343.0,131.0 -340.0,133.0 -322.0,122.0 -287.0,102.0 -273.0,94.0 -266.0,94.0 -277.0,100.0 -312.0,120.0 -342.0,138.0 -339.0,140.0 -301.0,118.0 -267.0,98.0 -259.0,94.0 -252.0,94.0 -256.0,96.0 -291.0,116.0 -325.0,137.0 -341.0,146.0 -338.0,148.0 -315.0,135.0 -280.0,114.0 -249.0,96.0 -245.0,94.0 -239.0,94.0 -270.0,112.0 -304.0,132.0 -336.0,151.0 -339.0,153.0 -336.0,155.0 -329.0,151.0 -294.0,130.0 -260.0,110.0 -232.0,94.0 -225.0,94.0 -249.0,108.0 -284.0,128.0 -318.0,149.0 -337.0,160.0 -334.0,162.0 -308.0,147.0 -273.0,126.0 -239.0,106.0 -218.0,94.0 -211.0,94.0 -228.0,104.0 -263.0,124.0 -297.0,145.0 -331.0,165.0 -335.0,167.0 -331.0,169.0 -321.0,163.0 -287.0,143.0 -253.0,122.0 -218.0,102.0 -204.0,94.0 -197.0,94.0 -208.0,100.0 -242.0,120.0 -277.0,140.0 -311.0,161.0 -333.0,173.0 -329.0,175.0 -301.0,159.0 -266.0,138.0 -232.0,118.0 -197.0,98.0 -190.0,94.0 -183.0,94.0 -187.0,96.0 -221.0,116.0 -256.0,136.0 -290.0,157.0 -325.0,177.0 -330.0,180.0 -327.0,182.0 -314.0,175.0 -280.0,155.0 -245.0,134.0 -211.0,114.0 -176.0,94.0 -170.0,94.0 -201.0,112.0 -235.0,132.0 -270.0,153.0 -304.0,173.0 -327.0,186.0 -323.0,188.0 -294.0,171.0 -259.0,150.0 -225.0,130.0 -190.0,110.0 -163.0,94.0 -156.0,94.0 -180.0,108.0 -214.0,128.0 -249.0,148.0 -283.0,169.0 -318.0,189.0 -323.0,192.0 -320.0,194.0 -307.0,187.0 -273.0,167.0 -238.0,146.0 -204.0,126.0 -169.0,106.0 -149.0,94.0 -142.0,94.0 -159.0,104.0 -193.0,124.0 -228.0,144.0 -262.0,165.0 -297.0,185.0 -320.0,199.0 -317.0,201.0 -287.0,183.0 -252.0,163.0 -218.0,142.0 -183.0,122.0 -149.0,102.0 -135.0,94.0 -128.0,94.0 -138.0,100.0 -173.0,120.0 -207.0,140.0 -242.0,161.0 -276.0,181.0 -311.0,201.0 -317.0,205.0 -313.0,207.0 -300.0,199.0 -266.0,179.0 -231.0,158.0 -197.0,138.0 -162.0,118.0 -128.0,98.0 -121.0,94.0 -114.0,94.0 -118.0,96.0 -152.0,116.0 -186.0,136.0 -221.0,156.0 -255.0,177.0 -290.0,197.0 -312.0,210.0 -309.0,212.0 -279.0,195.0 -245.0,175.0 -210.0,154.0 -176.0,134.0 -141.0,114.0 -107.0,94.0 -101.0,94.0 -131.0,112.0 -166.0,132.0 -200.0,152.0 -235.0,173.0 -269.0,193.0 -304.0,213.0 -308.0,216.0 -305.0,218.0 -293.0,211.0 -259.0,191.0 -224.0,171.0 -190.0,150.0 -155.0,130.0 -121.0,110.0 -94.0,94.0 -87.0,94.0 -110.0,108.0 -145.0,128.0 -179.0,148.0 -214.0,168.0 -248.0,189.0 -283.0,209.0 -304.0,221.0 -300.0,223.0 -272.0,207.0 -238.0,187.0 -203.0,166.0 -169.0,146.0 -134.0,126.0 -100.0,106.0 -80.0,94.0 -73.0,94.0 -89.0,104.0 -124.0,124.0 -158.0,144.0 -193.0,164.0 -227.0,185.0 -262.0,205.0 -296.0,225.0 -299.0,227.0 -296.0,229.0 -286.0,223.0 -252.0,203.0 -217.0,183.0 -183.0,162.0 -148.0,142.0 -114.0,122.0 -79.0,102.0 -66.0,94.0 -59.0,94.0 -69.0,100.0 -103.0,120.0 -138.0,140.0 -172.0,160.0 -207.0,181.0 -241.0,201.0 -276.0,221.0 -294.0,232.0 -290.0,234.0 -265.0,219.0 -231.0,199.0 -196.0,179.0 -162.0,158.0 -127.0,138.0 -93.0,118.0 -58.0,97.0 -52.0,94.0 -45.0,94.0 -49.0,96.0 -82.0,116.0 -117.0,136.0 -151.0,156.0 -186.0,176.0 -220.0,197.0 -255.0,217.0 -288.0,237.0 -285.0,239.0 -279.0,235.0 -244.0,215.0 -210.0,195.0 -175.0,174.0 -141.0,154.0 -107.0,134.0 -72.0,114.0 -38.0,94.0 -32.0,94.0 -62.0,112.0 -96.0,132.0 -131.0,152.0 -165.0,172.0 -200.0,193.0 -234.0,213.0 -269.0,233.0 -283.0,242.0 -279.0,244.0 -258.0,231.0 -224.0,211.0 -189.0,191.0 -155.0,170.0 -120.0,150.0 -86.0,130.0 -51.0,110.0 -25.0,94.0 -18.0,94.0 -41.0,108.0 -75.0,128.0 -110.0,148.0 -144.0,168.0 -179.0,189.0 -213.0,209.0 -248.0,229.0 -277.0,246.0 -273.0,248.0 -237.0,227.0 -203.0,207.0 -168.0,187.0 -134.0,166.0 -99.0,146.0 -65.0,126.0 -30.0,105.0 -11.0,94.0 -4.0,94.0 -20.0,103.0 -55.0,124.0 -89.0,144.0 -124.0,164.0 -158.0,184.0 -192.0,205.0 -227.0,225.0 -261.0,245.0 -270.0,250.0 -267.0,252.0 -251.0,243.0 -217.0,223.0 -182.0,203.0 -148.0,182.0 -113.0,162.0 -79.0,142.0 -44.0,122.0 -10.0,101.0 3.0,94.0 10.0,94.0 1.0,99.0 -34.0,120.0 -68.0,140.0 -103.0,160.0 -137.0,180.0 -172.0,201.0 -206.0,221.0 -241.0,241.0 -263.0,254.0 -260.0,257.0 -230.0,239.0 -196.0,219.0 -161.0,199.0 -127.0,178.0 -92.0,158.0 -58.0,138.0 -23.0,118.0 11.0,97.0 17.0,94.0 24.0,94.0 20.0,96.0 -13.0,115.0 -47.0,136.0 -82.0,156.0 -116.0,176.0 -151.0,197.0 -185.0,217.0 -220.0,237.0 -253.0,256.0 -256.0,258.0 -252.0,260.0 -244.0,255.0 -209.0,235.0 -175.0,215.0 -141.0,194.0 -106.0,174.0 -72.0,154.0 -37.0,134.0 -3.0,113.0 31.0,94.0 38.0,94.0 8.0,111.0 -27.0,132.0 -61.0,152.0 -96.0,172.0 -130.0,192.0 -165.0,213.0 -199.0,233.0 -234.0,253.0 -249.0,262.0 -245.0,264.0 -223.0,251.0 -189.0,231.0 -154.0,211.0 -120.0,190.0 -85.0,170.0 -51.0,150.0 -16.0,130.0 18.0,109.0 44.0,94.0 51.0,94.0 29.0,107.0 -6.0,128.0 -40.0,148.0 -75.0,168.0 -109.0,188.0 -144.0,209.0 -178.0,229.0 -213.0,249.0 -241.0,266.0 -237.0,267.0 -202.0,247.0 -168.0,227.0 -133.0,207.0 -99.0,186.0 -64.0,166.0 -30.0,146.0 5.0,126.0 39.0,105.0 58.0,94.0 65.0,94.0 49.0,103.0 15.0,123.0 -20.0,144.0 -54.0,164.0 -89.0,184.0 -123.0,205.0 -158.0,225.0 -192.0,245.0 -226.0,265.0 -232.0,269.0 -227.0,270.0 -216.0,263.0 -182.0,243.0 -147.0,223.0 -113.0,202.0 -78.0,182.0 -44.0,162.0 -9.0,142.0 25.0,121.0 60.0,101.0 72.0,94.0 79.0,94.0 70.0,99.0 36.0,119.0 1.0,140.0 -33.0,160.0 -68.0,180.0 -102.0,200.0 -137.0,221.0 -171.0,241.0 -206.0,261.0 -222.0,271.0 -217.0,272.0 -195.0,259.0 -161.0,239.0 -126.0,219.0 -92.0,198.0 -57.0,178.0 -23.0,158.0 12.0,138.0 46.0,117.0 81.0,97.0 86.0,94.0 93.0,94.0 89.0,96.0 57.0,115.0 22.0,136.0 -12.0,156.0 -47.0,176.0 -81.0,196.0 -116.0,217.0 -150.0,237.0 -185.0,257.0 -212.0,273.0 -207.0,274.0 -175.0,255.0 -140.0,235.0 -106.0,215.0 -71.0,194.0 -37.0,174.0 -2.0,154.0 32.0,133.0 67.0,113.0 100.0,94.0 107.0,94.0 77.0,111.0 43.0,131.0 8.0,152.0 -26.0,172.0 -61.0,192.0 -95.0,212.0 -130.0,233.0 -164.0,253.0 -199.0,273.0 -202.0,275.0 -197.0,277.0 -188.0,271.0 -154.0,251.0 -119.0,231.0 -85.0,210.0 -50.0,190.0 -16.0,170.0 19.0,150.0 53.0,129.0 88.0,109.0 113.0,94.0 120.0,94.0 98.0,107.0 64.0,127.0 29.0,148.0 -5.0,168.0 -40.0,188.0 -74.0,208.0 -109.0,229.0 -143.0,249.0 -178.0,269.0 -192.0,278.0 -187.0,279.0 -167.0,267.0 -133.0,247.0 -98.0,227.0 -64.0,206.0 -29.0,186.0 5.0,166.0 40.0,146.0 74.0,125.0 109.0,105.0 127.0,94.0 134.0,94.0 119.0,103.0 84.0,123.0 50.0,144.0 15.0,164.0 -19.0,184.0 -54.0,204.0 -88.0,225.0 -123.0,245.0 -157.0,265.0 -182.0,280.0 -176.0,280.0 -147.0,263.0 -112.0,243.0 -78.0,223.0 -43.0,202.0 -9.0,182.0 26.0,162.0 60.0,141.0 95.0,121.0 129.0,101.0 141.0,94.0 148.0,94.0 140.0,99.0 105.0,119.0 71.0,139.0 36.0,160.0 2.0,180.0 -33.0,200.0 -67.0,220.0 -102.0,241.0 -136.0,261.0 -169.0,280.0 -162.0,280.0 -158.0,278.0 -126.0,259.0 -91.0,239.0 -57.0,218.0 -22.0,198.0 12.0,178.0 47.0,158.0 81.0,137.0 116.0,117.0 150.0,97.0 155.0,94.0 162.0,94.0 158.0,96.0 126.0,115.0 92.0,135.0 57.0,156.0 23.0,176.0 -12.0,196.0 -46.0,216.0 -81.0,237.0 -115.0,257.0 -150.0,277.0 -155.0,280.0 -148.0,280.0 -140.0,275.0 -105.0,255.0 -71.0,235.0 -36.0,214.0 -2.0,194.0 33.0,174.0 67.0,154.0 102.0,133.0 136.0,113.0 169.0,94.0 176.0,94.0 147.0,111.0 112.0,131.0 78.0,151.0 43.0,172.0 9.0,192.0 -26.0,212.0 -60.0,233.0 -95.0,253.0 -129.0,273.0 -140.0,280.0 -133.0,280.0 -119.0,271.0 -84.0,251.0 -50.0,230.0 -15.0,210.0 19.0,190.0 54.0,170.0 88.0,149.0 123.0,129.0 157.0,109.0 182.0,94.0 189.0,94.0 168.0,107.0 133.0,127.0 99.0,147.0 64.0,168.0 30.0,188.0 -5.0,208.0 -39.0,228.0 -74.0,249.0 -108.0,269.0 -126.0,280.0 -116.0,278.0 -98.0,267.0 -63.0,247.0 -29.0,226.0 6.0,206.0 40.0,186.0 75.0,166.0 109.0,145.0 144.0,125.0 178.0,105.0 196.0,94.0 203.0,94.0 188.0,103.0 154.0,123.0 119.0,143.0 85.0,164.0 50.0,184.0 16.0,204.0 -19.0,224.0 -53.0,245.0 -88.0,265.0 -104.0,274.0 -91.0,271.0 -77.0,263.0 -43.0,243.0 -8.0,222.0 26.0,202.0 61.0,182.0 95.0,162.0 130.0,141.0 164.0,121.0 199.0,101.0 210.0,94.0 217.0,94.0 209.0,99.0 175.0,119.0 140.0,139.0 106.0,159.0 71.0,180.0 37.0,200.0 2.0,220.0 -32.0,241.0 -67.0,261.0 -78.0,268.0 -57.0,259.0 -53.0,257.0 -22.0,238.0 13.0,218.0 47.0,198.0 82.0,178.0 116.0,157.0 151.0,137.0 185.0,117.0 220.0,97.0 224.0,94.0 231.0,94.0 227.0,96.0 195.0,115.0 161.0,135.0 127.0,155.0 92.0,176.0 58.0,196.0 23.0,216.0 -12.0,236.0 -32.0,248.0 -24.0,248.0 -1.0,234.0 33.0,214.0 68.0,194.0 102.0,174.0 137.0,153.0 171.0,133.0 206.0,113.0 238.0,94.0 245.0,94.0 216.0,111.0 182.0,131.0 147.0,151.0 113.0,172.0 78.0,192.0 44.0,212.0 9.0,232.0 -22.0,251.0 -26.0,253.0 -27.0,258.0 -15.0,251.0 20.0,230.0 54.0,210.0 89.0,190.0 123.0,169.0 158.0,149.0 192.0,129.0 227.0,109.0 251.0,94.0 258.0,94.0 237.0,107.0 203.0,127.0 168.0,147.0 134.0,167.0 99.0,188.0 65.0,208.0 30.0,228.0 -4.0,248.0 -29.0,263.0 -30.0,268.0 -27.0,266.0 6.0,246.0 41.0,226.0 75.0,206.0 110.0,186.0 144.0,165.0 178.0,145.0 213.0,125.0 247.0,105.0 265.0,94.0 272.0,94.0 258.0,103.0 223.0,123.0 189.0,143.0 154.0,163.0 120.0,184.0 85.0,204.0 51.0,224.0 16.0,244.0 -18.0,265.0 -31.0,272.0 -33.0,277.0 -8.0,263.0 27.0,242.0 61.0,222.0 96.0,202.0 130.0,182.0 165.0,161.0 199.0,141.0 234.0,121.0 268.0,101.0 279.0,94.0 286.0,94.0 279.0,98.0 244.0,119.0 210.0,139.0 175.0,159.0 141.0,180.0 106.0,200.0 72.0,220.0 37.0,240.0 3.0,261.0 -31.0,280.0 -34.0,282.0 -31.0,284.0 -21.0,279.0 13.0,259.0 48.0,238.0 82.0,218.0 117.0,198.0 151.0,177.0 186.0,157.0 220.0,137.0 255.0,117.0 288.0,97.0 293.0,94.0 283.0,113.0 277.0,132.0 266.0,150.0 258.0,166.0 257.0,177.0 262.0,189.0 274.0,202.0 289.0,210.0 288.0,225.0 285.0,232.0 267.0,246.0 254.0,255.0 243.0,262.0 222.0,270.0 253.0,252.0 284.0,233.0 288.0,231.0 295.0,223.0 277.0,234.0 242.0,254.0 209.0,273.0 199.0,275.0 232.0,256.0 266.0,236.0 301.0,215.0 307.0,208.0 290.0,217.0 256.0,238.0 222.0,258.0 189.0,277.0 181.0,278.0 211.0,260.0 246.0,240.0 280.0,219.0 313.0,200.0 319.0,193.0 304.0,201.0 270.0,221.0 235.0,242.0 201.0,262.0 174.0,278.0 167.0,278.0 190.0,264.0 225.0,244.0 259.0,224.0 294.0,203.0 322.0,187.0 324.0,181.0 318.0,185.0 283.0,205.0 249.0,226.0 214.0,246.0 180.0,266.0 160.0,278.0 153.0,278.0 170.0,268.0 204.0,248.0 239.0,228.0 273.0,207.0 308.0,187.0 326.0,176.0 329.0,171.0 297.0,189.0 263.0,209.0 228.0,230.0 194.0,250.0 159.0,270.0 146.0,278.0 141.0,277.0 149.0,272.0 183.0,252.0 218.0,232.0 252.0,211.0 287.0,191.0 321.0,171.0 331.0,165.0 333.0,160.0 311.0,173.0 276.0,193.0 242.0,213.0 207.0,234.0 173.0,254.0 139.0,274.0 135.0,276.0 130.0,275.0 162.0,256.0 197.0,236.0 231.0,216.0 266.0,195.0 300.0,175.0 332.0,157.0 335.0,155.0 337.0,149.0 325.0,157.0 290.0,177.0 256.0,197.0 221.0,218.0 187.0,238.0 152.0,258.0 124.0,275.0 118.0,274.0 142.0,260.0 176.0,240.0 211.0,220.0 245.0,199.0 280.0,179.0 314.0,159.0 339.0,144.0 340.0,140.0 336.0,142.0 304.0,161.0 269.0,181.0 235.0,201.0 200.0,222.0 166.0,242.0 131.0,262.0 113.0,273.0 109.0,271.0 121.0,264.0 155.0,244.0 190.0,224.0 224.0,203.0 259.0,183.0 293.0,163.0 328.0,143.0 340.0,135.0 341.0,131.0 317.0,145.0 283.0,165.0 248.0,185.0 214.0,206.0 179.0,226.0 145.0,246.0 110.0,266.0 105.0,270.0 100.0,268.0 104.0,266.0 135.0,248.0 169.0,228.0 204.0,208.0 238.0,187.0 273.0,167.0 307.0,147.0 341.0,127.0 342.0,122.0 331.0,129.0 297.0,149.0 262.0,169.0 228.0,189.0 193.0,210.0 159.0,230.0 124.0,250.0 96.0,267.0 91.0,265.0 114.0,252.0 148.0,232.0 183.0,212.0 217.0,191.0 252.0,171.0 286.0,151.0 321.0,131.0 342.0,118.0 343.0,114.0 310.0,133.0 276.0,153.0 241.0,173.0 207.0,193.0 172.0,214.0 138.0,234.0 103.0,254.0 87.0,264.0 82.0,262.0 93.0,256.0 127.0,236.0 162.0,216.0 196.0,195.0 231.0,175.0 265.0,155.0 300.0,135.0 334.0,114.0 343.0,109.0 344.0,105.0 324.0,116.0 290.0,137.0 255.0,157.0 221.0,177.0 186.0,198.0 152.0,218.0 117.0,238.0 83.0,258.0 78.0,261.0 74.0,259.0 107.0,240.0 141.0,220.0 176.0,200.0 210.0,179.0 245.0,159.0 279.0,139.0 314.0,119.0 344.0,101.0 345.0,96.0 338.0,100.0 303.0,121.0 269.0,141.0 234.0,161.0 200.0,181.0 165.0,202.0 131.0,222.0 96.0,242.0 70.0,257.0 66.0,256.0 86.0,244.0 120.0,224.0 155.0,204.0 189.0,183.0 224.0,163.0 258.0,143.0 293.0,123.0 327.0,102.0 341.0,94.0 334.0,94.0 317.0,104.0 282.0,125.0 248.0,145.0 213.0,165.0 179.0,185.0 144.0,206.0 110.0,226.0 76.0,246.0 62.0,254.0 58.0,252.0 65.0,248.0 100.0,228.0 134.0,208.0 169.0,187.0 203.0,167.0 238.0,147.0 272.0,127.0 307.0,106.0 327.0,94.0 320.0,94.0 296.0,109.0 262.0,129.0 227.0,149.0 193.0,169.0 158.0,190.0 124.0,210.0 89.0,230.0 58.0,249.0 54.0,251.0 50.0,249.0 79.0,232.0 113.0,212.0 148.0,192.0 182.0,171.0 217.0,151.0 251.0,131.0 286.0,111.0 314.0,94.0 307.0,94.0 275.0,113.0 241.0,133.0 206.0,153.0 172.0,173.0 137.0,194.0 103.0,214.0 68.0,234.0 46.0,247.0 42.0,246.0 58.0,236.0 93.0,216.0 127.0,196.0 161.0,175.0 196.0,155.0 230.0,135.0 265.0,115.0 296.0,96.0 300.0,94.0 293.0,94.0 289.0,96.0 255.0,117.0 220.0,137.0 186.0,157.0 151.0,177.0 117.0,198.0 82.0,218.0 48.0,238.0 38.0,244.0 43.0,241.0 48.0,238.0 43.0,241.0 38.0,244.0" fill="none" stroke="#28166f" stroke-width="3" /></svg>