<svg height="904" version="1.1" viewBox="-451 -452 902 904" width="902" xmlns="http://www.w3.org/2000/svg" xmlns:ev="http://www.w3.org/2001/xml-events" xmlns:xlink="http://www.w3.org/1999/xlink"><path d="M -450,5 -443,3 -439,-6 -443,3 -450,5 -443,3 -436,-11 -433,-36 -429,-61 -425,-85 -420,-110 -413,-134 -404,-157 -394,-180 -384,-203 -371,-224 -358,-246 -343,-266 -326,-284 -309,-303 -292,-321 -272,-336 -252,-350 -231,-365 -211,-379 -188,-390 -166,-400 -142,-409 -118,-416 -94,-424 -70,-428 -45,-431 -20,-433 5,-434 30,-433 55,-430 79,-426 104,-421 128,-415 152,-406 174,-396 197,-385 219,-373 240,-360 261,-346 280,-330 298,-313 317,-297 332,-277 346,-257 361,-238 375,-218 385,-202 395,-179 406,-157 415,-138 432,-126 400,-118 404,-119 433,-128 429,-129 399,-121 420,-128 432,-132 410,-127 398,-125 402,-126 431,-136 426,-136 397,-128 417,-135 429,-140 407,-134 396,-132 400,-133 428,-143 424,-144 395,-135 414,-143 427,-147 404,-141 394,-139 397,-140 426,-151 421,-151 392,-142 412,-150 425,-154 402,-148 391,-146 395,-147 423,-158 419,-158 390,-149 409,-157 422,-162 399,-155 388,-153 392,-154 420,-165 416,-166 387,-156 406,-164 419,-169 396,-162 385,-160 389,-161 417,-173 413,-173 384,-163 403,-171 416,-176 393,-169 383,-167 386,-168 414,-180 410,-180 381,-170 400,-178 413,-184 390,-176 379,-174 383,-175 411,-187 407,-187 378,-177 397,-185 409,-191 387,-183 376,-180 380,-182 408,-194 403,-194 375,-184 394,-192 406,-198 384,-190 373,-187 377,-189 404,-201 400,-202 371,-190 391,-199 403,-205 381,-197 370,-194 373,-195 401,-208 396,-208 368,-197 387,-206 399,-212 378,-203 366,-199 370,-201 397,-215 392,-215 365,-202 384,-213 395,-219 374,-209 363,-205 367,-207 393,-222 389,-222 362,-208 380,-219 391,-226 371,-215 360,-211 363,-213 389,-229 385,-228 358,-214 376,-225 387,-232 367,-221 357,-217 360,-219 385,-236 381,-235 354,-220 372,-232 383,-239 363,-228 352,-223 356,-225 381,-242 376,-241 350,-226 368,-238 379,-245 358,-234 348,-229 351,-231 376,-249 372,-248 346,-232 363,-244 374,-252 354,-240 344,-235 347,-238 372,-255 367,-254 342,-238 359,-251 370,-258 350,-246 339,-241 343,-244 367,-261 363,-261 337,-244 354,-257 365,-265 345,-252 335,-248 338,-250 363,-268 358,-267 333,-251 350,-263 361,-271 340,-259 331,-254 334,-256 358,-274 354,-274 329,-257 345,-269 356,-278 336,-265 327,-260 330,-262 354,-281 349,-280 324,-263 340,-275 351,-284 331,-270 322,-265 325,-268 349,-287 344,-286 319,-268 335,-281 346,-290 326,-276 317,-271 320,-273 343,-293 339,-292 314,-274 330,-287 341,-296 321,-282 311,-276 315,-279 338,-298 333,-297 309,-279 325,-293 335,-301 316,-288 307,-282 310,-285 333,-304 328,-303 304,-284 320,-299 330,-307 312,-293 302,-287 305,-289 327,-310 323,-309 300,-289 315,-304 325,-313 307,-298 298,-292 301,-294 322,-316 318,-314 296,-294 310,-309 319,-319 302,-303 293,-296 296,-299 317,-322 313,-320 291,-299 305,-314 314,-325 297,-308 288,-301 291,-304 311,-327 307,-325 286,-304 299,-319 308,-330 291,-313 283,-306 285,-309 305,-332 301,-330 280,-308 293,-324 302,-335 285,-318 277,-311 280,-314 299,-337 295,-335 274,-313 287,-329 296,-340 279,-322 271,-316 274,-319 293,-342 289,-340 269,-318 281,-334 290,-345 273,-327 266,-320 268,-324 287,-347 283,-345 263,-323 275,-339 284,-350 267,-332 260,-325 281,-353 276,-350 257,-328 269,-343 278,-355 261,-336 254,-330 275,-358 270,-355 252,-332 263,-348 272,-360 255,-341 249,-335 269,-363 264,-359 246,-337 257,-352 265,-365 249,-345 243,-339 262,-367 257,-364 239,-341 250,-356 259,-369 243,-349 236,-343 256,-371 251,-368 233,-345 244,-361 252,-373 237,-353 230,-347 249,-376 244,-372 227,-349 237,-365 246,-378 230,-357 224,-351 242,-380 238,-376 221,-353 231,-369 239,-382 224,-361 218,-355 236,-384 231,-381 215,-357 224,-373 232,-386 217,-365 211,-359 229,-388 224,-384 208,-361 218,-377 226,-391 211,-369 205,-363 222,-393 218,-388 202,-365 211,-381 219,-395 204,-373 199,-366 215,-396 211,-392 195,-368 204,-384 212,-398 198,-376 192,-369 208,-400 204,-396 189,-371 197,-388 205,-401 191,-380 185,-373 201,-403 197,-399 182,-374 191,-391 198,-405 184,-383 179,-376 194,-407 190,-403 175,-377 184,-395 190,-408 178,-387 172,-379 187,-410 183,-406 169,-381 177,-398 183,-412 171,-390 165,-382 180,-414 176,-409 162,-384 170,-401 176,-415 164,-393 159,-386 173,-417 169,-413 155,-387 163,-404 169,-419 157,-396 152,-388 165,-420 161,-416 148,-389 156,-407 162,-421 150,-399 145,-391 158,-422 154,-419 141,-392 149,-410 154,-424 143,-402 138,-393 150,-425 147,-422 134,-394 141,-413 147,-426 136,-404 131,-395 132,-399 143,-427 140,-424 127,-396 134,-416 139,-429 129,-407 124,-397 126,-401 135,-430 132,-427 121,-398 127,-418 132,-431 123,-409 118,-399 119,-403 128,-432 125,-429 115,-401 120,-420 124,-434 116,-411 112,-402 120,-435 117,-431 109,-403 113,-422 117,-436 109,-412 106,-404 113,-437 110,-433 102,-404 106,-423 109,-438 102,-414 98,-405 105,-439 102,-434 95,-406 98,-425 102,-440 95,-415 91,-407 98,-440 95,-436 87,-407 91,-426 94,-441 87,-417 83,-408 90,-442 87,-437 80,-409 83,-428 86,-443 80,-418 76,-410 82,-443 79,-438 72,-410 76,-429 78,-444 72,-419 69,-411 74,-445 72,-440 65,-412 68,-430 71,-446 65,-421 61,-412 67,-446 64,-441 58,-413 60,-431 63,-447 57,-422 54,-414 59,-448 56,-442 50,-414 53,-432 55,-448 50,-423 47,-414 51,-449 48,-443 43,-415 45,-433 47,-449 42,-424 39,-415 43,-450 41,-444 35,-415 38,-434 39,-450 35,-424 32,-415 35,-450 33,-445 28,-416 30,-435 32,-451 27,-425 25,-416 28,-451 25,-445 21,-416 23,-435 24,-451 20,-426 18,-416 20,-451 18,-446 15,-416 15,-436 16,-451 13,-426 12,-417 12,-451 10,-446 8,-417 8,-436 8,-451 7,-426 5,-417 4,-452 2,-446 1,-417 1,-436 0,-452 -1,-426 -2,-417 -4,-452 -5,-445 -6,-417 -7,-435 -8,-451 -8,-425 -10,-417 -12,-451 -13,-445 -14,-416 -15,-435 -16,-451 -16,-425 -17,-416 -19,-451 -21,-444 -21,-416 -22,-434 -23,-451 -23,-424 -25,-416 -27,-451 -29,-444 -28,-415 -30,-434 -31,-451 -31,-424 -32,-415 -35,-450 -37,-443 -36,-415 -38,-433 -39,-450 -38,-423 -40,-415 -43,-450 -44,-442 -43,-415 -45,-432 -47,-449 -46,-422 -47,-414 -51,-449 -52,-441 -51,-414 -53,-431 -55,-448 -54,-421 -54,-414 -59,-448 -60,-440 -58,-413 -60,-430 -63,-447 -61,-420 -62,-412 -66,-446 -67,-439 -65,-412 -68,-429 -70,-446 -68,-419 -69,-411 -74,-445 -75,-438 -73,-410 -76,-428 -78,-444 -76,-418 -77,-409 -82,-443 -83,-437 -80,-409 -83,-427 -86,-443 -83,-417 -83,-408 -90,-442 -90,-436 -87,-407 -90,-425 -93,-441 -90,-415 -90,-407 -97,-440 -98,-434 -93,-406 -97,-424 -101,-440 -97,-414 -97,-405 -105,-439 -105,-432 -100,-405 -105,-422 -109,-438 -104,-412 -103,-404 -113,-437 -113,-430 -106,-403 -111,-420 -116,-436 -110,-410 -110,-402 -120,-435 -120,-428 -113,-401 -119,-418 -124,-434 -117,-408 -117,-400 -128,-433 -127,-425 -120,-399 -126,-415 -131,-431 -125,-405 -124,-398 -135,-430 -135,-423 -127,-396 -133,-413 -139,-429 -132,-403 -131,-395 -143,-428 -142,-420 -135,-394 -140,-410 -146,-426 -139,-400 -138,-393 -150,-425 -149,-418 -142,-392 -148,-407 -154,-424 -146,-397 -145,-390 -157,-423 -157,-415 -149,-389 -155,-405 -161,-421 -153,-395 -152,-388 -165,-420 -164,-412 -156,-387 -162,-402 -169,-419 -160,-392 -159,-385 -172,-417 -171,-409 -163,-384 -169,-399 -176,-415 -167,-389 -166,-382 -179,-414 -178,-406 -169,-380 -176,-396 -183,-412 -174,-386 -173,-379 -186,-410 -185,-403 -176,-377 -183,-393 -190,-409 -181,-383 -180,-375 -194,-407 -192,-400 -183,-374 -190,-390 -197,-405 -188,-380 -186,-372 -201,-403 -200,-396 -189,-371 -197,-387 -204,-402 -194,-377 -192,-369 -208,-400 -206,-393 -195,-368 -203,-383 -211,-398 -200,-374 -198,-366 -215,-397 -213,-389 -201,-365 -210,-380 -218,-395 -206,-370 -204,-364 -222,-393 -219,-386 -207,-362 -216,-376 -225,-391 -212,-367 -210,-360 -228,-389 -226,-381 -213,-358 -222,-372 -232,-387 -218,-362 -216,-356 -235,-385 -232,-377 -219,-354 -229,-368 -238,-382 -225,-358 -223,-352 -242,-380 -239,-373 -226,-350 -235,-363 -245,-378 -231,-354 -229,-348 -248,-376 -245,-368 -232,-346 -241,-359 -252,-374 -237,-350 -235,-343 -255,-372 -252,-364 -238,-341 -248,-355 -258,-370 -243,-345 -242,-339 -261,-367 -258,-359 -245,-337 -254,-350 -265,-365 -250,-341 -248,-335 -268,-363 -264,-355 -251,-333 -260,-346 -271,-361 -256,-336 -254,-331 -274,-358 -271,-350 -257,-328 -266,-341 -277,-356 -262,-332 -259,-326 -280,-353 -277,-345 -262,-323 -272,-336 -283,-351 -268,-327 -265,-321 -286,-348 -283,-341 -268,-319 -278,-332 -289,-346 -274,-323 -271,-316 -292,-343 -289,-336 -274,-314 -284,-327 -295,-340 -279,-318 -276,-312 -298,-338 -295,-331 -279,-310 -290,-322 -301,-335 -284,-314 -281,-307 -304,-333 -300,-326 -284,-305 -295,-317 -307,-330 -289,-309 -286,-303 -310,-328 -306,-321 -289,-301 -300,-312 -313,-325 -294,-304 -291,-299 -316,-323 -311,-315 -294,-296 -305,-307 -319,-320 -299,-299 -296,-293 -321,-317 -316,-309 -299,-291 -310,-301 -324,-314 -304,-293 -301,-288 -327,-311 -321,-304 -304,-285 -315,-296 -329,-308 -309,-287 -306,-282 -332,-305 -327,-298 -309,-280 -320,-290 -335,-302 -314,-282 -311,-277 -337,-299 -332,-292 -314,-274 -325,-284 -340,-296 -319,-276 -316,-271 -343,-293 -337,-286 -319,-269 -330,-278 -345,-291 -324,-270 -321,-266 -348,-288 -341,-280 -324,-263 -335,-272 -351,-285 -328,-264 -326,-260 -350,-279 -353,-282 -346,-274 -328,-257 -339,-266 -355,-279 -333,-259 -330,-254 -358,-275 -351,-268 -333,-251 -344,-260 -360,-272 -337,-253 -335,-248 -362,-269 -356,-261 -337,-245 -349,-254 -364,-266 -342,-247 -339,-242 -367,-262 -360,-255 -341,-239 -353,-248 -369,-259 -346,-241 -343,-236 -371,-256 -364,-249 -345,-233 -357,-242 -373,-253 -350,-235 -347,-231 -376,-250 -369,-243 -349,-228 -361,-236 -378,-246 -354,-229 -351,-225 -380,-243 -373,-236 -353,-222 -365,-229 -382,-240 -357,-223 -355,-219 -381,-235 -385,-237 -377,-230 -357,-216 -369,-223 -387,-233 -361,-217 -359,-213 -385,-228 -389,-230 -380,-223 -360,-210 -372,-217 -390,-227 -365,-211 -362,-207 -389,-221 -392,-223 -384,-217 -364,-204 -376,-210 -394,-220 -368,-204 -366,-201 -393,-215 -396,-216 -387,-210 -367,-198 -379,-203 -398,-213 -372,-198 -369,-194 -397,-208 -400,-210 -391,-203 -371,-191 -382,-197 -402,-206 -376,-191 -373,-188 -400,-201 -404,-203 -394,-196 -374,-184 -386,-190 -405,-199 -379,-184 -376,-181 -403,-194 -407,-196 -397,-189 -378,-178 -389,-183 -409,-192 -382,-178 -379,-174 -407,-187 -410,-188 -400,-182 -381,-171 -392,-176 -412,-185 -385,-171 -382,-167 -410,-180 -414,-181 -403,-175 -384,-164 -395,-169 -415,-178 -388,-164 -385,-161 -413,-172 -417,-174 -406,-168 -386,-157 -398,-162 -418,-170 -391,-157 -388,-154 -416,-165 -420,-167 -409,-160 -389,-150 -401,-155 -421,-163 -394,-150 -391,-147 -419,-158 -423,-159 -412,-153 -392,-143 -404,-148 -424,-156 -396,-143 -393,-140 -422,-151 -425,-152 -415,-146 -394,-136 -406,-141 -427,-148 -399,-136 -396,-133 -424,-143 -428,-145 -418,-139 -397,-129 -409,-134 -429,-141 -401,-129 -397,-126 -426,-136 -430,-137 -420,-132 -398,-123 -411,-127 -431,-133 -403,-123 -399,-120 -429,-129 -432,-130 -422,-125 -400,-117 -413,-120 -434,-126 -405,-117 -401,-114 -431,-121 -435,-122 -424,-118 -402,-111 -414,-114 -436,-118 -407,-110 -403,-107 -433,-114 -437,-115 -425,-110 -404,-104 -416,-106 -438,-111 -408,-103 -404,-100 -435,-106 -439,-107 -427,-103 -405,-96 -417,-99 -439,-103 -409,-95 -406,-93 -436,-98 -440,-99 -428,-95 -407,-89 -419,-91 -441,-95 -411,-88 -407,-86 -438,-91 -442,-91 -429,-87 -408,-82 -420,-84 -443,-88 -412,-81 -409,-78 -440,-83 -444,-84 -430,-80 -409,-75 -421,-76 -444,-80 -414,-73 -410,-71 -441,-75 -445,-76 -432,-72 -411,-67 -422,-69 -445,-72 -415,-66 -412,-64 -442,-68 -446,-68 -433,-64 -412,-60 -423,-61 -447,-64 -417,-59 -413,-56 -443,-60 -447,-60 -433,-57 -414,-53 -424,-54 -448,-56 -418,-51 -414,-49 -444,-52 -448,-52 -434,-49 -414,-45 -424,-46 -449,-49 -418,-44 -414,-42 -445,-44 -449,-45 -435,-41 -414,-38 -425,-39 -449,-41 -419,-36 -415,-34 -445,-36 -450,-37 -435,-34 -415,-30 -425,-31 -450,-33 -419,-29 -415,-27 -446,-29 -450,-29 -436,-26 -415,-23 -426,-24 -451,-25 -420,-21 -416,-19 -446,-21 -451,-21 -436,-18 -416,-16 -426,-16 -451,-17 -420,-14 -416,-12 -446,-13 -451,-13 -436,-11 -416,-8 -426,-9 -451,-9 -420,-7 -416,-5 -446,-5 -451,-5 -436,-3 -417,-1 -426,-1 -451,-1 -448,1 -420,1 -417,3 -446,3 -451,3 -436,5 -417,6 -426,7 -451,7 -448,9 -420,8 -416,10 -446,11 -451,11 -436,12 -416,14 -426,14 -451,15 -420,16 -416,18 -446,18 -450,18 -436,20 -416,21 -426,22 -450,22 -419,23 -415,25 -446,26 -450,26 -436,28 -415,29 -426,29 -449,30 -419,31 -415,32 -445,34 -449,34 -435,35 -415,36 -425,37 -449,38 -418,38 -414,40 -444,42 -448,42 -435,43 -414,43 -425,44 -448,46 -418,46 -414,47 -444,50 -448,50 -434,51 -413,51 -424,52 -448,54 -417,53 -413,54 -443,58 -447,58 -433,58 -413,58 -423,59 -447,62 -417,60 -412,62 -442,65 -447,66 -432,66 -412,65 -422,67 -446,70 -415,68 -411,69 -441,73 -445,74 -431,74 -410,73 -421,74 -445,77 -414,75 -409,76 -440,81 -444,81 -430,81 -409,80 -420,82 -443,85 -412,82 -408,84 -438,89 -442,89 -429,89 -407,87 -419,89 -442,93 -411,90 -406,90 -437,96 -441,97 -428,96 -406,94 -417,96 -440,101 -409,96 -405,97 -435,104 -439,105 -426,103 -404,100 -416,103 -438,108 -408,102 -404,103 -433,111 -437,112 -424,110 -403,106 -414,109 -436,116 -407,109 -402,110 -432,119 -435,120 -422,118 -402,113 -412,116 -434,124 -405,116 -400,117 -429,126 -433,127 -419,125 -399,120 -409,124 -432,131 -402,123 -398,124 -427,134 -431,135 -417,132 -397,127 -407,131 -430,139 -400,130 -395,131 -424,141 -429,142 -414,140 -394,134 -404,138 -427,146 -397,138 -393,138 -422,148 -426,150 -412,147 -392,141 -402,145 -425,154 -395,145 -390,145 -419,156 -423,157 -409,154 -389,149 -399,152 -422,161 -392,152 -388,152 -416,163 -421,165 -406,161 -387,156 -396,159 -419,168 -390,159 -385,159 -413,170 -418,172 -403,168 -384,163 -393,166 -416,176 -412,176 -387,166 -383,166 -410,178 -415,179 -400,175 -381,170 -390,173 -413,183 -409,183 -384,173 -380,173 -407,185 -411,186 -397,183 -378,176 -387,180 -410,190 -381,180 -376,180 -404,192 -408,194 -394,190 -375,183 -384,187 -406,197 -378,187 -373,187 -401,199 -405,201 -391,197 -372,190 -381,194 -403,204 -375,193 -370,193 -398,206 -401,208 -388,203 -369,195 -378,200 -399,211 -371,199 -367,198 -394,213 -397,214 -385,210 -365,201 -375,206 -396,218 -368,205 -364,204 -390,219 -394,221 -381,216 -362,207 -371,212 -392,225 -365,210 -361,210 -386,226 -390,228 -377,222 -359,213 -367,219 -388,232 -361,217 -357,216 -382,233 -386,235 -373,229 -355,219 -363,225 -384,238 -357,223 -353,222 -378,239 -381,241 -368,235 -350,225 -359,231 -379,245 -353,229 -348,228 -373,246 -377,248 -364,242 -346,232 -355,237 -374,251 -348,235 -344,235 -369,252 -372,254 -360,248 -342,238 -350,244 -370,258 -344,242 -340,241 -364,258 -368,261 -355,254 -338,244 -346,250 -365,264 -340,248 -335,247 -360,265 -363,267 -351,260 -333,250 -341,256 -361,270 -357,270 -335,254 -331,253 -355,271 -359,274 -346,267 -329,256 -337,262 -356,277 -353,276 -331,260 -327,259 -350,277 -354,280 -341,273 -325,262 -332,268 -352,283 -348,283 -326,266 -322,265 -346,283 -349,286 -336,279 -319,268 -327,274 -346,289 -321,272 -317,270 -341,289 -344,292 -332,285 -314,273 -323,280 -341,295 -316,277 -312,276 -335,295 -338,298 -327,291 -309,279 -318,286 -336,301 -311,282 -307,281 -330,301 -333,304 -322,296 -305,283 -313,291 -331,306 -307,287 -303,286 -325,307 -328,309 -317,302 -301,288 -308,296 -325,312 -302,292 -298,291 -320,312 -323,315 -312,307 -296,293 -303,301 -320,318 -298,297 -294,296 -314,318 -317,321 -306,312 -291,298 -298,306 -315,324 -311,323 -293,302 -289,301 -309,323 -312,326 -301,317 -286,303 -292,311 -309,329 -305,328 -287,307 -283,306 -303,328 -306,332 -295,322 -280,308 -287,315 -303,334 -299,333 -281,312 -278,310 -297,333 -300,337 -289,327 -275,313 -281,320 -297,339 -293,338 -276,317 -272,315 -291,338 -294,342 -283,332 -269,318 -275,325 -291,344 -287,343 -270,322 -266,320 -285,343 -288,347 -277,336 -263,322 -269,330 -285,349 -281,348 -264,326 -261,325 -278,348 -282,352 -271,341 -258,327 -263,334 -279,355 -275,353 -259,331 -255,330 -272,353 -275,357 -265,346 -252,332 -257,339 -272,360 -269,358 -253,336 -249,334 -266,357 -269,362 -258,350 -246,336 -251,343 -266,364 -263,363 -247,340 -243,338 -259,362 -263,366 -252,354 -240,340 -245,347 -260,369 -256,367 -240,344 -237,342 -253,366 -256,371 -246,359 -234,344 -239,352 -253,373 -249,371 -234,348 -231,346 -246,370 -250,375 -239,363 -228,348 -232,356 -246,377 -243,375 -228,352 -224,350 -240,375 -243,379 -233,367 -221,352 -226,360 -240,382 -236,380 -222,356 -218,354 -233,379 -236,384 -226,371 -215,356 -219,364 -233,386 -230,384 -215,361 -212,358 -226,383 -230,388 -220,375 -209,360 -213,367 -226,390 -223,388 -209,365 -206,362 -220,387 -223,392 -213,379 -203,364 -207,371 -220,394 -216,392 -203,368 -199,366 -213,390 -216,396 -206,382 -196,367 -200,375 -213,398 -209,396 -196,371 -193,369 -206,394 -209,399 -200,386 -189,371 -193,378 -205,401 -202,399 -189,375 -186,372 -199,398 -202,403 -193,390 -183,374 -187,382 -198,405 -195,402 -183,378 -179,376 -192,401 -195,406 -186,393 -176,377 -180,385 -191,408 -188,406 -176,381 -173,379 -185,405 -188,410 -179,396 -169,380 -173,388 -184,411 -181,409 -169,384 -166,382 -178,408 -180,413 -172,400 -163,384 -166,391 -177,415 -174,413 -162,388 -159,385 -171,411 -173,417 -165,403 -156,387 -159,394 -170,418 -167,416 -156,390 -153,388 -164,414 -166,420 -158,406 -149,389 -152,397 -162,421 -159,418 -149,393 -145,390 -157,417 -159,422 -151,409 -142,391 -145,400 -155,423 -152,421 -141,395 -138,393 -149,420 -151,425 -144,411 -135,394 -138,403 -147,426 -144,423 -134,398 -132,395 -142,423 -144,427 -137,414 -128,396 -132,405 -140,428 -137,426 -128,400 -125,397 -135,425 -136,430 -130,416 -122,398 -125,407 -132,431 -130,428 -122,402 -119,399 -127,428 -129,432 -123,418 -116,400 -119,409 -125,433 -122,431 -116,404 -113,401 -120,429 -121,435 -116,420 -110,402 -112,411 -118,436 -115,433 -109,407 -106,403 -113,431 -114,437 -108,422 -103,404 -104,412 -110,438 -107,435 -102,408 -99,405 -105,433 -106,439 -101,423 -95,406 -97,414 -102,439 -100,436 -94,409 -92,406 -97,434 -98,440 -93,425 -88,407 -90,415 -95,441 -92,438 -87,411 -84,408 -90,436 -91,442 -86,426 -81,409 -82,417 -87,442 -84,439 -79,412 -77,409 -82,437 -83,443 -78,428 -73,410 -75,418 -79,444 -77,441 -72,414 -70,411 -74,438 -75,445 -71,429 -66,411 -67,419 -71,445 -69,442 -65,415 -62,412 -66,440 -67,446 -63,430 -59,413 -60,420 -64,447 -61,444 -57,417 -55,414 -59,441 -60,448 -55,431 -51,414 -52,421 -56,448 -53,445 -50,418 -48,414 -51,442 -52,449 -48,432 -44,414 -45,422 -48,449 -46,446 -42,418 -40,415 -43,443 -44,449 -40,433 -36,415 -37,423 -40,450 -38,447 -35,418 -33,415 -35,443 -36,450 -33,434 -29,415 -30,424 -32,451 -30,447 -27,419 -25,416 -28,444 -28,451 -25,434 -22,416 -23,424 -25,451 -22,448 -21,420 -19,416 -20,445 -21,451 -18,435 -15,416 -16,425 -17,451 -15,448 -14,420 -12,416 -13,445 -13,451 -10,435 -8,417 -8,425 -9,451 -7,448 -7,420 -5,417 -5,445 -5,451 -3,435 -1,417 -1,425 -1,452 1,448 0,421 2,417 3,445 3,452 4,435 5,417 6,425 7,451 9,448 7,420 9,417 10,444 11,451 12,434 13,416 13,424 15,451 16,448 15,420 16,416 18,444 18,451 19,434 20,416 21,424 22,451 24,447 22,419 24,416 26,443 26,451 27,433 27,415 28,423 30,451 32,447 30,419 31,415 34,443 34,450 35,433 35,415 36,423 38,450 40,446 37,419 39,415 41,442 42,450 42,432 42,415 43,422 46,449 47,446 45,418 46,414 49,441 50,449 50,431 50,414 50,421 54,449 55,445 52,418 53,414 57,440 58,448 57,430 57,413 58,420 61,447 63,444 59,416 61,413 64,439 65,447 65,429 64,412 65,419 69,446 71,442 67,415 68,411 72,438 73,445 72,428 71,410 73,418 77,444 78,441 74,414 75,410 80,437 81,444 80,427 78,409 80,416 85,443 86,439 81,412 82,408 87,435 88,442 87,425 85,408 87,415 92,441 93,438 88,411 89,407 95,434 96,441 94,424 92,406 94,413 100,440 101,436 95,410 96,406 102,432 104,439 101,422 99,405 101,412 108,438 109,434 102,408 102,404 109,430 111,438 109,420 106,404 108,410 115,437 116,433 108,406 109,403 117,428 119,435 116,418 112,401 114,408 123,434 123,430 115,404 116,400 124,426 126,433 123,415 119,399 121,405 130,432 131,428 122,402 123,398 131,423 134,430 130,413 126,397 129,403 138,429 138,425 129,400 130,396 139,421 141,428 137,410 133,394 136,400 145,427 146,423 136,397 137,393 146,418 149,425 144,408 140,392 143,398 153,424 153,420 143,395 144,391 153,415 156,423 151,405 147,390 150,395 160,422 161,418 150,392 151,388 160,412 164,420 158,402 154,387 156,392 168,419 168,415 157,390 158,386 168,409 171,418 165,399 161,384 163,389 175,416 175,412 164,387 164,383 175,406 178,414 172,396 168,381 170,386 182,412 182,408 171,384 171,380 182,403 185,411 179,393 174,378 177,383 189,409 189,405 177,380 178,376 189,399 192,407 186,390 181,375 183,380 196,406 196,402 184,377 184,373 196,396 200,404 193,386 188,372 190,376 203,402 203,398 191,374 191,370 203,392 207,400 200,383 194,368 197,373 210,399 210,395 198,371 198,367 209,389 214,397 206,379 201,365 203,369 217,395 217,391 204,367 204,363 216,385 221,394 213,375 207,362 210,366 224,392 224,388 211,364 210,360 223,381 227,389 220,372 213,358 216,362 231,387 231,383 217,359 217,355 230,377 234,385 226,368 220,353 223,358 237,383 237,379 223,355 223,351 236,373 241,381 233,364 226,349 229,354 244,379 244,375 229,351 229,347 243,369 247,376 239,360 232,345 235,350 251,374 250,370 236,347 235,343 249,365 254,372 245,355 238,341 242,346 257,370 257,366 242,343 242,339 256,361 261,368 252,351 245,337 248,342 264,366 264,362 248,339 248,335 262,356 267,364 258,347 251,333 254,338 270,361 270,357 254,335 254,331 268,352 273,359 264,342 256,328 260,333 277,356 276,352 260,330 259,326 275,347 280,354 270,338 262,324 266,329 283,351 282,347 266,325 265,321 281,342 286,349 276,333 268,319 272,324 289,346 288,342 271,321 270,317 287,338 292,344 282,329 273,315 277,320 295,341 294,337 276,316 275,313 293,333 298,338 287,324 277,310 282,315 301,336 300,332 281,312 280,308 298,328 304,333 293,319 282,306 287,311 307,331 305,327 286,308 285,304 304,322 310,328 298,314 288,302 292,306 313,326 311,322 292,303 291,299 309,317 315,323 303,309 293,296 297,300 318,320 317,316 297,297 296,294 314,311 321,317 308,303 298,291 302,295 323,314 322,311 302,292 301,288 320,306 326,311 314,297 303,285 308,289 329,309 327,305 307,286 306,283 325,300 331,306 319,292 308,280 313,283 334,303 333,299 312,281 311,277 330,294 337,300 324,286 313,274 318,278 339,297 338,293 317,275 316,271 335,288 342,294 329,280 319,269 322,272 345,291 343,287 323,270 321,266 340,282 347,288 334,274 324,263 327,266 350,285 349,281 328,264 326,260 345,276 353,282 339,268 328,257 332,260 355,279 353,275 332,258 330,254 350,270 357,276 343,262 333,251 337,255 359,273 358,269 336,252 335,248 355,264 362,269 348,256 337,245 341,249 364,266 362,262 341,246 339,242 360,258 366,263 353,250 341,239 346,243 369,260 367,256 345,239 343,236 364,251 371,256 357,244 345,233 350,237 373,253 371,250 349,234 347,231 369,245 375,250 361,238 349,228 354,231 377,247 376,243 353,229 351,225 373,239 380,244 365,232 352,223 357,226 382,240 380,237 357,223 354,220 376,233 384,237 369,226 356,217 361,220 386,234 384,231 360,217 358,214 380,226 388,231 372,220 360,211 364,213 390,227 388,224 364,211 362,208 384,219 392,224 376,213 364,204 368,206 394,220 392,217 368,204 365,201 387,212 396,217 379,206 367,198 371,200 398,213 395,210 369,194 391,205 400,210 383,199 371,191 375,193 402,206 399,203 373,188 394,198 404,203 386,192 374,184 378,186 405,199 402,196 376,181 397,191 407,196 389,185 377,178 381,179 409,192 406,189 379,174 401,184 410,189 392,178 381,171 384,173 412,185 409,182 382,168 404,177 414,182 395,171 384,164 387,166 415,178 412,175 385,161 407,170 417,174 398,164 386,157 390,159 418,171 415,167 388,154 410,163 420,167 401,157 389,150 393,152 421,163 418,160 391,147 413,156 422,160 404,150 392,143 396,145 424,156 421,153 393,140 416,148 425,152 407,143 394,136 398,138 427,149 423,145 395,133 418,142 428,145 409,136 396,130 400,132 429,141 426,138 400,130 397,127 421,134 430,137 412,130 398,124 402,125 431,134 428,131 399,121 423,127 432,130 413,123 400,118 404,119 434,126 430,123 401,115 424,120 435,122 415,116 402,111 406,112 436,119 432,116 403,107 426,112 437,115 417,108 404,104 408,105 438,111 434,108 404,100 428,105 438,107 418,101 405,96 409,97 439,103 436,101 406,93 429,97 440,99 420,93 407,89 411,90 441,96 438,93 407,85 431,90 442,92 421,86 408,82 412,82 443,88 439,85 409,78 432,82 443,84 422,78 410,74 414,75 444,80 440,78 410,70 433,74 445,76 424,71 411,67 415,67 445,72 442,70 412,63 434,67 446,68 425,63 413,59 417,60 447,65 443,62 413,56 436,59 447,61 426,56 413,52 417,53 448,57 444,54 414,48 437,51 448,53 427,48 414,45 418,45 448,49 445,46 414,41 437,44 449,45 428,41 414,37 418,37 449,41 445,39 415,33 438,36 450,37 429,33 415,29 419,30 450,33 446,31 415,26 439,28 450,29 429,26 415,23 419,23 450,25 447,23 416,19 440,21 451,22 430,19 416,16 420,16 451,18 447,16 416,13 440,13 451,14 430,11 416,10 420,10 451,10 447,8 416,6 440,6 451,6 430,4 417,3 421,3 451,2 447,0 417,-1 440,-2 451,-2 430,-3 417,-4 421,-5 451,-6 447,-8 416,-8 439,-9 451,-10 429,-11 416,-12 420,-12 451,-14 447,-16 416,-16 439,-17 451,-18 429,-18 416,-19 420,-20 451,-22 446,-23 415,-23 438,-25 450,-26 428,-26 415,-27 419,-27 450,-30 446,-31 415,-31 438,-32 450,-34 427,-34 415,-34 419,-35 450,-37 445,-39 414,-38 437,-40 449,-41 427,-41 414,-42 418,-42 449,-45 445,-47 414,-46 436,-48 448,-49 426,-49 414,-49 418,-50 448,-53 444,-55 413,-53 435,-56 448,-57 425,-56 413,-57 417,-57 447,-61 443,-62 412,-60 434,-63 447,-65 424,-64 412,-64 416,-65 446,-69 442,-70 411,-68 433,-71 445,-73 423,-71 410,-71 414,-72 445,-77 440,-78 409,-75 432,-79 444,-80 422,-79 409,-79 413,-79 443,-84 439,-86 408,-82 430,-86 443,-88 420,-86 407,-86 411,-87 442,-92 438,-93 407,-89 429,-93 441,-96 419,-93 406,-92 410,-93 440,-100 436,-101 405,-96 428,-101 439,-103 417,-100 405,-99 409,-100 438,-107 434,-108 404,-102 426,-108 438,-111 416,-107 403,-105 407,-106 437,-114 432,-115 403,-108 424,-114 436,-118 414,-113 402,-111 406,-112 435,-121 431,-122 401,-114 422,-121 434,-124 412,-119 400,-118 433,-128 424,-123 415,-120 424,-124 434,-125" fill="none" stroke="#59fe01" stroke-width="3" /><path d="M 402,-118 403,-113 402,-118 403,-113 402,-118 403,-113 402,-118 403,-113 406,-99 403,-113 406,-99 410,-85 406,-99 410,-85 412,-71 410,-85 412,-71 414,-57 412,-71 414,-57 416,-43 414,-57 416,-43 417,-29 416,-43 417,-29 418,-14 417,-29 418,-14 418,0 418,-14 418,0 418,14 418,0 418,14 417,28 418,14 417,28 416,43 417,28 416,43 414,57 416,43 414,57 412,71 414,57 412,71 410,85 412,71 410,85 406,99 410,85 406,99 403,113 406,99 403,113 399,126 403,113 399,126 395,140 399,126 395,140 389,153 395,140 389,153 384,166 389,153 384,166 378,179 384,166 378,179 372,192 378,179 372,192 365,205 372,192 365,205 358,217 365,205 358,217 351,228 358,217 351,228 343,240 351,228 343,240 335,250 343,240 335,250 327,261 335,250 327,261 318,271 327,261 318,271 310,281 318,271 310,281 300,291 310,281 300,291 291,301 300,291 291,301 281,310 291,301 281,310 271,319 281,310 271,319 261,327 271,319 261,327 250,335 261,327 250,335 239,343 250,335 239,343 228,351 239,343 228,351 217,357 228,351 217,357 205,364 217,357 205,364 193,371 205,364 193,371 181,377 193,371 181,377 169,382 181,377 169,382 157,388 169,382 157,388 144,392 157,388 144,392 132,397 144,392 132,397 119,401 132,397 119,401 106,405 119,401 106,405 93,408 106,405 93,408 80,411 93,408 80,411 67,413 80,411 67,413 54,415 67,413 54,415 40,416 54,415 40,416 27,418 40,416 27,418 13,418 27,418 13,418 0,418 13,418 0,418 -13,418 0,418 -13,418 -27,418 -13,418 -27,418 -40,416 -27,418 -40,416 -54,415 -40,416 -54,415 -67,413 -54,415 -67,413 -80,411 -67,413 -80,411 -93,408 -80,411 -93,408 -106,405 -93,408 -106,405 -119,401 -106,405 -119,401 -132,397 -119,401 -132,397 -144,392 -132,397 -144,392 -157,388 -144,392 -157,388 -169,382 -157,388 -169,382 -181,377 -169,382 -181,377 -193,371 -181,377 -193,371 -205,364 -193,371 -205,364 -217,357 -205,364 -217,357 -228,351 -217,357 -228,351 -239,343 -228,351 -239,343 -250,335 -239,343 -250,335 -261,327 -250,335 -261,327 -271,319 -261,327 -271,319 -281,310 -271,319 -281,310 -291,301 -281,310 -291,301 -300,291 -291,301 -300,291 -310,281 -300,291 -310,281 -319,271 -310,281 -319,271 -327,261 -319,271 -327,261 -335,250 -327,261 -335,250 -343,240 -335,250 -343,240 -351,228 -343,240 -351,228 -358,217 -351,228 -358,217 -365,205 -358,217 -365,205 -372,192 -365,205 -372,192 -378,180 -372,192 -378,180 -384,167 -378,180 -384,167 -389,154 -384,167 -389,154 -394,141 -389,154 -394,141 -399,127 -394,141 -399,127 -403,114 -399,127 -403,114 -406,100 -403,114 -406,100 -409,86 -406,100 -409,86 -412,73 -409,86 -412,73 -414,59 -412,73 -414,59 -416,45 -414,59 -416,45 -417,31 -416,45 -417,31 -418,16 -417,31 -418,16 -418,2 -418,16 -418,2 -418,-12 -418,2 -418,-12 -417,-26 -418,-12 -417,-26 -416,-41 -417,-26 -416,-41 -415,-55 -416,-41 -415,-55 -412,-69 -415,-55 -412,-69 -410,-84 -412,-69 -410,-84 -407,-98 -410,-84 -407,-98 -403,-112 -407,-98 -403,-112 -399,-125 -403,-112 -399,-125 -395,-139 -399,-125 -395,-139 -390,-152 -395,-139 -390,-152 -384,-166 -390,-152 -384,-166 -378,-179 -384,-166 -378,-179 -372,-192 -378,-179 -372,-192 -365,-204 -372,-192 -365,-204 -358,-217 -365,-204 -358,-217 -351,-228 -358,-217 -351,-228 -343,-240 -351,-228 -343,-240 -335,-250 -343,-240 -335,-250 -327,-261 -335,-250 -327,-261 -319,-271 -327,-261 -319,-271 -310,-281 -319,-271 -310,-281 -300,-291 -310,-281 -300,-291 -291,-301 -300,-291 -291,-301 -281,-310 -291,-301 -281,-310 -271,-319 -281,-310 -271,-319 -261,-327 -271,-319 -261,-327 -250,-335 -261,-327 -250,-335 -239,-343 -250,-335 -239,-343 -228,-351 -239,-343 -228,-351 -217,-358 -228,-351 -217,-358 -205,-364 -217,-358 -205,-364 -193,-371 -205,-364 -193,-371 -181,-377 -193,-371 -181,-377 -169,-382 -181,-377 -169,-382 -157,-388 -169,-382 -157,-388 -144,-392 -157,-388 -144,-392 -132,-397 -144,-392 -132,-397 -119,-401 -132,-397 -119,-401 -106,-405 -119,-401 -106,-405 -93,-408 -106,-405 -93,-408 -80,-411 -93,-408 -80,-411 -67,-413 -80,-411 -67,-413 -54,-415 -67,-413 -54,-415 -40,-416 -54,-415 -40,-416 -27,-418 -40,-416 -27,-418 -13,-418 -27,-418 -13,-418 0,-418 -13,-418 0,-418 13,-418 0,-418 13,-418 27,-418 13,-418 27,-418 40,-416 27,-418 40,-416 54,-415 40,-416 54,-415 67,-413 54,-415 67,-413 80,-411 67,-413 80,-411 93,-408 80,-411 93,-408 106,-405 93,-408 106,-405 119,-401 106,-405 119,-401 132,-397 119,-401 132,-397 144,-392 132,-397 144,-392 157,-388 144,-392 157,-388 169,-382 157,-388 169,-382 181,-377 169,-382 181,-377 193,-371 181,-377 193,-371 205,-364 193,-371 205,-364 217,-358 205,-364 217,-358 228,-351 217,-358 228,-351 239,-343 228,-351 239,-343 250,-335 239,-343 250,-335 261,-327 250,-335 261,-327 271,-319 261,-327 271,-319 281,-310 271,-319 281,-310 291,-301 281,-310 291,-301 300,-291 291,-301 300,-291 310,-281 300,-291 310,-281 318,-271 310,-281 318,-271 327,-261 318,-271 327,-261 335,-250 327,-261 335,-250 343,-240 335,-250 343,-240 351,-228 343,-240 351,-228 358,-217 351,-228 358,-217 365,-205 358,-217 365,-205 372,-192 365,-205 372,-192 378,-179 372,-192 378,-179 384,-166 378,-179 384,-166 389,-153 384,-166 389,-153 395,-140 389,-153 395,-140 398,-129 395,-140 398,-129 402,-118 398,-129 402,-118 400,-123 398,-129 400,-123 402,-118" fill="none" stroke="#59fe01" stroke-width="3" /><path d="M 432,-127 430,-133 428,-139 430,-133 432,-127 428,-139 432,-127 428,-139 425,-151 428,-139 425,-151 419,-165 425,-151 419,-165 414,-179 419,-165 414,-179 407,-193 414,-179 407,-193 400,-207 407,-193 400,-207 393,-220 400,-207 393,-220 385,-234 393,-220 385,-234 377,-246 385,-234 377,-246 369,-258 377,-246 369,-258 361,-269 369,-258 361,-269 352,-281 361,-269 352,-281 343,-292 352,-281 343,-292 333,-303 343,-292 333,-303 323,-313 333,-303 323,-313 313,-324 323,-313 313,-324 303,-333 313,-324 303,-333 292,-343 303,-333 292,-343 280,-352 292,-343 280,-352 269,-361 280,-352 269,-361 257,-369 269,-361 257,-369 246,-377 257,-369 246,-377 233,-385 246,-377 233,-385 221,-392 233,-385 221,-392 208,-399 221,-392 208,-399 195,-406 208,-399 195,-406 182,-411 195,-406 182,-411 169,-417 182,-411 169,-417 155,-422 169,-417 155,-422 142,-427 155,-422 142,-427 128,-432 142,-427 128,-432 114,-436 128,-432 114,-436 100,-439 114,-436 100,-439 86,-442 100,-439 86,-442 72,-445 86,-442 72,-445 58,-447 72,-445 58,-447 43,-448 58,-447 43,-448 29,-450 43,-448 29,-450 14,-450 29,-450 14,-450 0,-450 14,-450 0,-450 -14,-450 0,-450 -14,-450 -29,-450 -14,-450 -29,-450 -43,-448 -29,-450 -43,-448 -58,-447 -43,-448 -58,-447 -72,-445 -58,-447 -72,-445 -86,-442 -72,-445 -86,-442 -100,-439 -86,-442 -100,-439 -114,-436 -100,-439 -114,-436 -128,-432 -114,-436 -128,-432 -142,-427 -128,-432 -142,-427 -155,-422 -142,-427 -155,-422 -169,-417 -155,-422 -169,-417 -182,-411 -169,-417 -182,-411 -195,-406 -182,-411 -195,-406 -208,-399 -195,-406 -208,-399 -221,-392 -208,-399 -221,-392 -233,-385 -221,-392 -233,-385 -246,-377 -233,-385 -246,-377 -257,-369 -246,-377 -257,-369 -269,-361 -257,-369 -269,-361 -281,-352 -269,-361 -281,-352 -292,-343 -281,-352 -292,-343 -303,-333 -292,-343 -303,-333 -313,-324 -303,-333 -313,-324 -323,-313 -313,-324 -323,-313 -333,-303 -323,-313 -333,-303 -343,-292 -333,-303 -343,-292 -352,-281 -343,-292 -352,-281 -361,-269 -352,-281 -361,-269 -369,-258 -361,-269 -369,-258 -377,-246 -369,-258 -377,-246 -385,-234 -377,-246 -385,-234 -393,-220 -385,-234 -393,-220 -401,-206 -393,-220 -401,-206 -407,-192 -401,-206 -407,-192 -414,-178 -407,-192 -414,-178 -420,-163 -414,-178 -420,-163 -425,-149 -420,-163 -425,-149 -430,-134 -425,-149 -430,-134 -434,-119 -430,-134 -434,-119 -438,-104 -434,-119 -438,-104 -441,-89 -438,-104 -441,-89 -444,-73 -441,-89 -444,-73 -446,-58 -444,-73 -446,-58 -448,-42 -446,-58 -448,-42 -449,-27 -448,-42 -449,-27 -450,-11 -449,-27 -450,-11 -450,5 -450,-11 -450,5 -449,20 -450,5 -449,20 -449,35 -449,20 -449,35 -447,50 -449,35 -447,50 -446,65 -447,50 -446,65 -443,79 -446,65 -443,79 -440,94 -443,79 -440,94 -437,109 -440,94 -437,109 -433,123 -437,109 -433,123 -429,138 -433,123 -429,138 -424,152 -429,138 -424,152 -419,166 -424,152 -419,166 -413,180 -419,166 -413,180 -407,194 -413,180 -407,194 -400,207 -407,194 -400,207 -393,220 -400,207 -393,220 -385,234 -393,220 -385,234 -377,246 -385,234 -377,246 -369,258 -377,246 -369,258 -361,269 -369,258 -361,269 -352,281 -361,269 -352,281 -343,292 -352,281 -343,292 -333,303 -343,292 -333,303 -323,313 -333,303 -323,313 -313,324 -323,313 -313,324 -303,333 -313,324 -303,333 -292,343 -303,333 -292,343 -281,352 -292,343 -281,352 -269,361 -281,352 -269,361 -257,369 -269,361 -257,369 -246,377 -257,369 -246,377 -233,385 -246,377 -233,385 -221,392 -233,385 -221,392 -208,399 -221,392 -208,399 -195,406 -208,399 -195,406 -182,411 -195,406 -182,411 -169,417 -182,411 -169,417 -155,422 -169,417 -155,422 -142,427 -155,422 -142,427 -128,432 -142,427 -128,432 -114,436 -128,432 -114,436 -100,439 -114,436 -100,439 -86,442 -100,439 -86,442 -72,444 -86,442 -72,444 -58,447 -72,444 -58,447 -43,448 -58,447 -43,448 -29,450 -43,448 -29,450 -14,450 -29,450 -14,450 0,450 -14,450 0,450 14,450 0,450 14,450 29,450 14,450 29,450 43,448 29,450 43,448 58,447 43,448 58,447 72,444 58,447 72,444 86,442 72,444 86,442 100,439 86,442 100,439 114,436 100,439 114,436 128,432 114,436 128,432 142,427 128,432 142,427 155,422 142,427 155,422 169,417 155,422 169,417 182,411 169,417 182,411 195,406 182,411 195,406 208,399 195,406 208,399 221,392 208,399 221,392 233,385 221,392 233,385 246,377 233,385 246,377 257,369 246,377 257,369 269,361 257,369 269,361 280,352 269,361 280,352 292,343 280,352 292,343 303,333 292,343 303,333 313,324 303,333 313,324 323,313 313,324 323,313 333,303 323,313 333,303 343,292 333,303 343,292 352,281 343,292 352,281 361,269 352,281 361,269 369,258 361,269 369,258 377,246 369,258 377,246 385,234 377,246 385,234 393,220 385,234 393,220 400,207 393,220 400,207 407,193 400,207 407,193 414,179 407,193 414,179 419,165 414,179 419,165 425,150 419,165 425,150 429,136 425,150 429,136 434,121 429,136 434,121 437,106 434,121 437,106 441,91 437,106 441,91 443,76 441,91 443,76 446,61 443,76 446,61 447,46 446,61 447,46 449,31 447,46 449,31 450,15 449,31 450,15 450,0 450,15 450,0 450,-15 450,0 450,-15 449,-31 450,-15 449,-31 447,-46 449,-31 447,-46 446,-61 447,-46 446,-61 443,-76 446,-61 443,-76 441,-91 443,-76 441,-91 437,-106 441,-91 437,-106 434,-121 432,-127 434,-121 432,-127 434,-121 432,-127 434,-121 432,-127" fill="none" stroke="#59fe01" stroke-width="3" /><path d="M 250,-75 245,-68 240,-62 245,-68 250,-75 240,-62 246,-44 250,-49 251,-53 252,-62 252,-70 247,-42 244,-38 250,-71 251,-75 246,-62 240,-33 243,-52 248,-83 245,-80 240,-43 235,-27 236,-33 242,-73 245,-87 239,-63 231,-24 236,-54 242,-92 238,-84 232,-44 227,-21 229,-34 235,-74 238,-96 232,-64 226,-25 223,-20 228,-55 234,-94 235,-99 231,-85 225,-45 220,-18 222,-35 227,-75 231,-102 224,-65 219,-26 216,-17 221,-56 226,-95 227,-104 223,-86 218,-46 212,-17 215,-36 220,-76 224,-106 221,-103 217,-66 212,-27 209,-16 209,-20 214,-57 218,-96 220,-108 215,-87 211,-47 205,-16 208,-37 212,-77 216,-109 214,-106 209,-67 205,-27 201,-16 202,-20 206,-58 211,-97 212,-111 208,-88 203,-48 198,-16 200,-38 205,-78 209,-112 206,-108 202,-68 197,-28 194,-17 195,-21 199,-58 203,-98 205,-113 200,-88 196,-49 191,-18 193,-39 197,-79 201,-114 198,-109 194,-69 190,-29 187,-19 188,-23 191,-59 195,-99 197,-114 192,-89 189,-49 184,-20 186,-40 190,-79 193,-115 190,-109 187,-70 183,-30 180,-21 184,-60 188,-100 189,-116 185,-90 181,-50 177,-23 178,-40 182,-80 185,-116 183,-110 179,-70 176,-30 173,-24 177,-60 180,-100 181,-117 177,-91 174,-51 170,-26 171,-41 174,-81 177,-118 175,-111 172,-71 169,-31 167,-27 169,-61 172,-101 173,-118 169,-91 167,-51 163,-29 164,-41 167,-81 169,-118 167,-111 164,-71 162,-34 160,-31 162,-62 164,-101 165,-118 162,-92 159,-52 156,-32 157,-42 159,-82 161,-119 159,-112 157,-72 153,-34 154,-62 157,-102 158,-119 154,-92 152,-52 149,-35 150,-42 152,-82 154,-119 151,-112 149,-72 146,-37 147,-62 149,-102 150,-119 146,-92 145,-52 142,-38 142,-43 144,-83 146,-119 143,-113 142,-73 139,-39 140,-63 141,-103 142,-119 139,-93 137,-53 135,-41 135,-45 137,-83 138,-118 136,-113 134,-73 132,-42 132,-63 133,-103 134,-118 131,-93 130,-53 128,-43 129,-83 130,-118 128,-113 127,-73 125,-44 125,-63 126,-103 126,-117 124,-93 123,-53 121,-46 121,-83 122,-117 120,-113 120,-73 118,-47 118,-63 118,-103 118,-116 116,-93 116,-53 114,-48 114,-83 114,-115 112,-111 112,-73 111,-49 111,-63 110,-103 110,-115 109,-93 109,-53 107,-49 107,-83 107,-114 105,-110 105,-73 104,-50 103,-63 103,-103 103,-113 101,-93 102,-55 100,-51 99,-83 99,-113 98,-73 97,-52 97,-63 95,-103 95,-111 94,-93 95,-56 94,-52 92,-83 91,-110 91,-73 91,-53 90,-63 88,-103 87,-109 86,-93 88,-53 85,-82 83,-108 84,-72 84,-53 84,-62 80,-102 80,-107 79,-92 81,-54 78,-82 76,-106 78,-72 78,-54 77,-62 73,-100 72,-104 72,-91 75,-54 71,-81 68,-103 71,-71 72,-54 71,-61 65,-97 65,-101 64,-90 69,-54 64,-80 61,-100 64,-70 66,-54 65,-60 57,-98 57,-89 62,-54 57,-79 53,-97 58,-68 59,-54 58,-58 50,-95 50,-87 56,-55 50,-77 46,-93 51,-67 53,-54 52,-58 43,-91 42,-85 50,-54 43,-75 39,-89 45,-65 47,-54 45,-58 36,-87 35,-83 43,-54 37,-73 32,-86 38,-63 39,-53 29,-84 28,-79 36,-53 29,-70 25,-81 31,-60 32,-52 22,-79 22,-74 28,-52 22,-68 19,-77 24,-58 24,-51 15,-75 15,-71 21,-54 20,-50 15,-65 12,-73 17,-55 17,-49 9,-70 8,-66 13,-53 13,-49 8,-62 5,-68 9,-52 9,-47 2,-65 2,-61 6,-50 6,-46 1,-59 -1,-63 2,-49 2,-45 -4,-60 -5,-56 -1,-48 -2,-44 -6,-54 -7,-57 -5,-47 -5,-42 -11,-55 -10,-48 -9,-41 -14,-52 -12,-44 -12,-40 -16,-49 -16,-44 -16,-39 -19,-46 -19,-42 -19,-38 -22,-44 -23,-36 -25,-41 -26,-35 -28,-38 -17,-40 -27,-36 -17,-40 -7,-44 -17,-40 -7,-44 3,-47 -7,-44 3,-47 13,-50 3,-47 13,-50 23,-52 13,-50 23,-52 33,-54 23,-52 33,-54 43,-55 33,-54 43,-55 54,-56 43,-55 54,-56 64,-56 54,-56 64,-56 75,-56 64,-56 75,-56 85,-54 75,-56 85,-54 95,-53 85,-54 95,-53 105,-51 95,-53 105,-51 115,-49 105,-51 115,-49 125,-45 115,-49 125,-45 135,-42 125,-45 135,-42 145,-38 135,-42 145,-38 155,-34 145,-38 155,-34 165,-29 155,-34 165,-29 175,-25 165,-29 175,-25 185,-21 175,-25 185,-21 195,-18 185,-21 195,-18 206,-17 195,-18 206,-17 217,-19 206,-17 217,-19 226,-22 217,-19 226,-22 234,-27 226,-22 234,-27 241,-34 234,-27 241,-34 247,-42 241,-34 247,-42 251,-51 247,-42 251,-51 252,-61 251,-51 252,-61 252,-70 252,-61 252,-70 249,-80 245,-86 241,-92 245,-86 241,-92 230,-101 241,-92 230,-101 218,-108 230,-101 218,-108 205,-112 218,-108 205,-112 190,-115 205,-112 190,-115 176,-116 190,-115 176,-116 162,-117 176,-116 162,-117 148,-118 162,-117 148,-118 135,-117 148,-118 135,-117 123,-116 135,-117 123,-116 111,-114 123,-116 111,-114 99,-111 111,-114 99,-111 87,-108 99,-111 87,-108 75,-104 87,-108 75,-104 64,-100 75,-104 64,-100 52,-95 64,-100 52,-95 41,-89 52,-95 41,-89 30,-83 41,-89 30,-83 20,-76 30,-83 20,-76 10,-70 20,-76 10,-70 0,-62 10,-70 0,-62 -10,-54 0,-62 -10,-54 -19,-45 -10,-54 -19,-45 -27,-37 -27,-37 -27,-37 -27,-37 -27,-37 -23,-41 -19,-45 -23,-41 -27,-37 -27,-37 -27,-37 -27,-37" fill="none" stroke="#59fe01" stroke-width="3" /><path d="M -47,-48 -45,-58 -43,-68 -45,-58 -47,-48 -42,-71 -37,-93 -35,-116 -36,-138 -39,-161 -45,-183 -52,-205 -59,-227 -66,-249 -72,-271 -79,-273 -94,-268 -89,-268 -64,-273 -79,-269 -104,-261 -69,-270 -55,-272 -59,-271 -97,-259 -108,-256 -87,-260 -49,-270 -77,-261 -112,-251 -105,-251 -67,-262 -43,-267 -56,-263 -95,-252 -113,-247 -85,-253 -46,-264 -38,-264 -74,-254 -110,-243 -114,-242 -103,-244 -64,-255 -33,-261 -54,-256 -93,-245 -115,-239 -83,-246 -44,-256 -30,-258 -34,-257 -72,-247 -111,-236 -115,-235 -101,-237 -62,-247 -26,-255 -52,-248 -91,-238 -114,-231 -81,-238 -42,-249 -23,-252 -32,-250 -70,-239 -109,-229 -114,-228 -99,-230 -60,-240 -25,-248 -21,-248 -50,-241 -89,-231 -113,-224 -79,-231 -40,-241 -19,-245 -30,-242 -69,-232 -107,-222 -111,-221 -97,-223 -58,-233 -21,-242 -16,-242 -48,-233 -87,-223 -109,-218 -77,-224 -38,-234 -15,-238 -28,-235 -67,-225 -103,-216 -107,-215 -95,-216 -57,-225 -18,-235 -13,-234 -46,-226 -85,-216 -105,-211 -75,-217 -36,-227 -12,-231 -26,-227 -65,-218 -103,-208 -94,-209 -55,-218 -16,-227 -10,-227 -45,-219 -83,-209 -101,-205 -73,-210 -34,-219 -9,-223 -24,-219 -63,-210 -98,-202 -92,-202 -53,-211 -14,-220 -7,-219 -43,-211 -82,-202 -96,-199 -72,-203 -33,-212 -6,-216 -22,-212 -61,-203 -94,-196 -89,-195 -51,-203 -12,-212 -5,-212 -41,-204 -80,-195 -92,-192 -70,-195 -31,-204 -5,-208 -21,-204 -60,-196 -89,-189 -54,-195 -50,-196 -11,-205 -4,-204 -40,-196 -79,-188 -87,-186 -68,-188 -29,-197 -3,-200 -19,-197 -58,-188 -85,-183 -48,-189 -9,-197 -2,-196 -38,-189 -77,-181 -82,-180 -67,-181 -28,-189 -2,-192 -18,-189 -57,-181 -80,-176 -47,-181 -7,-189 -2,-188 -36,-182 -75,-174 -79,-173 -66,-174 -26,-182 -2,-184 -16,-182 -55,-174 -77,-170 -45,-174 -6,-182 -2,-180 -35,-174 -71,-167 -75,-167 -64,-167 -25,-174 -2,-176 -15,-174 -54,-167 -73,-163 -44,-167 -6,-174 -2,-172 -34,-167 -71,-160 -63,-159 -23,-166 -2,-168 -13,-166 -53,-159 -69,-156 -43,-159 -6,-166 -3,-164 -32,-159 -68,-153 -62,-152 -22,-159 -3,-160 -12,-159 -51,-152 -66,-150 -41,-152 -4,-156 -31,-152 -64,-146 -60,-145 -21,-151 -5,-152 -11,-151 -50,-145 -63,-143 -40,-144 -5,-148 -30,-144 -61,-139 -56,-138 -20,-144 -6,-144 -10,-143 -49,-137 -60,-136 -39,-137 -7,-140 -29,-136 -59,-132 -23,-136 -19,-136 -8,-135 -12,-135 -48,-130 -57,-129 -38,-129 -9,-131 -28,-129 -56,-125 -17,-128 -11,-127 -47,-122 -55,-121 -37,-122 -12,-123 -27,-121 -54,-118 -50,-116 -17,-120 -13,-119 -46,-115 -53,-114 -36,-114 -15,-115 -26,-114 -52,-111 -48,-109 -20,-112 -16,-111 -45,-108 -51,-107 -35,-107 -18,-106 -25,-106 -50,-103 -47,-102 -23,-104 -19,-102 -45,-100 -49,-100 -35,-99 -21,-98 -25,-98 -49,-96 -45,-95 -26,-96 -23,-94 -44,-93 -48,-93 -34,-92 -24,-90 -48,-89 -44,-87 -30,-88 -26,-86 -44,-85 -48,-85 -34,-84 -28,-82 -47,-82 -44,-80 -34,-80 -30,-78 -43,-78 -47,-78 -40,-76 -32,-74 -47,-74 -41,-72 -34,-70 -43,-71 -47,-71 -41,-69 -36,-66 -47,-67 -43,-65 -38,-63 -43,-63 -47,-63 -44,-61 -40,-59 -48,-60 -42,-55 -48,-56 -44,-51 -48,-52 -45,-48 -49,-49 -45,-48 -41,-59 -47,-48 -41,-59 -35,-70 -41,-59 -35,-70 -29,-82 -35,-70 -29,-82 -24,-94 -29,-82 -24,-94 -19,-106 -24,-94 -19,-106 -14,-118 -19,-106 -14,-118 -11,-130 -14,-118 -11,-130 -7,-143 -11,-130 -7,-143 -5,-155 -7,-143 -5,-155 -3,-168 -5,-155 -3,-168 -3,-181 -3,-168 -3,-181 -3,-193 -3,-181 -3,-193 -5,-206 -3,-193 -5,-206 -8,-218 -5,-206 -8,-218 -12,-230 -8,-218 -12,-230 -18,-242 -12,-230 -18,-242 -25,-252 -18,-242 -25,-252 -34,-261 -25,-252 -34,-261 -45,-267 -34,-261 -45,-267 -56,-272 -45,-267 -56,-272 -68,-274 -81,-273 -68,-274 -81,-273 -92,-269 -81,-273 -92,-269 -103,-262 -107,-258 -111,-252 -113,-246 -114,-240 -114,-234 -113,-228 -111,-222 -107,-216 -111,-222 -107,-216 -100,-207 -107,-216 -100,-207 -93,-198 -100,-207 -93,-198 -87,-188 -93,-198 -87,-188 -81,-179 -87,-188 -81,-179 -75,-169 -81,-179 -75,-169 -69,-159 -75,-169 -69,-159 -64,-148 -69,-159 -64,-148 -59,-138 -64,-148 -59,-138 -55,-127 -59,-138 -55,-127 -52,-116 -55,-127 -52,-116 -49,-105 -52,-116 -49,-105 -47,-94 -49,-105 -47,-94 -46,-83 -47,-94 -46,-83 -45,-71 -46,-83 -45,-71 -46,-60 -45,-71 -46,-60 -47,-48 -47,-48 -47,-48 -47,-48 -47,-48 -47,-48 -47,-48 -47,-48 -47,-54 -46,-60 -47,-54 -47,-48 -47,-48 -47,-48 -47,-48 -47,-48 -47,-48 -47,-48" fill="none" stroke="#59fe01" stroke-width="3" /><path d="M -29,-15 -36,-8 -43,-1 -36,-8 -29,-15 -45,0 -62,15 -80,27 -99,39 -116,53 -123,58 -126,62 -120,57 -113,49 -120,60 -116,58 -109,44 -104,40 -114,58 -109,53 -94,31 -102,45 -108,56 -95,37 -84,22 -88,30 -102,54 -82,22 -75,15 -95,48 -97,52 -88,41 -68,10 -82,34 -91,50 -75,26 -60,5 -68,18 -85,48 -80,43 -61,11 -53,0 -55,3 -75,38 -79,46 -68,30 -47,-2 -45,-5 -61,22 -74,44 -54,15 -38,-10 -48,7 -67,41 -69,44 -61,34 -41,-1 -30,-16 -34,-8 -54,26 -64,44 -47,19 -28,-15 -23,-20 -41,11 -59,43 -54,38 -34,3 -17,-22 -27,-4 -47,30 -54,43 -41,23 -21,-12 -11,-25 -14,-20 -34,15 -49,42 -29,11 -27,7 -7,-25 -4,-28 -20,0 -40,34 -45,42 -34,27 -14,-8 2,-31 -7,-16 -27,19 -40,41 -20,11 0,-23 8,-32 6,-29 -13,4 -33,37 -35,41 -27,31 -7,-4 12,-32 0,-12 -20,23 -30,41 -12,30 8,23 28,17 50,15 65,18 80,25 95,39 112,51 124,46 136,25 131,30 116,52 124,37 138,14 118,45 109,56 111,52 131,18 137,8 124,26 104,56 117,33 136,1 131,6 111,41 99,57 104,49 124,14 134,-4 117,22 99,54 94,58 111,29 130,-4 132,-8 124,2 104,37 90,57 97,45 117,10 129,-12 110,18 90,52 85,57 104,25 124,-9 127,-15 117,-2 97,33 81,56 90,41 110,6 124,-19 103,14 83,48 77,55 97,21 117,-13 121,-21 110,-6 90,29 73,54 83,37 103,2 118,-24 115,-22 96,10 76,44 69,53 71,50 90,17 110,-17 115,-27 103,-10 83,25 65,52 76,33 96,-2 112,-29 108,-27 90,6 70,40 61,51 63,48 83,13 103,-21 109,-31 96,-14 76,21 57,50 69,29 89,-6 105,-33 101,-30 83,2 63,36 53,50 56,44 76,9 96,-25 101,-35 89,-18 69,17 48,49 62,25 82,-10 98,-37 94,-34 76,-3 56,32 44,48 49,40 69,5 89,-29 94,-38 82,-22 62,13 42,43 40,47 56,21 76,-14 90,-39 69,-7 49,28 36,46 42,36 62,1 82,-33 85,-39 75,-26 55,9 36,42 32,45 49,17 69,-18 81,-40 62,-11 42,24 28,45 35,32 55,-3 75,-37 77,-40 68,-30 48,5 28,39 23,44 42,13 62,-22 72,-41 55,-15 35,20 19,44 28,28 48,-7 68,-41 61,-34 41,1 21,35 15,43 17,40 35,9 55,-26 64,-42 48,-19 28,16 10,43 21,24 41,-11 59,-42 55,-38 35,-3 15,31 6,43 8,39 28,5 48,-30 54,-41 41,-23 21,12 1,42 14,20 34,-15 49,-41 30,-11 28,-7 8,27 -3,42 1,35 21,1 41,-34 44,-40 34,-27 14,8 -7,41 7,16 27,-19 40,-40 21,-11 1,23 -12,41 -6,31 14,-4 33,-36 35,-39 27,-31 7,4 -12,37 -16,40 0,12 20,-23 30,-39 14,-15 -6,19 -21,40 -13,27 7,-8 24,-37 19,-33 0,0 -20,35 -25,40 -7,8 14,-27 19,-36 7,-19 -13,15 -30,41 -20,23 0,-12 13,-34 9,-32 1,-30 9,-32 1,-30 -13,-24 1,-30 -13,-24 -27,-17 -13,-24 -27,-17 -41,-9 -27,-17 -41,-9 -54,-1 -41,-9 -54,-1 -67,9 -54,-1 -67,9 -80,18 -67,9 -80,18 -92,29 -80,18 -92,29 -104,39 -92,29 -104,39 -115,50 -104,39 -115,50 -126,61 -113,55 -125,61 -113,55 -101,51 -113,55 -101,51 -88,47 -101,51 -88,47 -75,44 -88,47 -75,44 -62,42 -75,44 -62,42 -48,40 -62,42 -48,40 -35,39 -48,40 -35,39 -22,39 -35,39 -22,39 -8,40 -22,39 -8,40 5,40 -8,40 5,40 19,42 5,40 19,42 32,44 19,42 32,44 45,46 32,44 45,46 58,49 45,46 58,49 71,52 58,49 71,52 84,55 71,52 84,55 95,57 84,55 95,57 103,56 95,57 103,56 111,55 103,56 111,55 118,51 111,55 118,51 124,46 130,40 124,46 130,40 134,33 130,40 134,33 137,26 134,33 137,26 138,18 137,26 138,18 137,8 138,18 137,8 135,-1 137,8 135,-1 131,-9 135,-1 131,-9 125,-17 131,-9 125,-17 118,-23 125,-17 118,-23 110,-29 118,-23 110,-29 102,-34 110,-29 102,-34 93,-37 102,-34 93,-37 77,-40 93,-37 77,-40 62,-41 77,-40 62,-41 46,-40 62,-41 46,-40 31,-38 46,-40 31,-38 16,-35 9,-32 16,-35 9,-32 16,-35 9,-32 16,-35 9,-32" fill="none" stroke="#ffffff" stroke-width="3" /><path d="M -5,-77 1,-84 8,-92 1,-84 -5,-77 10,-95 23,-108 41,-123 54,-134 75,-143 96,-153 117,-162 139,-172 160,-181 181,-191 187,-193 194,-194 196,-191 194,-194 199,-183 202,-174 186,-200 182,-202 185,-198 202,-171 202,-167 189,-188 179,-204 192,-179 201,-161 196,-169 175,-203 173,-206 179,-194 198,-163 199,-157 182,-184 168,-208 186,-175 196,-154 189,-165 169,-199 163,-209 172,-190 193,-156 194,-150 176,-180 159,-209 159,-205 179,-171 191,-147 183,-161 162,-196 154,-210 166,-186 186,-152 188,-145 169,-177 150,-210 153,-202 173,-167 185,-142 176,-157 156,-192 146,-209 159,-182 179,-148 181,-140 163,-173 144,-205 142,-208 146,-198 166,-163 177,-139 169,-153 150,-188 139,-208 153,-179 173,-144 174,-138 156,-169 137,-203 135,-207 140,-194 159,-159 170,-137 163,-150 143,-185 131,-206 146,-175 166,-140 166,-136 150,-165 130,-200 127,-206 133,-191 153,-156 161,-136 156,-146 137,-181 124,-205 140,-171 157,-139 157,-135 143,-162 124,-197 120,-203 127,-187 146,-152 153,-135 149,-142 130,-177 117,-202 133,-168 149,-134 136,-158 117,-193 113,-201 120,-184 139,-148 144,-134 142,-138 123,-174 110,-199 126,-164 140,-133 129,-154 111,-190 106,-198 114,-180 132,-145 136,-133 134,-137 117,-170 103,-197 103,-193 120,-161 132,-133 122,-151 104,-186 100,-195 107,-177 125,-141 128,-132 110,-167 96,-193 113,-157 123,-132 116,-147 98,-183 93,-192 100,-173 118,-137 119,-131 103,-164 90,-190 106,-154 115,-130 109,-144 91,-180 87,-188 94,-170 111,-134 111,-129 96,-160 84,-186 99,-150 107,-128 102,-140 84,-177 81,-184 87,-167 104,-132 103,-128 90,-157 77,-183 92,-147 99,-127 95,-137 78,-173 75,-180 80,-164 96,-130 95,-126 83,-154 72,-178 85,-144 92,-125 88,-134 71,-170 69,-175 73,-160 89,-124 76,-151 65,-173 79,-141 86,-124 82,-131 64,-167 62,-171 67,-157 82,-123 70,-147 59,-168 73,-138 79,-122 76,-128 58,-162 56,-166 60,-154 76,-122 63,-144 53,-163 67,-134 73,-121 70,-125 52,-156 50,-160 54,-150 70,-119 57,-140 47,-157 61,-131 66,-118 64,-122 45,-154 47,-146 63,-117 51,-137 42,-151 55,-127 60,-116 58,-120 39,-148 41,-142 57,-115 45,-133 36,-145 49,-123 54,-114 52,-117 34,-142 35,-137 51,-113 39,-128 31,-139 44,-119 48,-111 29,-136 30,-131 45,-110 33,-124 26,-133 38,-115 42,-108 24,-129 25,-125 37,-110 38,-106 27,-119 21,-126 32,-110 35,-105 19,-123 20,-119 30,-107 31,-103 22,-114 17,-119 27,-105 28,-101 15,-116 16,-112 24,-102 25,-98 16,-109 13,-113 21,-100 22,-96 10,-109 11,-105 18,-98 18,-94 11,-103 8,-106 14,-96 15,-92 6,-102 9,-96 12,-90 4,-99 8,-92 10,-87 2,-95 5,-90 7,-85 1,-91 3,-87 4,-83 -1,-88 2,-80 -3,-84 -2,-81 -1,-78 -5,-81 -4,-76 -6,-78 4,-85 -5,-76 4,-85 13,-92 4,-85 13,-92 23,-99 13,-92 23,-99 32,-105 23,-99 32,-105 43,-110 32,-105 43,-110 53,-115 43,-110 53,-115 64,-119 53,-115 64,-119 75,-123 64,-119 75,-123 87,-126 75,-123 87,-126 98,-129 87,-126 98,-129 110,-131 98,-129 110,-131 121,-133 110,-131 121,-133 133,-134 121,-133 133,-134 145,-136 133,-134 145,-136 156,-136 145,-136 156,-136 168,-137 175,-139 182,-142 188,-146 194,-151 198,-157 201,-164 202,-171 202,-178 200,-186 195,-192 190,-198 184,-202 176,-205 169,-207 176,-205 169,-207 154,-209 140,-207 154,-209 140,-207 127,-204 140,-207 127,-204 114,-200 127,-204 114,-200 101,-195 114,-200 101,-195 90,-189 101,-195 90,-189 78,-182 90,-189 78,-182 67,-174 78,-182 67,-174 57,-165 67,-174 57,-165 47,-155 57,-165 47,-155 38,-145 47,-155 38,-145 30,-135 38,-145 30,-135 21,-124 30,-135 21,-124 14,-112 21,-124 14,-112 7,-101 14,-112 7,-101 1,-89 7,-101 1,-89 -5,-76 -5,-76 -5,-76 -5,-76 -5,-76 -6,-77 -3,-83 1,-89 -3,-83 -6,-77 -5,-76 -5,-76 -5,-76 -5,-76" fill="none" stroke="#ffffff" stroke-width="3" /><path d="M -65,-83 -71,-87 -76,-95 -71,-87 -65,-83 -71,-87 -81,-104 -86,-123 -90,-142 -95,-145 -99,-145 -109,-146 -116,-144 -88,-144 -83,-141 -115,-142 -121,-142 -105,-140 -76,-137 -95,-137 -128,-138 -124,-136 -85,-135 -72,-133 -76,-133 -115,-134 -131,-134 -105,-131 -68,-129 -95,-129 -134,-130 -125,-128 -85,-127 -67,-125 -75,-125 -115,-125 -136,-126 -105,-123 -69,-121 -65,-121 -95,-121 -133,-122 -137,-122 -120,-104 -116,-93 -110,-71 -107,-49 -110,-32 -115,-13 -126,7 -136,22 -151,40 -153,37 -151,40 -151,34 -148,37 -149,31 -144,35 -146,31 -147,27 -141,33 -143,29 -145,24 -142,27 -137,31 -140,26 -143,21 -134,29 -137,23 -141,18 -137,21 -130,26 -135,21 -139,15 -127,24 -129,20 -137,12 -133,15 -124,21 -126,18 -134,12 -136,8 -121,19 -123,15 -135,4 -128,9 -118,16 -120,13 -132,4 -133,1 -115,14 -117,10 -132,-3 -124,3 -112,11 -128,-2 -131,-6 -109,8 -113,4 -130,-9 -120,-3 -106,5 -126,-8 -129,-12 -104,2 -109,-3 -128,-15 -117,-9 -101,-1 -124,-15 -128,-18 -98,-4 -105,-9 -127,-21 -114,-15 -95,-7 -122,-21 -127,-24 -97,-12 -93,-10 -103,-16 -126,-28 -111,-22 -91,-14 -120,-27 -126,-31 -92,-18 -88,-17 -100,-23 -126,-34 -109,-28 -86,-20 -118,-33 -125,-37 -89,-25 -84,-24 -98,-30 -125,-40 -107,-34 -82,-27 -116,-39 -125,-42 -87,-32 -80,-30 -96,-37 -125,-45 -105,-41 -78,-34 -114,-44 -125,-48 -121,-48 -85,-40 -76,-38 -94,-43 -126,-51 -104,-47 -75,-41 -78,-44 -113,-51 -126,-54 -122,-54 -83,-47 -73,-45 -93,-50 -126,-57 -103,-54 -71,-49 -75,-51 -112,-57 -127,-60 -122,-59 -82,-54 -70,-53 -92,-57 -127,-63 -102,-60 -69,-56 -72,-59 -111,-63 -128,-66 -121,-65 -81,-61 -68,-60 -91,-64 -128,-69 -101,-67 -66,-64 -71,-66 -111,-69 -129,-72 -121,-71 -81,-69 -65,-68 -91,-71 -129,-74 -101,-73 -64,-72 -71,-74 -111,-75 -130,-77 -120,-77 -80,-76 -64,-76 -90,-78 -126,-79 -131,-81 -100,-80 -63,-79 -70,-82 -110,-82 -132,-85 -120,-85 -80,-84 -63,-83 -90,-86 -128,-87 -133,-89 -100,-88 -63,-87 -70,-89 -110,-90 -135,-92 -120,-92 -80,-91 -62,-91 -90,-94 -130,-94 -136,-96 -100,-96 -62,-95 -70,-97 -110,-98 -137,-100 -120,-100 -80,-99 -62,-99 -90,-101 -130,-102 -137,-104 -100,-103 -63,-103 -70,-104 -110,-105 -138,-107 -120,-107 -80,-106 -63,-106 -90,-108 -130,-109 -139,-111 -100,-110 -63,-110 -70,-112 -110,-112 -139,-115 -120,-114 -80,-114 -64,-114 -90,-116 -130,-116 -138,-118 -100,-118 -64,-117 -70,-119 -110,-120 -137,-122 -120,-122 -80,-121 -65,-121 -67,-124 -69,-129 -73,-133 -77,-137 -73,-133 -77,-137 -86,-143 -77,-137 -86,-143 -97,-146 -86,-143 -97,-146 -108,-146 -118,-143 -108,-146 -118,-143 -128,-137 -131,-133 -135,-128 -137,-121 -138,-113 -137,-106 -135,-99 -137,-106 -135,-99 -131,-84 -135,-99 -131,-84 -127,-70 -131,-84 -127,-70 -124,-56 -127,-70 -124,-56 -123,-41 -124,-56 -123,-41 -124,-27 -123,-41 -124,-27 -127,-13 -124,-27 -127,-13 -131,1 -127,-13 -131,1 -137,14 -131,1 -137,14 -144,26 -137,14 -144,26 -152,39 -142,32 -152,39 -142,32 -132,26 -142,32 -132,26 -123,18 -132,26 -123,18 -113,11 -123,18 -113,11 -105,2 -113,11 -105,2 -97,-7 -105,2 -97,-7 -90,-17 -97,-7 -90,-17 -83,-27 -90,-17 -83,-27 -77,-37 -83,-27 -77,-37 -73,-48 -77,-37 -73,-48 -69,-59 -73,-48 -69,-59 -66,-70 -69,-59 -66,-70 -64,-82 -66,-70 -64,-82 -63,-94 -64,-82 -63,-94 -64,-106 -63,-94 -64,-106 -65,-118 -66,-121 -65,-118 -66,-121 -65,-118 -66,-121 -65,-118 -64,-112 -64,-106 -64,-112 -65,-118 -66,-121 -65,-118 -66,-121" fill="none" stroke="#ffffff" stroke-width="3" /><path d="M 9,-143 14,-152 18,-160 14,-152 9,-143 19,-162 30,-180 36,-191 39,-212 42,-227 41,-248 39,-270 38,-291 37,-312 33,-315 28,-315 33,-315 26,-314 22,-314 26,-293 31,-273 35,-253 38,-237 38,-216 36,-199 29,-180 19,-161 10,-142 7,-144 10,-142 9,-147 13,-144 10,-151 16,-147 14,-151 12,-154 19,-150 16,-154 13,-158 17,-156 22,-153 18,-157 14,-161 25,-155 21,-160 16,-165 20,-162 28,-158 23,-163 17,-168 31,-161 28,-165 20,-169 18,-172 24,-169 33,-165 31,-168 21,-172 19,-176 36,-168 34,-171 22,-176 19,-179 27,-176 39,-171 36,-174 22,-180 20,-183 41,-174 38,-177 21,-186 30,-183 43,-177 25,-186 21,-189 46,-181 41,-184 22,-193 32,-189 48,-184 26,-193 22,-196 50,-187 43,-191 21,-199 34,-196 52,-191 25,-200 21,-202 54,-194 45,-198 21,-206 36,-202 56,-198 26,-206 21,-209 54,-202 58,-202 46,-206 21,-212 37,-209 59,-205 27,-212 21,-215 57,-210 61,-209 47,-213 20,-217 38,-216 62,-213 28,-218 20,-220 58,-217 63,-217 48,-220 19,-223 38,-222 65,-221 28,-224 18,-225 22,-225 58,-225 66,-224 48,-227 17,-228 38,-228 67,-228 28,-230 17,-231 21,-231 58,-232 67,-232 48,-234 16,-234 38,-235 68,-236 64,-238 28,-236 15,-236 19,-236 58,-239 69,-240 48,-240 14,-239 38,-241 69,-244 65,-246 28,-242 13,-242 17,-243 57,-247 69,-248 47,-248 11,-246 37,-249 70,-252 66,-254 27,-249 10,-249 17,-250 56,-255 70,-256 46,-255 8,-253 36,-256 70,-260 66,-261 26,-257 6,-257 16,-258 56,-262 69,-264 45,-263 9,-259 4,-261 35,-264 69,-268 65,-269 25,-265 2,-264 15,-266 55,-270 68,-272 45,-271 5,-267 0,-268 34,-272 68,-275 64,-277 24,-273 -1,-272 14,-273 54,-278 67,-279 44,-279 4,-274 -2,-276 33,-279 66,-283 62,-285 23,-280 -4,-279 13,-281 53,-286 65,-287 43,-286 3,-282 -4,-283 33,-287 64,-291 59,-292 22,-288 -4,-287 12,-289 52,-293 62,-294 42,-294 2,-290 -4,-291 32,-295 61,-298 22,-296 -2,-295 11,-297 51,-301 58,-302 41,-302 4,-298 0,-299 31,-303 55,-305 21,-304 3,-304 11,-304 46,-309 50,-309 40,-310 9,-308 30,-311 45,-312 26,-312 33,-315 22,-314 19,-311 40,-314 45,-312 36,-315 29,-315 22,-315 16,-313 10,-309 5,-305 1,-300 -2,-294 -3,-287 -3,-280 -1,-274 2,-267 -1,-274 2,-267 8,-255 2,-267 8,-255 14,-243 8,-255 14,-243 19,-231 14,-243 19,-231 22,-218 19,-231 22,-218 23,-205 22,-218 23,-205 23,-193 23,-205 23,-193 21,-180 23,-193 21,-180 18,-167 21,-180 18,-167 14,-155 18,-167 14,-155 8,-143 24,-155 9,-143 24,-155 37,-170 24,-155 37,-170 48,-186 37,-170 48,-186 57,-204 48,-186 57,-204 64,-222 57,-204 64,-222 68,-241 64,-222 68,-241 69,-261 68,-241 69,-261 66,-280 69,-261 66,-280 63,-290 66,-280 63,-290 58,-300 63,-290 58,-300 51,-308 58,-300 51,-308 42,-313 51,-308 42,-313 47,-310 51,-308 47,-310 42,-313" fill="none" stroke="#ffffff" stroke-width="3" /><path d="M -333,176 -337,176 -347,176 -337,176 -333,176 -337,176 -357,176 -354,174 -336,174 -332,172 -352,172 -356,172 -345,170 -331,168 -335,168 -355,168 -352,166 -333,166 -330,164 -354,164 -345,162 -329,160 -335,160 -353,160 -349,158 -331,158 -328,156 -352,156 -345,154 -327,152 -335,152 -351,152 -347,150 -329,150 -325,148 -349,148 -345,146 -324,144 -335,144 -348,144 -328,142 -323,140 -347,140 -343,138 -322,136 -335,136 -346,137 -326,134 -321,132 -345,133 -341,131 -323,131 -320,129 -335,129 -344,129 -325,127 -319,125 -343,125 -339,123 -321,123 -318,121 -335,121 -342,121 -325,119 -316,117 -340,117 -337,115 -319,115 -315,113 -335,113 -339,113 -325,111 -314,109 -318,109 -338,109 -335,107 -316,107 -313,105 -333,105 -337,105 -326,103 -312,101 -316,101 -336,101 -332,99 -314,99 -311,96 -323,96 -312,96 -323,96 -334,97 -338,112 -334,97 -338,112 -343,128 -338,112 -343,128 -347,144 -343,128 -347,144 -352,160 -347,144 -352,160 -356,176 -345,176 -356,176 -345,176 -334,176 -330,160 -334,176 -330,160 -325,144 -330,160 -325,144 -321,128 -325,144 -321,128 -316,112 -321,128 -316,112 -312,96 -312,96 -314,87 -314,80 -326,80 -330,87 -329,83 -326,73 -326,80 -326,87 -322,73 -321,78 -322,87 -318,73 -318,80 -318,87 -314,73 -314,80 -314,87 -310,73 -310,80 -310,87 -306,73 -310,87 -306,74 -316,74 -306,74 -316,74 -327,75 -330,86 -320,86 -330,86 -320,86 -309,86 -309,86 -309,86 -309,86 -309,86 -314,86 -319,86 -314,86 -309,86 -309,86 -309,86 -309,86" fill="none" stroke="#ffffff" stroke-width="3" /><path d="M 262,196 265,187 268,177 265,187 262,196 269,171 268,184 290,183 313,183 326,180 338,170 344,158 342,146 336,140 320,138 303,137 297,133 298,120 303,111 317,105 332,104 337,91 336,94 330,118 330,114 334,94 332,91 330,107 329,111 329,101 327,91 327,95 327,118 326,114 325,94 322,91 324,109 325,113 321,101 317,91 318,95 324,118 322,114 315,94 311,92 319,112 314,104 307,94 309,97 321,118 318,115 306,98 302,97 315,114 309,108 298,100 301,103 316,117 313,115 299,104 295,104 311,115 305,112 291,108 295,110 312,117 308,117 292,111 288,112 306,118 302,117 286,117 293,118 311,120 307,121 287,120 284,122 307,122 302,123 283,128 293,126 310,123 287,129 283,133 303,127 300,129 286,135 284,138 295,133 309,126 289,138 286,143 308,129 305,132 291,142 290,146 299,139 314,126 312,130 296,145 295,149 312,132 310,135 301,150 305,144 319,126 317,130 306,146 306,150 319,130 315,139 312,150 314,147 322,126 323,130 315,146 315,150 324,132 327,126 321,142 317,150 332,126 333,130 321,146 320,150 330,136 338,126 325,145 323,150 343,127 341,132 325,150 336,141 348,129 347,133 330,148 328,151 351,132 347,139 329,153 340,146 354,136 353,140 330,153 334,151 356,141 351,146 331,155 342,151 357,147 354,150 332,155 336,154 357,152 353,155 331,157 343,157 356,157 353,160 339,158 335,158 355,162 350,164 331,161 342,164 354,167 334,163 330,163 352,171 347,171 328,165 339,170 349,175 331,168 327,167 346,179 342,179 328,169 325,168 335,176 343,182 327,171 323,169 340,185 336,185 324,172 321,170 330,182 336,188 332,187 323,175 320,171 322,175 331,191 328,189 321,175 316,171 324,186 327,193 324,191 318,177 316,171 316,175 322,195 320,192 315,175 311,170 316,188 318,195 312,179 308,170 314,196 311,193 307,174 305,170 308,190 309,196 305,181 302,170 302,174 305,196 303,193 300,174 298,170 300,191 301,196 298,182 295,171 295,175 297,196 294,193 294,174 292,171 292,192 292,196 290,182 289,171 289,175 288,196 286,193 287,174 286,171 284,192 284,196 283,181 282,171 282,175 280,196 278,193 280,174 279,171 276,191 275,196 276,181 276,171 271,196 270,192 273,175 273,171 268,189 267,196 269,179 269,171 265,183 268,172 265,183 263,195 277,195 263,195 277,195 292,195 277,195 292,195 307,194 292,195 307,194 321,194 307,194 321,194 332,190 321,194 332,190 340,183 332,190 340,183 346,177 340,183 346,177 351,170 346,177 351,170 354,161 351,170 354,161 356,149 353,137 349,132 345,129 339,127 333,127 339,127 333,127 321,127 333,127 321,127 308,127 321,127 308,127 311,117 308,127 311,117 331,116 334,104 331,116 334,104 337,92 320,92 337,92 320,92 311,93 320,92 311,93 304,97 298,102 304,97 298,102 292,109 298,102 292,109 287,118 284,125 284,133 284,125 284,133 287,142 291,145 295,148 291,145 295,148 306,149 295,148 306,149 321,149 328,150 330,152 332,155 332,158 331,163 328,167 324,170 317,172 324,170 317,172 301,172 317,172 301,172 285,172 301,172 285,172 269,172 269,172 259,171 246,162 234,170 218,158 204,148 201,138 208,123 222,109 237,96 250,107 262,118 246,134 224,144 253,143 245,141 228,139 235,139 258,139 254,137 237,137 233,135 255,135 262,135 245,133 238,131 267,131 263,129 246,129 243,127 255,127 271,127 268,125 251,125 248,123 274,123 265,121 252,119 256,119 276,119 272,117 254,117 233,116 237,116 273,116 277,116 265,108 283,93 279,93 241,93 222,94 252,95 282,96 262,97 222,97 215,98 232,99 272,99 281,100 242,101 209,101 212,103 252,102 280,104 262,104 222,105 205,105 232,106 272,106 279,108 242,108 205,108 201,108 212,110 252,110 278,112 262,112 222,112 198,112 232,114 272,114 277,116 242,116 202,115 196,115 201,118 202,135 203,153 205,170 208,173 214,173 254,173 260,173 244,171 206,171 196,169 234,169 261,169 224,167 193,166 214,165 254,165 262,165 244,163 204,164 190,162 194,162 234,162 264,162 224,160 188,158 214,158 254,158 265,158 244,156 204,156 187,154 194,154 234,154 266,154 262,152 224,152 186,151 214,151 222,151 204,149 186,147 194,147 212,147 209,145 189,145 186,143 211,143 204,141 186,139 194,139 209,139 206,137 191,137 187,135 210,135 204,133 189,131 194,131 211,131 207,129 193,129 190,127 213,127 204,125 192,123 196,123 215,123 212,121 197,121 194,119 215,118 236,116 232,116 196,115 204,117 221,119 214,119 194,119 191,126 194,121 191,126 187,140 191,126 187,140 187,150 187,140 187,150 190,161 193,166 197,169 202,172 209,173 202,172 209,173 226,173 209,173 226,173 242,173 226,173 242,173 259,173 262,161 259,173 262,161 265,150 250,150 265,150 250,150 235,150 250,150 235,150 220,150 215,149 211,147 209,143 208,139 209,143 208,139 209,131 208,139 209,131 214,123 218,120 223,118 218,120 223,118 234,116 223,118 234,116 247,116 234,116 247,116 257,116 247,116 257,116 246,125 257,116 246,125 236,134 246,125 236,134 225,144 238,144 225,144 238,144 252,144 238,144 252,144 262,134 252,144 262,134 273,125 262,134 273,125 277,109 273,125 277,109 281,92 267,92 281,92 267,92 253,92 267,92 253,92 238,93 253,92 238,93 224,93 238,93 224,93 216,97 224,93 216,97 209,101 203,107 198,113 203,107 198,113 194,121 198,113 194,121 198,113 194,121 198,113 194,121 183,117 163,104 143,91 157,73 152,73 132,74 136,76 152,75 155,78 135,78 131,78 145,80 154,82 130,82 133,84 149,84 153,86 135,86 129,86 145,88 152,90 128,90 131,93 147,93 150,95 135,95 126,95 136,102 137,111 132,124 128,148 124,172 148,173 169,173 138,170 119,168 128,168 166,169 170,169 158,167 121,166 116,163 148,164 171,165 138,162 114,159 129,160 168,161 172,161 159,159 119,157 113,155 149,156 173,157 139,154 112,151 129,152 169,153 175,153 135,151 119,151 112,149 142,149 137,147 113,145 129,145 140,145 119,143 113,141 138,142 135,140 118,139 114,137 129,137 138,138 119,135 115,133 139,134 135,132 120,131 117,129 129,130 140,130 121,128 118,126 141,126 137,124 119,122 129,122 142,122 123,120 120,118 143,118 179,116 139,116 121,114 129,114 169,114 186,114 159,112 122,110 149,110 187,110 179,108 139,108 123,106 129,106 169,106 188,106 159,104 124,102 149,102 189,103 179,101 139,100 125,99 146,97 169,96 191,95 187,95 149,95 126,95 159,97 190,99 169,99 129,99 125,99 123,111 127,97 123,111 119,125 123,111 119,125 115,140 119,125 115,140 113,149 115,140 113,149 114,158 113,149 114,158 118,166 121,169 126,172 121,169 126,172 136,174 126,172 136,174 146,174 136,174 146,174 157,174 146,174 157,174 168,173 171,163 168,173 171,163 173,152 159,152 173,152 159,152 144,151 140,149 138,145 137,142 138,145 137,142 137,134 137,142 137,134 142,118 137,134 142,118 156,118 142,118 156,118 169,118 156,118 169,118 184,117 187,106 184,117 187,106 190,94 176,94 190,94 176,94 163,94 176,94 163,94 149,94 163,94 149,94 152,84 149,94 152,84 155,73 144,73 155,73 144,73 134,73 130,85 134,73 130,85 127,97 130,85 127,97 118,93 111,119 111,113 114,93 112,103 108,119 108,115 111,97 109,93 106,119 105,112 105,93 105,102 103,119 102,116 103,97 101,93 101,119 99,111 97,93 97,102 99,119 97,116 95,96 92,93 96,119 93,112 87,94 90,103 93,119 91,116 86,97 83,94 91,119 87,114 78,95 82,105 88,120 78,100 74,97 86,120 81,116 74,101 70,99 75,108 80,116 70,104 66,102 81,121 77,119 66,106 62,105 70,113 76,119 63,109 58,108 77,123 73,121 55,112 66,118 76,124 57,115 52,115 73,126 69,126 54,118 50,119 63,124 72,128 53,122 48,123 70,131 66,131 50,126 46,127 60,131 69,134 50,130 45,131 67,137 63,137 47,133 43,134 59,138 66,140 48,138 42,138 53,141 49,157 45,172 56,174 52,174 32,174 36,172 54,172 57,171 38,170 34,170 45,169 58,167 54,167 35,166 38,164 56,165 59,164 36,162 45,161 60,160 55,160 37,158 41,156 57,158 61,157 38,154 46,153 62,153 56,152 39,150 43,149 59,151 63,150 40,146 47,145 64,147 57,145 41,142 45,141 61,144 65,143 42,138 39,155 43,140 39,155 36,165 39,155 36,165 34,175 44,175 34,175 44,175 55,174 58,162 55,174 58,162 62,150 58,162 62,150 66,136 62,150 66,136 72,126 74,123 79,121 84,119 89,118 84,119 89,118 100,118 89,118 100,118 112,118 115,106 112,118 115,106 118,94 105,95 118,94 105,95 92,95 105,95 92,95 82,96 92,95 82,96 73,99 69,101 73,99 69,101 61,107 69,101 61,107 56,113 61,107 56,113 50,122 56,113 50,122 46,131 44,135 43,140 44,135 43,140 35,139 25,146 18,158 14,172 25,174 5,174 1,174 14,172 27,170 23,170 2,171 6,169 25,167 28,165 7,168 3,168 14,165 29,160 23,161 4,165 7,162 28,158 31,155 5,161 12,158 32,149 21,153 6,158 29,148 34,144 7,154 12,151 35,139 18,146 8,151 27,140 37,133 33,135 10,147 12,144 36,131 38,128 15,140 11,143 23,134 40,121 31,127 12,139 37,120 42,115 13,134 19,128 43,108 27,121 15,129 33,113 45,101 40,106 16,125 18,121 46,98 47,94 22,115 18,120 28,107 40,94 35,99 20,113 14,120 33,98 34,94 19,112 12,120 23,103 28,94 13,114 11,117 22,98 22,94 14,109 8,120 17,99 17,94 8,114 6,117 13,97 11,94 8,106 4,120 8,98 6,94 3,116 2,120 2,116 3,97 1,94 1,105 1,120 -2,98 -4,94 -2,115 -2,119 -6,97 -9,94 -6,106 -3,120 -10,99 -14,96 -6,117 -5,121 -7,117 -15,99 -19,97 -13,109 -6,121 -19,102 -23,99 -9,121 -12,118 -27,102 -18,112 -11,122 -26,107 -30,105 -13,123 -17,120 -34,109 -23,117 -15,124 -32,113 -37,112 -17,125 -21,124 -36,116 -40,116 -27,123 -19,127 -37,120 -42,120 -21,128 -25,128 -40,123 -44,124 -29,129 -23,131 -39,127 -46,128 -24,133 -28,134 -44,131 -48,132 -31,135 -25,136 -41,135 -49,136 -37,138 -36,151 -30,160 -18,163 -6,163 -1,151 -2,155 -8,176 -9,172 -2,151 -4,155 -11,170 -13,176 -8,161 -5,151 -7,154 -19,176 -19,172 -7,153 -10,156 -17,167 -24,176 -14,159 -9,151 -30,175 -29,170 -16,155 -23,162 -35,174 -34,170 -17,155 -15,151 -40,172 -34,164 -23,155 -27,158 -44,168 -42,165 -25,155 -20,150 -43,162 -46,164 -38,158 -27,152 -31,153 -48,160 -46,157 -28,151 -23,147 -50,155 -41,151 -30,147 -34,148 -50,150 -47,148 -31,147 -25,144 -50,145 -42,143 -25,141 -32,141 -50,141 -46,139 -29,140 -25,139 -49,136 -49,144 -47,135 -49,144 -48,157 -46,163 -42,168 -39,171 -35,173 -39,171 -35,173 -26,175 -35,173 -26,175 -7,175 -4,164 -7,175 -4,164 -1,152 -15,152 -20,151 -23,149 -25,147 -27,141 -25,133 -20,126 -14,122 -7,120 -2,119 -7,120 -2,119 8,119 -2,119 8,119 18,119 8,119 18,119 13,137 18,119 13,137 8,156 13,137 8,156 3,175 13,175 3,175 13,175 24,174 29,159 24,174 29,159 33,143 29,159 33,143 38,127 33,143 38,127 42,111 38,127 42,111 46,95 29,95 46,95 29,95 13,95 29,95 13,95 -4,95 -11,96 -18,98 -11,96 -18,98 -26,103 -18,98 -26,103 -34,110 -26,103 -34,110 -41,120 -46,132 -47,135 -46,132 -47,135 -46,132 -47,135 -46,132 -44,126 -41,120 -44,126 -46,132 -47,135 -46,132 -47,135 -61,133 -69,132 -69,122 -60,111 -63,109 -73,98 -77,97 -60,114 -59,117 -79,99 -82,96 -73,107 -58,123 -67,115 -90,94 -89,98 -61,123 -58,128 -84,105 -96,94 -78,113 -59,132 -72,121 -100,97 -103,94 -96,103 -65,129 -60,135 -89,111 -108,95 -83,119 -61,139 -76,126 -107,101 -113,97 -83,123 -70,134 -62,142 -66,140 -82,126 -81,130 -66,142 -64,146 -79,134 -82,131 -74,140 -66,149 -69,147 -83,135 -82,139 -70,148 -68,152 -85,139 -79,146 -71,155 -74,152 -88,141 -86,145 -75,154 -74,158 -88,146 -91,144 -84,152 -76,160 -80,158 -95,146 -93,150 -81,159 -80,163 -95,150 -99,147 -89,158 -83,165 -104,148 -103,152 -88,164 -86,167 -100,156 -109,149 -93,164 -90,169 -115,149 -111,155 -94,171 -105,162 -128,144 -133,129 -118,114 -101,116 -91,117 -82,124 -85,122 -112,100 -116,97 -108,106 -94,119 -102,113 -119,99 -118,103 -103,115 -101,119 -120,104 -123,101 -113,112 -106,119 -127,103 -125,107 -113,117 -111,120 -124,110 -130,106 -118,118 -115,123 -133,108 -131,112 -120,121 -118,125 -129,116 -136,111 -124,123 -122,127 -139,114 -137,117 -126,127 -124,131 -134,123 -141,117 -129,130 -127,134 -144,121 -142,124 -128,136 -127,140 -140,129 -146,124 -133,137 -126,146 -129,143 -148,128 -141,145 -141,152 -145,162 -142,165 -134,170 -127,173 -148,157 -150,153 -125,172 -122,174 -130,166 -151,146 -137,158 -115,175 -116,171 -143,150 -151,141 -148,144 -118,167 -109,174 -125,159 -151,136 -132,151 -103,174 -107,168 -138,143 -149,132 -139,139 -124,149 -109,160 -94,171 -97,168 -127,145 -148,128 -120,153 -98,173 -113,160 -145,136 -149,132 -140,136 -133,143 -141,137 -148,129" fill="none" stroke="#ffffff" stroke-width="3" /><path d="M -128,137 -128,133 -125,129 -122,125 -125,129 -128,133 -128,137 -128,133 -125,129 -122,125 -117,122 -112,119 -106,118 -100,118 -94,118 -88,120 -84,123 -81,127 -81,134 -84,140 -90,145 -97,148 -90,145 -97,148 -104,150 -97,148 -104,150 -112,150 -120,148 -127,143 -128,137 -128,137 -128,138 -128,137 -128,138 -127,143 -126,144 -120,148 -126,144 -127,143 -128,138 -128,137 -128,138 -128,137" fill="none" stroke="#ffffff" stroke-width="3" /><path d="M -148,132 -150,137 -148,132 -150,137 -148,132 -150,137 -148,132 -150,137 -151,149 -149,155 -151,149 -149,155 -144,163 -149,155 -144,163 -136,170 -144,163 -136,170 -125,173 -136,170 -125,173 -114,174 -106,174 -99,172 -106,174 -99,172 -87,167 -99,172 -87,167 -76,159 -87,167 -76,159 -67,149 -76,159 -67,149 -61,137 -59,130 -58,123 -59,116 -61,110 -65,104 -61,110 -65,104 -72,99 -79,96 -86,95 -94,94 -101,94 -94,94 -101,94 -115,98 -101,94 -115,98 -127,105 -115,98 -127,105 -138,114 -127,105 -138,114 -145,125 -148,132 -145,125 -148,132 -145,125 -148,132 -145,125 -148,132 -159,133 -174,125 -192,135 -211,146 -206,128 -202,112 -193,100 -177,90 -159,81 -140,72 -144,72 -176,73 -172,75 -141,76 -162,76 -188,77 -152,78 -143,80 -182,81 -193,81 -172,82 -144,84 -162,84 -199,85 -192,87 -152,86 -145,88 -182,88 -204,89 -172,90 -146,92 -162,92 -202,93 -207,93 -192,94 -152,94 -176,96 -182,96 -210,96 -206,98 -185,98 -182,100 -202,100 -211,100 -192,102 -187,104 -213,104 -210,106 -194,106 -190,108 -202,108 -214,108 -211,110 -196,110 -192,112 -216,112 -212,114 -193,116 -202,116 -217,116 -213,118 -193,118 -157,119 -153,119 -182,119 -218,119 -212,121 -172,121 -154,123 -162,123 -202,123 -219,123 -192,125 -155,127 -182,127 -220,127 -212,129 -172,129 -156,131 -162,131 -202,131 -221,131 -192,133 -158,135 -182,135 -218,135 -222,135 -212,137 -172,137 -159,139 -163,139 -202,139 -223,139 -191,141 -200,143 -220,143 -224,143 -211,145 -202,147 -226,147 -222,149 -206,149 -203,151 -221,151 -227,151 -211,153 -204,154 -228,155 -224,157 -208,156 -205,158 -221,159 -229,159 -211,161 -206,163 -230,163 -227,165 -211,165 -207,167 -221,167 -231,167 -212,169 -208,171 -232,171 -229,173 -210,175 -221,175 -234,175 -222,175 -232,175 -222,175 -211,175 -206,158 -211,175 -206,158 -201,142 -206,158 -201,142 -188,142 -201,142 -188,142 -174,142 -188,142 -174,142 -160,141 -157,129 -160,141 -157,129 -154,117 -168,117 -154,117 -168,117 -181,117 -168,117 -181,117 -194,117 -193,111 -189,105 -184,99 -177,95 -184,99 -177,95 -163,95 -177,95 -163,95 -148,94 -145,83 -148,94 -145,83 -142,72 -153,72 -142,72 -153,72 -163,72 -153,72 -163,72 -174,72 -163,72 -174,72 -184,75 -174,72 -184,75 -194,81 -184,75 -194,81 -202,88 -194,81 -202,88 -209,97 -202,88 -209,97 -213,106 -209,97 -213,106 -218,123 -213,106 -218,123 -223,140 -218,123 -223,140 -227,158 -223,140 -227,158 -232,175 -232,175 -240,175 -244,175 -265,175 -262,173 -243,173 -239,171 -260,171 -264,171 -252,169 -238,167 -242,167 -263,168 -259,166 -240,165 -237,163 -262,164 -252,162 -236,159 -242,159 -261,160 -257,158 -238,157 -235,155 -260,156 -252,154 -234,151 -243,152 -259,152 -255,150 -236,149 -232,147 -257,148 -253,146 -231,143 -243,144 -256,145 -235,141 -230,139 -255,141 -251,138 -229,135 -243,136 -254,137 -233,134 -228,131 -254,133 -250,131 -227,127 -244,129 -254,129 -234,126 -227,123 -255,127 -252,125 -230,121 -228,118 -245,122 -252,124 -236,118 -229,113 -257,124 -254,122 -233,112 -231,108 -247,117 -253,120 -239,110 -234,104 -259,122 -256,119 -238,104 -238,100 -251,112 -257,118 -245,104 -242,97 -262,121 -260,117 -247,96 -255,108 -264,120 -252,99 -252,95 -266,120 -264,115 -257,94 -262,105 -268,120 -268,116 -261,98 -262,94 -270,120 -270,113 -267,94 -269,102 -273,120 -273,116 -270,98 -272,94 -275,120 -275,112 -277,95 -277,102 -277,120 -278,116 -279,98 -282,95 -279,120 -281,112 -287,95 -285,103 -281,120 -283,117 -289,97 -292,95 -283,120 -287,114 -297,95 -292,105 -285,120 -298,98 -303,95 -288,120 -292,117 -305,100 -299,109 -289,124 -292,122 -303,107 -306,106 -292,124 -290,128 -297,121 -308,111 -305,114 -291,131 -294,130 -305,117 -309,116 -295,132 -292,135 -303,126 -311,121 -293,138 -296,137 -308,126 -312,126 -299,136 -293,141 -308,132 -313,130 -294,145 -298,144 -311,135 -315,135 -304,142 -295,148 -312,139 -316,139 -296,151 -300,150 -317,143 -307,148 -297,154 -314,147 -319,148 -298,156 -302,156 -320,152 -310,155 -298,159 -317,155 -321,156 -299,162 -304,162 -322,160 -312,162 -300,165 -319,162 -323,164 -301,167 -305,168 -324,168 -313,169 -301,170 -321,170 -325,172 -302,173 -307,174 -327,176 -303,175 -314,176 -327,176 -322,176 -304,176 -299,157 -304,176 -299,157 -294,138 -299,157 -294,138 -288,119 -294,138 -288,119 -276,119 -288,119 -276,119 -265,119 -260,120 -257,123 -254,127 -253,132 -253,137 -253,132 -253,137 -259,156 -253,137 -259,156 -263,176 -253,175 -263,176 -253,175 -241,175 -237,161 -241,175 -237,161 -233,147 -237,161 -233,147 -229,133 -228,125 -229,133 -228,125 -229,117 -228,125 -229,117 -232,109 -236,104 -241,99 -247,97 -254,96 -247,97 -254,96 -270,96 -254,96 -270,96 -286,96 -270,96 -286,96 -303,96 -307,112 -303,96 -307,112 -312,128 -307,112 -312,128 -316,144 -312,128 -316,144 -321,160 -316,144 -321,160 -325,176 -322,176 -325,176 -322,176 -325,176 -325,176 -325,176 -323,168 -321,160 -323,168 -325,176 -325,176 -325,176 -322,176 -325,176 -322,176" fill="none" stroke="#ffffff" stroke-width="3" /><path d="M -256,222 -249,222 -256,222 -247,222 -258,222 -253,224 -247,226 -254,226 -258,226 -253,228 -247,230 -258,230 -253,233 -247,235 -254,235 -258,235 -253,237 -247,239 -258,239 -253,241 -247,243 -254,243 -258,243 -253,245 -247,247 -258,247 -253,249 -247,251 -254,251 -258,251 -253,253 -247,255 -258,255 -253,257 -247,259 -254,259 -258,259 -247,259 -244,259 -234,259 -239,257 -244,255 -238,255 -234,255 -239,252 -244,250 -234,250 -239,248 -244,246 -238,246 -234,246 -239,244 -244,242 -234,242 -239,240 -244,238 -238,238 -234,238 -239,236 -244,234 -234,234 -239,232 -244,230 -238,230 -234,230 -230,222 -234,222 -244,222 -240,224 -232,224 -229,226 -244,226 -240,228 -227,230 -232,230 -237,230 -232,232 -226,234 -236,234 -231,236 -225,238 -231,238 -235,238 -230,241 -224,243 -234,243 -228,245 -223,247 -229,247 -233,247 -230,259 -220,259 -224,257 -231,255 -219,255 -225,254 -232,252 -218,252 -224,250 -232,249 -217,249 -222,247 -226,245 -216,245 -221,243 -225,241 -215,241 -220,239 -224,237 -214,237 -219,236 -223,234 -213,234 -218,232 -222,230 -216,230 -212,230 -206,222 -210,222 -220,222 -213,224 -206,226 -221,226 -217,228 -206,230 -210,230 -216,230 -211,232 -206,234 -216,234 -211,236 -206,237 -210,237 -216,237 -211,240 -206,242 -216,242 -211,244 -206,246 -210,246 -216,246 -211,248 -206,250 -216,250 -211,252 -206,255 -210,255 -216,255 -211,257 -206,259 -216,259 -206,259 -202,259 -198,259 -191,259 -196,257 -202,255 -191,255 -196,253 -202,251 -198,251 -191,251 -196,249 -202,246 -191,248 -196,245 -202,242 -197,243 -189,245 -193,243 -201,239 -201,235 -184,246 -187,243 -194,238 -190,237 -184,244 -185,240 -185,236 -181,246 -181,242 -180,232 -179,245 -176,238 -184,226 -198,227 -201,232 -198,234 -191,240 -193,236 -201,229 -201,225 -192,236 -193,233 -199,225 -199,221 -195,228 -192,232 -193,226 -194,220 -190,230 -190,225 -190,220 -188,224 -186,230 -186,225 -185,220 -183,230 -182,225 -181,221 -180,225 -179,245 -178,241 -178,227 -175,224 -177,241 -175,238 -174,233 -173,228 -172,232 -174,241 -172,232 -166,233 -161,240 -168,259 -164,259 -157,259 -163,257 -168,255 -157,255 -163,253 -168,252 -164,251 -157,251 -163,249 -168,248 -157,247 -163,246 -168,245 -164,244 -157,243 -163,234 -157,228 -168,229 -163,230 -157,232 -164,232 -168,233 -163,234 -157,235 -168,237 -161,237 -145,237 -164,239 -168,240 -159,241 -151,238 -142,234 -142,227 -149,222 -164,222 -168,222 -156,223 -145,223 -149,224 -168,226 -164,228 -141,225 -137,226 -158,228 -149,229 -140,228 -136,229 -143,230 -147,230 -141,231 -135,232 -146,234 -141,235 -136,236 -144,237 -168,240 -164,241 -143,238 -139,240 -163,243 -168,244 -153,243 -143,244 -147,244 -154,245 -147,246 -139,247 -151,248 -144,250 -137,251 -143,251 -149,252 -142,253 -134,255 -147,255 -139,257 -132,259 -140,259 -144,259 -132,259 -127,242 -125,226 -103,230 -103,220 -105,225 -106,230 -107,220 -109,225 -109,230 -112,220 -112,225 -112,230 -117,220 -116,225 -115,230 -122,221 -121,225 -119,229 -125,224 -128,221 -125,226 -121,232 -131,223 -130,227 -122,234 -121,238 -128,231 -131,229 -128,238 -116,238 -104,244 -104,235 -106,239 -107,243 -108,235 -110,239 -109,244 -113,235 -113,239 -112,244 -116,238 -118,235 -117,240 -114,244 -131,229 -128,234 -121,241 -124,239 -131,235 -127,240 -121,244 -131,241 -128,244 -122,246 -132,246 -127,248 -121,248 -131,251 -126,251 -121,250 -131,257 -125,255 -119,251 -128,260 -124,259 -118,253 -115,251 -117,254 -121,260 -116,256 -111,251 -116,260 -112,256 -109,251 -110,256 -111,260 -108,256 -106,251 -106,260 -104,256 -102,251 -102,256 -102,260 -102,251 -97,250 -95,245 -98,250 -94,247 -91,245 -93,248 -96,254 -92,251 -88,248 -94,258 -89,254 -84,250 -86,253 -90,259 -85,255 -80,250 -86,261 -81,256 -76,251 -78,255 -81,260 -75,251 -76,242 -90,236 -90,227 -85,226 -79,228 -73,232 -69,231 -75,234 -71,226 -75,229 -79,232 -77,229 -73,223 -78,226 -82,230 -77,221 -82,226 -87,230 -85,227 -81,220 -86,225 -91,229 -86,221 -88,225 -93,224 -97,233 -94,231 -89,223 -86,221 -96,237 -92,235 -88,232 -93,241 -88,237 -84,233 -89,243 -85,240 -80,235 -86,244 -81,240 -76,236 -82,245 -78,242 -73,238 -78,247 -74,244 -70,240 -78,255 -81,260 -78,258 -71,248 -68,246 -76,259 -70,253 -76,259 -68,246 -62,245 -65,249 -61,247 -57,245 -63,254 -59,251 -55,248 -58,254 -60,258 -56,254 -51,250 -56,259 -52,255 -47,250 -51,257 -53,261 -46,254 -43,251 -48,260 -41,253 -42,242 -57,236 -57,227 -51,226 -45,228 -39,232 -35,231 -39,232 -42,234 -37,226 -41,229 -45,232 -40,222 -45,227 -49,230 -44,221 -49,226 -54,230 -48,220 -52,224 -55,229 -57,224 -63,231 -58,226 -53,221 -59,232 -62,237 -52,224 -54,231 -60,241 -55,237 -51,233 -53,237 -56,242 -51,238 -47,234 -52,244 -48,240 -43,236 -45,240 -48,245 -44,241 -39,237 -45,247 -40,243 -36,240 -38,244 -48,260 -44,258 -38,247 -34,245 -43,260 -38,255 -35,250 -31,254 -18,247 -14,252 -12,248 -9,243 -13,246 -15,251 -15,242 -16,247 -16,252 -18,248 -20,243 -34,259 -23,259 -28,257 -33,255 -22,256 -27,253 -31,250 -22,253 -26,249 -29,245 -21,252 -24,246 -27,240 -18,252 -20,247 -24,234 -22,238 -19,246 -19,242 -23,232 -22,228 -18,242 -18,238 -21,226 -19,222 -17,234 -16,238 -17,226 -15,220 -15,233 -13,226 -11,220 -12,234 -13,238 -5,247 -6,259 -2,259 6,259 -1,257 -7,255 4,255 -2,253 -8,253 -4,252 2,250 -3,250 -9,251 1,246 -6,248 -13,252 -9,248 -1,241 -5,241 -13,252 -10,246 -4,235 -8,237 -11,242 -7,229 -9,224 -11,234 -13,238 -11,226 -11,220 -21,217 -23,220 -21,217 -18,213 -23,221 -19,217 -14,213 -18,220 -14,217 -10,214 -14,221 -10,215 -11,219 -6,212 -7,216 -9,220 -8,214 -10,220 -7,214 -11,219" fill="none" stroke="#ffffff" stroke-width="3" /><path d="M 10,229 16,227 22,225 16,227 10,229 22,225 26,226 33,230 33,239 43,239 37,237 31,237 42,234 36,234 30,235 34,233 41,230 35,230 30,232 38,225 33,228 28,231 30,228 33,223 29,226 26,231 29,221 26,225 24,229 24,225 24,220 22,225 22,230 19,221 19,226 20,231 18,228 15,222 15,227 18,232 10,225 13,230 17,234 14,232 8,229 12,233 17,236 6,233 11,236 16,239 12,238 5,238 10,240 16,241 5,242 11,244 17,243 13,245 6,247 11,247 17,246 7,252 12,251 18,248 10,256 15,253 20,249 14,258 18,256 22,250 20,254 18,260 22,256 24,251 23,261 25,257 26,250 28,260 29,255 28,249 33,259 32,254 30,249 37,256 34,251 30,247 40,252 37,249 31,244 35,246 42,248 37,245 32,242 43,243 37,241 32,239 43,239 38,241 32,241 38,240 43,242 61,240 66,255 81,255 91,241 88,241 93,239 82,239 86,239 93,239 87,237 82,237 92,234 88,233 81,234 91,230 86,230 82,232 88,225 85,227 82,229 84,222 81,226 80,231 78,225 78,221 77,225 77,230 73,220 73,225 74,230 71,226 67,221 68,225 70,229 60,221 63,226 70,233 66,231 60,226 64,231 70,236 59,232 64,235 70,238 66,238 59,236 64,239 70,241 59,241 65,243 70,243 66,244 59,246 65,247 70,246 60,251 65,251 70,250 67,252 60,257 65,256 69,252 63,260 68,256 73,251 71,255 69,260 72,257 73,253 74,260 75,256 75,251 77,254 80,260 79,255 78,251 84,258 83,254 80,249 83,252 88,256 85,251 81,247 90,252 86,248 82,245 86,246 92,248 87,244 82,242 93,243 88,241 82,239 93,239 97,241 100,224 96,226 100,224 105,220 96,234 101,231 106,227 102,233 96,242 101,239 106,235 96,250 101,247 106,243 98,255 103,254 100,260 103,256 106,251 101,255 96,258 106,243 110,240 123,226 130,226 140,233 144,231 141,233 137,235 142,227 138,230 134,233 140,223 135,227 131,230 136,222 131,226 127,229 132,220 128,222 124,230 121,232 127,220 123,224 119,231 115,232 122,221 117,229 110,243 123,224 121,231 111,249 115,245 120,241 113,253 117,250 121,247 118,253 116,256 120,253 124,250 119,259 123,255 128,251 125,256 123,260 128,255 133,251 127,261 132,256 138,250 132,260 140,244 136,241 130,239 128,244 132,241 136,238 131,247 135,242 140,238 138,241 135,247 140,243 144,239 138,250 143,248 141,257 137,259 145,246 138,253 132,260 145,238 151,239 157,253 159,257 155,260 159,253 159,249 153,258 150,260 156,250 159,245 159,241 150,256 150,252 159,237 159,233 156,238 150,248 150,244 159,229 159,225 150,240 150,236 155,227 159,220 155,222 150,232 152,227 154,220 150,228 150,232 157,220 162,222 164,229 161,227 164,229 161,223 169,229 166,225 163,221 166,223 175,229 183,226 191,230 191,226 191,220 189,225 188,230 187,220 185,225 186,230 184,226 182,220 181,224 182,228 176,221 178,226 182,231 169,221 170,225 179,231 182,234 172,227 177,233 182,238 178,236 172,232 177,237 182,242 172,237 177,241 182,245 175,243 172,242 177,245 182,249 171,246 177,249 182,252 175,251 171,251 177,253 182,255 171,255 177,257 182,259 175,259 171,259 182,259 187,259 198,259 193,257 188,255 195,255 199,256 193,253 190,250 198,253 194,249 192,245 200,252 196,245 194,240 201,249 200,245 195,237 201,243 203,248 205,252 205,247 206,242 206,251 208,246 212,243 209,248 207,252 212,248 212,237 206,229 202,229 197,234 202,246 202,242 198,232 199,228 203,242 203,236 202,221 203,226 204,238 205,234 205,224 207,220 206,233 208,227 211,222 210,226 208,238 211,233 214,229 209,243 213,237 217,235 207,252 210,250 216,242 219,241 213,247 210,250 216,247 221,246 212,251 218,250 223,250 217,252 213,253 219,253 225,255 214,256 220,257 226,259 219,259 215,259 226,259 231,245 233,234 232,223 228,226 232,223 236,221 232,227 228,234 232,230 237,226 228,242 232,239 237,234 228,250 232,246 237,242 232,250 228,258 232,254 237,250 231,260 236,256 241,251 239,255 236,260 241,256 246,251 240,260 245,256 250,251 247,257 245,260 250,256 254,252 250,260 255,255 250,260 255,251 253,256 250,260 252,255 256,254" fill="none" stroke="#ffffff" stroke-width="3" /></svg>