<svg height="680" version="1.1" viewBox="-500 -340 1000 680" width="1000" xmlns="http://www.w3.org/2000/svg" xmlns:ev="http://www.w3.org/2001/xml-events" xmlns:xlink="http://www.w3.org/1999/xlink"><path d="M -497,89 -497,83 -497,77 -497,83 -497,89 -497,77 -487,89 -482,72 -497,30 -477,54 -451,85 -449,88 -450,63 -452,43 -441,20 -430,-2 -422,-19 -422,-42 -422,-66 -422,-90 -421,-114 -421,-137 -421,-157 -408,-176 -392,-193 -375,-210 -358,-227 -344,-206 -330,-186 -316,-165 -302,-145 -288,-124 -274,-104 -260,-83 -246,-62 -232,-42 -218,-21 -201,-38 -184,-54 -167,-71 -153,-85 -153,-109 -153,-133 -153,-156 -153,-180 -153,-203 -153,-223 -138,-240 -123,-258 -107,-274 -91,-291 -81,-301 -61,-313 -41,-324 -21,-336 -17,-331 -2,-289 -23,-314 -40,-336 -53,-328 -28,-297 -27,-273 -33,-280 -58,-310 -79,-335 -89,-324 -63,-293 -66,-273 -69,-276 -94,-306 -118,-335 -125,-320 -99,-289 -105,-272 -130,-302 -155,-332 -157,-335 -166,-334 -161,-316 -135,-285 -115,-238 -140,-268 -166,-298 -186,-322 -171,-281 -145,-250 -120,-220 -116,-192 -125,-202 -150,-233 -176,-264 -191,-281 -181,-246 -155,-216 -130,-185 -116,-145 -135,-168 -160,-198 -186,-229 -191,-234 -165,-181 -140,-151 -116,-99 -119,-103 -145,-133 -171,-164 -190,-188 -176,-147 -150,-116 -124,-85 -116,-53 -129,-68 -155,-99 -181,-129 -190,-141 -186,-112 -160,-81 -134,-51 -117,-6 -139,-33 -165,-64 -190,-94 -170,-47 -144,-16 -119,14 -117,40 -124,32 -150,1 -175,-29 -190,-47 -208,-52 -226,-57 -238,-78 -250,-99 -262,-119 -274,-140 -286,-161 -298,-182 -310,-203 -322,-224 -334,-245 -346,-266 -358,-287 -370,-308 -372,-311 -394,-336 -402,-322 -376,-292 -350,-261 -324,-231 -299,-200 -277,-171 -264,-151 -251,-131 -238,-112 -225,-92 -211,-73 -227,-91 -252,-121 -278,-152 -304,-183 -329,-213 -355,-244 -381,-275 -407,-305 -432,-336 -451,-335 -437,-319 -412,-288 -386,-257 -360,-227 -335,-196 -309,-165 -283,-135 -257,-104 -232,-73 -206,-43 -180,-12 -155,19 -129,49 -117,87 -134,67 -160,36 -185,5 -211,-25 -237,-56 -262,-87 -288,-117 -314,-148 -340,-179 -365,-209 -391,-240 -417,-271 -442,-301 -457,-319 -448,-284 -422,-253 -396,-223 -370,-192 -345,-161 -319,-131 -293,-100 -268,-69 -242,-39 -216,-8 -190,23 -165,53 -139,84 -134,89 -154,75 -173,60 -193,46 -213,32 -233,19 -226,27 -201,57 -176,86 -173,89 -170,71 -195,40 -221,9 -247,-21 -273,-52 -298,-83 -301,-86 -309,-96 -319,-117 -329,-139 -339,-161 -349,-183 -359,-204 -369,-226 -383,-221 -385,-210 -385,-197 -384,-185 -401,-205 -427,-236 -453,-267 -457,-272 -432,-219 -406,-188 -384,-138 -386,-141 -411,-171 -437,-201 -458,-226 -442,-184 -416,-153 -391,-123 -384,-91 -396,-105 -421,-136 -447,-167 -458,-179 -452,-149 -426,-119 -401,-88 -384,-44 -406,-71 -432,-102 -455,-130 -458,-133 -437,-84 -411,-54 -386,-24 -383,3 -390,-6 -416,-36 -442,-67 -458,-86 -447,-50 -421,-19 -395,12 -384,49 -400,29 -426,-2 -452,-32 -458,-39 -455,-13 -431,16 -405,46 -390,76 -396,81 -410,64 -436,33 -458,7 -459,16 -441,50 -416,81 -430,88 -446,68 -472,37 -482,25 -497,30 -500,26 -495,22 -500,30 -495,26 -491,22 -496,32 -500,38 -490,25 -486,22 -500,46 -496,44 -481,22 -490,36 -500,54 -483,28 -477,22 -496,55 -500,62 -489,48 -472,22 -483,40 -500,70 -496,67 -476,32 -467,22 -470,25 -489,59 -500,78 -482,52 -462,21 -476,44 -496,79 -498,83 -487,65 -476,46 -464,27 -452,8 -440,-11 -440,10 -439,31 -435,51 -426,71 -414,83 -406,86 -391,81 -389,78 -393,80 -398,86 -381,56 -386,61 -405,89 -393,69 -381,47 -400,76 -410,91 -406,84 -386,49 -381,39 -393,57 -413,87 -415,91 -400,65 -381,31 -387,38 -407,72 -420,91 -413,80 -393,45 -381,23 -400,53 -420,87 -424,91 -407,61 -387,26 -381,15 -394,34 -414,68 -429,91 -420,76 -400,41 -381,7 -387,14 -407,49 -427,84 -434,91 -414,57 -394,22 -381,-1 -400,30 -420,64 -438,91 -427,72 -407,37 -387,3 -381,-9 -394,10 -414,45 -434,80 -443,91 -441,87 -421,53 -401,18 -383,-13 -381,-17 -387,-9 -407,26 -427,60 -448,91 -434,68 -414,33 -394,-1 -381,-25 -384,-23 -401,6 -421,41 -441,76 -452,91 -448,83 -428,49 -408,14 -388,-21 -381,-33 -394,-13 -414,22 -434,56 -453,88 -457,92 -441,64 -421,29 -401,-5 -383,-37 -381,-41 -388,-32 -408,2 -428,37 -448,72 -462,92 -454,79 -434,45 -414,10 -394,-25 -381,-49 -384,-47 -401,-17 -421,18 -441,52 -461,87 -466,92 -448,60 -428,25 -408,-9 -388,-44 -381,-57 -395,-36 -415,-2 -435,33 -455,68 -471,92 -461,75 -441,41 -421,6 -401,-29 -383,-61 -381,-65 -388,-56 -408,-21 -428,14 -448,48 -468,83 -476,92 -474,88 -455,56 -435,21 -415,-13 -395,-48 -381,-73 -384,-71 -402,-40 -422,-6 -442,29 -462,64 -480,92 -468,71 -448,37 -428,2 -408,-33 -388,-67 -381,-81 -395,-60 -415,-25 -435,10 -455,44 -475,79 -485,92 -482,87 -462,52 -442,17 -422,-17 -402,-52 -383,-85 -381,-89 -389,-79 -409,-44 -429,-10 -449,25 -469,60 -490,92 -475,67 -455,33 -435,-2 -415,-37 -395,-71 -381,-97 -384,-95 -402,-64 -422,-29 -442,6 -462,40 -482,75 -494,92 -489,83 -469,48 -449,13 -429,-21 -409,-56 -389,-91 -381,-105 -395,-83 -415,-48 -435,-14 -455,21 -475,56 -495,89 -499,92 -482,63 -462,29 -442,-6 -422,-41 -402,-75 -383,-109 -381,-113 -389,-102 -409,-68 -429,-33 -449,2 -469,36 -489,71 -500,86 -496,79 -476,44 -456,9 -436,-25 -416,-60 -396,-95 -381,-121 -384,-119 -402,-87 -422,-52 -442,-18 -461,10 -449,-10 -429,-45 -409,-79 -389,-114 -381,-129 -396,-106 -416,-72 -436,-37 -456,-2 -461,2 -443,-29 -423,-64 -403,-99 -383,-133 -381,-137 -389,-126 -409,-91 -429,-56 -449,-22 -461,-6 -456,-14 -436,-49 -416,-83 -396,-118 -381,-145 -384,-143 -403,-110 -423,-76 -443,-41 -461,-14 -450,-33 -430,-68 -410,-103 -390,-137 -381,-152 -396,-130 -416,-95 -436,-60 -456,-26 -461,-22 -443,-53 -423,-87 -403,-122 -383,-157 -381,-160 -390,-149 -410,-114 -430,-80 -450,-45 -461,-30 -456,-37 -436,-72 -416,-107 -396,-141 -381,-168 -384,-166 -403,-134 -423,-99 -443,-64 -461,-38 -450,-57 -430,-91 -410,-126 -390,-161 -381,-176 -397,-153 -417,-118 -437,-84 -457,-49 -461,-46 -443,-76 -423,-111 -403,-145 -383,-180 -381,-184 -390,-172 -410,-138 -430,-103 -450,-68 -461,-54 -457,-61 -437,-95 -417,-130 -397,-165 -381,-192 -384,-190 -404,-157 -424,-122 -444,-88 -461,-62 -450,-80 -430,-115 -410,-149 -390,-184 -381,-200 -397,-176 -417,-142 -437,-107 -457,-72 -461,-66 -454,-89 -449,-113 -443,-137 -438,-160 -434,-184 -430,-208 -426,-232 -423,-256 -420,-280 -423,-304 -430,-322 -441,-332 -455,-337 -460,-335 -453,-339 -455,-335 -460,-327 -460,-323 -452,-337 -449,-339 -460,-319 -454,-325 -444,-339 -448,-333 -460,-311 -460,-307 -443,-337 -439,-339 -454,-313 -460,-303 -448,-321 -435,-339 -441,-329 -460,-295 -454,-302 -434,-336 -430,-339 -447,-309 -460,-287 -441,-317 -425,-339 -434,-325 -454,-290 -460,-279 -447,-298 -427,-332 -421,-339 -440,-305 -460,-271 -454,-278 -434,-313 -416,-339 -427,-321 -447,-286 -460,-263 -457,-265 -440,-294 -420,-328 -411,-340 -413,-336 -433,-301 -453,-267 -460,-255 -447,-274 -427,-309 -407,-340 -420,-317 -440,-282 -458,-250 -460,-247 -453,-255 -433,-290 -413,-324 -402,-340 -407,-332 -427,-297 -447,-263 -460,-239 -457,-241 -440,-270 -420,-305 -402,-336 -397,-340 -413,-313 -433,-278 -453,-243 -460,-231 -446,-251 -426,-286 -406,-320 -393,-340 -400,-328 -420,-293 -440,-259 -458,-226 -460,-223 -453,-232 -433,-266 -413,-301 -393,-336 -388,-340 -406,-309 -426,-274 -446,-239 -460,-215 -457,-217 -439,-247 -419,-282 -399,-316 -385,-337 -393,-324 -413,-289 -433,-255 -453,-220 -460,-207 -446,-228 -426,-262 -406,-297 -386,-331 -383,-333 -399,-305 -419,-270 -439,-235 -458,-202 -460,-199 -452,-208 -432,-243 -412,-278 -392,-312 -380,-330 -386,-320 -406,-285 -426,-251 -446,-216 -460,-191 -457,-193 -439,-224 -419,-258 -399,-293 -381,-324 -378,-326 -392,-301 -412,-266 -432,-231 -452,-197 -460,-183 -446,-204 -426,-239 -406,-274 -386,-308 -375,-322 -379,-316 -399,-281 -419,-247 -439,-212 -458,-178 -460,-174 -452,-185 -432,-220 -412,-254 -392,-289 -373,-319 -385,-297 -405,-262 -425,-227 -445,-193 -460,-166 -457,-168 -439,-200 -419,-235 -399,-270 -379,-304 -370,-315 -372,-311 -392,-277 -412,-243 -432,-208 -452,-173 -461,-158 -445,-181 -425,-216 -405,-250 -385,-285 -368,-311 -378,-293 -398,-258 -418,-223 -438,-189 -458,-154 -461,-150 -452,-162 -432,-196 -412,-231 -392,-266 -372,-300 -365,-308 -385,-273 -405,-239 -425,-204 -445,-169 -461,-142 -457,-144 -438,-177 -418,-212 -398,-246 -378,-281 -363,-304 -371,-289 -391,-254 -411,-219 -431,-185 -451,-150 -461,-134 -445,-158 -425,-192 -405,-227 -385,-262 -365,-296 -360,-300 -378,-269 -398,-235 -418,-200 -438,-165 -458,-131 -461,-126 -451,-138 -431,-173 -411,-208 -391,-242 -371,-277 -358,-296 -365,-285 -385,-250 -405,-215 -425,-181 -445,-146 -461,-118 -457,-120 -438,-154 -418,-188 -398,-223 -378,-258 -359,-291 -355,-293 -371,-265 -391,-231 -411,-196 -431,-161 -451,-127 -461,-110 -444,-134 -424,-169 -404,-204 -384,-238 -364,-273 -353,-289 -358,-281 -378,-246 -398,-211 -418,-177 -438,-142 -458,-107 -461,-102 -451,-115 -431,-150 -411,-184 -391,-219 -371,-254 -350,-285 -364,-261 -384,-227 -404,-192 -424,-157 -444,-123 -461,-94 -457,-96 -437,-130 -417,-165 -397,-200 -377,-234 -357,-269 -348,-282 -351,-277 -371,-242 -391,-207 -411,-173 -431,-138 -451,-103 -461,-86 -444,-111 -424,-146 -404,-180 -384,-215 -364,-250 -345,-278 -357,-257 -377,-223 -397,-188 -417,-153 -437,-119 -457,-84 -461,-78 -451,-92 -431,-126 -411,-161 -391,-196 -371,-230 -351,-265 -343,-274 -345,-271 -364,-238 -384,-203 -404,-169 -424,-134 -444,-99 -461,-70 -457,-72 -437,-107 -417,-142 -397,-176 -377,-211 -357,-246 -340,-271 -350,-253 -370,-219 -382,-198 -364,-226 -344,-261 -338,-267 -357,-234 -377,-199 -380,-195 -370,-207 -350,-242 -335,-263 -343,-249 -363,-215 -377,-191 -357,-222 -337,-257 -333,-259 -350,-230 -370,-195 -375,-187 -363,-203 -343,-238 -330,-256 -336,-245 -356,-211 -372,-184 -369,-186 -350,-218 -331,-250 -328,-252 -343,-226 -363,-191 -370,-180 -356,-199 -336,-234 -325,-248 -330,-241 -350,-207 -367,-176 -363,-180 -343,-214 -323,-245 -336,-222 -356,-187 -365,-172 -349,-195 -329,-230 -320,-241 -323,-237 -343,-203 -362,-169 -356,-176 -336,-210 -318,-237 -329,-218 -349,-183 -360,-165 -342,-191 -322,-226 -315,-234 -318,-230 -336,-199 -355,-165 -357,-161 -349,-172 -329,-206 -313,-230 -322,-214 -342,-179 -355,-158 -335,-187 -315,-222 -311,-226 -329,-195 -349,-160 -352,-154 -342,-168 -322,-202 -308,-223 -315,-210 -335,-175 -350,-150 -346,-152 -329,-183 -309,-217 -306,-219 -322,-191 -342,-156 -347,-146 -335,-164 -315,-198 -303,-215 -308,-206 -328,-171 -345,-143 -341,-145 -322,-179 -301,-211 -315,-187 -335,-152 -342,-139 -328,-160 -308,-194 -298,-208 -301,-202 -321,-167 -340,-135 -335,-140 -315,-175 -296,-204 -308,-183 -328,-148 -337,-132 -321,-156 -301,-190 -293,-200 -295,-197 -314,-163 -333,-131 -335,-128 -328,-136 -308,-171 -291,-197 -301,-179 -321,-144 -332,-124 -314,-152 -294,-186 -288,-193 -308,-159 -328,-125 -330,-121 -321,-132 -301,-167 -286,-189 -294,-175 -314,-140 -328,-117 -307,-148 -287,-182 -283,-186 -301,-155 -321,-121 -325,-113 -314,-128 -294,-163 -281,-182 -287,-171 -307,-136 -323,-109 -319,-111 -300,-144 -282,-176 -278,-178 -294,-151 -314,-117 -320,-106 -307,-124 -287,-159 -276,-174 -280,-167 -300,-132 -318,-102 -314,-105 -294,-140 -273,-171 -287,-147 -307,-113 -315,-98 -300,-120 -280,-155 -271,-167 -273,-163 -293,-128 -313,-95 -307,-101 -287,-136 -268,-163 -280,-143 -300,-109 -310,-91 -293,-116 -273,-151 -266,-160 -268,-156 -286,-124 -306,-91 -308,-87 -300,-97 -280,-132 -263,-156 -273,-139 -293,-105 -305,-83 -286,-112 -266,-147 -261,-152 -279,-120 -299,-85 -303,-80 -293,-93 -273,-128 -258,-149 -266,-135 -286,-101 -300,-76 -279,-108 -259,-143 -256,-145 -273,-116 -293,-81 -298,-72 -286,-89 -266,-124 -253,-141 -259,-131 -279,-97 -295,-69 -292,-71 -272,-104 -254,-136 -251,-138 -266,-112 -286,-77 -293,-65 -279,-85 -259,-120 -248,-134 -252,-127 -272,-93 -290,-61 -285,-66 -265,-100 -246,-130 -259,-108 -279,-73 -288,-57 -272,-81 -252,-116 -243,-126 -245,-123 -265,-89 -283,-57 -285,-54 -278,-62 -258,-96 -241,-123 -252,-104 -272,-69 -283,-50 -265,-77 -245,-112 -238,-119 -258,-85 -278,-50 -280,-46 -272,-58 -252,-92 -236,-115 -245,-100 -265,-65 -278,-43 -258,-73 -238,-108 -233,-112 -251,-81 -271,-46 -275,-39 -265,-54 -245,-88 -231,-108 -238,-96 -258,-61 -273,-35 -270,-37 -251,-69 -232,-102 -229,-104 -244,-77 -264,-42 -271,-31 -258,-50 -238,-84 -226,-101 -231,-92 -251,-57 -268,-28 -264,-30 -244,-65 -224,-97 -237,-73 -257,-38 -266,-24 -251,-46 -231,-80 -221,-93 -224,-88 -244,-53 -263,-20 -257,-26 -237,-61 -219,-90 -231,-69 -251,-34 -261,-17 -244,-42 -224,-76 -216,-86 -218,-82 -237,-49 -256,-16 -258,-13 -250,-22 -230,-57 -214,-82 -224,-65 -244,-30 -256,-9 -237,-38 -217,-72 -211,-78 -230,-45 -250,-11 -253,-6 -243,-18 -223,-53 -209,-75 -217,-61 -237,-26 -251,-2 -230,-34 -210,-68 -206,-71 -223,-41 -243,-7 -248,2 -237,-14 -217,-49 -204,-67 -210,-57 -230,-22 -246,6 -242,4 -223,-30 -205,-62 -201,-64 -216,-37 -236,-3 -243,9 -230,-10 -210,-45 -199,-60 -203,-53 -223,-18 -241,13 -236,9 -216,-26 -196,-56 -209,-33 -229,1 -238,17 -223,-6 -203,-41 -194,-53 -196,-49 -216,-14 -236,21 -229,13 -209,-22 -191,-49 -202,-29 -222,5 -233,24 -216,-2 -196,-37 -193,-41 -189,-48 -174,-62 -159,-74 -156,-97 -153,-120 -153,-144 -153,-168 -153,-191 -147,-213 -141,-235 -136,-255 -121,-272 -105,-288 -94,-299 -74,-308 -52,-314 -31,-320 -9,-326 -5,-320 -1,-299 0,-278 -1,-271 -4,-269 1,-278 -4,-274 -9,-269 -1,-283 1,-286 -8,-275 -13,-269 1,-294 -2,-292 -14,-271 -18,-269 -8,-287 1,-302 -15,-279 -23,-269 -20,-273 -1,-306 1,-310 -8,-298 -27,-269 -15,-291 1,-318 -3,-316 -21,-283 -32,-269 -28,-275 -8,-310 1,-325 -15,-302 -36,-269 -22,-295 -2,-329 1,-333 -8,-321 -28,-287 -41,-269 -35,-279 -15,-314 0,-339 -22,-306 -41,-273 -46,-269 -29,-299 -9,-333 -5,-339 -15,-325 -35,-291 -50,-269 -42,-283 -22,-318 -10,-339 -29,-310 -49,-276 -55,-269 -36,-303 -16,-336 -14,-339 -22,-329 -42,-295 -59,-269 -49,-287 -29,-322 -19,-339 -36,-314 -56,-280 -64,-269 -62,-273 -42,-307 -24,-339 -29,-333 -49,-299 -69,-269 -56,-291 -36,-326 -28,-339 -43,-318 -63,-284 -73,-269 -69,-276 -49,-311 -33,-339 -37,-336 -56,-303 -76,-272 -78,-269 -63,-295 -43,-330 -38,-339 -50,-322 -70,-288 -83,-269 -76,-280 -56,-315 -42,-339 -63,-307 -83,-273 -87,-269 -70,-299 -50,-334 -47,-339 -57,-326 -77,-292 -92,-269 -83,-284 -63,-319 -51,-339 -70,-311 -90,-276 -96,-269 -77,-303 -58,-335 -56,-339 -63,-330 -83,-296 -101,-269 -90,-288 -70,-323 -61,-339 -77,-315 -97,-280 -106,-269 -104,-273 -84,-307 -65,-339 -70,-334 -90,-300 -110,-269 -97,-292 -77,-327 -70,-339 -87,-323 -104,-309 -121,-297 -140,-286 -157,-279 -169,-278 -180,-282 -189,-296 -190,-311 -188,-323 -181,-330 -187,-321 -191,-314 -180,-328 -174,-335 -192,-304 -194,-301 -187,-309 -168,-337 -180,-317 -194,-293 -190,-295 -173,-324 -163,-338 -166,-332 -186,-297 -194,-285 -180,-305 -158,-338 -173,-313 -192,-280 -194,-277 -186,-286 -166,-320 -153,-338 -159,-328 -179,-293 -194,-269 -190,-271 -173,-301 -153,-335 -149,-338 -166,-309 -186,-274 -194,-261 -179,-282 -159,-316 -144,-338 -153,-324 -173,-289 -192,-256 -194,-253 -186,-262 -166,-297 -146,-332 -140,-338 -159,-305 -179,-270 -194,-245 -190,-247 -172,-278 -152,-312 -135,-338 -146,-320 -166,-285 -186,-251 -193,-237 -179,-258 -159,-293 -139,-328 -130,-338 -132,-335 -152,-301 -172,-266 -191,-232 -193,-229 -185,-239 -165,-274 -145,-308 -126,-338 -139,-316 -159,-281 -179,-247 -193,-221 -190,-223 -172,-254 -152,-289 -132,-324 -121,-338 -125,-331 -145,-297 -165,-262 -185,-227 -193,-213 -178,-235 -158,-270 -138,-304 -119,-335 -116,-339 -132,-312 -152,-277 -172,-243 -191,-209 -193,-205 -185,-216 -165,-250 -145,-285 -125,-320 -112,-339 -118,-327 -138,-293 -158,-258 -178,-223 -193,-197 -190,-199 -172,-231 -152,-266 -132,-300 -112,-335 -107,-339 -125,-308 -145,-273 -165,-239 -185,-204 -193,-189 -178,-212 -158,-246 -138,-281 -118,-316 -102,-339 -111,-323 -131,-289 -151,-254 -171,-219 -191,-185 -193,-181 -185,-192 -165,-227 -145,-262 -125,-296 -105,-331 -98,-339 -100,-335 -118,-304 -138,-269 -158,-235 -178,-200 -193,-173 -190,-175 -171,-208 -151,-242 -131,-277 -111,-312 -93,-339 -104,-319 -124,-285 -144,-250 -164,-215 -184,-181 -193,-165 -178,-188 -158,-223 -138,-258 -118,-292 -98,-327 -89,-339 -91,-335 -111,-300 -131,-265 -151,-231 -171,-196 -191,-161 -193,-157 -184,-169 -164,-204 -144,-238 -124,-273 -104,-308 -84,-339 -98,-315 -118,-281 -138,-246 -158,-211 -178,-177 -193,-149 -190,-151 -171,-184 -151,-219 -131,-254 -111,-288 -91,-323 -79,-339 -84,-331 -104,-296 -124,-261 -144,-227 -164,-192 -184,-157 -193,-141 -177,-165 -157,-200 -137,-234 -117,-269 -97,-304 -79,-335 -75,-339 -91,-311 -111,-277 -131,-242 -151,-207 -171,-173 -191,-138 -193,-133 -184,-146 -164,-180 -144,-215 -124,-250 -104,-284 -84,-319 -70,-339 -77,-327 -97,-292 -117,-257 -137,-223 -157,-188 -177,-153 -193,-125 -190,-127 -170,-161 -150,-196 -130,-230 -113,-257 -124,-238 -144,-203 -164,-169 -184,-134 -193,-118 -177,-142 -157,-176 -137,-211 -117,-246 -113,-249 -130,-219 -150,-184 -170,-149 -190,-115 -193,-110 -183,-122 -163,-157 -143,-192 -123,-226 -113,-241 -117,-234 -137,-199 -157,-165 -177,-130 -193,-102 -190,-104 -170,-138 -150,-172 -130,-207 -113,-233 -123,-215 -143,-180 -163,-145 -183,-111 -193,-94 -177,-118 -157,-153 -137,-188 -117,-222 -113,-225 -130,-195 -150,-161 -170,-126 -190,-91 -193,-86 -183,-99 -163,-134 -143,-168 -123,-203 -113,-217 -116,-211 -136,-176 -156,-141 -176,-107 -193,-78 -190,-80 -170,-114 -150,-149 -130,-184 -113,-209 -123,-191 -143,-157 -163,-122 -183,-87 -193,-70 -176,-95 -156,-130 -136,-164 -116,-199 -113,-201 -129,-172 -149,-137 -169,-103 -189,-68 -193,-62 -183,-76 -163,-110 -143,-145 -123,-180 -113,-193 -116,-187 -136,-153 -156,-118 -176,-83 -193,-54 -189,-56 -169,-91 -149,-126 -129,-160 -113,-185 -122,-168 -142,-133 -162,-99 -182,-64 -193,-46 -212,-10 -216,-2 -196,-37 -176,-72 -156,-106 -136,-141 -116,-174 -113,-176 -129,-149 -149,-114 -169,-79 -189,-45 -209,-10 -229,24 -231,28 -222,17 -202,-18 -182,-52 -162,-87 -142,-122 -122,-156 -113,-168 -116,-164 -136,-129 -156,-95 -176,-60 -196,-25 -216,9 -228,32 -209,2 -189,-33 -169,-68 -149,-102 -129,-137 -113,-160 -122,-145 -142,-110 -162,-75 -182,-41 -202,-6 -222,29 -226,35 -215,21 -195,-14 -175,-48 -155,-83 -135,-118 -117,-150 -113,-152 -129,-125 -149,-91 -169,-56 -189,-21 -209,13 -223,39 -220,37 -202,6 -182,-29 -162,-64 -142,-98 -122,-133 -113,-144 -115,-141 -135,-106 -155,-71 -175,-37 -195,-2 -215,33 -221,43 -208,25 -188,-10 -168,-44 -148,-79 -128,-114 -113,-136 -122,-121 -142,-87 -162,-52 -182,-17 -202,17 -219,47 -215,44 -195,10 -175,-25 -155,-60 -135,-94 -117,-126 -113,-128 -128,-102 -148,-67 -168,-33 -188,2 -208,37 -216,50 -201,29 -181,-6 -161,-40 -141,-75 -121,-110 -113,-120 -115,-116 -135,-83 -155,-48 -175,-13 -195,21 -214,54 -208,48 -188,14 -168,-21 -148,-56 -128,-90 -113,-112 -121,-98 -141,-63 -161,-29 -181,6 -201,41 -211,58 -195,33 -175,-2 -155,-36 -135,-71 -117,-102 -113,-104 -128,-79 -148,-44 -168,-9 -188,25 -207,58 -209,61 -201,52 -181,18 -161,-17 -141,-52 -121,-86 -113,-96 -115,-92 -134,-59 -154,-25 -174,10 -194,45 -206,65 -188,37 -168,2 -148,-32 -128,-67 -113,-88 -121,-75 -141,-40 -161,-5 -181,29 -201,64 -204,69 -194,56 -174,22 -154,-13 -134,-48 -117,-78 -113,-80 -127,-55 -147,-21 -167,14 -187,49 -201,72 -181,41 -161,6 -141,-28 -121,-63 -113,-72 -115,-68 -134,-36 -154,-1 -174,33 -194,68 -199,76 -187,60 -167,26 -147,-9 -127,-44 -114,-63 -121,-51 -141,-17 -161,18 -181,53 -196,80 -193,78 -174,45 -154,10 -134,-24 -117,-53 -114,-55 -127,-32 -147,3 -167,37 -187,72 -194,84 -180,64 -160,30 -140,-5 -120,-40 -114,-47 -134,-13 -154,22 -174,57 -191,87 -187,84 -167,49 -147,14 -127,-20 -114,-39 -120,-28 -140,7 -160,41 -180,76 -189,91 -173,68 -153,34 -133,-1 -114,-31 -127,-9 -147,26 -167,61 -185,93 -180,88 -160,53 -140,18 -120,-16 -114,-23 -133,11 -153,45 -173,80 -181,93 -166,72 -146,38 -126,3 -114,-15 -120,-5 -140,30 -160,65 -176,93 -172,89 -153,57 -133,22 -114,-7 -126,15 -146,49 -166,84 -171,93 -160,76 -140,42 -120,7 -114,1 -133,34 -153,69 -167,93 -146,61 -126,26 -114,9 -119,19 -139,53 -159,88 -162,93 -153,80 -133,46 -114,17 -126,38 -146,73 -158,93 -139,65 -119,30 -114,25 -132,57 -151,89 -153,93 -146,84 -126,50 -114,33 -119,42 -139,77 -148,93 -132,69 -114,42 -125,61 -144,93 -139,88 -119,54 -114,50 -132,81 -139,93 -125,73 -114,58 -119,65 -134,93 -130,89 -114,66 -125,85 -130,93 -118,77 -114,74 -125,93 -122,91 -114,78 -114,82 -118,89 -121,93 -116,88 -115,91 -114,72 -114,91 -114,72 -114,52 -114,72 -114,52 -114,33 -114,52 -114,33 -114,13 -114,33 -114,13 -114,-7 -114,13 -114,-7 -114,-26 -114,-7 -114,-26 -114,-46 -114,-26 -114,-46 -114,-66 -114,-46 -114,-66 -114,-85 -114,-66 -114,-85 -113,-105 -114,-85 -113,-105 -113,-124 -113,-105 -113,-124 -113,-144 -113,-124 -113,-144 -113,-164 -113,-144 -113,-164 -113,-183 -113,-164 -113,-183 -113,-203 -113,-183 -113,-203 -113,-223 -113,-203 -113,-223 -113,-242 -113,-223 -113,-242 -113,-262 -112,-265 -110,-268 -108,-269 -104,-270 -108,-269 -104,-270 -87,-270 -104,-270 -87,-270 -69,-270 -87,-270 -69,-270 -52,-270 -69,-270 -52,-270 -34,-270 -52,-270 -34,-270 -17,-270 -34,-270 -17,-270 1,-271 1,-287 1,-271 1,-287 1,-304 1,-287 1,-304 1,-321 1,-304 1,-321 0,-338 -19,-338 0,-338 -19,-338 -37,-338 -19,-338 -37,-338 -55,-338 -37,-338 -55,-338 -74,-338 -55,-338 -74,-338 -92,-338 -74,-338 -92,-338 -111,-338 -92,-338 -111,-338 -129,-338 -111,-338 -129,-338 -147,-337 -129,-338 -147,-337 -166,-337 -147,-337 -166,-337 -179,-333 -184,-329 -189,-323 -184,-329 -189,-323 -192,-313 -189,-323 -192,-313 -193,-303 -192,-313 -193,-303 -193,-283 -193,-303 -193,-283 -193,-264 -193,-283 -193,-264 -193,-244 -193,-264 -193,-244 -193,-225 -193,-244 -193,-225 -193,-205 -193,-225 -193,-205 -193,-186 -193,-205 -193,-186 -193,-166 -193,-186 -193,-166 -193,-147 -193,-166 -193,-147 -193,-127 -193,-147 -193,-127 -193,-108 -193,-127 -193,-108 -193,-88 -193,-108 -193,-88 -193,-69 -193,-88 -193,-69 -193,-49 -193,-69 -193,-49 -204,-66 -193,-49 -204,-66 -214,-82 -204,-66 -214,-82 -225,-98 -214,-82 -225,-98 -236,-114 -225,-98 -236,-114 -247,-130 -236,-114 -247,-130 -258,-146 -247,-130 -258,-146 -269,-162 -258,-146 -269,-162 -279,-178 -269,-162 -279,-178 -290,-194 -279,-178 -290,-194 -301,-210 -290,-194 -301,-210 -312,-226 -301,-210 -312,-226 -323,-243 -312,-226 -323,-243 -333,-259 -323,-243 -333,-259 -344,-275 -333,-259 -344,-275 -355,-291 -344,-275 -355,-291 -366,-307 -355,-291 -366,-307 -377,-323 -366,-307 -377,-323 -388,-339 -377,-323 -388,-339 -406,-339 -388,-339 -406,-339 -423,-338 -406,-339 -423,-338 -441,-338 -423,-338 -441,-338 -460,-337 -460,-318 -460,-337 -460,-318 -460,-298 -460,-318 -460,-298 -460,-279 -460,-298 -460,-279 -460,-259 -460,-279 -460,-259 -460,-240 -460,-259 -460,-240 -460,-221 -460,-240 -460,-221 -460,-201 -460,-221 -460,-201 -460,-182 -460,-201 -460,-182 -460,-162 -460,-182 -460,-162 -460,-143 -460,-162 -460,-143 -460,-124 -460,-143 -460,-124 -460,-104 -460,-124 -460,-104 -460,-85 -460,-104 -460,-85 -460,-65 -460,-85 -460,-65 -460,-46 -460,-65 -460,-46 -461,-27 -460,-46 -461,-27 -461,-7 -461,-27 -461,-7 -461,12 -463,19 -465,21 -469,23 -465,21 -469,23 -484,22 -469,23 -484,22 -500,23 -500,40 -500,23 -500,40 -500,57 -500,40 -500,57 -500,74 -500,57 -500,74 -499,91 -481,91 -499,91 -481,91 -463,91 -481,91 -463,91 -444,90 -463,91 -444,90 -426,90 -444,90 -426,90 -408,90 -426,90 -408,90 -398,87 -408,90 -398,87 -390,82 -398,87 -390,82 -385,74 -390,82 -385,74 -382,65 -385,74 -382,65 -381,56 -382,65 -381,56 -381,36 -381,56 -381,36 -381,17 -381,36 -381,17 -381,-3 -381,17 -381,-3 -381,-23 -381,-3 -381,-23 -381,-42 -381,-23 -381,-42 -381,-62 -381,-42 -381,-62 -381,-81 -381,-62 -381,-81 -381,-101 -381,-81 -381,-101 -381,-120 -381,-101 -381,-120 -381,-140 -381,-120 -381,-140 -381,-160 -381,-140 -381,-160 -381,-179 -381,-160 -381,-179 -381,-199 -381,-179 -381,-199 -370,-183 -381,-199 -370,-183 -360,-166 -370,-183 -360,-166 -349,-150 -360,-166 -349,-150 -338,-134 -349,-150 -338,-134 -327,-118 -338,-134 -327,-118 -316,-102 -327,-118 -316,-102 -306,-86 -316,-102 -306,-86 -295,-70 -306,-86 -295,-70 -284,-53 -295,-70 -284,-53 -273,-37 -284,-53 -273,-37 -262,-21 -273,-37 -262,-21 -252,-5 -262,-21 -252,-5 -241,11 -252,-5 -241,11 -230,27 -241,11 -230,27 -219,44 -230,27 -219,44 -209,60 -219,44 -209,60 -198,76 -209,60 -198,76 -187,92 -198,76 -187,92 -169,92 -187,92 -169,92 -151,92 -169,92 -151,92 -133,92 -151,92 -133,92 -115,92 -115,92 -106,95 -98,72 -90,50 -82,27 -73,5 -65,-17 -57,-40 -49,-62 -41,-85 -33,-107 -24,-129 -16,-152 -8,-174 0,-197 8,-219 26,-198 52,-167 50,-146 47,-150 21,-181 2,-203 16,-163 41,-133 40,-111 36,-116 11,-146 -10,-170 6,-129 31,-98 30,-77 26,-81 1,-112 -21,-138 -5,-94 21,-64 19,-43 16,-47 -10,-77 -33,-105 -15,-60 10,-30 7,-10 5,-13 -20,-42 -45,-73 -47,-49 -49,-25 -50,-2 -51,21 -52,45 -55,58 -62,80 -69,103 -73,114 -87,133 -102,151 -116,170 -119,167 -134,125 -111,152 -97,169 -81,165 -106,135 -120,107 -112,104 -101,117 -75,148 -61,165 -50,155 -70,131 -96,100 -99,74 -91,83 -65,113 -42,141 -60,96 -86,65 -87,41 -81,48 -55,79 -30,108 -50,62 -76,31 -75,9 -71,14 -45,44 -21,73 -19,76 -15,57 -40,27 -66,-4 -63,-24 -60,-21 -35,10 -9,40 7,60 22,54 -4,23 -30,-8 -54,-37 -51,-56 -48,-53 -25,-25 1,6 27,36 46,60 66,60 57,50 32,19 35,0 38,3 62,32 86,60 93,46 68,15 75,0 98,28 122,57 125,60 134,60 150,75 166,91 178,103 183,110 191,114 189,137 185,160 197,169 194,166 170,138 148,100 141,80 150,90 175,120 201,151 217,170 237,170 232,164 206,134 181,103 155,72 129,42 103,11 115,1 134,24 160,55 186,86 211,116 237,147 254,167 243,151 232,135 245,117 242,106 247,112 250,116 256,122 255,146 242,130 216,99 191,68 165,38 139,7 114,-24 108,-30 103,-48 97,-67 119,-41 144,-10 170,20 196,51 221,81 224,85 216,64 201,34 175,3 149,-28 124,-58 98,-89 79,-123 74,-141 77,-137 103,-106 129,-76 154,-45 180,-14 194,2 185,-21 176,-44 167,-68 159,-91 150,-114 141,-137 132,-161 123,-184 114,-207 106,-230 97,-254 104,-245 112,-224 119,-204 103,-223 77,-254 72,-237 98,-206 123,-175 142,-142 149,-121 144,-127 118,-158 92,-189 67,-219 41,-250 38,-254 21,-254 36,-233 62,-202 87,-171 113,-141 139,-110 171,-60 179,-39 159,-62 134,-93 108,-123 82,-154 57,-185 31,-215 14,-235 18,-252 23,-257 14,-241 14,-237 24,-255 28,-257 22,-246 6,-219 10,-221 28,-254 33,-257 15,-227 -2,-198 2,-200 22,-235 37,-257 29,-242 9,-208 -10,-176 -5,-181 15,-215 35,-250 42,-257 22,-223 2,-188 -18,-154 -11,-161 9,-196 29,-231 46,-257 36,-238 16,-204 -5,-169 -24,-136 -26,-132 -18,-142 2,-177 22,-211 42,-246 51,-257 49,-254 29,-219 9,-184 -11,-150 -31,-115 -34,-111 -24,-123 -4,-157 16,-192 36,-227 56,-257 42,-234 22,-200 2,-165 -18,-131 -38,-96 -42,-89 -31,-104 -11,-138 9,-173 29,-207 49,-242 60,-257 56,-250 36,-215 16,-180 -4,-146 -24,-111 -44,-77 -50,-67 -37,-84 -17,-119 3,-153 23,-188 43,-223 63,-254 65,-257 49,-230 29,-196 9,-161 -11,-127 -31,-92 -51,-57 -58,-45 -44,-65 -24,-100 -4,-134 16,-169 36,-203 56,-238 69,-257 63,-246 43,-211 23,-176 3,-142 -17,-107 -37,-73 -57,-38 -65,-24 -50,-46 -30,-80 -10,-115 10,-149 30,-184 50,-219 70,-253 74,-257 56,-226 36,-192 16,-157 -4,-123 -24,-88 -44,-53 -64,-19 -73,-2 -75,6 -57,-26 -37,-61 -17,-96 3,-130 23,-165 43,-199 63,-234 79,-257 70,-242 50,-207 30,-172 10,-138 -10,-103 -30,-69 -50,-34 -70,1 -81,20 -83,27 -64,-7 -44,-42 -24,-76 -4,-111 16,-145 36,-180 56,-215 76,-249 83,-257 81,-254 63,-222 43,-188 23,-153 3,-119 -17,-84 -37,-49 -57,-15 -77,20 -89,42 -90,47 -70,12 -50,-22 -30,-57 -10,-92 10,-126 30,-161 50,-195 70,-230 88,-257 77,-238 57,-203 37,-168 17,-134 -3,-99 -23,-65 -43,-30 -63,5 -83,39 -97,63 -94,61 -77,32 -57,-3 -37,-38 -17,-72 3,-107 23,-141 43,-176 63,-211 83,-245 92,-257 90,-253 70,-218 50,-184 30,-149 10,-115 -10,-80 -30,-45 -50,-11 -70,24 -90,59 -105,85 -102,83 -83,51 -63,16 -43,-18 -23,-53 -3,-88 17,-122 37,-157 57,-191 77,-226 96,-256 84,-234 64,-199 44,-164 24,-130 4,-95 -16,-61 -36,-26 -56,9 -76,43 -96,78 -107,97 -111,112 -123,121 -126,113 -133,106 -137,108 -133,106 -130,104 -132,108 -137,116 -133,114 -129,106 -125,104 -137,124 -130,116 -121,104 -123,109 -137,132 -133,130 -119,105 -115,103 -130,128 -137,140 -123,120 -103,86 -83,51 -63,17 -43,-18 -22,-52 -2,-87 18,-122 38,-156 58,-191 78,-225 97,-257 84,-234 64,-199 44,-164 24,-130 4,-95 -16,-61 -36,-26 -56,9 -76,43 -96,78 -116,113 -135,144 -137,148 -130,140 -110,105 -90,70 -70,36 -50,1 -30,-34 -10,-68 10,-103 30,-137 50,-172 70,-207 90,-241 102,-257 97,-249 77,-214 57,-180 37,-145 17,-111 -3,-76 -23,-41 -43,-7 -63,28 -83,63 -103,97 -123,132 -137,156 -133,154 -116,124 -96,90 -76,55 -56,20 -36,-14 -16,-49 4,-84 24,-118 44,-153 64,-187 84,-222 104,-254 91,-230 71,-195 51,-160 31,-126 11,-91 -10,-57 -30,-22 -50,13 -70,47 -90,82 -110,117 -130,151 -136,163 -116,129 -96,94 -76,60 -56,25 -36,-9 -15,-44 5,-78 25,-113 45,-148 65,-182 77,-203 97,-237 106,-249 104,-245 84,-210 64,-176 61,-171 71,-183 91,-218 108,-244 97,-226 77,-191 63,-165 66,-167 84,-199 104,-233 110,-239 91,-206 71,-172 64,-160 78,-179 98,-214 112,-234 104,-222 84,-187 66,-155 71,-160 91,-195 110,-227 113,-229 98,-202 78,-168 68,-150 85,-175 105,-210 115,-224 111,-218 91,-183 71,-148 69,-145 78,-156 98,-191 117,-219 105,-198 85,-164 71,-139 92,-171 112,-206 119,-215 117,-211 98,-179 78,-144 72,-134 85,-152 105,-187 120,-210 112,-194 92,-160 74,-129 78,-133 98,-167 118,-202 122,-205 105,-175 85,-140 76,-124 92,-148 112,-183 124,-200 119,-190 99,-156 79,-122 77,-119 85,-129 105,-163 126,-195 112,-171 92,-136 79,-114 99,-144 119,-179 128,-190 126,-186 106,-152 86,-117 80,-108 92,-125 112,-159 129,-185 119,-167 99,-132 82,-103 86,-105 106,-140 126,-175 131,-180 113,-148 93,-113 84,-98 99,-121 119,-155 133,-175 126,-163 106,-128 87,-96 85,-93 93,-101 113,-136 131,-168 135,-170 119,-144 99,-109 87,-88 106,-117 126,-151 137,-165 133,-159 113,-124 93,-90 89,-82 100,-97 120,-132 138,-161 126,-140 106,-105 90,-77 94,-79 113,-113 133,-147 140,-156 138,-152 120,-120 100,-86 92,-72 107,-93 127,-128 142,-151 133,-136 113,-101 93,-67 100,-74 120,-109 140,-143 144,-146 127,-116 107,-82 95,-62 113,-89 133,-124 145,-141 140,-132 120,-97 100,-63 97,-56 107,-70 127,-105 147,-136 134,-112 114,-78 98,-51 102,-53 120,-85 140,-120 149,-131 147,-128 127,-93 107,-59 100,-46 114,-66 134,-101 151,-126 141,-108 121,-74 102,-41 107,-47 127,-81 147,-116 153,-121 134,-89 114,-55 103,-36 121,-62 141,-97 154,-116 148,-104 128,-70 108,-35 105,-30 114,-43 134,-77 153,-109 156,-111 141,-85 121,-51 106,-25 110,-27 128,-58 148,-93 158,-107 154,-100 134,-66 114,-31 108,-20 121,-39 141,-73 160,-102 148,-81 128,-47 110,-15 115,-20 135,-54 155,-89 162,-97 159,-93 141,-62 121,-27 111,-10 128,-35 148,-69 163,-92 155,-77 135,-43 115,-8 113,-4 122,-16 142,-50 162,-85 165,-87 148,-58 128,-23 115,-1 120,23 97,30 73,30 49,30 26,30 10,30 -8,43 -24,58 -28,62 -36,83 -40,105 -47,126 -53,143 -55,161 -47,153 -39,139 -54,160 -60,168 -41,133 -31,117 -29,110 -47,141 -67,171 -54,149 -34,114 -23,96 -22,88 -41,122 -61,156 -72,172 -68,164 -48,129 -28,95 -16,74 -14,68 -34,102 -54,137 -72,169 -76,171 -61,145 -41,110 -21,75 -13,62 -27,75 -43,89 -46,92 -58,96 -76,107 -91,121 -106,136 -120,151 -136,165 -123,144 -103,109 -83,74 -63,40 -43,5 -23,-30 -3,-64 17,-99 37,-133 56,-165 59,-167 44,-141 24,-107 4,-72 -16,-37 -36,-3 -56,32 -76,67 -96,101 -116,136 -134,168 -136,171 -129,163 -109,128 -89,94 -69,59 -49,24 -29,-10 -9,-45 11,-80 31,-114 51,-149 55,-151 37,-122 17,-87 -3,-53 -23,-18 -43,17 -63,51 -83,86 -103,121 -123,155 -133,174 -116,148 -96,113 -76,78 -56,44 -36,9 -16,-26 4,-60 24,-95 44,-129 50,-135 31,-103 11,-68 -9,-33 -29,1 -49,36 -69,71 -89,105 -109,140 -128,174 -122,167 -102,132 -82,98 -62,63 -42,28 -22,-6 -2,-41 18,-76 38,-110 45,-119 43,-116 24,-83 4,-49 -16,-14 -36,21 -56,55 -76,90 -96,125 -116,159 -124,173 -109,152 -89,117 -69,82 -49,48 -29,13 -9,-22 11,-56 31,-91 41,-103 38,-99 18,-64 -2,-29 -22,5 -42,40 -62,75 -82,109 -102,144 -119,173 -115,170 -95,136 -75,102 -55,67 -35,32 -15,-2 5,-37 25,-72 36,-87 31,-79 11,-45 -9,-10 -29,25 -49,59 -69,94 -89,129 -109,163 -114,173 -102,156 -82,121 -62,86 -42,52 -22,17 -2,-18 18,-52 29,-67 25,-60 5,-25 -15,9 -35,44 -55,79 -75,113 -95,148 -110,173 -89,140 -69,106 -49,71 -29,36 -9,2 12,-33 23,-48 18,-41 -2,-6 -22,29 -42,63 -62,98 -82,133 -102,167 -105,173 -95,160 -75,125 -55,90 -35,56 -15,21 5,-14 16,-29 12,-21 -8,13 -28,48 -48,83 -68,117 -88,152 -100,173 -82,144 -62,110 -42,75 -22,40 -2,6 9,-9 5,-2 -15,33 -35,67 -55,102 -75,137 -94,169 -96,173 -88,164 -68,129 -48,94 -28,60 -8,25 11,-4 -1,17 -21,52 -41,87 -61,121 -81,156 -91,173 -75,148 -55,114 -35,79 -15,44 5,10 16,-4 12,2 -8,37 -28,71 -48,106 -68,141 -86,172 -81,168 -61,133 -41,98 -21,64 -1,29 20,-4 6,21 -14,56 -34,91 -54,125 -74,160 -82,172 -68,152 -48,118 -28,83 -8,48 12,14 25,-4 19,6 -1,41 -21,75 -41,110 -61,145 -77,172 -56,138 -36,103 -16,69 4,37 6,33 25,0 29,-4 13,25 -7,60 -9,63 -1,52 19,18 34,-4 26,10 6,45 -5,63 13,37 33,2 38,-4 19,29 0,63 6,56 26,22 43,-4 33,14 13,49 5,63 20,41 40,6 48,-3 46,0 26,33 9,63 14,60 33,26 52,-3 40,18 20,53 14,63 27,45 47,10 57,-3 53,3 33,37 18,63 40,30 61,-3 47,22 27,57 23,63 33,49 53,14 66,-3 60,7 40,41 28,63 47,34 66,0 71,-3 54,26 34,60 32,63 40,53 60,18 75,-3 67,11 47,45 37,63 54,38 74,3 80,-3 61,30 41,63 47,57 67,22 84,-3 74,15 54,49 46,63 61,42 81,7 89,-3 87,1 68,34 51,63 55,60 74,26 93,-3 81,19 61,53 55,63 68,46 88,11 98,-3 94,4 74,38 60,63 81,30 103,-3 88,23 68,57 65,63 75,50 95,15 107,-3 101,8 81,42 69,63 88,34 107,1 112,-3 95,27 76,60 74,63 82,54 102,19 122,-15 143,-50 163,-83 165,-87 148,-58 128,-23 108,12 88,46 78,63 95,38 115,4 135,-31 155,-65 167,-82 162,-73 142,-39 122,-4 102,31 83,63 89,58 109,23 129,-12 149,-46 169,-77 155,-54 135,-19 115,16 95,50 88,63 102,42 122,8 142,-27 162,-61 170,-72 168,-69 149,-35 129,0 109,35 92,63 97,60 115,27 135,-8 155,-42 172,-67 162,-50 142,-15 122,20 102,54 97,63 109,46 129,12 149,-23 169,-57 174,-62 156,-31 136,4 116,39 101,63 122,31 142,-4 162,-38 176,-57 169,-46 149,-11 129,24 109,58 106,64 116,50 136,16 156,-19 174,-50 178,-52 163,-27 143,8 123,43 111,64 129,35 149,1 169,-34 179,-48 176,-42 156,-7 136,28 117,60 115,64 123,54 143,20 163,-15 181,-43 170,-23 150,12 130,47 120,64 136,39 156,5 176,-30 183,-38 163,-3 143,32 124,64 130,58 150,24 170,-11 185,-33 176,-19 156,16 136,51 129,64 143,43 163,9 183,-26 186,-28 170,1 150,36 133,65 137,62 157,28 177,-7 188,-23 183,-15 163,20 143,55 135,70 150,47 170,13 190,-18 177,5 157,40 138,72 136,75 144,66 164,32 184,-3 192,-13 190,-10 170,24 150,59 138,80 157,51 177,17 194,-8 184,9 164,44 144,78 140,85 150,70 170,36 190,1 195,-3 177,28 157,63 142,90 145,88 164,55 184,21 197,2 191,13 171,48 151,82 143,95 157,74 177,40 196,8 199,6 184,32 164,67 145,100 151,94 171,59 191,25 201,11 198,17 178,52 158,86 147,105 164,78 184,44 203,16 191,36 171,71 151,105 149,110 158,98 178,63 198,29 204,21 185,56 165,90 150,115 154,113 171,82 191,48 206,26 198,40 178,75 158,109 152,120 165,102 185,67 204,33 208,31 191,60 171,94 154,125 158,121 178,86 198,52 210,36 205,44 185,79 165,113 156,130 172,106 192,71 211,41 198,64 178,98 159,131 157,135 165,125 185,90 205,56 213,46 211,49 192,83 172,117 159,140 179,110 199,75 215,51 205,68 185,102 165,137 161,145 172,129 192,94 212,60 217,56 199,87 179,121 163,149 167,147 186,114 206,79 219,60 212,72 192,106 172,141 166,152 179,133 199,98 217,67 220,65 206,91 186,125 168,156 172,152 192,118 212,83 222,70 219,76 199,110 179,145 171,159 186,137 206,102 224,75 213,95 193,129 173,163 179,156 199,122 219,87 226,80 206,114 186,149 177,165 193,141 213,106 228,85 220,99 200,133 180,167 186,160 206,126 226,92 229,90 213,118 193,153 184,168 200,145 220,110 231,94 226,103 206,137 188,170 193,164 213,130 234,98 220,122 200,157 192,171 207,149 227,114 237,101 233,107 213,141 195,173 200,168 220,134 241,102 227,126 207,161 200,173 214,153 234,118 245,103 240,111 220,145 205,173 209,169 227,138 247,107 249,103 234,130 214,165 209,173 221,157 241,122 254,103 247,115 227,149 214,173 234,142 254,107 258,104 241,134 221,169 218,173 235,158 241,157 245,162 250,171 255,165 258,160 250,170 246,174 258,152 255,154 241,173 248,161 258,144 241,169 237,173 255,142 258,136 248,150 232,173 241,157 258,127 254,130 234,165 227,173 229,170 248,138 259,119 241,146 223,173 234,153 254,119 259,111 247,126 227,161 218,173 221,169 241,134 259,103 255,113 250,121 254,112 259,107" fill="none" stroke="#c0a574" stroke-width="3" /><path d="M 114,-2 105,-2 96,-2 105,-2 114,-2 96,-2 114,-2 96,-2 79,-2 96,-2 79,-2 61,-2 79,-2 61,-2 43,-3 61,-2 43,-3 25,-3 43,-3 25,-3 8,-3 25,-3 8,-3 13,-20 8,-3 13,-20 19,-37 13,-20 19,-37 25,-54 19,-37 25,-54 31,-71 25,-54 31,-71 36,-88 31,-71 36,-88 41,-102 36,-88 41,-102 46,-117 41,-102 46,-117 50,-131 46,-117 50,-131 54,-145 50,-131 54,-145 57,-159 54,-145 57,-159 61,-173 57,-159 61,-173 67,-154 61,-173 67,-154 73,-135 67,-154 73,-135 79,-116 73,-135 79,-116 85,-97 79,-116 85,-97 91,-78 85,-97 91,-78 97,-59 91,-78 97,-59 102,-40 97,-59 102,-40 108,-21 102,-40 108,-21 114,-2 108,-21 114,-2 111,-11 108,-21 111,-11 114,-2" fill="none" stroke="#c0a574" stroke-width="3" /><path d="M 114,63 123,63 133,63 123,63 114,63 133,63 114,63 133,63 138,79 133,63 138,79 144,96 138,79 144,96 150,112 144,96 150,112 156,128 150,112 156,128 161,145 156,128 161,145 167,155 161,145 167,155 175,164 167,155 175,164 185,169 175,164 185,169 196,172 185,169 196,172 215,172 196,172 215,172 234,172 215,172 234,172 253,173 234,172 253,173 258,165 253,173 258,165 258,150 258,165 258,150 258,135 258,150 258,135 258,120 258,135 258,120 258,104 244,104 239,103 235,101 232,98 230,94 232,98 230,94 223,76 230,94 223,76 217,57 223,76 217,57 210,39 217,57 210,39 203,21 210,39 203,21 197,2 203,21 197,2 190,-16 197,2 190,-16 183,-35 190,-16 183,-35 177,-53 183,-35 177,-53 170,-72 177,-53 170,-72 163,-90 170,-72 163,-90 156,-109 163,-90 156,-109 150,-127 156,-109 150,-127 143,-145 150,-127 143,-145 136,-164 143,-145 136,-164 130,-182 136,-164 130,-182 123,-201 130,-182 123,-201 116,-219 123,-201 116,-219 110,-238 116,-219 110,-238 103,-256 110,-238 103,-256 86,-256 103,-256 86,-256 69,-256 86,-256 69,-256 53,-256 69,-256 53,-256 36,-256 53,-256 36,-256 19,-256 36,-256 19,-256 12,-238 19,-256 12,-238 6,-219 12,-238 6,-219 -1,-200 6,-219 -1,-200 -8,-182 -1,-200 -8,-182 -15,-163 -8,-182 -15,-163 -22,-145 -15,-163 -22,-145 -28,-126 -22,-145 -28,-126 -35,-107 -28,-126 -35,-107 -42,-89 -35,-107 -42,-89 -49,-70 -42,-89 -49,-70 -56,-51 -49,-70 -56,-51 -63,-33 -56,-51 -63,-33 -69,-14 -63,-33 -69,-14 -76,5 -69,-14 -76,5 -83,23 -76,5 -83,23 -90,42 -83,23 -90,42 -97,61 -90,42 -97,61 -103,79 -97,61 -103,79 -110,98 -112,101 -115,103 -121,105 -115,103 -121,105 -137,106 -137,122 -137,106 -137,122 -137,139 -137,122 -137,139 -137,156 -137,139 -137,156 -136,173 -119,172 -136,173 -119,172 -102,172 -119,172 -102,172 -85,172 -102,172 -85,172 -68,171 -85,172 -68,171 -59,168 -68,171 -59,168 -52,163 -59,168 -52,163 -46,156 -52,163 -46,156 -42,148 -46,156 -42,148 -36,131 -42,148 -36,131 -30,113 -36,131 -30,113 -23,96 -30,113 -23,96 -17,79 -23,96 -17,79 -11,62 -17,79 -11,62 7,62 -11,62 7,62 25,62 7,62 25,62 43,63 25,62 43,63 61,63 43,63 61,63 78,63 61,63 78,63 96,63 78,63 96,63 114,63 96,63 114,63 105,63 96,63 105,63 114,63" fill="none" stroke="#c0a574" stroke-width="3" /><path d="M 255,84 251,75 247,66 251,75 255,84 245,60 237,39 258,64 279,89 289,77 263,47 238,16 214,-24 207,-44 217,-32 243,-1 268,29 294,60 319,90 334,90 325,73 299,43 273,12 248,-19 222,-49 196,-80 191,-86 183,-108 176,-130 168,-152 160,-175 152,-197 145,-219 137,-241 129,-263 124,-278 116,-291 95,-286 75,-282 55,-277 35,-272 25,-284 25,-307 47,-281 54,-273 52,-298 28,-327 26,-335 41,-335 57,-316 83,-285 93,-273 88,-302 63,-332 60,-335 78,-333 95,-330 112,-328 126,-326 143,-327 158,-336 165,-328 190,-297 209,-263 216,-244 211,-249 185,-280 160,-310 138,-336 129,-324 155,-293 180,-262 206,-232 235,-185 242,-165 227,-184 201,-214 175,-245 150,-276 124,-306 99,-336 93,-320 119,-289 144,-258 170,-228 196,-197 222,-166 247,-136 250,-133 254,-128 259,-110 265,-91 242,-119 217,-149 191,-180 165,-210 139,-241 129,-253 137,-232 160,-193 186,-162 211,-132 237,-101 263,-71 265,-67 276,-55 279,-31 283,-8 288,15 297,-7 306,-30 316,-52 325,-75 335,-97 345,-119 355,-141 365,-163 371,-175 390,-184 396,-190 408,-212 420,-232 433,-253 445,-274 458,-295 471,-316 478,-328 493,-333 490,-336 477,-329 493,-286 472,-311 451,-336 441,-325 467,-294 476,-272 469,-269 462,-277 436,-307 417,-331 411,-326 408,-318 431,-290 457,-259 455,-238 452,-242 426,-273 400,-303 398,-307 395,-286 421,-255 447,-225 443,-206 441,-209 416,-238 390,-269 385,-274 385,-252 411,-221 435,-193 431,-173 406,-204 380,-234 374,-242 375,-217 401,-186 419,-141 396,-169 370,-200 362,-209 365,-182 391,-152 407,-108 386,-134 360,-165 351,-176 355,-148 381,-117 395,-76 375,-100 350,-130 340,-143 345,-113 370,-82 384,-43 365,-65 340,-96 329,-109 335,-78 360,-48 372,-11 355,-31 329,-61 318,-75 324,-44 350,-13 360,22 345,4 319,-27 308,-41 314,-9 340,21 348,54 335,39 309,8 297,-7 298,7 300,20 294,1 287,-18 284,-23 258,-53 232,-84 206,-115 181,-145 160,-169 168,-149 176,-128 201,-97 227,-67 253,-36 278,-5 304,25 330,56 332,59 342,70 337,88 331,94 343,73 344,67 327,94 338,75 351,51 348,53 331,82 322,94 324,90 344,55 359,29 356,31 337,63 318,93 331,71 351,36 367,7 364,9 344,44 324,78 313,93 317,86 337,51 357,17 376,-15 371,-10 351,24 331,59 311,90 308,93 324,67 344,32 364,-3 384,-37 377,-30 357,5 337,40 317,74 304,93 310,82 330,47 350,13 370,-22 390,-56 392,-59 384,-49 364,-14 344,20 324,55 304,89 299,93 317,63 337,28 357,-7 377,-41 397,-76 400,-81 390,-68 370,-34 350,1 330,36 310,70 295,93 303,78 323,43 343,9 363,-26 383,-61 403,-95 408,-103 397,-88 377,-53 357,-18 337,16 317,51 297,86 290,93 310,59 330,24 350,-11 370,-45 390,-80 410,-115 416,-125 403,-107 383,-72 363,-38 343,-3 323,32 303,66 286,93 296,74 316,39 336,5 356,-30 376,-65 396,-99 416,-134 424,-147 410,-126 390,-92 370,-57 350,-22 330,12 310,47 290,82 281,92 283,89 303,55 323,20 343,-15 363,-49 383,-84 403,-119 423,-153 432,-169 434,-177 416,-146 396,-111 376,-76 356,-42 336,-7 316,28 296,62 277,92 290,70 310,35 330,1 350,-34 370,-69 390,-103 410,-138 430,-173 440,-191 442,-199 423,-165 403,-130 383,-96 363,-61 343,-26 323,8 303,43 283,78 272,92 276,85 296,51 316,16 336,-19 356,-53 376,-88 396,-123 416,-157 436,-192 448,-213 449,-219 429,-184 409,-150 389,-115 369,-80 349,-46 329,-11 309,24 289,58 270,89 268,92 283,66 303,31 323,-3 343,-38 363,-73 383,-107 403,-142 423,-177 443,-211 457,-235 453,-233 436,-204 416,-169 396,-134 376,-100 356,-65 336,-30 316,4 296,39 276,74 263,92 269,81 289,47 309,12 329,-23 349,-57 369,-92 389,-127 409,-161 429,-196 449,-231 465,-257 461,-255 442,-223 422,-188 402,-154 382,-119 362,-84 342,-50 322,-15 302,20 282,54 263,87 261,91 275,69 287,48 298,26 309,7 320,-13 331,-33 342,-52 353,-72 364,-92 372,-106 380,-127 386,-149 390,-171 379,-170 372,-175 367,-186 368,-207 372,-227 376,-247 382,-266 388,-286 395,-305 400,-318 408,-327 406,-323 394,-302 393,-298 412,-330 417,-334 400,-305 385,-279 388,-281 407,-313 422,-336 413,-320 393,-286 377,-258 381,-260 400,-294 420,-328 428,-338 426,-334 407,-301 387,-267 370,-238 374,-240 394,-274 414,-309 433,-339 420,-316 400,-282 380,-247 363,-218 367,-220 387,-255 407,-290 427,-324 438,-339 434,-332 414,-297 394,-263 374,-228 356,-197 360,-201 380,-236 400,-270 420,-305 440,-336 443,-339 427,-312 407,-278 387,-243 367,-209 349,-177 354,-182 374,-216 394,-251 414,-286 434,-320 447,-339 441,-328 421,-293 401,-259 381,-224 361,-189 342,-157 347,-162 367,-197 387,-232 407,-266 427,-301 447,-335 452,-339 434,-308 414,-274 394,-239 374,-205 354,-170 335,-137 341,-143 361,-178 381,-212 401,-247 421,-282 441,-316 457,-339 448,-324 428,-289 408,-255 388,-220 368,-185 348,-151 330,-120 334,-124 354,-158 374,-193 394,-228 414,-262 434,-297 454,-331 461,-339 459,-336 441,-304 421,-270 401,-235 381,-201 361,-166 341,-131 324,-102 328,-104 348,-139 368,-174 388,-208 408,-243 428,-278 448,-312 466,-340 455,-320 435,-285 415,-251 395,-216 375,-181 355,-147 335,-112 319,-85 322,-87 341,-120 361,-154 381,-189 401,-224 421,-258 441,-293 461,-327 471,-340 468,-335 448,-300 428,-266 408,-231 388,-197 368,-162 348,-127 328,-93 313,-67 317,-69 335,-100 355,-135 375,-170 395,-204 415,-239 435,-274 455,-308 475,-340 461,-316 441,-281 421,-247 401,-212 381,-177 361,-143 341,-108 321,-73 308,-50 311,-52 328,-81 348,-116 368,-150 388,-185 408,-220 428,-254 448,-289 468,-323 480,-340 475,-331 455,-296 435,-262 415,-227 395,-193 375,-158 355,-123 335,-89 315,-54 302,-32 302,-27 322,-62 342,-96 362,-131 382,-166 402,-200 422,-235 442,-270 462,-304 480,-336 485,-340 468,-312 448,-277 428,-243 408,-208 388,-173 368,-139 348,-104 328,-69 308,-35 297,-15 296,-10 315,-42 335,-77 355,-112 375,-146 395,-181 415,-216 435,-250 455,-285 475,-319 489,-339 482,-327 462,-292 442,-258 422,-223 402,-189 382,-154 362,-119 342,-85 322,-50 302,-15 296,-5 309,-23 323,-43 338,-63 353,-82 368,-102 381,-122 394,-143 407,-164 420,-185 432,-206 445,-227 458,-248 470,-269 483,-290 489,-289 493,-285 495,-278 495,-274 490,-270 496,-280 491,-275 486,-270 490,-276 496,-288 493,-286 485,-272 481,-270 496,-296 489,-288 476,-269 483,-280 496,-304 492,-302 476,-273 470,-267 489,-300 496,-311 482,-292 462,-258 442,-223 422,-188 402,-154 382,-119 362,-84 342,-50 322,-15 302,20 282,54 263,88 258,92 276,62 296,27 316,-7 336,-42 356,-77 376,-111 396,-146 416,-181 436,-215 456,-250 476,-284 494,-316 496,-319 489,-311 469,-277 449,-242 429,-208 409,-173 389,-138 369,-104 349,-69 329,-34 309,0 289,35 269,70 254,92 262,77 282,43 302,8 322,-27 342,-61 362,-96 382,-131 402,-165 422,-200 442,-235 462,-269 482,-304 496,-327 492,-325 476,-296 456,-262 436,-227 416,-192 396,-158 376,-123 355,-88 335,-54 315,-19 295,16 275,50 255,85 252,88 269,58 289,23 309,-11 329,-46 349,-81 369,-115 389,-150 409,-185 429,-219 449,-254 469,-288 489,-323 496,-335 482,-315 462,-281 442,-246 422,-212 402,-177 382,-142 362,-108 342,-73 322,-38 302,-4 282,31 262,66 250,83 255,73 275,39 295,4 315,-31 335,-65 355,-100 375,-135 395,-169 415,-204 435,-239 455,-273 475,-308 494,-340 489,-335 469,-300 449,-266 429,-231 409,-196 389,-162 369,-127 349,-92 329,-58 309,-23 289,12 269,46 248,78 262,54 282,19 302,-15 322,-50 342,-85 362,-119 382,-154 402,-189 422,-223 442,-258 462,-292 482,-327 489,-340 469,-305 449,-271 429,-236 409,-202 388,-167 368,-133 348,-98 328,-64 308,-29 288,6 275,27 255,62 246,73 248,69 268,35 288,0 294,-9 282,8 262,42 244,68 255,50 275,15 292,-14 288,-12 268,23 248,58 243,63 261,31 281,-4 290,-20 275,4 255,38 241,58 248,46 268,11 287,-21 289,-25 281,-16 261,19 243,51 239,53 255,27 275,-8 287,-30 268,0 248,34 237,48 241,42 261,7 281,-27 286,-35 274,-20 254,15 235,44 248,23 268,-12 284,-40 280,-38 261,-4 241,30 234,39 236,35 254,3 274,-31 282,-46 267,-24 247,11 232,34 241,19 261,-16 279,-47 281,-51 274,-43 254,-8 234,26 230,29 247,-1 267,-35 279,-56 260,-28 240,7 228,24 234,15 254,-20 274,-55 278,-61 267,-47 247,-12 226,19 240,-5 260,-39 276,-67 272,-65 254,-32 234,3 225,14 227,11 247,-24 267,-59 274,-72 260,-51 240,-16 223,9 233,-9 253,-43 273,-77 267,-70 247,-36 227,-1 221,5 240,-28 260,-63 271,-82 253,-55 233,-20 219,0 226,-13 246,-47 266,-82 270,-87 260,-74 240,-40 221,-7 217,-5 233,-32 253,-67 268,-93 264,-91 246,-59 226,-24 216,-10 219,-17 239,-51 259,-86 266,-98 253,-78 233,-44 214,-15 226,-36 246,-71 265,-103 259,-98 239,-63 219,-28 212,-20 214,-23 233,-55 253,-90 263,-108 246,-82 226,-48 210,-25 219,-40 239,-75 259,-109 262,-114 252,-102 232,-67 212,-32 208,-30 226,-59 246,-94 260,-119 256,-117 239,-86 219,-52 207,-34 212,-44 232,-79 252,-113 258,-124 245,-106 225,-71 205,-39 219,-63 239,-98 257,-129 252,-125 232,-90 212,-56 203,-44 205,-48 225,-83 245,-117 255,-135 239,-110 219,-75 201,-49 212,-67 232,-102 252,-136 254,-140 245,-129 225,-94 205,-60 199,-54 218,-87 238,-121 252,-145 232,-114 212,-79 198,-59 205,-71 225,-106 245,-141 250,-150 238,-133 218,-98 199,-66 196,-64 211,-91 231,-125 249,-155 245,-152 225,-118 205,-83 194,-69 198,-75 218,-110 238,-145 247,-161 231,-137 211,-102 192,-74 204,-95 224,-129 243,-162 245,-166 238,-156 218,-122 198,-87 190,-78 192,-82 211,-114 231,-149 244,-171 224,-141 204,-106 189,-83 198,-99 218,-133 238,-168 242,-176 231,-160 211,-126 191,-91 187,-88 204,-118 224,-153 240,-181 237,-179 217,-145 197,-110 185,-93 191,-103 211,-137 231,-172 239,-186 224,-164 204,-130 183,-98 197,-122 217,-157 237,-191 230,-184 210,-149 190,-114 181,-103 184,-107 204,-141 224,-176 235,-196 217,-168 197,-134 180,-108 190,-126 210,-161 230,-195 233,-201 223,-188 203,-153 183,-118 178,-113 197,-145 217,-180 232,-206 228,-204 210,-172 190,-138 176,-117 183,-130 203,-165 223,-199 230,-211 217,-192 197,-157 178,-124 174,-122 190,-149 210,-184 228,-216 223,-211 203,-176 183,-142 172,-127 176,-134 196,-169 216,-203 227,-221 210,-196 190,-161 171,-132 183,-153 203,-188 223,-223 225,-226 216,-215 196,-180 176,-146 169,-137 171,-140 189,-173 209,-207 223,-231 203,-200 183,-165 167,-142 176,-157 196,-192 216,-227 222,-236 209,-219 189,-184 169,-150 165,-147 182,-177 202,-211 220,-241 216,-238 196,-204 176,-169 163,-152 169,-161 189,-196 209,-231 218,-246 202,-223 182,-188 162,-156 176,-181 196,-215 214,-248 216,-251 209,-242 189,-208 169,-173 160,-161 162,-165 182,-200 202,-235 215,-256 195,-227 175,-192 158,-166 169,-185 189,-219 209,-254 213,-261 202,-246 182,-212 162,-177 156,-171 175,-204 195,-239 211,-267 208,-265 188,-231 168,-196 154,-176 162,-189 182,-223 202,-258 210,-272 195,-250 175,-216 156,-183 153,-181 168,-208 188,-243 208,-277 202,-270 182,-235 162,-200 151,-186 155,-193 175,-227 195,-262 206,-282 188,-254 168,-220 149,-191 161,-212 181,-247 201,-281 204,-287 195,-274 175,-239 155,-204 147,-195 149,-199 168,-231 188,-266 203,-292 199,-290 181,-258 161,-224 145,-200 154,-216 174,-251 194,-285 201,-297 188,-278 168,-243 148,-208 144,-205 161,-235 181,-270 199,-302 194,-297 174,-262 154,-228 142,-210 147,-220 167,-255 187,-289 198,-307 181,-282 161,-247 140,-215 154,-239 174,-274 194,-308 196,-312 187,-301 167,-266 147,-232 138,-220 141,-224 161,-259 181,-293 193,-316 174,-286 154,-251 136,-225 147,-243 167,-278 187,-313 191,-319 180,-305 160,-270 140,-236 135,-230 154,-263 174,-297 188,-322 167,-290 147,-255 133,-234 140,-247 160,-282 180,-317 185,-325 173,-309 153,-274 134,-241 131,-239 147,-267 167,-301 183,-329 179,-327 160,-294 140,-259 129,-244 133,-251 153,-286 173,-321 180,-332 166,-313 146,-278 142,-271 128,-247 128,-270 124,-281 112,-289 91,-301 69,-313 52,-324 42,-333 28,-337 23,-332 23,-328 28,-336 31,-338 29,-335 23,-324 23,-320 32,-336 36,-338 23,-316 29,-323 40,-339 36,-331 23,-308 26,-310 41,-335 45,-339 29,-311 23,-300 36,-319 50,-339 43,-327 25,-295 23,-292 29,-300 50,-334 54,-339 36,-307 22,-283 26,-285 43,-315 59,-339 50,-323 30,-288 22,-275 36,-296 56,-330 64,-339 62,-335 43,-303 23,-269 30,-276 50,-311 68,-339 57,-319 37,-284 28,-269 43,-292 63,-326 73,-339 70,-334 50,-299 33,-269 37,-272 57,-307 78,-339 64,-315 44,-280 37,-269 50,-288 70,-322 82,-339 77,-330 57,-295 42,-269 62,-300 64,-303 83,-336 87,-339 70,-311 50,-276 46,-269 57,-284 77,-318 92,-339 84,-326 64,-291 51,-269 71,-299 91,-334 96,-339 77,-307 58,-273 56,-269 64,-280 84,-314 101,-339 91,-322 71,-287 60,-269 78,-295 98,-330 105,-339 103,-336 84,-303 65,-269 71,-276 91,-310 110,-339 98,-318 78,-283 70,-269 85,-291 105,-326 115,-339 111,-333 91,-299 74,-269 79,-273 98,-306 119,-339 105,-314 85,-279 79,-269 91,-287 111,-322 124,-339 118,-329 98,-295 83,-269 105,-302 124,-336 129,-340 112,-310 92,-275 88,-269 98,-283 118,-318 133,-340 125,-325 105,-291 93,-269 112,-298 132,-333 138,-340 119,-306 99,-273 97,-269 105,-279 125,-314 143,-340 132,-321 112,-287 102,-269 119,-294 139,-329 147,-340 145,-336 126,-302 107,-269 112,-275 132,-310 152,-340 139,-317 119,-283 111,-269 126,-290 146,-325 156,-340 152,-333 132,-298 115,-268 119,-271 139,-306 161,-339 146,-313 126,-279 119,-266 133,-286 153,-321 165,-338 159,-329 139,-294 122,-263 126,-267 146,-302 165,-334 169,-337 153,-309 133,-275 124,-259 140,-282 160,-317 173,-336 166,-325 146,-290 128,-258 126,-254 133,-263 153,-298 172,-331 176,-334 160,-305 140,-271 127,-249 146,-278 166,-313 171,-320 178,-333 167,-337 179,-331 167,-337 154,-339 167,-337 154,-339 135,-339 154,-339 135,-339 117,-339 135,-339 117,-339 98,-338 117,-339 98,-338 79,-338 98,-338 79,-338 61,-338 79,-338 61,-338 42,-338 61,-338 42,-338 23,-337 23,-320 23,-337 23,-320 23,-304 23,-320 23,-304 23,-287 23,-304 23,-287 23,-270 41,-270 23,-270 41,-270 59,-270 41,-270 59,-270 76,-270 59,-270 76,-270 94,-270 76,-270 94,-270 112,-270 118,-269 123,-264 118,-269 123,-264 130,-245 123,-264 130,-245 137,-226 130,-245 137,-226 143,-208 137,-226 143,-208 150,-189 143,-208 150,-189 157,-170 150,-189 157,-170 164,-152 157,-170 164,-152 171,-133 164,-152 171,-133 178,-114 171,-133 178,-114 185,-96 178,-114 185,-96 192,-77 185,-96 192,-77 199,-58 192,-77 199,-58 205,-40 199,-58 205,-40 212,-21 205,-40 212,-21 219,-3 212,-21 219,-3 226,16 219,-3 226,16 233,35 226,16 233,35 240,53 233,35 240,53 247,72 240,53 247,72 254,91 247,72 254,91 270,91 254,91 270,91 287,92 270,91 287,92 303,92 287,92 303,92 320,92 303,92 320,92 336,93 343,74 336,93 343,74 350,55 343,74 350,55 357,37 350,55 357,37 364,18 357,37 364,18 370,0 364,18 370,0 377,-19 370,0 377,-19 384,-37 377,-19 384,-37 391,-56 384,-37 391,-56 398,-74 391,-56 398,-74 405,-93 398,-74 405,-93 411,-112 405,-93 411,-112 418,-130 411,-112 418,-130 425,-149 418,-130 425,-149 432,-167 425,-149 432,-167 439,-186 432,-167 439,-186 446,-204 439,-186 446,-204 452,-223 446,-204 452,-223 459,-241 452,-223 459,-241 466,-260 468,-265 471,-268 476,-270 480,-271 476,-270 480,-271 496,-271 496,-288 496,-271 496,-288 496,-305 496,-288 496,-305 496,-322 496,-305 496,-322 495,-339 479,-339 495,-339 479,-339 463,-339 479,-339 463,-339 448,-338 463,-339 448,-338 432,-338 448,-338 432,-338 422,-337 432,-338 422,-337 413,-332 422,-337 413,-332 405,-326 413,-332 405,-326 399,-318 405,-326 399,-318 394,-303 399,-318 394,-303 388,-288 394,-303 388,-288 382,-274 388,-288 382,-274 376,-257 382,-274 376,-257 371,-240 376,-257 371,-240 365,-223 371,-240 365,-223 359,-207 365,-223 359,-207 353,-190 359,-207 353,-190 347,-173 353,-190 347,-173 341,-156 347,-173 341,-156 336,-139 341,-156 336,-139 330,-120 336,-139 330,-120 324,-101 330,-120 324,-101 318,-82 324,-101 318,-82 312,-63 318,-82 312,-63 306,-44 312,-63 306,-44 300,-25 306,-44 300,-25 294,-6 300,-25 294,-6 288,-25 294,-6 288,-25 283,-44 288,-25 283,-44 278,-63 283,-44 278,-63 272,-82 278,-63 272,-82 267,-97 272,-82 267,-97 262,-112 267,-97 262,-112 257,-128 262,-112 257,-128 252,-143 257,-128 252,-143 247,-158 252,-143 247,-158 241,-175 247,-158 241,-175 236,-192 241,-175 236,-192 230,-209 236,-192 230,-209 224,-226 230,-209 224,-226 218,-243 224,-226 218,-243 213,-260 218,-243 213,-260 207,-277 213,-260 207,-277 201,-294 207,-277 201,-294 195,-311 201,-294 195,-311 189,-322 195,-311 189,-322 179,-331 189,-322 179,-331 184,-327 189,-322 184,-327 179,-331" fill="none" stroke="#c0a574" stroke-width="3" /><path d="M -338,301 -335,292 -332,282 -335,292 -338,301 -331,279 -323,256 -315,234 -307,213 -295,192 -288,180 -276,174 -244,169 -213,164 -238,156 -263,147 -237,142 -210,137 -237,128 -264,119 -240,115 -215,110 -264,101 -312,92 -361,83 -320,82 -279,81 -238,81 -280,72 -322,63 -310,68 -300,73 -293,85 -289,98 -266,102 -245,106 -237,128 -237,150 -245,172 -262,174 -279,175 -296,177 -308,165 -313,154 -313,133 -313,116 -312,105 -298,90 -280,79 -263,67 -271,64 -274,64 -256,68 -250,70 -286,66 -322,63 -326,62 -316,64 -276,69 -240,75 -266,72 -306,68 -346,64 -365,63 -336,66 -296,71 -257,76 -233,79 -247,78 -287,74 -326,70 -365,67 -356,68 -317,73 -277,77 -237,82 -228,84 -267,80 -307,76 -347,72 -365,71 -337,74 -297,79 -257,84 -224,88 -247,86 -287,82 -327,78 -365,75 -357,76 -317,80 -278,85 -238,90 -220,92 -228,91 -268,88 -308,84 -347,80 -365,79 -338,82 -298,87 -258,91 -221,96 -217,96 -248,93 -288,90 -328,86 -365,83 -358,84 -318,88 -278,93 -239,98 -215,100 -229,99 -268,95 -308,92 -348,88 -365,87 -338,90 -299,94 -259,99 -219,104 -213,104 -249,101 -289,98 -329,94 -365,91 -358,92 -319,96 -279,101 -239,105 -211,108 -229,107 -269,103 -281,102 -259,105 -220,111 -210,112 -250,109 -275,107 -240,112 -209,116 -230,114 -268,111 -272,111 -260,113 -220,118 -208,120 -212,120 -250,117 -270,115 -241,119 -208,124 -231,122 -268,119 -261,120 -221,126 -207,128 -211,128 -251,124 -267,123 -241,127 -207,132 -231,130 -267,127 -261,128 -222,134 -207,136 -212,135 -251,132 -267,131 -242,135 -206,140 -232,138 -266,135 -262,136 -222,141 -207,143 -212,143 -252,140 -266,139 -242,142 -207,147 -232,145 -266,143 -262,144 -223,149 -207,151 -213,151 -253,148 -267,147 -243,150 -208,155 -233,153 -267,151 -263,151 -223,157 -208,159 -213,158 -253,156 -268,155 -243,158 -209,162 -233,161 -269,159 -263,159 -224,165 -210,166 -214,166 -254,164 -271,163 -244,166 -211,170 -234,169 -272,166 -264,167 -224,172 -213,174 -217,174 -254,171 -276,170 -244,174 -215,178 -234,176 -274,174 -281,174 -264,176 -225,180 -217,181 -254,179 -292,177 -296,177 -311,186 -326,196 -336,187 -345,178 -321,173 -296,167 -321,159 -345,150 -321,145 -296,140 -321,131 -345,122 -321,117 -296,112 -321,105 -345,98 -333,101 -321,105 -321,127 -321,149 -321,172 -335,177 -349,183 -333,170 -325,151 -317,132 -309,113 -293,98 -301,98 -341,94 -365,92 -332,97 -293,103 -322,100 -349,98 -312,104 -293,107 -302,106 -342,103 -349,102 -332,105 -293,111 -322,108 -349,106 -313,112 -293,115 -303,114 -343,111 -349,110 -333,113 -297,118 -293,119 -323,116 -349,114 -313,120 -293,123 -303,122 -343,119 -349,118 -333,120 -297,126 -293,127 -324,124 -349,122 -314,127 -293,130 -304,130 -344,127 -349,126 -334,128 -297,134 -293,134 -324,132 -349,130 -315,135 -293,138 -305,137 -344,135 -349,134 -335,136 -297,142 -293,142 -325,140 -349,138 -315,143 -293,146 -305,145 -345,142 -349,142 -335,144 -297,149 -293,150 -325,148 -349,146 -316,151 -293,154 -306,153 -345,150 -349,150 -336,152 -297,157 -293,158 -326,156 -349,154 -316,159 -293,162 -306,161 -345,158 -349,158 -336,160 -297,165 -293,166 -326,164 -349,162 -317,166 -293,169 -307,169 -345,166 -349,166 -337,168 -297,173 -293,173 -327,171 -349,170 -317,174 -293,177 -307,176 -345,174 -349,174 -337,175 -297,178 -257,182 -219,185 -247,184 -287,182 -327,179 -349,178 -317,181 -277,184 -238,188 -223,189 -228,189 -267,187 -307,185 -345,183 -349,183 -333,199 -330,203 -329,225 -329,247 -334,263 -347,280 -361,297 -319,290 -278,283 -312,275 -347,267 -322,261 -296,254 -321,246 -345,239 -321,232 -296,226 -321,218 -345,210 -296,206 -246,201 -279,196 -312,192 -345,187 -328,191 -312,196 -295,200 -307,209 -321,214 -321,234 -321,254 -319,273 -319,293 -342,297 -365,301 -361,301 -323,301 -283,301 -274,301 -293,300 -333,298 -365,297 -343,297 -303,297 -274,297 -313,295 -353,293 -365,293 -361,293 -323,293 -283,293 -274,293 -293,292 -333,290 -365,289 -343,289 -303,289 -274,289 -313,287 -353,285 -365,285 -361,285 -323,285 -283,285 -274,285 -293,284 -333,282 -365,281 -343,281 -303,281 -274,281 -313,279 -353,277 -365,276 -361,276 -323,277 -283,277 -274,277 -293,276 -333,274 -365,272 -343,273 -303,273 -274,273 -313,271 -352,269 -365,268 -361,268 -323,269 -283,269 -274,269 -292,268 -332,266 -349,264 -343,264 -303,265 -293,265 -312,264 -349,261 -322,261 -293,262 -332,258 -349,257 -342,257 -302,257 -293,258 -312,256 -349,253 -322,253 -293,254 -332,250 -349,249 -342,249 -302,250 -293,250 -312,248 -349,245 -322,245 -293,246 -332,242 -349,241 -342,241 -302,242 -293,242 -312,240 -349,237 -322,237 -293,238 -332,234 -349,233 -342,233 -302,234 -293,234 -312,233 -349,229 -322,230 -293,231 -331,227 -349,225 -341,225 -302,226 -293,227 -311,225 -349,221 -321,222 -293,223 -331,219 -349,217 -341,217 -301,219 -293,219 -311,217 -349,213 -321,214 -293,215 -331,211 -349,209 -341,210 -301,211 -276,213 -311,209 -349,206 -321,207 -281,209 -259,210 -291,207 -330,203 -349,202 -341,202 -301,204 -261,206 -249,206 -271,205 -310,201 -349,198 -320,199 -280,201 -244,203 -240,203 -250,202 -290,199 -330,196 -349,194 -340,194 -300,196 -260,198 -235,200 -270,197 -310,193 -349,190 -320,192 -280,194 -240,196 -230,196 -250,194 -290,191 -330,188 -349,186 -340,187 -300,189 -260,191 -226,193 -230,192 -270,189 -310,186 -349,183 -320,184 -280,186 -240,188 -223,189 -232,190 -242,190 -232,189 -224,192" fill="none" stroke="#f66030" stroke-width="3" /><path d="M -271,166 -272,169 -274,171 -277,173 -280,174 -283,175 -286,176 -294,177 -286,176 -294,177 -286,176 -283,175 -280,174 -277,173 -274,171 -272,169 -271,166 -272,169 -274,171 -277,173 -280,174 -283,175 -286,176 -294,177 -286,176 -294,177 -294,157 -294,177 -294,157 -294,138 -294,157 -294,138 -294,118 -294,138 -294,118 -294,98 -287,99 -281,101 -276,104 -272,108 -269,114 -266,120 -269,114 -266,120 -265,128 -266,120 -265,128 -264,137 -265,128 -264,137 -265,146 -266,154 -268,161 -271,166 -268,161 -271,166 -268,161 -271,166 -268,161 -271,166" fill="none" stroke="#f66030" stroke-width="3" /><path d="M -260,210 -257,209 -260,210 -257,209 -249,206 -242,203 -249,206 -257,209 -260,210 -257,209 -260,210 -257,209 -260,210 -257,209 -249,206 -242,203 -235,199 -229,195 -224,190 -220,184 -216,178 -213,172 -211,164 -213,172 -211,164 -209,156 -211,164 -209,156 -208,148 -209,156 -208,148 -208,139 -208,148 -208,139 -208,130 -208,139 -208,130 -209,122 -211,114 -213,107 -216,100 -220,94 -225,88 -230,83 -236,78 -242,74 -249,70 -256,67 -249,70 -256,67 -264,65 -256,67 -264,65 -273,64 -264,65 -273,64 -282,63 -273,64 -282,63 -291,62 -282,63 -291,62 -309,62 -291,62 -309,62 -327,62 -309,62 -327,62 -345,62 -327,62 -345,62 -363,62 -363,80 -363,63 -363,80 -363,98 -348,98 -363,98 -348,98 -348,117 -348,98 -348,117 -348,135 -348,117 -348,135 -348,154 -348,135 -348,154 -348,173 -348,154 -348,173 -348,191 -348,173 -348,191 -348,210 -348,191 -348,210 -348,228 -348,210 -348,228 -348,247 -348,228 -348,247 -348,265 -348,247 -348,265 -363,265 -363,283 -363,265 -363,283 -363,301 -345,301 -363,301 -345,301 -328,301 -345,301 -328,301 -311,301 -328,301 -311,301 -293,301 -311,301 -293,301 -275,301 -275,283 -275,301 -275,283 -276,265 -294,265 -276,265 -294,265 -294,248 -294,265 -294,248 -294,231 -294,248 -294,231 -294,214 -294,231 -294,214 -284,213 -294,214 -284,213 -274,212 -284,213 -274,212 -265,211 -260,210 -265,211 -260,210 -265,211 -260,210 -265,211 -260,210" fill="none" stroke="#f66030" stroke-width="3" /><path d="M -213,199 -209,207 -204,216 -209,207 -213,199 -204,216 -196,234 -188,252 -181,271 -175,284 -167,296 -165,300 -175,281 -207,300 -200,287 -194,274 -208,289 -213,282 -213,298 -203,280 -194,271 -186,255 -179,239 -172,222 -167,205 -173,219 -162,200 -170,219 -179,239 -171,231 -165,226 -159,223 -154,229 -155,198 -203,247 -194,199 -213,199 -210,195 -214,203 -216,207 -208,199 -205,195 -216,215 -200,195 -208,209 -215,221 -201,203 -195,195 -210,221 -208,218 -191,195 -201,214 -206,221 -194,206 -186,195 -188,199 -206,230 -202,225 -181,195 -194,218 -206,238 -187,211 -176,195 -180,203 -200,237 -206,246 -194,229 -174,200 -187,222 -206,255 -201,248 -179,215 -174,208 -193,241 -206,263 -186,234 -174,216 -179,226 -199,261 -206,271 -191,250 -179,230 -169,208 -163,198 -160,195 -173,218 -193,253 -206,274 -187,245 -166,211 -156,194 -160,203 -180,237 -200,272 -206,281 -187,270 -187,280 -182,290 -169,291 -163,302 -168,304 -162,292 -165,295 -173,304 -171,300 -162,284 -178,304 -165,282 -163,278 -171,288 -183,304 -178,296 -168,278 -185,300 -188,304 -173,278 -178,285 -192,304 -186,292 -174,271 -193,298 -197,304 -179,272 -174,263 -186,280 -202,304 -193,288 -174,254 -172,251 -178,261 -201,294 -207,304 -205,300 -186,268 -168,237 -183,255 -196,272 -210,289 -215,280 -210,278 -216,289 -206,278 -212,288 -216,296 -206,280 -185,246 -164,212 -153,194 -158,204 -178,238 -198,273 -216,304 -213,299 -192,265 -171,231 -151,199 -165,223 -185,257 -205,292 -212,304 -200,284 -178,250 -157,216 -151,206 -153,210 -172,242 -192,277 -207,304 -205,300 -186,269 -164,235 -151,214 -159,227 -163,234 -151,221 -158,233 -152,230 -152,213 -152,230 -152,213 -152,195 -158,195 -162,197 -166,200 -169,204 -172,210 -174,218 -172,210 -174,218 -174,207 -174,218 -174,207 -175,197 -188,197 -175,197 -188,197 -202,197 -188,197 -202,197 -216,197 -216,208 -216,197 -216,208 -215,220 -205,220 -215,220 -205,220 -205,240 -205,220 -205,240 -205,259 -205,240 -205,259 -205,279 -205,259 -205,279 -216,280 -216,291 -216,280 -216,291 -216,302 -198,302 -215,302 -198,302 -180,302 -198,302 -180,302 -163,302 -163,291 -163,302 -163,291 -163,279 -174,279 -163,279 -174,279 -174,262 -174,254 -173,248 -171,243 -169,238 -166,235 -162,232 -157,231 -152,230 -152,230 -152,230 -152,230 -152,230 -152,231 -157,231 -162,232 -157,231 -152,231 -152,230 -152,230 -152,230 -152,230 -139,233 -128,254 -118,266 -103,284 -95,290 -88,292 -74,291 -68,264 -62,237 -89,268 -117,299 -113,260 -138,272 -130,252 -122,232 -115,212 -102,210 -93,213 -88,220 -86,238 -87,256 -91,275 -82,242 -72,210 -96,219 -101,196 -138,226 -127,209 -128,206 -134,216 -141,229 -127,209 -119,198 -121,201 -140,236 -143,239 -135,228 -113,195 -127,220 -144,250 -142,246 -120,213 -107,194 -114,205 -134,240 -143,257 -127,232 -105,199 -102,193 -120,225 -140,259 -142,263 -134,251 -113,217 -97,193 -107,209 -127,244 -142,270 -120,236 -99,202 -93,194 -113,229 -133,263 -140,275 -127,256 -109,230 -120,248 -138,280 -134,274 -112,243 -110,240 -126,267 -136,284 -119,260 -111,249 -113,253 -132,285 -134,288 -127,279 -110,256 -119,271 -131,292 -112,266 -109,263 -126,291 -128,295 -119,283 -109,269 -112,275 -125,297 -107,274 -119,295 -122,300 -112,287 -103,276 -105,280 -119,303 -100,279 -112,299 -115,304 -105,291 -91,272 -98,283 -110,305 -95,287 -87,280 -81,260 -77,238 -77,223 -80,209 -89,198 -91,194 -107,221 -110,227 -100,213 -87,195 -93,205 -101,220 -86,199 -83,196 -98,222 -94,217 -80,199 -86,209 -95,225 -79,205 -77,201 -91,226 -93,229 -87,221 -74,204 -79,213 -92,236 -73,210 -71,207 -86,233 -91,242 -79,225 -68,210 -72,217 -91,249 -87,244 -66,214 -79,237 -91,258 -72,230 -64,219 -66,222 -86,256 -92,268 -79,248 -62,223 -72,241 -92,275 -109,305 -107,301 -86,268 -64,234 -60,228 -79,260 -99,295 -105,306 -93,287 -71,253 -59,234 -65,245 -85,279 -101,307 -99,303 -79,272 -58,241 -72,264 -92,299 -96,305 -86,290 -64,257 -58,247 -60,251 -78,283 -91,304 -77,287 -73,289 -74,293 -66,279 -60,270 -72,286 -84,303 -79,294 -61,262 -59,258 -65,268 -88,300 -90,304 -73,275 -58,247 -58,249 -58,251 -64,260 -69,268 -63,260 -59,251 -70,270" fill="none" stroke="#f66030" stroke-width="3" /><path d="M -90,249 -90,256 -90,263 -90,256 -90,249 -90,263 -91,269 -93,273 -94,276 -101,281 -106,279 -108,277 -109,273 -110,269 -111,264 -110,269 -111,264 -112,249 -111,264 -112,249 -111,235 -110,230 -109,226 -108,222 -101,218 -96,220 -94,222 -93,226 -91,230 -90,236 -91,230 -90,236 -90,249 -90,236 -90,249 -90,243 -90,236 -90,243 -90,249" fill="none" stroke="#f66030" stroke-width="3" /><path d="M -59,238 -60,232 -61,227 -60,232 -59,238 -60,232 -61,227 -63,222 -65,218 -67,213 -70,209 -73,206 -76,202 -80,200 -84,198 -88,196 -92,195 -96,194 -101,194 -105,194 -110,195 -114,196 -118,198 -122,200 -125,202 -128,206 -131,209 -134,213 -137,218 -139,222 -140,227 -142,232 -143,238 -142,232 -143,238 -143,249 -143,238 -143,249 -143,261 -142,267 -140,272 -139,277 -137,281 -134,286 -131,290 -128,293 -125,297 -121,299 -118,301 -114,303 -110,304 -105,305 -101,305 -96,305 -92,304 -88,303 -84,301 -80,299 -76,297 -73,293 -70,290 -67,286 -65,281 -63,277 -61,272 -60,267 -59,261 -60,267 -59,261 -58,251 -59,261 -58,251 -59,261 -58,251 -59,261 -58,251 -45,248 -40,247 -32,257 -39,278 -15,264 -43,248 -14,235 -40,223 -27,227 -29,244 -28,261 -26,278 -41,282 -37,282 -3,281 -9,281 -42,279 -20,278 -9,278 -29,276 -44,275 -39,274 -10,274 -45,271 -20,270 -11,270 -30,268 -45,267 -40,267 -11,266 -45,263 -20,263 -11,263 -30,260 -46,258 -40,259 -11,259 -46,254 -20,255 -12,255 -29,253 -46,250 -40,250 -12,251 -47,246 -20,247 -12,247 -29,245 -46,242 -40,242 -11,244 -46,238 -20,239 -11,240 -29,237 -45,234 -39,234 -11,236 -45,230 -19,232 -11,232 -29,229 -45,226 -39,226 -10,228 -44,222 -19,224 -9,224 -28,221 -43,219 -39,219 -3,220 1,218 13,225 16,243 20,261 23,279 26,290 23,301 32,302 41,295 7,298 24,299 42,303 45,302 42,303 45,302 33,302 28,303 45,298 12,302 7,302 41,296 45,295 32,296 2,298 21,296 45,293 11,294 2,294 41,291 45,291 31,284 19,276 11,293 -3,298 -29,296 6,293 41,291 4,273 32,255 5,238 32,226 18,229 18,254 17,278 2,282 6,294 -8,297 -17,304 -13,303 -4,301 -25,300 -29,300 1,297 -7,297 -33,296 -17,295 23,292 45,291 13,292 -27,292 -36,292 3,290 41,288 45,288 33,288 -7,288 -39,288 -17,287 23,285 45,284 13,284 -27,284 -41,284 -36,284 2,282 41,281 45,281 33,280 -2,279 22,278 35,278 12,276 0,275 4,275 35,274 31,274 1,271 22,270 35,270 12,268 1,267 5,267 35,266 31,266 2,263 22,263 35,263 12,260 2,259 6,259 35,259 31,259 2,255 22,255 35,256 12,252 2,251 6,251 35,252 31,251 2,247 22,248 35,248 12,245 2,243 6,243 35,245 31,244 1,239 22,240 35,241 12,237 1,235 5,236 35,237 31,237 1,232 22,233 35,234 13,230 0,228 4,228 35,230 31,229 -1,224 23,225 35,226 13,223 -7,220 3,221 35,222 19,212 5,202 32,190 5,176 32,164 -4,155 14,159 14,170 18,174 18,188 18,203 1,206 6,217 14,203 18,179 20,166 35,151 4,151 -8,151 14,153 35,155 24,155 -8,155 -4,155 31,159 35,159 4,159 -8,159 14,161 35,163 24,163 -8,162 -4,163 31,166 35,167 4,166 -8,166 14,168 35,171 24,170 -8,170 -4,170 31,174 35,174 6,174 2,174 14,175 35,179 24,178 2,178 31,182 35,183 6,182 2,182 14,184 35,187 24,187 2,186 31,190 35,191 6,190 2,190 13,192 35,195 23,195 2,194 31,199 35,199 6,198 1,198 13,200 35,203 23,203 1,202 31,207 35,208 5,206 1,206 -18,214 -27,217 -37,215 -1,206 -23,198 -15,202 -16,206 -2,210 -2,213 -22,216 -43,219 -22,209 -3,198 -18,195 -9,198 -1,201 -27,197 2,204 -20,202 -32,201 -10,204 5,206 0,206 -36,205 -30,205 10,209 35,211 20,211 -20,209 -39,208 -11,211 29,214 35,215 -1,213 -40,212 -31,213 9,216 35,219 19,218 -21,216 -41,215 -11,218 29,222 35,222 -1,220 -39,219 -43,219 -3,220 35,222 25,222 15,221 25,222 35,222" fill="none" stroke="#f66030" stroke-width="3" /><path d="M 2,226 3,232 2,226 3,232 2,226 3,232 2,226 3,232 3,242 3,232 3,242 3,253 3,242 3,253 3,263 3,253 3,263 3,272 0,279 -5,281 -11,277 -12,274 -11,277 -12,274 -13,265 -12,274 -13,265 -13,249 -13,265 -13,249 -13,235 -12,230 -9,222 -3,221 2,225 2,226 2,225 2,226 2,225 1,223 -1,222 -3,221 -5,220 -7,221 -9,222 -11,224 -12,226 -12,230 -13,235 -13,245 -13,235 -12,230 -12,226 -11,224 -9,222 -7,221 -5,220 -3,221 -1,222 1,223 2,225 2,226 2,225 2,226 3,206 -1,201 -5,198 -10,196 -16,195 -22,196 -27,198 -32,202 -37,207 -39,211 -40,214 -39,211 -40,214 -43,223 -40,214 -43,223 -45,234 -43,223 -45,234 -45,247 -45,234 -45,247 -45,260 -45,247 -45,260 -43,271 -45,260 -43,271 -41,281 -43,271 -41,281 -37,289 -35,292 -33,295 -31,298 -28,300 -25,302 -22,303 -19,304 -16,304 -10,303 -5,301 -1,298 3,294 3,302 23,302 3,302 23,302 44,302 44,291 44,302 44,291 43,279 34,279 43,279 34,279 34,261 34,279 34,261 34,243 34,261 34,243 34,224 34,243 34,224 34,206 34,224 34,206 34,188 34,206 34,188 34,170 34,188 34,170 34,151 14,151 34,151 14,151 -6,151 -6,163 -6,151 -6,163 -6,174 3,174 -6,174 3,174 3,190 3,174 3,190 3,206 3,206 3,206 3,206 3,206 3,198 3,190 3,198 3,206 3,206 3,206 3,206" fill="none" stroke="#f66030" stroke-width="3" /><path d="M 53,217 56,208 61,217 56,208 53,217 56,208 66,228 76,248 85,268 95,288 115,285 123,265 125,258 118,238 111,218 103,199 116,199 111,229 137,207 124,242 111,276 137,230 135,248 134,267 134,285 142,288 147,296 149,300 140,282 111,298 102,281 73,297 81,267 89,237 63,248 72,199 53,199 56,195 50,206 61,195 52,211 50,215 59,204 66,195 64,199 51,221 71,195 59,215 56,221 66,208 75,195 73,200 60,222 80,195 66,219 60,230 73,212 85,195 80,204 60,238 65,231 87,199 89,195 73,223 60,246 80,216 92,199 87,208 67,243 60,254 73,235 92,208 80,227 62,259 60,263 66,254 88,221 92,216 74,247 60,271 81,240 92,224 87,232 67,266 61,278 74,259 92,232 81,251 62,284 66,277 89,244 92,240 74,270 64,289 82,263 92,248 88,255 68,290 66,293 74,282 92,256 81,274 68,297 89,268 92,264 75,294 71,300 82,286 93,271 88,278 75,302 95,276 82,298 79,304 89,290 98,277 96,283 83,305 103,278 89,301 87,305 95,294 110,273 103,287 93,304 106,291 118,279 122,281 125,274 126,265 124,250 124,234 123,220 116,208 107,208 101,197 106,195 102,203 100,206 108,198 111,195 100,214 116,195 108,209 101,221 115,202 120,195 105,221 108,218 125,195 115,213 109,224 122,206 130,195 127,199 109,232 114,224 134,195 122,217 109,240 129,210 139,195 135,201 115,236 109,248 122,228 140,201 129,221 111,252 109,256 114,247 137,214 140,209 122,240 109,264 129,233 140,217 136,225 116,259 109,272 122,252 140,225 129,244 109,279 95,303 116,271 137,238 140,233 123,264 104,296 102,300 108,290 130,256 140,241 136,248 116,283 109,296 123,275 140,249 130,268 111,300 109,304 115,294 138,261 140,257 123,287 113,304 130,280 140,265 137,272 118,304 122,298 140,273 130,291 123,304 138,284 142,278 127,304 130,300 147,278 137,295 132,304 144,288 151,278 149,282 137,304 144,300 151,302 145,304 151,293 141,304 144,299 151,286 137,304 149,282 151,278 151,280 140,279 151,279 140,279 140,263 140,279 140,263 140,246 140,263 140,246 140,230 140,246 140,230 140,213 140,230 140,213 140,197 120,197 139,197 120,197 101,197 101,208 101,197 101,208 101,220 109,220 101,220 109,220 109,238 109,220 109,238 109,256 109,238 109,256 109,275 99,280 94,278 92,272 91,265 92,272 91,265 91,248 91,265 91,248 91,231 91,248 91,231 91,214 91,231 91,214 91,197 78,197 91,197 78,197 64,197 78,197 64,197 51,197 51,208 51,197 51,208 51,220 61,220 51,220 61,220 61,236 61,220 61,236 61,253 61,236 61,253 61,270 61,277 62,284 65,290 68,295 72,299 76,302 81,303 87,304 92,303 98,301 104,298 109,294 109,302 123,302 109,302 123,302 137,302 123,302 137,302 151,302 151,291 151,302 151,291 151,279 151,279 151,280 151,279 151,280 151,285 151,291 151,285 151,280 151,279 151,280 151,279 167,274 181,288 194,302 200,309 203,318 200,326 184,327 190,337 199,328 209,320 198,314 204,303 211,287 217,271 216,263 213,278 220,281 231,275 225,294 223,266 186,299 191,258 166,270 193,223 176,216 172,211 200,199 209,219 228,232 234,237 234,203 216,200 218,196 221,195 213,210 220,211 226,222 236,239 230,241 237,230 226,241 235,226 237,222 230,230 221,241 223,237 237,214 217,241 229,219 237,206 223,226 213,239 216,234 235,202 237,199 230,207 212,234 223,215 234,195 215,222 211,228 227,199 229,195 223,204 209,223 216,211 225,195 208,218 205,221 214,206 202,219 209,207 211,203 202,214 194,226 196,222 209,199 195,207 184,211 173,212 177,203 182,197 180,202 162,232 165,228 188,196 173,221 161,242 180,214 194,194 187,206 167,240 161,251 173,232 195,199 198,194 180,225 161,258 166,251 188,218 202,195 194,210 174,244 162,265 180,237 202,203 206,197 187,229 167,264 163,272 173,256 195,224 181,248 165,277 167,273 189,242 194,233 192,236 174,268 166,282 181,260 194,242 188,252 168,287 174,279 194,251 181,272 171,290 189,265 194,258 176,290 174,294 181,283 195,265 188,276 176,297 195,272 182,295 179,300 189,288 197,277 195,280 183,302 200,280 189,299 187,303 196,292 204,281 202,284 190,305 209,279 212,276 196,303 190,313 196,310 202,312 201,319 203,327 190,331 185,330 182,326 187,323 181,335 184,331 192,323 190,326 182,339 196,322 186,340 201,328 205,334 211,324 215,318 204,331 199,337 213,313 211,316 194,339 205,320 212,308 198,327 189,340 192,335 209,306 206,309 197,319 199,316 206,303 211,286 214,273 214,260 219,260 211,274 216,269 223,262 203,296 193,314 210,288 227,263 217,281 198,313 196,317 202,307 224,274 230,265 228,268 210,300 207,306 216,292 234,266 224,285 212,305 231,278 238,268 236,271 219,302 226,291 226,297 230,289 235,281 223,296 219,302 236,271 238,268 237,269 226,265 237,269 226,265 214,260 213,270 208,281 204,282 198,280 196,278 195,275 194,270 193,264 194,270 193,264 193,248 193,264 193,248 193,234 194,228 195,224 200,218 207,219 210,223 212,226 213,229 212,226 213,229 214,240 225,240 214,240 225,240 236,239 236,225 236,239 236,225 236,211 236,225 236,211 236,197 225,197 236,197 225,197 214,197 214,208 212,205 211,202 207,198 204,197 201,196 198,195 194,195 191,195 187,196 184,197 181,199 178,201 175,203 173,206 170,210 173,206 170,210 166,218 170,210 166,218 163,227 166,218 163,227 162,237 163,227 162,237 161,248 162,237 161,248 162,259 161,248 162,259 163,269 162,259 163,269 166,278 163,269 166,278 169,286 166,278 169,286 174,293 179,298 185,302 192,304 190,308 189,311 193,312 198,318 197,321 191,325 182,326 181,338 185,339 191,339 196,339 200,338 204,336 208,334 211,331 213,328 214,324 214,320 213,315 212,310 209,307 205,305 211,304 217,302 222,299 227,295 230,291 233,285 236,278 233,285 236,278 238,269 237,269 238,269 237,269 238,269 236,278 233,285 236,278 238,269 237,269 238,269 237,269" fill="none" stroke="#f66030" stroke-width="3" /><path d="M 335,240 328,234 322,229 328,234 335,240 322,229 312,213 302,197 293,216 283,197 285,222 261,219 282,238 253,247 281,258 258,276 284,276 277,299 294,283 309,300 303,274 329,276 306,256 334,246 305,239 325,216 301,221 302,197 304,209 315,224 320,245 318,267 310,286 294,293 278,286 269,267 267,245 272,224 281,210 296,206 296,221 296,214 293,218 296,206 303,193 296,221 297,217 303,193 295,216 297,198 298,193 295,208 293,220 293,216 292,192 291,215 288,198 287,193 289,208 291,221 289,217 282,194 288,217 279,200 277,196 283,209 289,223 286,219 273,198 284,218 271,204 268,201 276,211 287,226 282,221 265,205 282,223 265,211 261,209 272,218 286,229 280,225 259,214 286,231 260,220 257,218 269,225 286,234 277,230 255,222 282,235 286,236 257,228 253,226 266,232 285,239 275,236 252,231 281,240 285,242 255,236 251,236 264,239 285,244 274,243 251,240 280,246 284,247 254,245 250,245 263,247 284,250 272,249 249,249 280,252 284,252 254,254 250,254 262,254 285,255 272,256 251,258 281,258 285,258 255,262 251,263 263,262 285,260 273,263 252,267 282,264 286,263 256,271 252,272 264,270 286,266 275,269 254,276 282,270 286,269 260,278 256,280 267,277 286,271 277,275 258,284 280,276 264,286 261,289 273,282 287,274 282,278 264,293 285,278 270,293 267,296 277,288 284,282 271,299 290,278 277,299 275,302 282,293 289,283 287,287 280,304 292,279 286,302 285,306 289,296 293,283 292,288 291,307 295,279 296,307 296,300 296,285 297,289 301,306 297,282 297,278 307,305 304,296 300,282 302,286 312,303 300,280 298,276 316,300 311,292 300,274 307,282 320,297 303,275 301,272 323,293 317,287 301,269 312,278 326,289 305,270 301,267 328,285 323,280 301,264 316,272 331,281 308,266 302,262 333,276 327,273 302,260 319,266 335,272 311,261 302,257 335,267 330,265 302,255 322,259 336,262 312,256 303,253 307,253 337,257 333,256 303,251 323,252 337,252 313,250 303,248 307,248 338,248 333,248 303,246 323,244 337,243 313,244 302,244 306,243 336,238 332,239 302,242 322,237 336,233 311,238 302,239 306,238 335,228 331,230 302,237 320,229 333,224 311,232 301,235 331,220 327,221 301,232 318,222 329,215 308,226 301,230 327,211 323,213 301,227 313,216 324,207 305,221 300,225 321,203 318,206 304,218 308,212 317,200 301,219 298,222 313,197 310,201 299,217 302,209 308,195 297,217 296,221 303,193 303,203 299,213 302,203 306,194" fill="none" stroke="#f66030" stroke-width="3" /><path d="M 296,219 296,219 298,220 300,222 302,226 303,230 304,236 303,230 302,226 300,222 298,220 296,219 296,219 300,222 302,226 303,230 304,236 303,230 304,236 305,249 304,236 305,249 304,263 303,269 302,273 300,276 294,281 289,279 287,277 285,273 284,269 283,264 284,269 283,264 283,249 283,264 283,249 283,235 284,230 285,226 287,222 294,218 296,219 294,218 296,219 294,218 291,219 289,220 287,222 285,226 284,230 283,235 284,230 285,226 287,222 289,220 291,219 294,218 296,219 294,218 296,219" fill="none" stroke="#f66030" stroke-width="3" /><path d="M 300,194 298,194 294,194 289,194 294,194 298,194 300,194 294,194 289,194 285,195 280,196 276,198 273,200 269,202 266,206 263,209 260,213 258,218 256,222 254,227 253,232 252,238 253,232 252,238 251,249 252,238 251,249 252,261 253,267 254,272 256,277 258,281 260,286 263,290 266,293 269,297 273,299 277,301 281,303 285,304 289,305 294,305 298,305 303,304 307,303 311,301 314,299 318,297 321,293 324,290 327,286 330,281 332,277 333,272 335,267 335,261 335,267 335,261 336,249 335,261 336,249 335,238 335,232 333,227 332,222 330,218 327,213 324,209 321,206 318,202 314,200 311,198 307,196 300,194 300,194 303,195 300,194 303,195 307,196 311,198 307,196 303,195 300,194 303,195 300,194 304,179 289,173 274,167 268,171 268,163 285,157 289,175 314,156 319,173 324,165 329,152 315,176 313,179 318,168 324,152 321,158 306,183 319,152 307,173 302,182 310,163 315,152 312,156 298,181 284,170 278,174 267,171 266,162 263,171 258,183 270,163 274,156 267,173 263,183 265,180 281,153 279,156 268,183 277,167 285,153 275,177 274,181 289,155 287,161 282,176 284,171 293,156 286,177 297,157 294,165 290,179 292,175 301,158 294,180 304,163 306,159 302,170 298,181 300,177 314,152 314,154 311,159 307,161 303,161 307,161 303,161 287,155 281,154 277,154 273,156 269,158 266,161 263,166 261,170 260,176 259,182 273,182 276,176 280,174 284,175 290,177 284,175 290,177 299,181 303,181 306,182 310,181 314,180 318,177 321,174 324,170 326,165 327,160 328,153 314,153 328,153 314,153 321,153 328,153 321,153 314,153" fill="none" stroke="#f66030" stroke-width="3" /><path d="M 351,260 358,257 365,253 358,257 351,260 365,253 374,249 391,247 407,246 424,245 395,241 391,251 352,250 378,264 357,281 381,280 381,302 392,283 413,292 400,273 408,281 398,291 382,293 371,285 366,268 364,251 377,241 392,246 408,246 409,235 426,243 406,246 388,249 369,252 367,261 369,274 373,286 385,292 395,292 409,286 425,280 409,273 397,269 417,280 423,284 396,271 400,273 420,289 405,280 401,277 412,288 417,293 395,274 398,278 413,297 401,284 397,280 405,293 409,300 394,278 404,303 397,288 395,285 397,296 399,305 391,279 394,306 391,289 390,285 389,296 388,307 388,303 388,281 383,306 385,286 382,295 378,305 379,301 386,280 372,304 380,287 382,283 375,292 367,301 370,298 384,278 363,298 376,284 379,281 370,287 359,294 363,292 383,276 357,290 375,279 378,277 366,281 355,285 358,283 382,273 353,280 374,274 382,271 364,274 351,276 355,275 382,269 350,271 373,268 382,266 363,266 349,266 353,266 382,264 349,261 372,262 382,262 363,259 349,256 353,257 381,260 348,251 373,256 381,258 364,252 348,246 354,248 381,255 348,242 374,251 387,255 366,245 349,237 357,240 393,255 385,251 353,234 350,232 377,245 399,255 369,238 350,227 361,232 396,251 405,255 388,245 378,238 381,240 410,255 407,252 386,238 399,245 417,255 394,237 418,252 423,255 410,246 394,233 403,239 427,254 397,230 393,228 421,247 427,250 414,240 392,222 407,233 426,247 400,225 389,215 393,218 423,241 426,243 422,234 424,241 398,220 372,200 383,215 359,214 378,234 368,223 375,209 397,221 400,216 412,224 425,232 414,230 409,211 392,211 383,211 367,217 351,224 373,235 381,239 365,229 352,220 357,222 381,235 354,216 377,228 381,231 369,222 356,212 361,215 382,227 358,208 379,221 382,223 373,215 361,205 366,208 383,220 364,202 383,215 386,217 378,209 367,199 371,201 403,225 426,243 396,218 370,196 389,211 420,235 426,240 413,229 383,202 375,195 378,198 406,221 425,236 400,213 379,194 393,206 422,230 425,232 417,220 419,216 393,198 420,225 408,209 410,207 416,208 414,205 416,208 414,205 419,215 421,218 399,195 405,202 424,225 410,211 392,194 416,220 424,229 421,226 393,200 385,193 400,208 425,232 410,220 395,207 379,194 406,216 425,232 417,226 410,220 417,226 425,232" fill="none" stroke="#f66030" stroke-width="3" /><path d="M 395,233 395,233 395,238 395,233 395,238 395,233 395,233 395,238 395,233 395,238 379,238 395,238 379,238 380,228 383,217 389,216 393,220 394,226 395,233 394,226 395,233 394,226 395,233 394,226 395,233" fill="none" stroke="#f66030" stroke-width="3" /><path d="M 395,254 402,254 410,254 402,254 395,254 410,254 395,254 410,254 425,254 425,244 425,254 425,244 425,233 425,244 425,233 423,223 421,218 419,214 417,210 415,207 409,201 406,199 403,197 400,195 396,194 392,194 388,194 384,194 380,194 376,196 372,197 368,199 365,201 362,204 360,207 357,211 355,215 353,220 352,225 353,220 352,225 350,236 352,225 350,236 349,248 350,236 349,248 350,262 349,248 350,262 352,273 353,278 355,283 357,287 359,291 361,294 364,297 367,300 371,302 374,303 378,304 383,305 387,305 394,305 399,304 405,302 410,299 414,295 418,290 421,285 424,279 411,274 424,279 411,274 399,269 397,275 392,282 386,282 381,277 380,274 380,269 380,274 380,269 379,254 380,269 379,254 395,254 379,254 395,254 387,254 379,254 387,254 395,254" fill="none" stroke="#f66030" stroke-width="3" /><path d="M 439,229 448,223 456,217 448,223 439,229 457,217 469,209 482,203 478,199 486,210 493,218 495,222 489,199 461,214 469,200 448,213 444,204 466,199 460,226 454,253 479,243 475,284 483,286 490,291 495,260 458,295 463,285 456,281 447,281 440,276 455,276 457,300 455,304 461,294 452,292 446,290 438,274 443,272 437,283 447,272 439,287 437,291 446,280 452,272 437,298 439,295 456,272 446,291 438,304 453,284 460,273 458,277 443,304 445,300 462,278 452,295 447,304 460,288 465,281 452,304 468,283 460,298 465,291 473,281 471,285 462,300 475,295 483,293 492,293 488,301 485,303 499,278 494,284 479,305 487,292 500,269 479,298 474,305 493,272 499,263 487,280 470,304 480,288 497,257 495,261 472,295 466,304 468,300 487,268 495,254 480,276 463,301 473,284 492,250 487,257 473,277 480,264 490,247 473,269 471,272 485,247 487,244 480,253 467,270 473,260 484,241 467,264 464,267 479,243 481,239 473,249 461,265 466,257 477,237 458,262 472,238 474,234 466,245 455,259 459,253 471,232 453,256 466,233 468,229 459,241 450,253 452,249 465,226 447,250 459,229 463,223 452,237 444,248 446,244 463,214 460,211 462,207 474,209 481,212 488,212 477,200 478,196 475,205 489,209 496,221 497,224 492,226 494,222 498,215 488,226 498,207 493,214 483,226 486,222 498,199 479,226 492,202 496,195 486,210 475,225 479,218 492,195 473,220 485,199 487,195 479,206 471,217 473,213 483,195 467,215 475,201 472,204 462,217 465,210 472,199 459,218 441,245 452,225 469,196 467,199 444,232 439,240 459,206 465,195 452,214 438,235 445,222 461,194 459,197 439,226 436,230 452,202 457,194 445,204 448,198 452,196 444,209 437,221 451,202 457,194 438,226 436,230 437,228 437,234 438,238 440,242 443,247 448,252 454,257 448,252 454,257 468,268 472,272 474,281 468,285 465,284 462,282 460,278 459,273 448,273 459,273 448,273 437,273 437,288 437,274 437,288 437,302 448,302 438,302 448,302 459,302 459,295 464,300 467,302 471,304 477,304 482,303 486,302 490,299 494,296 496,292 498,287 500,281 500,275 500,270 499,266 498,262 496,258 492,251 488,246 482,242 488,246 482,242 475,237 482,242 475,237 467,231 463,227 461,224 461,221 465,214 470,214 473,216 475,219 476,224 487,224 476,224 487,224 498,224 498,210 498,224 498,210 497,197 487,197 497,197 487,197 476,197 476,203 472,200 468,197 464,195 460,195 455,195 450,197 446,200 442,203 440,208 438,213 436,218 436,225 436,229 436,225 436,229 436,225 436,229 436,225 436,218 438,213 436,218 436,225 436,229 436,225 436,229" fill="none" stroke="#f66030" stroke-width="3" /></svg>